0
SECTION
2
HEADER
9
$INSUNITS
70
4
0
ENDSEC
0
SECTION
2
TABLES
0
TABLE
2
LTYPE
0
LTYPE
72
65
70
64
2
CONTINUOUS
3
______
73
0
40
0
0
ENDTAB
0
TABLE
2
LAYER
0
ENDTAB
0
ENDSEC
0
SECTION
2
ENTITIES
0
LINE
8
0
10
85.3375588
20
-58.5556058
11
89.7367747
21
-100.411349
0
LINE
8
0
10
90.1213428
20
-57.0473015
11
86.2275522
21
-57.4565554
0
LINE
8
0
10
123.7783532
20
-38.9742453
11
119.7704378
21
-39.1842912
0
LINE
8
0
10
145.3983667
20
-39.1842912
11
145.3983667
21
-36.4342912
0
LINE
8
0
10
144.3983667
20
-35.4342912
11
125.8983667
21
-35.4342912
0
LINE
8
0
10
124.8983667
20
-36.4342912
11
124.8983667
21
-39.1658909
0
ARC
8
0
10
144.3983667
20
-36.4342912
40
1
50
0
51
90
0
ARC
8
0
10
125.8983667
20
-36.4342912
40
1
50
90
51
180
0
ARC
8
0
10
123.8306892
20
-39.9728748
40
1
50
52.0533413
51
93.0000026
0
ARC
8
0
10
86.3320807
20
-58.4510773
40
1
50
96.0000021
51
186.0000021
0
LINE
8
0
10
124.5472684
20
-39.1842912
11
124.8983667
21
-39.1658909
0
LINE
8
0
10
92.1101072
20
-116.6842912
11
165.9503019
21
-116.6842912
0
LINE
8
0
10
166.175253
20
-116.7099211
11
182.7155249
21
-120.5285438
0
LINE
8
0
10
182.9289449
20
-120.6041199
11
199.7927104
21
-128.8291278
0
LINE
8
0
10
201.1298755
20
-128.3687049
11
208.5821851
21
-113.089206
0
LINE
8
0
10
208.1217622
20
-111.7520409
11
202.9483666
21
-109.2288073
0
ARC
8
0
10
165.9503019
20
-117.6842912
40
1
50
76.9999979
51
90
0
ARC
8
0
10
182.4905738
20
-121.5029139
40
1
50
64.0000012
51
76.9999979
0
ARC
8
0
10
200.2310815
20
-127.9303338
40
1
50
244.0000012
51
334.0000012
0
ARC
8
0
10
207.6833911
20
-112.6508349
40
1
50
334.0000012
51
64.0000012
0
ARC
8
0
10
191.5050981
20
-104.7601542
40
1
50
64.025626
51
108.3913756
0
LINE
8
0
10
191.0446752
20
-103.4229891
11
191.1895919
21
-103.8112307
0
LINE
8
0
10
184.1483667
20
-57.1842911
11
202.4483666
21
-57.1842911
0
ARC
8
0
10
202.4483666
20
-57.6842911
40
0.5
50
360
51
90
0
LINE
8
0
10
202.9483666
20
-57.6842911
11
202.9483666
21
-109.2288073
0
LINE
8
0
10
191.0446752
20
-103.4229891
11
191.9430672
21
-103.8611642
0
LINE
8
0
10
91.1141023
20
-115.7735897
11
89.7367747
21
-100.411349
0
ARC
8
0
10
92.1101072
20
-115.6842912
40
1
50
185.1232516
51
270
0
LINE
8
0
10
90.1213428
20
-57.0473015
11
90.1468562
21
-40.1827784
0
LINE
8
0
10
91.1468551
20
-39.1842912
11
119.7704378
21
-39.1842912
0
LINE
8
0
10
145.3983667
20
-39.1842912
11
183.1483667
21
-39.1842912
0
LINE
8
0
10
124.4456168
20
-39.1842912
11
124.5472684
21
-39.1842912
0
LINE
8
0
10
184.1483667
20
-40.1842912
11
184.1483667
21
-57.1842911
0
ARC
8
0
10
91.1468551
20
-40.1842912
40
1
50
90
51
179.9133229
0
ARC
8
0
10
183.1483667
20
-40.1842912
40
1
50
0
51
90
0
CIRCLE
8
0
10
94.2509345
20
-45.3012958
40
1.8
0
CIRCLE
8
0
10
181.1483666
20
-42.6842911
40
1.8
0
CIRCLE
8
0
10
135.1483667
20
-91.6842912
40
1.8
0
CIRCLE
8
0
10
198.6292952
20
-101.5592457
40
1.8
0
CIRCLE
8
0
10
94.3449525
20
-113.1632229
40
1.8
0
ENDSEC
0
EOF