0
SECTION
2
HEADER
9
$INSUNITS
70
4
0
ENDSEC
0
SECTION
2
TABLES
0
TABLE
2
LTYPE
0
LTYPE
72
65
70
64
2
CONTINUOUS
3
______
73
0
40
0
0
ENDTAB
0
TABLE
2
LAYER
0
ENDTAB
0
ENDSEC
0
SECTION
2
ENTITIES
0
LINE
8
0
10
85.6123213
20
-58.7781041
11
90.1483667
21
-101.9356931
0
LINE
8
0
10
90.3417197
20
-103.7753248
11
91.604389
21
-115.7888197
0
LINE
8
0
10
86.5023147
20
-57.6790537
11
90.1483667
21
-57.2958382
0
LINE
8
0
10
124.547268
20
-39.1842912
11
125.1483667
21
-39.152789
0
LINE
8
0
10
145.1483667
20
-39.1842912
11
145.1483667
21
-36.6842912
0
LINE
8
0
10
144.1483667
20
-35.6842912
11
126.1483667
21
-35.6842912
0
LINE
8
0
10
125.1483667
20
-36.6842912
11
125.1483667
21
-39.152789
0
ARC
8
0
10
144.1483667
20
-36.6842912
40
1
50
0
51
90
0
ARC
8
0
10
126.1483667
20
-36.6842912
40
1
50
90
51
180
0
ARC
8
0
10
86.6068432
20
-58.6735756
40
1
50
96.0000021
51
186.0000021
0
LINE
8
0
10
144.1483666
20
-116.6842912
11
165.9503019
21
-116.6842912
0
LINE
8
0
10
166.175253
20
-116.7099211
11
182.7155249
21
-120.5285438
0
LINE
8
0
10
182.9289449
20
-120.6041199
11
199.7927104
21
-128.8291278
0
LINE
8
0
10
201.1298755
20
-128.3687049
11
208.5821851
21
-113.089206
0
LINE
8
0
10
208.1217622
20
-111.7520409
11
202.4483666
21
-108.984941
0
ARC
8
0
10
165.9503019
20
-117.6842912
40
1
50
76.9999979
51
90
0
ARC
8
0
10
182.4905738
20
-121.5029139
40
1
50
64.0000012
51
76.9999979
0
ARC
8
0
10
200.2310815
20
-127.9303338
40
1
50
244.0000012
51
334.0000012
0
ARC
8
0
10
207.6833911
20
-112.6508349
40
1
50
334.0000012
51
64.0000012
0
LINE
8
0
10
184.1483667
20
-57.6842911
11
201.4483666
21
-57.6842911
0
LINE
8
0
10
202.4483666
20
-108.984941
11
202.4483666
21
-58.6842911
0
ARC
8
0
10
201.4483666
20
-58.6842911
40
1
50
0
51
90
0
LINE
8
0
10
112.1483666
20
-116.6842912
11
92.5989109
21
-116.6842912
0
ARC
8
0
10
92.5989109
20
-115.6842912
40
1
50
186.0000021
51
270
0
LINE
8
0
10
90.1483667
20
-103.1842912
11
90.1483667
21
-101.9356931
0
LINE
8
0
10
90.1483667
20
-57.2958382
11
90.1483667
21
-40.1842912
0
LINE
8
0
10
91.1483667
20
-39.1842912
11
124.547268
21
-39.1842912
0
LINE
8
0
10
145.1483667
20
-39.1842912
11
183.1483667
21
-39.1842912
0
LINE
8
0
10
184.1483667
20
-40.1842912
11
184.1483667
21
-57.6842911
0
ARC
8
0
10
91.1483667
20
-40.1842912
40
1
50
90
51
180
0
ARC
8
0
10
183.1483667
20
-40.1842912
40
1
50
0
51
90
0
ARC
8
0
10
91.1483667
20
-103.1842912
40
1
50
180
51
216.2303879
0
ARC
8
0
10
113.1483666
20
-116.6842912
40
1
50
180
51
270
0
LINE
8
0
10
113.1483666
20
-117.6842912
11
143.1483666
21
-117.6842912
0
ARC
8
0
10
143.1483666
20
-116.6842912
40
1
50
270
51
360
0
CIRCLE
8
0
10
135.1483667
20
-91.6842912
40
1.8
0
CIRCLE
8
0
10
198.6292952
20
-101.5592457
40
1.8
0
CIRCLE
8
0
10
94.3972168
20
-113.6604839
40
1.8
0
ENDSEC
0
EOF