0
SECTION
2
HEADER
9
$INSUNITS
70
4
0
ENDSEC
0
SECTION
2
TABLES
0
TABLE
2
LTYPE
0
LTYPE
72
65
70
64
2
CONTINUOUS
3
______
73
0
40
0
0
ENDTAB
0
TABLE
2
LAYER
0
ENDTAB
0
ENDSEC
0
SECTION
2
ENTITIES
0
LINE
8
0
10
85.6123213
20
-58.7781041
11
91.604389
21
-115.7888197
0
LINE
8
0
10
86.5023147
20
-57.6790537
11
88.7634041
21
-57.4414037
0
LINE
8
0
10
145.1483667
20
-37.6842912
11
145.1483667
21
-36.6842912
0
LINE
8
0
10
144.1483667
20
-35.6842912
11
126.1483667
21
-35.6842912
0
LINE
8
0
10
125.1483667
20
-36.6842912
11
125.1483667
21
-37.6842912
0
LINE
8
0
10
181.1483666
20
-54.6842911
11
181.1483666
21
-50.6842911
0
LINE
8
0
10
181.1483666
20
-48.1842911
11
181.1483666
21
-39.6842912
0
LINE
8
0
10
92.5989109
20
-116.6842912
11
165.9503019
21
-116.6842912
0
LINE
8
0
10
166.175253
20
-116.7099211
11
182.7155249
21
-120.5285438
0
LINE
8
0
10
182.9289449
20
-120.6041199
11
199.7927104
21
-128.8291278
0
LINE
8
0
10
201.1298755
20
-128.3687049
11
205.9519581
21
-118.4819704
0
LINE
8
0
10
207.047886
20
-116.2349853
11
208.5821851
21
-113.089206
0
LINE
8
0
10
203.6099955
20
-109.5515052
11
208.1217622
21
-111.7520409
0
LINE
8
0
10
182.1483666
20
-55.6842911
11
202.0483666
21
-55.6842911
0
LINE
8
0
10
203.0483666
20
-56.6842911
11
203.0483666
21
-108.6527112
0
LINE
8
0
10
89.6588362
20
-56.4380059
11
89.510205
21
-39.6931671
0
LINE
8
0
10
90.5101656
20
-38.6842912
11
124.1483667
21
-38.6842912
0
LINE
8
0
10
146.1483667
20
-38.6842912
11
180.1483666
21
-38.6842912
0
ARC
8
0
10
92.5989109
20
-115.6842912
40
1
50
186.0000021
51
270
0
ARC
8
0
10
165.9503019
20
-117.6842912
40
1
50
76.9999979
51
90
0
ARC
8
0
10
182.4905738
20
-121.5029139
40
1
50
64.0000012
51
76.9999979
0
ARC
8
0
10
200.2310815
20
-127.9303338
40
1
50
244.0000012
51
334.0000012
0
ARC
8
0
10
207.6833911
20
-112.6508349
40
1
50
334.0000012
51
64.0000012
0
ARC
8
0
10
204.0483666
20
-108.6527112
40
1
50
180
51
244.0000012
0
ARC
8
0
10
202.0483666
20
-56.6842911
40
1
50
0
51
90
0
ARC
8
0
10
182.1483666
20
-54.6842911
40
1
50
180
51
270
0
ARC
8
0
10
180.1483666
20
-39.6842912
40
1
50
0
51
90
0
ARC
8
0
10
146.1483667
20
-37.6842912
40
1
50
180
51
270
0
ARC
8
0
10
144.1483667
20
-36.6842912
40
1
50
0
51
90
0
ARC
8
0
10
126.1483667
20
-36.6842912
40
1
50
90
51
180
0
ARC
8
0
10
124.1483667
20
-37.6842912
40
1
50
270
51
0
0
ARC
8
0
10
90.5101656
20
-39.6842912
40
1
50
90
51
180.5085583
0
ARC
8
0
10
88.6588756
20
-56.4468818
40
1
50
276.0000021
51
0.5085583
0
ARC
8
0
10
86.6068432
20
-58.6735756
40
1
50
96.0000021
51
186.0000021
0
CIRCLE
8
0
10
92.50125
20
-44.6842912
40
1.1
0
CIRCLE
8
0
10
178.1483666
20
-41.1842912
40
1.1
0
CIRCLE
8
0
10
135.1483667
20
-91.6842912
40
1.1
0
CIRCLE
8
0
10
199.5280893
20
-101.9976169
40
1.1
0
CIRCLE
8
0
10
94.6985068
20
-113.6842912
40
1.1
0
CIRCLE
8
0
10
100
20
-100
40
1.9
0
CIRCLE
8
0
10
98.2230161
20
-83.0931278
40
1.9
0
CIRCLE
8
0
10
96.4460322
20
-66.1862556
40
1.9
0
CIRCLE
8
0
10
116.8307281
20
-83.148395
40
1.9
0
CIRCLE
8
0
10
115.9410168
20
-66.1716929
40
1.9
0
CIRCLE
8
0
10
115.0513055
20
-49.1949908
40
1.9
0
CIRCLE
8
0
10
135.1483667
20
-79.1842912
40
1.9
0
CIRCLE
8
0
10
135.1483667
20
-62.1842912
40
1.9
0
CIRCLE
8
0
10
135.1483667
20
-45.1842912
40
1.9
0
CIRCLE
8
0
10
153.1483666
20
-85.1842912
40
1.9
0
CIRCLE
8
0
10
153.1483666
20
-68.1842912
40
1.9
0
CIRCLE
8
0
10
153.1483666
20
-51.1842912
40
1.9
0
CIRCLE
8
0
10
171.1483666
20
-87.1842911
40
1.9
0
CIRCLE
8
0
10
171.1483666
20
-70.1842911
40
1.9
0
CIRCLE
8
0
10
171.1483666
20
-53.1842911
40
1.9
0
CIRCLE
8
0
10
157.1483666
20
-107.1842912
40
1.9
0
CIRCLE
8
0
10
177.0819429
20
-109.4780398
40
1.9
0
CIRCLE
8
0
10
195.8680898
20
-116.345244
40
1.9
0
ARC
8
0
10
105.4698704
20
-99.4250935
40
1
50
185.9743774
51
366.0000015
0
ARC
8
0
10
103.6928865
20
-82.5182213
40
1
50
185.9743774
51
366.0000015
0
ARC
8
0
10
101.9159026
20
-65.6113491
40
1
50
185.9743774
51
366.0000015
0
ARC
8
0
10
122.3231905
20
-82.8605472
40
1
50
183.0000026
51
362.9999966
0
ARC
8
0
10
121.4334792
20
-65.8838451
40
1
50
183.0000026
51
362.9999966
0
ARC
8
0
10
120.5437679
20
-48.907143
40
1
50
183.0000026
51
362.9999966
0
ARC
8
0
10
140.6483667
20
-79.1842912
40
1
50
180
51
360
0
ARC
8
0
10
140.6483667
20
-62.1842912
40
1
50
180
51
360
0
ARC
8
0
10
140.6483667
20
-45.1842912
40
1
50
180
51
360
0
ARC
8
0
10
158.6483666
20
-85.1842912
40
1
50
180
51
360
0
ARC
8
0
10
158.6483666
20
-68.1842912
40
1
50
180
51
360
0
ARC
8
0
10
158.6483666
20
-51.1842912
40
1
50
180
51
360
0
ARC
8
0
10
176.6483666
20
-87.1842911
40
1
50
180
51
360
0
ARC
8
0
10
176.6483666
20
-70.1842911
40
1
50
180
51
360
0
ARC
8
0
10
176.6483666
20
-53.1842911
40
1
50
180
51
360
0
ARC
8
0
10
162.6483666
20
-107.1842912
40
1
50
180
51
360
0
ARC
8
0
10
182.4409783
20
-110.7152706
40
1
50
166.9999979
51
347.0256228
0
ARC
8
0
10
200.8114571
20
-118.7562853
40
1
50
154.0000038
51
333.9999961
0
CIRCLE
8
0
10
94.5301296
20
-100.5749065
40
1
0
CIRCLE
8
0
10
92.7531457
20
-83.6680343
40
1
0
CIRCLE
8
0
10
90.9761618
20
-66.7611621
40
1
0
CIRCLE
8
0
10
111.3382657
20
-83.4362428
40
1
0
CIRCLE
8
0
10
110.4485544
20
-66.4595407
40
1
0
CIRCLE
8
0
10
109.5588431
20
-49.4828386
40
1
0
CIRCLE
8
0
10
129.6483667
20
-79.1842912
40
1
0
CIRCLE
8
0
10
129.6483667
20
-62.1842912
40
1
0
CIRCLE
8
0
10
129.6483667
20
-45.1842912
40
1
0
CIRCLE
8
0
10
147.6483666
20
-85.1842912
40
1
0
CIRCLE
8
0
10
147.6483666
20
-68.1842912
40
1
0
CIRCLE
8
0
10
147.6483666
20
-51.1842912
40
1
0
CIRCLE
8
0
10
165.6483666
20
-87.1842911
40
1
0
CIRCLE
8
0
10
165.6483666
20
-70.1842911
40
1
0
CIRCLE
8
0
10
165.6483666
20
-53.1842911
40
1
0
CIRCLE
8
0
10
151.6483666
20
-107.1842912
40
1
0
CIRCLE
8
0
10
171.7229075
20
-108.240809
40
1
0
CIRCLE
8
0
10
190.9247225
20
-113.9342027
40
1
0
LINE
8
0
10
96.9305737
20
-97.1049832
11
100.4114003
21
-96.7391336
0
LINE
8
0
10
101.8255375
20
-91.0602062
11
96.3556671
21
-91.6351128
0
LINE
8
0
10
96.3556671
20
-91.6351128
11
96.5124599
21
-93.1268956
0
LINE
8
0
10
96.773781
20
-95.6132003
11
96.9305737
21
-97.1049832
0
LINE
8
0
10
95.1535898
20
-80.198111
11
98.6344164
21
-79.8322614
0
LINE
8
0
10
100.0485536
20
-74.153334
11
94.5786832
21
-74.7282406
0
LINE
8
0
10
94.5786832
20
-74.7282406
11
94.735476
21
-76.2200234
0
LINE
8
0
10
94.9967971
20
-78.7063281
11
95.1535898
21
-80.198111
0
LINE
8
0
10
93.3766059
20
-63.2912388
11
96.8574325
21
-62.9253892
0
LINE
8
0
10
98.2715697
20
-57.2464618
11
92.8016993
21
-57.8213684
0
LINE
8
0
10
92.8016993
20
-57.8213684
11
92.9584921
21
-59.3131512
0
LINE
8
0
10
93.2198132
20
-61.7994559
11
93.3766059
21
-63.2912388
0
LINE
8
0
10
113.9170219
20
-80.0967044
11
117.4122252
21
-79.9135285
0
LINE
8
0
10
119.1216365
20
-74.3163942
11
113.6291741
21
-74.604242
0
LINE
8
0
10
113.6291741
20
-74.604242
11
113.707678
21
-76.1021862
0
LINE
8
0
10
113.8385179
20
-78.5987601
11
113.9170219
21
-80.0967044
0
LINE
8
0
10
113.0273106
20
-63.1200023
11
116.5225139
21
-62.9368264
0
LINE
8
0
10
118.2319252
20
-57.3396921
11
112.7394628
21
-57.6275399
0
LINE
8
0
10
112.7394628
20
-57.6275399
11
112.8179667
21
-59.1254841
0
LINE
8
0
10
112.9488066
20
-61.622058
11
113.0273106
21
-63.1200023
0
LINE
8
0
10
112.1375993
20
-46.1433002
11
115.6328026
21
-45.9601243
0
LINE
8
0
10
117.3422139
20
-40.36299
11
111.8497515
21
-40.6508378
0
LINE
8
0
10
111.8497515
20
-40.6508378
11
111.9282554
21
-42.148782
0
LINE
8
0
10
112.0590953
20
-44.6453559
11
112.1375993
21
-46.1433002
0
LINE
8
0
10
132.3983667
20
-75.9842912
11
135.8983667
21
-75.9842912
0
LINE
8
0
10
137.8983667
20
-70.4842912
11
132.3983667
21
-70.4842912
0
LINE
8
0
10
132.3983667
20
-70.4842912
11
132.3983667
21
-71.9842912
0
LINE
8
0
10
132.3983667
20
-74.4842912
11
132.3983667
21
-75.9842912
0
LINE
8
0
10
132.3983667
20
-58.9842912
11
135.8983667
21
-58.9842912
0
LINE
8
0
10
137.8983667
20
-53.4842912
11
132.3983667
21
-53.4842912
0
LINE
8
0
10
132.3983667
20
-53.4842912
11
132.3983667
21
-54.9842912
0
LINE
8
0
10
132.3983667
20
-57.4842912
11
132.3983667
21
-58.9842912
0
LINE
8
0
10
132.3983667
20
-41.9842912
11
135.8983667
21
-41.9842912
0
LINE
8
0
10
137.8983667
20
-36.4842912
11
132.3983667
21
-36.4842912
0
LINE
8
0
10
132.3983667
20
-36.4842912
11
132.3983667
21
-37.9842912
0
LINE
8
0
10
132.3983667
20
-40.4842912
11
132.3983667
21
-41.9842912
0
LINE
8
0
10
150.3983666
20
-81.9842912
11
153.8983666
21
-81.9842912
0
LINE
8
0
10
155.8983666
20
-76.4842912
11
150.3983666
21
-76.4842912
0
LINE
8
0
10
150.3983666
20
-76.4842912
11
150.3983666
21
-77.9842912
0
LINE
8
0
10
150.3983666
20
-80.4842912
11
150.3983666
21
-81.9842912
0
LINE
8
0
10
150.3983666
20
-64.9842912
11
153.8983666
21
-64.9842912
0
LINE
8
0
10
155.8983666
20
-59.4842912
11
150.3983666
21
-59.4842912
0
LINE
8
0
10
150.3983666
20
-59.4842912
11
150.3983666
21
-60.9842912
0
LINE
8
0
10
150.3983666
20
-63.4842912
11
150.3983666
21
-64.9842912
0
LINE
8
0
10
150.3983666
20
-47.9842912
11
153.8983666
21
-47.9842912
0
LINE
8
0
10
155.8983666
20
-42.4842912
11
150.3983666
21
-42.4842912
0
LINE
8
0
10
150.3983666
20
-42.4842912
11
150.3983666
21
-43.9842912
0
LINE
8
0
10
150.3983666
20
-46.4842912
11
150.3983666
21
-47.9842912
0
LINE
8
0
10
168.3983666
20
-83.9842911
11
171.8983666
21
-83.9842911
0
LINE
8
0
10
173.8983666
20
-78.4842911
11
168.3983666
21
-78.4842911
0
LINE
8
0
10
168.3983666
20
-78.4842911
11
168.3983666
21
-79.9842911
0
LINE
8
0
10
168.3983666
20
-82.4842911
11
168.3983666
21
-83.9842911
0
LINE
8
0
10
168.3983666
20
-66.9842911
11
171.8983666
21
-66.9842911
0
LINE
8
0
10
173.8983666
20
-61.4842911
11
168.3983666
21
-61.4842911
0
LINE
8
0
10
168.3983666
20
-61.4842911
11
168.3983666
21
-62.9842911
0
LINE
8
0
10
168.3983666
20
-65.4842911
11
168.3983666
21
-66.9842911
0
LINE
8
0
10
168.3983666
20
-49.9842911
11
171.8983666
21
-49.9842911
0
LINE
8
0
10
173.8983666
20
-44.4842911
11
168.3983666
21
-44.4842911
0
LINE
8
0
10
168.3983666
20
-44.4842911
11
168.3983666
21
-45.9842911
0
LINE
8
0
10
168.3983666
20
-48.4842911
11
168.3983666
21
-49.9842911
0
LINE
8
0
10
154.3983666
20
-103.9842912
11
157.8983666
21
-103.9842912
0
LINE
8
0
10
159.8983666
20
-98.4842912
11
154.3983666
21
-98.4842912
0
LINE
8
0
10
154.3983666
20
-98.4842912
11
154.3983666
21
-99.9842912
0
LINE
8
0
10
154.3983666
20
-102.4842912
11
154.3983666
21
-103.9842912
0
LINE
8
0
10
175.1222686
20
-105.7414402
11
178.5325638
21
-106.5287689
0
LINE
8
0
10
181.7185348
20
-101.6196356
11
176.3594994
21
-100.3824048
0
LINE
8
0
10
176.3594994
20
-100.3824048
11
176.0220728
21
-101.8439599
0
LINE
8
0
10
175.4596952
20
-104.2798851
11
175.1222686
21
-105.7414402
0
LINE
8
0
10
194.7991938
20
-112.2635824
11
197.944973
21
-113.7978814
0
LINE
8
0
10
202.1536024
20
-109.7312564
11
197.2102351
21
-107.3202151
0
LINE
8
0
10
197.2102351
20
-107.3202151
11
196.5526784
21
-108.6684062
0
LINE
8
0
10
195.4567505
20
-110.9153913
11
194.7991938
21
-112.2635824
0
LINE
8
0
10
94.0885719
20
-95.8954272
11
96.773781
21
-95.6132003
0
LINE
8
0
10
96.5124599
20
-93.1268956
11
93.8272508
21
-93.4091225
0
LINE
8
0
10
93.8272508
20
-93.4091225
11
94.0885719
21
-95.8954272
0
LINE
8
0
10
92.311588
20
-78.988555
11
94.9967971
21
-78.7063281
0
LINE
8
0
10
94.735476
20
-76.2200234
11
92.0502669
21
-76.5022503
0
LINE
8
0
10
92.0502669
20
-76.5022503
11
92.311588
21
-78.988555
0
LINE
8
0
10
90.5346041
20
-62.0816828
11
93.2198132
21
-61.7994559
0
LINE
8
0
10
92.9584921
20
-59.3131512
11
90.273283
21
-59.5953781
0
LINE
8
0
10
90.273283
20
-59.5953781
11
90.5346041
21
-62.0816828
0
LINE
8
0
10
111.1422182
20
-78.7400672
11
113.8385179
21
-78.5987601
0
LINE
8
0
10
113.707678
20
-76.1021862
11
111.0113783
21
-76.2434933
0
LINE
8
0
10
111.0113783
20
-76.2434933
11
111.1422182
21
-78.7400672
0
LINE
8
0
10
110.2525069
20
-61.7633651
11
112.9488066
21
-61.622058
0
LINE
8
0
10
112.8179667
20
-59.1254841
11
110.121667
21
-59.2667912
0
LINE
8
0
10
110.121667
20
-59.2667912
11
110.2525069
21
-61.7633651
0
LINE
8
0
10
109.3627956
20
-44.786663
11
112.0590953
21
-44.6453559
0
LINE
8
0
10
111.9282554
20
-42.148782
11
109.2319557
21
-42.2900891
0
LINE
8
0
10
109.2319557
20
-42.2900891
11
109.3627956
21
-44.786663
0
LINE
8
0
10
129.6983667
20
-74.4842912
11
132.3983667
21
-74.4842912
0
LINE
8
0
10
132.3983667
20
-71.9842912
11
129.6983667
21
-71.9842912
0
LINE
8
0
10
129.6983667
20
-71.9842912
11
129.6983667
21
-74.4842912
0
LINE
8
0
10
129.6983667
20
-57.4842912
11
132.3983667
21
-57.4842912
0
LINE
8
0
10
132.3983667
20
-54.9842912
11
129.6983667
21
-54.9842912
0
LINE
8
0
10
129.6983667
20
-54.9842912
11
129.6983667
21
-57.4842912
0
LINE
8
0
10
129.6983667
20
-40.4842912
11
132.3983667
21
-40.4842912
0
LINE
8
0
10
132.3983667
20
-37.9842912
11
129.6983667
21
-37.9842912
0
LINE
8
0
10
129.6983667
20
-37.9842912
11
129.6983667
21
-40.4842912
0
LINE
8
0
10
147.6983666
20
-80.4842912
11
150.3983666
21
-80.4842912
0
LINE
8
0
10
150.3983666
20
-77.9842912
11
147.6983666
21
-77.9842912
0
LINE
8
0
10
147.6983666
20
-77.9842912
11
147.6983666
21
-80.4842912
0
LINE
8
0
10
147.6983666
20
-63.4842912
11
150.3983666
21
-63.4842912
0
LINE
8
0
10
150.3983666
20
-60.9842912
11
147.6983666
21
-60.9842912
0
LINE
8
0
10
147.6983666
20
-60.9842912
11
147.6983666
21
-63.4842912
0
LINE
8
0
10
147.6983666
20
-46.4842912
11
150.3983666
21
-46.4842912
0
LINE
8
0
10
150.3983666
20
-43.9842912
11
147.6983666
21
-43.9842912
0
LINE
8
0
10
147.6983666
20
-43.9842912
11
147.6983666
21
-46.4842912
0
LINE
8
0
10
165.6983666
20
-82.4842911
11
168.3983666
21
-82.4842911
0
LINE
8
0
10
168.3983666
20
-79.9842911
11
165.6983666
21
-79.9842911
0
LINE
8
0
10
165.6983666
20
-79.9842911
11
165.6983666
21
-82.4842911
0
LINE
8
0
10
165.6983666
20
-65.4842911
11
168.3983666
21
-65.4842911
0
LINE
8
0
10
168.3983666
20
-62.9842911
11
165.6983666
21
-62.9842911
0
LINE
8
0
10
165.6983666
20
-62.9842911
11
165.6983666
21
-65.4842911
0
LINE
8
0
10
165.6983666
20
-48.4842911
11
168.3983666
21
-48.4842911
0
LINE
8
0
10
168.3983666
20
-45.9842911
11
165.6983666
21
-45.9842911
0
LINE
8
0
10
165.6983666
20
-45.9842911
11
165.6983666
21
-48.4842911
0
LINE
8
0
10
151.6983666
20
-102.4842912
11
154.3983666
21
-102.4842912
0
LINE
8
0
10
154.3983666
20
-99.9842912
11
151.6983666
21
-99.9842912
0
LINE
8
0
10
151.6983666
20
-99.9842912
11
151.6983666
21
-102.4842912
0
LINE
8
0
10
172.828896
20
-103.6725173
11
175.4596952
21
-104.2798851
0
LINE
8
0
10
176.0220728
20
-101.8439599
11
173.3912736
21
-101.2365921
0
LINE
8
0
10
173.3912736
20
-101.2365921
11
172.828896
21
-103.6725173
0
LINE
8
0
10
193.0300066
20
-109.7317892
11
195.4567505
21
-110.9153913
0
LINE
8
0
10
196.5526784
20
-108.6684062
11
194.1259345
21
-107.4848041
0
LINE
8
0
10
194.1259345
20
-107.4848041
11
193.0300066
21
-109.7317892
0
LINE
8
0
10
102.1331458
20
-98.7702891
11
104.3708201
21
-98.5351
0
LINE
8
0
10
106.3598639
20
-98.3260431
11
107.6030162
21
-98.1953825
0
LINE
8
0
10
107.6030162
20
-98.1953825
11
107.4462235
21
-96.7035997
0
LINE
8
0
10
107.1849024
20
-94.217295
11
107.0281096
21
-92.7255121
0
LINE
8
0
10
107.0281096
20
-92.7255121
11
103.547283
21
-93.0913617
0
LINE
8
0
10
100.3561619
20
-81.8634169
11
102.5938362
21
-81.6282278
0
LINE
8
0
10
104.58288
20
-81.4191709
11
105.8260323
21
-81.2885103
0
LINE
8
0
10
105.8260323
20
-81.2885103
11
105.6692396
21
-79.7967275
0
LINE
8
0
10
105.4079185
20
-77.3104228
11
105.2511257
21
-75.8186399
0
LINE
8
0
10
105.2511257
20
-75.8186399
11
101.7702991
21
-76.1844895
0
LINE
8
0
10
98.579178
20
-64.9565447
11
100.8168523
21
-64.7213556
0
LINE
8
0
10
102.8058961
20
-64.5122987
11
104.0490484
21
-64.3816381
0
LINE
8
0
10
104.0490484
20
-64.3816381
11
103.8922557
21
-62.8898553
0
LINE
8
0
10
103.6309346
20
-60.4035506
11
103.4741418
21
-58.9117677
0
LINE
8
0
10
103.4741418
20
-58.9117677
11
99.9933152
21
-59.2776173
0
LINE
8
0
10
119.0253086
20
-82.0320096
11
121.2722251
21
-81.9142537
0
LINE
8
0
10
123.2694842
20
-81.8095818
11
124.517771
21
-81.7441618
0
LINE
8
0
10
124.517771
20
-81.7441618
11
124.4392671
21
-80.2462175
0
LINE
8
0
10
124.3084272
20
-77.7496436
11
124.2299232
21
-76.2516994
0
LINE
8
0
10
124.2299232
20
-76.2516994
11
120.7347199
21
-76.4348752
0
LINE
8
0
10
118.1355973
20
-65.0553075
11
120.3825138
21
-64.9375516
0
LINE
8
0
10
122.3797729
20
-64.8328797
11
123.6280597
21
-64.7674597
0
LINE
8
0
10
123.6280597
20
-64.7674597
11
123.5495558
21
-63.2695154
0
LINE
8
0
10
123.4187159
20
-60.7729415
11
123.3402119
21
-59.2749973
0
LINE
8
0
10
123.3402119
20
-59.2749973
11
119.8450086
21
-59.4581731
0
LINE
8
0
10
117.245886
20
-48.0786054
11
119.4928025
21
-47.9608495
0
LINE
8
0
10
121.4900616
20
-47.8561776
11
122.7383484
21
-47.7907576
0
LINE
8
0
10
122.7383484
20
-47.7907576
11
122.6598445
21
-46.2928133
0
LINE
8
0
10
122.5290046
20
-43.7962394
11
122.4505006
21
-42.2982952
0
LINE
8
0
10
122.4505006
20
-42.2982952
11
118.9552973
21
-42.481471
0
LINE
8
0
10
137.3983667
20
-78.1842912
11
139.6483667
21
-78.1842912
0
LINE
8
0
10
141.6483667
20
-78.1842912
11
142.8983667
21
-78.1842912
0
LINE
8
0
10
142.8983667
20
-78.1842912
11
142.8983667
21
-76.6842912
0
LINE
8
0
10
142.8983667
20
-74.1842912
11
142.8983667
21
-72.6842912
0
LINE
8
0
10
142.8983667
20
-72.6842912
11
139.3983667
21
-72.6842912
0
LINE
8
0
10
137.3983667
20
-61.1842912
11
139.6483667
21
-61.1842912
0
LINE
8
0
10
141.6483667
20
-61.1842912
11
142.8983667
21
-61.1842912
0
LINE
8
0
10
142.8983667
20
-61.1842912
11
142.8983667
21
-59.6842912
0
LINE
8
0
10
142.8983667
20
-57.1842912
11
142.8983667
21
-55.6842912
0
LINE
8
0
10
142.8983667
20
-55.6842912
11
139.3983667
21
-55.6842912
0
LINE
8
0
10
137.3983667
20
-44.1842912
11
139.6483667
21
-44.1842912
0
LINE
8
0
10
141.6483667
20
-44.1842912
11
142.8983667
21
-44.1842912
0
LINE
8
0
10
142.8983667
20
-44.1842912
11
142.8983667
21
-42.6842912
0
LINE
8
0
10
142.8983667
20
-40.1842912
11
142.8983667
21
-38.6842912
0
LINE
8
0
10
142.8983667
20
-38.6842912
11
139.3983667
21
-38.6842912
0
LINE
8
0
10
155.3983666
20
-84.1842912
11
157.6483666
21
-84.1842912
0
LINE
8
0
10
159.6483666
20
-84.1842912
11
160.8983666
21
-84.1842912
0
LINE
8
0
10
160.8983666
20
-84.1842912
11
160.8983666
21
-82.6842912
0
LINE
8
0
10
160.8983666
20
-80.1842912
11
160.8983666
21
-78.6842912
0
LINE
8
0
10
160.8983666
20
-78.6842912
11
157.3983666
21
-78.6842912
0
LINE
8
0
10
155.3983666
20
-67.1842912
11
157.6483666
21
-67.1842912
0
LINE
8
0
10
159.6483666
20
-67.1842912
11
160.8983666
21
-67.1842912
0
LINE
8
0
10
160.8983666
20
-67.1842912
11
160.8983666
21
-65.6842912
0
LINE
8
0
10
160.8983666
20
-63.1842912
11
160.8983666
21
-61.6842912
0
LINE
8
0
10
160.8983666
20
-61.6842912
11
157.3983666
21
-61.6842912
0
LINE
8
0
10
155.3983666
20
-50.1842912
11
157.6483666
21
-50.1842912
0
LINE
8
0
10
159.6483666
20
-50.1842912
11
160.8983666
21
-50.1842912
0
LINE
8
0
10
160.8983666
20
-50.1842912
11
160.8983666
21
-48.6842912
0
LINE
8
0
10
160.8983666
20
-46.1842912
11
160.8983666
21
-44.6842912
0
LINE
8
0
10
160.8983666
20
-44.6842912
11
157.3983666
21
-44.6842912
0
LINE
8
0
10
173.3983666
20
-86.1842911
11
175.6483666
21
-86.1842911
0
LINE
8
0
10
177.6483666
20
-86.1842911
11
178.8983666
21
-86.1842911
0
LINE
8
0
10
178.8983666
20
-86.1842911
11
178.8983666
21
-84.6842911
0
LINE
8
0
10
178.8983666
20
-82.1842911
11
178.8983666
21
-80.6842911
0
LINE
8
0
10
178.8983666
20
-80.6842911
11
175.3983666
21
-80.6842911
0
LINE
8
0
10
173.3983666
20
-69.1842911
11
175.6483666
21
-69.1842911
0
LINE
8
0
10
177.6483666
20
-69.1842911
11
178.8983666
21
-69.1842911
0
LINE
8
0
10
178.8983666
20
-69.1842911
11
178.8983666
21
-67.6842911
0
LINE
8
0
10
178.8983666
20
-65.1842911
11
178.8983666
21
-63.6842911
0
LINE
8
0
10
178.8983666
20
-63.6842911
11
175.3983666
21
-63.6842911
0
LINE
8
0
10
173.3983666
20
-52.1842911
11
175.6483666
21
-52.1842911
0
LINE
8
0
10
177.6483666
20
-52.1842911
11
178.8983666
21
-52.1842911
0
LINE
8
0
10
178.8983666
20
-52.1842911
11
178.8983666
21
-50.6842911
0
LINE
8
0
10
178.8983666
20
-48.1842911
11
178.8983666
21
-46.6842911
0
LINE
8
0
10
178.8983666
20
-46.6842911
11
175.3983666
21
-46.6842911
0
LINE
8
0
10
159.3983666
20
-106.1842912
11
161.6483666
21
-106.1842912
0
LINE
8
0
10
163.6483666
20
-106.1842912
11
164.8983666
21
-106.1842912
0
LINE
8
0
10
164.8983666
20
-106.1842912
11
164.8983666
21
-104.6842912
0
LINE
8
0
10
164.8983666
20
-102.1842912
11
164.8983666
21
-100.6842912
0
LINE
8
0
10
164.8983666
20
-100.6842912
11
161.3983666
21
-100.6842912
0
LINE
8
0
10
179.4992266
20
-109.0098096
11
181.6915592
21
-109.5159495
0
LINE
8
0
10
183.6402993
20
-109.9658516
11
184.858262
21
-110.2470404
0
LINE
8
0
10
184.858262
20
-110.2470404
11
185.1956885
21
-108.7854854
0
LINE
8
0
10
185.7580661
20
-106.3495602
11
186.0954928
21
-104.888005
0
LINE
8
0
10
186.0954928
20
-104.888005
11
182.6851975
21
-104.1006764
0
LINE
8
0
10
198.3287475
20
-116.4327851
11
200.3510341
21
-117.4191202
0
LINE
8
0
10
202.1486222
20
-118.2958625
11
203.2721148
21
-118.8438264
0
LINE
8
0
10
203.2721148
20
-118.8438264
11
203.9296715
21
-117.4956353
0
LINE
8
0
10
205.0255994
20
-115.2486502
11
205.6831561
21
-113.9004591
0
LINE
8
0
10
205.6831561
20
-113.9004591
11
202.537377
21
-112.3661601
0
LINE
8
0
10
107.4462235
20
-96.7035997
11
110.1314326
21
-96.4213728
0
LINE
8
0
10
110.1314326
20
-96.4213728
11
109.8701115
21
-93.9350681
0
LINE
8
0
10
109.8701115
20
-93.9350681
11
107.1849024
21
-94.217295
0
LINE
8
0
10
105.6692396
20
-79.7967275
11
108.3544487
21
-79.5145006
0
LINE
8
0
10
108.3544487
20
-79.5145006
11
108.0931276
21
-77.0281959
0
LINE
8
0
10
108.0931276
20
-77.0281959
11
105.4079185
21
-77.3104228
0
LINE
8
0
10
103.8922557
20
-62.8898553
11
106.5774648
21
-62.6076284
0
LINE
8
0
10
106.5774648
20
-62.6076284
11
106.3161437
21
-60.1213237
0
LINE
8
0
10
106.3161437
20
-60.1213237
11
103.6309346
21
-60.4035506
0
LINE
8
0
10
124.4392671
20
-80.2462175
11
127.1355668
21
-80.1049104
0
LINE
8
0
10
127.1355668
20
-80.1049104
11
127.0047269
21
-77.6083365
0
LINE
8
0
10
127.0047269
20
-77.6083365
11
124.3084272
21
-77.7496436
0
LINE
8
0
10
123.5495558
20
-63.2695154
11
126.2458555
21
-63.1282083
0
LINE
8
0
10
126.2458555
20
-63.1282083
11
126.1150156
21
-60.6316344
0
LINE
8
0
10
126.1150156
20
-60.6316344
11
123.4187159
21
-60.7729415
0
LINE
8
0
10
122.6598445
20
-46.2928133
11
125.3561442
21
-46.1515062
0
LINE
8
0
10
125.3561442
20
-46.1515062
11
125.2253043
21
-43.6549323
0
LINE
8
0
10
125.2253043
20
-43.6549323
11
122.5290046
21
-43.7962394
0
LINE
8
0
10
142.8983667
20
-76.6842912
11
145.5983667
21
-76.6842912
0
LINE
8
0
10
145.5983667
20
-76.6842912
11
145.5983667
21
-74.1842912
0
LINE
8
0
10
145.5983667
20
-74.1842912
11
142.8983667
21
-74.1842912
0
LINE
8
0
10
142.8983667
20
-59.6842912
11
145.5983667
21
-59.6842912
0
LINE
8
0
10
145.5983667
20
-59.6842912
11
145.5983667
21
-57.1842912
0
LINE
8
0
10
145.5983667
20
-57.1842912
11
142.8983667
21
-57.1842912
0
LINE
8
0
10
142.8983667
20
-42.6842912
11
145.5983667
21
-42.6842912
0
LINE
8
0
10
145.5983667
20
-42.6842912
11
145.5983667
21
-40.1842912
0
LINE
8
0
10
145.5983667
20
-40.1842912
11
142.8983667
21
-40.1842912
0
LINE
8
0
10
160.8983666
20
-82.6842912
11
163.5983666
21
-82.6842912
0
LINE
8
0
10
163.5983666
20
-82.6842912
11
163.5983666
21
-80.1842912
0
LINE
8
0
10
163.5983666
20
-80.1842912
11
160.8983666
21
-80.1842912
0
LINE
8
0
10
160.8983666
20
-65.6842912
11
163.5983666
21
-65.6842912
0
LINE
8
0
10
163.5983666
20
-65.6842912
11
163.5983666
21
-63.1842912
0
LINE
8
0
10
163.5983666
20
-63.1842912
11
160.8983666
21
-63.1842912
0
LINE
8
0
10
160.8983666
20
-48.6842912
11
163.5983666
21
-48.6842912
0
LINE
8
0
10
163.5983666
20
-48.6842912
11
163.5983666
21
-46.1842912
0
LINE
8
0
10
163.5983666
20
-46.1842912
11
160.8983666
21
-46.1842912
0
LINE
8
0
10
178.8983666
20
-84.6842911
11
181.5983666
21
-84.6842911
0
LINE
8
0
10
181.5983666
20
-84.6842911
11
181.5983666
21
-82.1842911
0
LINE
8
0
10
181.5983666
20
-82.1842911
11
178.8983666
21
-82.1842911
0
LINE
8
0
10
178.8983666
20
-67.6842911
11
181.5983666
21
-67.6842911
0
LINE
8
0
10
181.5983666
20
-67.6842911
11
181.5983666
21
-65.1842911
0
LINE
8
0
10
181.5983666
20
-65.1842911
11
178.8983666
21
-65.1842911
0
LINE
8
0
10
178.8983666
20
-50.6842911
11
181.1483666
21
-50.6842911
0
LINE
8
0
10
181.1483666
20
-48.1842911
11
178.8983666
21
-48.1842911
0
LINE
8
0
10
164.8983666
20
-104.6842912
11
167.5983666
21
-104.6842912
0
LINE
8
0
10
167.5983666
20
-104.6842912
11
167.5983666
21
-102.1842912
0
LINE
8
0
10
167.5983666
20
-102.1842912
11
164.8983666
21
-102.1842912
0
LINE
8
0
10
185.1956885
20
-108.7854854
11
187.8264877
21
-109.3928532
0
LINE
8
0
10
187.8264877
20
-109.3928532
11
188.3888653
21
-106.956928
0
LINE
8
0
10
188.3888653
20
-106.956928
11
185.7580661
21
-106.3495602
0
LINE
8
0
10
203.9296715
20
-117.4956353
11
205.9519581
21
-118.4819704
0
LINE
8
0
10
207.047886
20
-116.2349853
11
205.0255994
21
-115.2486502
0
LINE
8
0
10
101.8255376
20
-91.0602062
11
103.547283
21
-93.0913617
0
LINE
8
0
10
102.1331458
20
-98.7702891
11
100.4114003
21
-96.7391336
0
LINE
8
0
10
100.0485537
20
-74.153334
11
101.7702991
21
-76.1844895
0
LINE
8
0
10
100.3561619
20
-81.8634169
11
98.6344164
21
-79.8322614
0
LINE
8
0
10
98.2715698
20
-57.2464618
11
99.9933152
21
-59.2776173
0
LINE
8
0
10
98.579178
20
-64.9565447
11
96.8574325
21
-62.9253892
0
LINE
8
0
10
119.1216365
20
-74.3163942
11
120.7347199
21
-76.4348752
0
LINE
8
0
10
119.0253086
20
-82.0320096
11
117.4122252
21
-79.9135285
0
LINE
8
0
10
118.2319252
20
-57.3396921
11
119.8450086
21
-59.4581731
0
LINE
8
0
10
118.1355973
20
-65.0553075
11
116.5225139
21
-62.9368264
0
LINE
8
0
10
117.3422139
20
-40.36299
11
118.9552973
21
-42.481471
0
LINE
8
0
10
117.245886
20
-48.0786054
11
115.6328026
21
-45.9601243
0
LINE
8
0
10
137.8983667
20
-70.4842912
11
139.3983667
21
-72.6842912
0
LINE
8
0
10
137.3983667
20
-78.1842912
11
135.8983667
21
-75.9842912
0
LINE
8
0
10
137.8983667
20
-53.4842912
11
139.3983667
21
-55.6842912
0
LINE
8
0
10
137.3983667
20
-61.1842912
11
135.8983667
21
-58.9842912
0
LINE
8
0
10
137.8983667
20
-36.4842912
11
139.3983667
21
-38.6842912
0
LINE
8
0
10
137.3983667
20
-44.1842912
11
135.8983667
21
-41.9842912
0
LINE
8
0
10
155.8983666
20
-76.4842912
11
157.3983666
21
-78.6842912
0
LINE
8
0
10
155.3983666
20
-84.1842912
11
153.8983666
21
-81.9842912
0
LINE
8
0
10
155.8983666
20
-59.4842912
11
157.3983666
21
-61.6842912
0
LINE
8
0
10
155.3983666
20
-67.1842912
11
153.8983666
21
-64.9842912
0
LINE
8
0
10
155.8983666
20
-42.4842912
11
157.3983666
21
-44.6842912
0
LINE
8
0
10
155.3983666
20
-50.1842912
11
153.8983666
21
-47.9842912
0
LINE
8
0
10
173.8983666
20
-78.4842911
11
175.3983666
21
-80.6842911
0
LINE
8
0
10
173.3983666
20
-86.1842911
11
171.8983666
21
-83.9842911
0
LINE
8
0
10
173.8983666
20
-61.4842911
11
175.3983666
21
-63.6842911
0
LINE
8
0
10
173.3983666
20
-69.1842911
11
171.8983666
21
-66.9842911
0
LINE
8
0
10
173.8983666
20
-44.4842911
11
175.3983666
21
-46.6842911
0
LINE
8
0
10
173.3983666
20
-52.1842911
11
171.8983666
21
-49.9842911
0
LINE
8
0
10
159.8983666
20
-98.4842912
11
161.3983666
21
-100.6842912
0
LINE
8
0
10
159.3983666
20
-106.1842912
11
157.8983666
21
-103.9842912
0
LINE
8
0
10
181.7185348
20
-101.6196356
11
182.6851975
21
-104.1006764
0
LINE
8
0
10
179.4992266
20
-109.0098096
11
178.5325638
21
-106.5287689
0
LINE
8
0
10
202.1536024
20
-109.7312565
11
202.537377
21
-112.3661601
0
LINE
8
0
10
198.3287476
20
-116.432785
11
197.944973
21
-113.7978814
0
LINE
8
0
10
106.4643924
20
-99.320565
11
106.3598639
21
-98.3260431
0
LINE
8
0
10
104.3708201
20
-98.5351
11
104.4753019
21
-99.5291772
0
LINE
8
0
10
104.6874085
20
-82.4136928
11
104.58288
21
-81.4191709
0
LINE
8
0
10
102.5938362
20
-81.6282278
11
102.698318
21
-82.622305
0
LINE
8
0
10
102.9104246
20
-65.5068206
11
102.8058961
21
-64.5122987
0
LINE
8
0
10
100.8168523
20
-64.7213556
11
100.9213341
21
-65.7154328
0
LINE
8
0
10
123.3218201
20
-82.8082113
11
123.2694842
21
-81.8095818
0
LINE
8
0
10
121.2722251
20
-81.9142537
11
121.324561
21
-82.9128832
0
LINE
8
0
10
122.4321088
20
-65.8315092
11
122.3797729
21
-64.8328797
0
LINE
8
0
10
120.3825138
20
-64.9375516
11
120.4348497
21
-65.9361811
0
LINE
8
0
10
121.5423975
20
-48.8548071
11
121.4900616
21
-47.8561776
0
LINE
8
0
10
119.4928025
20
-47.9608495
11
119.5451384
21
-48.959479
0
LINE
8
0
10
141.6483667
20
-79.1842912
11
141.6483667
21
-78.1842912
0
LINE
8
0
10
139.6483667
20
-78.1842912
11
139.6483667
21
-79.1842912
0
LINE
8
0
10
141.6483667
20
-62.1842912
11
141.6483667
21
-61.1842912
0
LINE
8
0
10
139.6483667
20
-61.1842912
11
139.6483667
21
-62.1842912
0
LINE
8
0
10
141.6483667
20
-45.1842912
11
141.6483667
21
-44.1842912
0
LINE
8
0
10
139.6483667
20
-44.1842912
11
139.6483667
21
-45.1842912
0
LINE
8
0
10
159.6483666
20
-85.1842912
11
159.6483666
21
-84.1842912
0
LINE
8
0
10
157.6483666
20
-84.1842912
11
157.6483666
21
-85.1842912
0
LINE
8
0
10
159.6483666
20
-68.1842912
11
159.6483666
21
-67.1842912
0
LINE
8
0
10
157.6483666
20
-67.1842912
11
157.6483666
21
-68.1842912
0
LINE
8
0
10
159.6483666
20
-51.1842912
11
159.6483666
21
-50.1842912
0
LINE
8
0
10
157.6483666
20
-50.1842912
11
157.6483666
21
-51.1842912
0
LINE
8
0
10
177.6483666
20
-87.1842911
11
177.6483666
21
-86.1842911
0
LINE
8
0
10
175.6483666
20
-86.1842911
11
175.6483666
21
-87.1842911
0
LINE
8
0
10
177.6483666
20
-70.1842911
11
177.6483666
21
-69.1842911
0
LINE
8
0
10
175.6483666
20
-69.1842911
11
175.6483666
21
-70.1842911
0
LINE
8
0
10
177.6483666
20
-53.1842911
11
177.6483666
21
-52.1842911
0
LINE
8
0
10
175.6483666
20
-52.1842911
11
175.6483666
21
-53.1842911
0
LINE
8
0
10
163.6483666
20
-107.1842912
11
163.6483666
21
-106.1842912
0
LINE
8
0
10
161.6483666
20
-106.1842912
11
161.6483666
21
-107.1842912
0
LINE
8
0
10
183.4154489
20
-110.9397859
11
183.6402993
21
-109.9658516
0
LINE
8
0
10
181.6915592
20
-109.5159495
11
181.4666082
21
-110.4903195
0
LINE
8
0
10
201.7102511
20
-119.1946565
11
202.1486222
21
-118.2958625
0
LINE
8
0
10
200.3510341
20
-117.4191202
11
199.912663
21
-118.3179142
0
LINE
8
0
10
185.1483666
20
-90.4342911
11
188.1483666
21
-90.4342911
0
LINE
8
0
10
189.1483666
20
-89.4342911
11
189.1483666
21
-59.9342911
0
LINE
8
0
10
188.1483666
20
-58.9342911
11
185.1483666
21
-58.9342911
0
LINE
8
0
10
184.1483666
20
-59.9342911
11
184.1483666
21
-89.4342911
0
ARC
8
0
10
188.1483666
20
-89.4342911
40
1
50
270
51
0
0
ARC
8
0
10
188.1483666
20
-59.9342911
40
1
50
0
51
90
0
ARC
8
0
10
185.1483666
20
-59.9342911
40
1
50
90
51
180
0
ARC
8
0
10
185.1483666
20
-89.4342911
40
1
50
180
51
270
0
LINE
8
0
10
198.0483666
20
-90.4342911
11
201.0483666
21
-90.4342911
0
LINE
8
0
10
202.0483666
20
-89.4342911
11
202.0483666
21
-59.9342911
0
LINE
8
0
10
201.0483666
20
-58.9342911
11
198.0483666
21
-58.9342911
0
LINE
8
0
10
197.0483666
20
-59.9342911
11
197.0483666
21
-89.4342911
0
ARC
8
0
10
201.0483666
20
-89.4342911
40
1
50
270
51
0
0
ARC
8
0
10
201.0483666
20
-59.9342911
40
1
50
0
51
90
0
ARC
8
0
10
198.0483666
20
-59.9342911
40
1
50
90
51
180
0
ARC
8
0
10
198.0483666
20
-89.4342911
40
1
50
180
51
270
0
LINE
8
0
10
103.1985068
20
-115.2342912
11
103.1985068
21
-111.2342912
0
LINE
8
0
10
103.1985068
20
-111.2342912
11
98.1985068
21
-111.2342912
0
LINE
8
0
10
98.1985068
20
-111.2342912
11
98.1985068
21
-115.2342912
0
LINE
8
0
10
98.1985068
20
-115.2342912
11
103.1985068
21
-115.2342912
0
ENDSEC
0
EOF