0
SECTION
2
HEADER
9
$INSUNITS
70
4
0
ENDSEC
0
SECTION
2
TABLES
0
TABLE
2
LTYPE
0
LTYPE
72
65
70
64
2
CONTINUOUS
3
______
73
0
40
0
0
ENDTAB
0
TABLE
2
LAYER
0
ENDTAB
0
ENDSEC
0
SECTION
2
ENTITIES
0
LINE
8
0
10
85.6123213
20
-58.7781041
11
85.9729445
21
-62.2092047
0
LINE
8
0
10
89.7986862
20
-98.608706
11
91.604389
21
-115.7888197
0
LINE
8
0
10
88.0217024
20
-81.7018338
11
89.5269122
21
-96.0229491
0
LINE
8
0
10
86.2447185
20
-64.7949616
11
87.7499284
21
-79.1160769
0
LINE
8
0
10
86.5023147
20
-57.6790537
11
88.7634041
21
-57.4414037
0
LINE
8
0
10
145.1483667
20
-37.6842912
11
145.1483667
21
-36.6842912
0
LINE
8
0
10
144.1483667
20
-35.6842912
11
126.1483667
21
-35.6842912
0
LINE
8
0
10
125.1483667
20
-36.6842912
11
125.1483667
21
-37.6842912
0
LINE
8
0
10
181.1483666
20
-54.6842911
11
181.1483666
21
-39.6842912
0
LINE
8
0
10
92.5989109
20
-116.6842912
11
165.9503019
21
-116.6842912
0
LINE
8
0
10
166.175253
20
-116.7099211
11
182.7155249
21
-120.5285438
0
LINE
8
0
10
182.9289449
20
-120.6041199
11
199.7927104
21
-128.8291278
0
LINE
8
0
10
201.1298755
20
-128.3687049
11
208.5821851
21
-113.089206
0
LINE
8
0
10
203.6099955
20
-109.5515052
11
208.1217622
21
-111.7520409
0
LINE
8
0
10
182.1483666
20
-55.6842911
11
202.0483666
21
-55.6842911
0
LINE
8
0
10
203.0483666
20
-56.6842911
11
203.0483666
21
-108.6527112
0
LINE
8
0
10
89.6588362
20
-56.4380059
11
89.510205
21
-39.6931671
0
LINE
8
0
10
90.5101656
20
-38.6842912
11
124.1483667
21
-38.6842912
0
LINE
8
0
10
146.1483667
20
-38.6842912
11
180.1483666
21
-38.6842912
0
ARC
8
0
10
92.5989109
20
-115.6842912
40
1
50
186.0000021
51
270
0
ARC
8
0
10
165.9503019
20
-117.6842912
40
1
50
76.9999979
51
90
0
ARC
8
0
10
182.4905738
20
-121.5029139
40
1
50
64.0000012
51
76.9999979
0
ARC
8
0
10
200.2310815
20
-127.9303338
40
1
50
244.0000012
51
334.0000012
0
ARC
8
0
10
207.6833911
20
-112.6508349
40
1
50
334.0000012
51
64.0000012
0
ARC
8
0
10
204.0483666
20
-108.6527112
40
1
50
180
51
244.0000012
0
ARC
8
0
10
202.0483666
20
-56.6842911
40
1
50
0
51
90
0
ARC
8
0
10
182.1483666
20
-54.6842911
40
1
50
180
51
270
0
ARC
8
0
10
180.1483666
20
-39.6842912
40
1
50
0
51
90
0
ARC
8
0
10
146.1483667
20
-37.6842912
40
1
50
180
51
270
0
ARC
8
0
10
144.1483667
20
-36.6842912
40
1
50
0
51
90
0
ARC
8
0
10
126.1483667
20
-36.6842912
40
1
50
90
51
180
0
ARC
8
0
10
124.1483667
20
-37.6842912
40
1
50
270
51
0
0
ARC
8
0
10
90.5101656
20
-39.6842912
40
1
50
90
51
180.5085583
0
ARC
8
0
10
88.6588756
20
-56.4468818
40
1
50
276.0000021
51
0.5085583
0
ARC
8
0
10
86.6068432
20
-58.6735756
40
1
50
96.0000021
51
186.0000021
0
CIRCLE
8
0
10
92.50125
20
-44.6842912
40
1.1
0
CIRCLE
8
0
10
178.1483666
20
-41.1842912
40
1.1
0
CIRCLE
8
0
10
135.1483667
20
-91.6842912
40
1.1
0
CIRCLE
8
0
10
199.5280893
20
-101.9976169
40
1.1
0
CIRCLE
8
0
10
94.6985068
20
-113.6842912
40
1.1
0
CIRCLE
8
0
10
100
20
-100
40
1.7
0
CIRCLE
8
0
10
98.2230161
20
-83.0931278
40
1.7
0
CIRCLE
8
0
10
96.4460322
20
-66.1862556
40
1.7
0
CIRCLE
8
0
10
116.8307281
20
-83.148395
40
1.7
0
CIRCLE
8
0
10
115.9410168
20
-66.1716929
40
1.7
0
CIRCLE
8
0
10
115.0513055
20
-49.1949908
40
1.7
0
CIRCLE
8
0
10
135.1483667
20
-79.1842912
40
1.7
0
CIRCLE
8
0
10
135.1483667
20
-62.1842912
40
1.7
0
CIRCLE
8
0
10
135.1483667
20
-45.1842912
40
1.7
0
CIRCLE
8
0
10
153.1483666
20
-85.1842912
40
1.7
0
CIRCLE
8
0
10
153.1483666
20
-68.1842912
40
1.7
0
CIRCLE
8
0
10
153.1483666
20
-51.1842912
40
1.7
0
CIRCLE
8
0
10
171.1483666
20
-87.1842911
40
1.7
0
CIRCLE
8
0
10
171.1483666
20
-70.1842911
40
1.7
0
CIRCLE
8
0
10
171.1483666
20
-53.1842911
40
1.7
0
CIRCLE
8
0
10
157.1483666
20
-107.1842912
40
1.7
0
CIRCLE
8
0
10
177.0819429
20
-109.4780398
40
1.7
0
CIRCLE
8
0
10
195.8680898
20
-116.345244
40
1.7
0
CIRCLE
8
0
10
105.4698704
20
-99.4250935
40
0.9
0
CIRCLE
8
0
10
103.6928865
20
-82.5182213
40
0.9
0
CIRCLE
8
0
10
101.9159026
20
-65.6113491
40
0.9
0
CIRCLE
8
0
10
122.3231905
20
-82.8605472
40
0.9
0
CIRCLE
8
0
10
121.4334792
20
-65.8838451
40
0.9
0
CIRCLE
8
0
10
120.5437679
20
-48.907143
40
0.9
0
CIRCLE
8
0
10
140.6483667
20
-79.1842912
40
0.9
0
CIRCLE
8
0
10
140.6483667
20
-62.1842912
40
0.9
0
CIRCLE
8
0
10
140.6483667
20
-45.1842912
40
0.9
0
CIRCLE
8
0
10
158.6483666
20
-85.1842912
40
0.9
0
CIRCLE
8
0
10
158.6483666
20
-68.1842912
40
0.9
0
CIRCLE
8
0
10
158.6483666
20
-51.1842912
40
0.9
0
CIRCLE
8
0
10
176.6483666
20
-87.1842911
40
0.9
0
CIRCLE
8
0
10
176.6483666
20
-70.1842911
40
0.9
0
CIRCLE
8
0
10
176.6483666
20
-53.1842911
40
0.9
0
CIRCLE
8
0
10
162.6483666
20
-107.1842912
40
0.9
0
CIRCLE
8
0
10
182.4409783
20
-110.7152706
40
0.9
0
CIRCLE
8
0
10
200.8114571
20
-118.7562853
40
0.9
0
CIRCLE
8
0
10
94.5301296
20
-100.5749065
40
0.9
0
CIRCLE
8
0
10
92.7531457
20
-83.6680343
40
0.9
0
CIRCLE
8
0
10
90.9761618
20
-66.7611621
40
0.9
0
CIRCLE
8
0
10
111.3382657
20
-83.4362428
40
0.9
0
CIRCLE
8
0
10
110.4485544
20
-66.4595407
40
0.9
0
CIRCLE
8
0
10
109.5588431
20
-49.4828386
40
0.9
0
CIRCLE
8
0
10
129.6483667
20
-79.1842912
40
0.9
0
CIRCLE
8
0
10
129.6483667
20
-62.1842912
40
0.9
0
CIRCLE
8
0
10
129.6483667
20
-45.1842912
40
0.9
0
CIRCLE
8
0
10
147.6483666
20
-85.1842912
40
0.9
0
CIRCLE
8
0
10
147.6483666
20
-68.1842912
40
0.9
0
CIRCLE
8
0
10
147.6483666
20
-51.1842912
40
0.9
0
CIRCLE
8
0
10
165.6483666
20
-87.1842911
40
0.9
0
CIRCLE
8
0
10
165.6483666
20
-70.1842911
40
0.9
0
CIRCLE
8
0
10
165.6483666
20
-53.1842911
40
0.9
0
CIRCLE
8
0
10
151.6483666
20
-107.1842912
40
0.9
0
CIRCLE
8
0
10
171.7229075
20
-108.240809
40
0.9
0
CIRCLE
8
0
10
190.9247225
20
-113.9342027
40
0.9
0
LINE
8
0
10
92.516448
20
-99.3537037
11
97.240427
21
-98.8571935
0
LINE
8
0
10
94.532736
20
-94.4661698
11
92.0303906
21
-94.7291769
0
LINE
8
0
10
92.0303906
20
-94.7291769
11
92.1375323
21
-95.7485618
0
LINE
8
0
10
92.4093063
20
-98.3343187
11
92.516448
21
-99.3537037
0
LINE
8
0
10
90.7394641
20
-82.4468315
11
95.4634431
21
-81.9503213
0
LINE
8
0
10
92.7557521
20
-77.5592976
11
90.2534067
21
-77.8223047
0
LINE
8
0
10
90.2534067
20
-77.8223047
11
90.3605484
21
-78.8416896
0
LINE
8
0
10
90.6323224
20
-81.4274465
11
90.7394641
21
-82.4468315
0
LINE
8
0
10
88.9624802
20
-65.5399593
11
93.6864592
21
-65.0434491
0
LINE
8
0
10
90.9787682
20
-60.6524254
11
88.4764228
21
-60.9154325
0
LINE
8
0
10
88.4764228
20
-60.9154325
11
88.5835645
21
-61.9348174
0
LINE
8
0
10
88.8553385
20
-64.5205743
11
88.9624802
21
-65.5399593
0
LINE
8
0
10
109.3912566
20
-82.1113256
11
114.1347468
21
-81.8627298
0
LINE
8
0
10
111.6605751
20
-77.3360142
11
109.1478944
21
-77.4676982
0
LINE
8
0
10
109.1478944
20
-77.4676982
11
109.2015387
21
-78.4912936
0
LINE
8
0
10
109.3376122
20
-81.0877304
11
109.3912566
21
-82.1113256
0
LINE
8
0
10
108.5015453
20
-65.1346235
11
113.2450355
21
-64.8860277
0
LINE
8
0
10
110.7708638
20
-60.3593121
11
108.2581831
21
-60.4909961
0
LINE
8
0
10
108.2581831
20
-60.4909961
11
108.3118274
21
-61.5145915
0
LINE
8
0
10
108.4479009
20
-64.1110283
11
108.5015453
21
-65.1346235
0
LINE
8
0
10
107.611834
20
-48.1579214
11
112.3553242
21
-47.9093256
0
LINE
8
0
10
109.8811525
20
-43.38261
11
107.3684718
21
-43.514294
0
LINE
8
0
10
107.3684718
20
-43.514294
11
107.4221161
21
-44.5378894
0
LINE
8
0
10
107.5581896
20
-47.1343262
11
107.611834
21
-48.1579214
0
LINE
8
0
10
127.7733667
20
-77.7592912
11
132.5233667
21
-77.7592912
0
LINE
8
0
10
130.2894957
20
-73.1092912
11
127.7733667
21
-73.1092912
0
LINE
8
0
10
127.7733667
20
-73.1092912
11
127.7733667
21
-74.1342912
0
LINE
8
0
10
127.7733667
20
-76.7342912
11
127.7733667
21
-77.7592912
0
LINE
8
0
10
127.7733667
20
-60.7592912
11
132.5233667
21
-60.7592912
0
LINE
8
0
10
130.2894957
20
-56.1092912
11
127.7733667
21
-56.1092912
0
LINE
8
0
10
127.7733667
20
-56.1092912
11
127.7733667
21
-57.1342912
0
LINE
8
0
10
127.7733667
20
-59.7342912
11
127.7733667
21
-60.7592912
0
LINE
8
0
10
127.7733667
20
-43.7592912
11
132.5233667
21
-43.7592912
0
LINE
8
0
10
130.2894957
20
-39.1092912
11
127.7733667
21
-39.1092912
0
LINE
8
0
10
127.7733667
20
-39.1092912
11
127.7733667
21
-40.1342912
0
LINE
8
0
10
127.7733667
20
-42.7342912
11
127.7733667
21
-43.7592912
0
LINE
8
0
10
145.7733666
20
-83.7592912
11
150.5233666
21
-83.7592912
0
LINE
8
0
10
148.2894956
20
-79.1092912
11
145.7733666
21
-79.1092912
0
LINE
8
0
10
145.7733666
20
-79.1092912
11
145.7733666
21
-80.1342912
0
LINE
8
0
10
145.7733666
20
-82.7342912
11
145.7733666
21
-83.7592912
0
LINE
8
0
10
145.7733666
20
-66.7592912
11
150.5233666
21
-66.7592912
0
LINE
8
0
10
148.2894956
20
-62.1092912
11
145.7733666
21
-62.1092912
0
LINE
8
0
10
145.7733666
20
-62.1092912
11
145.7733666
21
-63.1342912
0
LINE
8
0
10
145.7733666
20
-65.7342912
11
145.7733666
21
-66.7592912
0
LINE
8
0
10
145.7733666
20
-49.7592912
11
150.5233666
21
-49.7592912
0
LINE
8
0
10
148.2894956
20
-45.1092912
11
145.7733666
21
-45.1092912
0
LINE
8
0
10
145.7733666
20
-45.1092912
11
145.7733666
21
-46.1342912
0
LINE
8
0
10
145.7733666
20
-48.7342912
11
145.7733666
21
-49.7592912
0
LINE
8
0
10
163.7733666
20
-85.7592911
11
168.5233666
21
-85.7592911
0
LINE
8
0
10
166.2894956
20
-81.1092911
11
163.7733666
21
-81.1092911
0
LINE
8
0
10
163.7733666
20
-81.1092911
11
163.7733666
21
-82.1342911
0
LINE
8
0
10
163.7733666
20
-84.7342911
11
163.7733666
21
-85.7592911
0
LINE
8
0
10
163.7733666
20
-68.7592911
11
168.5233666
21
-68.7592911
0
LINE
8
0
10
166.2894956
20
-64.1092911
11
163.7733666
21
-64.1092911
0
LINE
8
0
10
163.7733666
20
-64.1092911
11
163.7733666
21
-65.1342911
0
LINE
8
0
10
163.7733666
20
-67.7342911
11
163.7733666
21
-68.7592911
0
LINE
8
0
10
163.7733666
20
-51.7592911
11
168.5233666
21
-51.7592911
0
LINE
8
0
10
166.2894956
20
-47.1092911
11
163.7733666
21
-47.1092911
0
LINE
8
0
10
163.7733666
20
-47.1092911
11
163.7733666
21
-48.1342911
0
LINE
8
0
10
163.7733666
20
-50.7342911
11
163.7733666
21
-51.7592911
0
LINE
8
0
10
149.7733666
20
-105.7592912
11
154.5233666
21
-105.7592912
0
LINE
8
0
10
152.2894956
20
-101.1092912
11
149.7733666
21
-101.1092912
0
LINE
8
0
10
149.7733666
20
-101.1092912
11
149.7733666
21
-102.1342912
0
LINE
8
0
10
149.7733666
20
-104.7342912
11
149.7733666
21
-105.7592912
0
LINE
8
0
10
170.2165189
20
-106.4305484
11
174.8447767
21
-107.499066
0
LINE
8
0
10
173.714182
20
-102.4657335
11
171.2625413
21
-101.8997276
0
LINE
8
0
10
171.2625413
20
-101.8997276
11
171.0319665
21
-102.8984569
0
LINE
8
0
10
170.4470937
20
-105.4318191
11
170.2165189
21
-106.4305484
0
LINE
8
0
10
189.8641626
20
-111.8314753
11
194.1334343
21
-113.9137382
0
LINE
8
0
10
194.1640703
20
-108.7550813
11
191.9025885
21
-107.652083
0
LINE
8
0
10
191.9025885
20
-107.652083
11
191.453258
21
-108.5733469
0
LINE
8
0
10
190.313493
20
-110.9102114
11
189.8641626
21
-111.8314753
0
LINE
8
0
10
89.7986862
20
-98.608706
11
92.4093063
21
-98.3343187
0
LINE
8
0
10
92.1375323
20
-95.7485618
11
89.5269122
21
-96.0229491
0
LINE
8
0
10
88.0217024
20
-81.7018338
11
90.6323224
21
-81.4274465
0
LINE
8
0
10
90.3605484
20
-78.8416896
11
87.7499284
21
-79.1160769
0
LINE
8
0
10
86.2447185
20
-64.7949616
11
88.8553385
21
-64.5205743
0
LINE
8
0
10
88.5835645
20
-61.9348174
11
85.9729445
21
-62.2092047
0
LINE
8
0
10
106.6413125
20
-81.2290374
11
109.3376122
21
-81.0877304
0
LINE
8
0
10
109.2015387
20
-78.4912936
11
106.505239
21
-78.6326006
0
LINE
8
0
10
106.505239
20
-78.6326006
11
106.6413125
21
-81.2290374
0
LINE
8
0
10
105.7516012
20
-64.2523353
11
108.4479009
21
-64.1110283
0
LINE
8
0
10
108.3118274
20
-61.5145915
11
105.6155277
21
-61.6558985
0
LINE
8
0
10
105.6155277
20
-61.6558985
11
105.7516012
21
-64.2523353
0
LINE
8
0
10
104.8618899
20
-47.2756332
11
107.5581896
21
-47.1343262
0
LINE
8
0
10
107.4221161
20
-44.5378894
11
104.7258164
21
-44.6791964
0
LINE
8
0
10
104.7258164
20
-44.6791964
11
104.8618899
21
-47.2756332
0
LINE
8
0
10
125.0733667
20
-76.7342912
11
127.7733667
21
-76.7342912
0
LINE
8
0
10
127.7733667
20
-74.1342912
11
125.0733667
21
-74.1342912
0
LINE
8
0
10
125.0733667
20
-74.1342912
11
125.0733667
21
-76.7342912
0
LINE
8
0
10
125.0733667
20
-59.7342912
11
127.7733667
21
-59.7342912
0
LINE
8
0
10
127.7733667
20
-57.1342912
11
125.0733667
21
-57.1342912
0
LINE
8
0
10
125.0733667
20
-57.1342912
11
125.0733667
21
-59.7342912
0
LINE
8
0
10
125.0733667
20
-42.7342912
11
127.7733667
21
-42.7342912
0
LINE
8
0
10
127.7733667
20
-40.1342912
11
125.0733667
21
-40.1342912
0
LINE
8
0
10
125.0733667
20
-40.1342912
11
125.0733667
21
-42.7342912
0
LINE
8
0
10
143.0733666
20
-82.7342912
11
145.7733666
21
-82.7342912
0
LINE
8
0
10
145.7733666
20
-80.1342912
11
143.0733666
21
-80.1342912
0
LINE
8
0
10
143.0733666
20
-80.1342912
11
143.0733666
21
-82.7342912
0
LINE
8
0
10
143.0733666
20
-65.7342912
11
145.7733666
21
-65.7342912
0
LINE
8
0
10
145.7733666
20
-63.1342912
11
143.0733666
21
-63.1342912
0
LINE
8
0
10
143.0733666
20
-63.1342912
11
143.0733666
21
-65.7342912
0
LINE
8
0
10
143.0733666
20
-48.7342912
11
145.7733666
21
-48.7342912
0
LINE
8
0
10
145.7733666
20
-46.1342912
11
143.0733666
21
-46.1342912
0
LINE
8
0
10
143.0733666
20
-46.1342912
11
143.0733666
21
-48.7342912
0
LINE
8
0
10
161.0733666
20
-84.7342911
11
163.7733666
21
-84.7342911
0
LINE
8
0
10
163.7733666
20
-82.1342911
11
161.0733666
21
-82.1342911
0
LINE
8
0
10
161.0733666
20
-82.1342911
11
161.0733666
21
-84.7342911
0
LINE
8
0
10
161.0733666
20
-67.7342911
11
163.7733666
21
-67.7342911
0
LINE
8
0
10
163.7733666
20
-65.1342911
11
161.0733666
21
-65.1342911
0
LINE
8
0
10
161.0733666
20
-65.1342911
11
161.0733666
21
-67.7342911
0
LINE
8
0
10
161.0733666
20
-50.7342911
11
163.7733666
21
-50.7342911
0
LINE
8
0
10
163.7733666
20
-48.1342911
11
161.0733666
21
-48.1342911
0
LINE
8
0
10
161.0733666
20
-48.1342911
11
161.0733666
21
-50.7342911
0
LINE
8
0
10
147.0733666
20
-104.7342912
11
149.7733666
21
-104.7342912
0
LINE
8
0
10
149.7733666
20
-102.1342912
11
147.0733666
21
-102.1342912
0
LINE
8
0
10
147.0733666
20
-102.1342912
11
147.0733666
21
-104.7342912
0
LINE
8
0
10
167.8162945
20
-104.8244513
11
170.4470937
21
-105.4318191
0
LINE
8
0
10
171.0319665
20
-102.8984569
11
168.4011673
21
-102.2910891
0
LINE
8
0
10
168.4011673
20
-102.2910891
11
167.8162945
21
-104.8244513
0
LINE
8
0
10
187.886749
20
-109.7266093
11
190.313493
21
-110.9102114
0
LINE
8
0
10
191.453258
20
-108.5733469
11
189.026514
21
-107.3897448
0
LINE
8
0
10
189.026514
20
-107.3897448
11
187.886749
21
-109.7266093
0
LINE
8
0
10
99.6210843
20
-96.3948581
11
101.9830738
21
-96.146603
0
LINE
8
0
10
101.9830738
20
-96.146603
11
101.8759321
21
-95.1272181
0
LINE
8
0
10
101.6041581
20
-92.5414612
11
101.4970164
21
-91.5220762
0
LINE
8
0
10
101.4970164
20
-91.5220762
11
96.7730374
21
-92.0185864
0
LINE
8
0
10
97.8441004
20
-79.4879859
11
100.2060899
21
-79.2397308
0
LINE
8
0
10
100.2060899
20
-79.2397308
11
100.0989482
21
-78.2203459
0
LINE
8
0
10
99.8271742
20
-75.634589
11
99.7200325
21
-74.615204
0
LINE
8
0
10
99.7200325
20
-74.615204
11
94.9960535
21
-75.1117142
0
LINE
8
0
10
96.0671165
20
-62.5811137
11
98.429106
21
-62.3328586
0
LINE
8
0
10
98.429106
20
-62.3328586
11
98.3219643
21
-61.3134737
0
LINE
8
0
10
98.0501903
20
-58.7277168
11
97.9430486
21
-57.7083318
0
LINE
8
0
10
97.9430486
20
-57.7083318
11
93.2190696
21
-58.204842
0
LINE
8
0
10
116.6410103
20
-79.5283629
11
119.0127554
21
-79.4040651
0
LINE
8
0
10
119.0127554
20
-79.4040651
11
118.9591111
21
-78.3804697
0
LINE
8
0
10
118.8230376
20
-75.7840329
11
118.7693932
21
-74.7604377
0
LINE
8
0
10
118.7693932
20
-74.7604377
11
114.025903
21
-75.0090335
0
LINE
8
0
10
115.751299
20
-62.5516608
11
118.1230441
21
-62.427363
0
LINE
8
0
10
118.1230441
20
-62.427363
11
118.0693998
21
-61.4037676
0
LINE
8
0
10
117.9333263
20
-58.8073308
11
117.8796819
21
-57.7837356
0
LINE
8
0
10
117.8796819
20
-57.7837356
11
113.1361917
21
-58.0323314
0
LINE
8
0
10
114.8615877
20
-45.5749587
11
117.2333328
21
-45.4506609
0
LINE
8
0
10
117.2333328
20
-45.4506609
11
117.1796885
21
-44.4270655
0
LINE
8
0
10
117.043615
20
-41.8306287
11
116.9899706
21
-40.8070335
0
LINE
8
0
10
116.9899706
20
-40.8070335
11
112.2464804
21
-41.0556293
0
LINE
8
0
10
135.1483667
20
-75.5592912
11
137.5233667
21
-75.5592912
0
LINE
8
0
10
137.5233667
20
-75.5592912
11
137.5233667
21
-74.5342912
0
LINE
8
0
10
137.5233667
20
-71.9342912
11
137.5233667
21
-70.9092912
0
LINE
8
0
10
137.5233667
20
-70.9092912
11
132.7733667
21
-70.9092912
0
LINE
8
0
10
135.1483667
20
-58.5592912
11
137.5233667
21
-58.5592912
0
LINE
8
0
10
137.5233667
20
-58.5592912
11
137.5233667
21
-57.5342912
0
LINE
8
0
10
137.5233667
20
-54.9342912
11
137.5233667
21
-53.9092912
0
LINE
8
0
10
137.5233667
20
-53.9092912
11
132.7733667
21
-53.9092912
0
LINE
8
0
10
135.1483667
20
-41.5592912
11
137.5233667
21
-41.5592912
0
LINE
8
0
10
137.5233667
20
-41.5592912
11
137.5233667
21
-40.5342912
0
LINE
8
0
10
137.5233667
20
-37.9342912
11
137.5233667
21
-36.9092912
0
LINE
8
0
10
137.5233667
20
-36.9092912
11
132.7733667
21
-36.9092912
0
LINE
8
0
10
153.1483666
20
-81.5592912
11
155.5233666
21
-81.5592912
0
LINE
8
0
10
155.5233666
20
-81.5592912
11
155.5233666
21
-80.5342912
0
LINE
8
0
10
155.5233666
20
-77.9342912
11
155.5233666
21
-76.9092912
0
LINE
8
0
10
155.5233666
20
-76.9092912
11
150.7733666
21
-76.9092912
0
LINE
8
0
10
153.1483666
20
-64.5592912
11
155.5233666
21
-64.5592912
0
LINE
8
0
10
155.5233666
20
-64.5592912
11
155.5233666
21
-63.5342912
0
LINE
8
0
10
155.5233666
20
-60.9342912
11
155.5233666
21
-59.9092912
0
LINE
8
0
10
155.5233666
20
-59.9092912
11
150.7733666
21
-59.9092912
0
LINE
8
0
10
153.1483666
20
-47.5592912
11
155.5233666
21
-47.5592912
0
LINE
8
0
10
155.5233666
20
-47.5592912
11
155.5233666
21
-46.5342912
0
LINE
8
0
10
155.5233666
20
-43.9342912
11
155.5233666
21
-42.9092912
0
LINE
8
0
10
155.5233666
20
-42.9092912
11
150.7733666
21
-42.9092912
0
LINE
8
0
10
171.1483666
20
-83.5592911
11
173.5233666
21
-83.5592911
0
LINE
8
0
10
173.5233666
20
-83.5592911
11
173.5233666
21
-82.5342911
0
LINE
8
0
10
173.5233666
20
-79.9342911
11
173.5233666
21
-78.9092911
0
LINE
8
0
10
173.5233666
20
-78.9092911
11
168.7733666
21
-78.9092911
0
LINE
8
0
10
171.1483666
20
-66.5592911
11
173.5233666
21
-66.5592911
0
LINE
8
0
10
173.5233666
20
-66.5592911
11
173.5233666
21
-65.5342911
0
LINE
8
0
10
173.5233666
20
-62.9342911
11
173.5233666
21
-61.9092911
0
LINE
8
0
10
173.5233666
20
-61.9092911
11
168.7733666
21
-61.9092911
0
LINE
8
0
10
171.1483666
20
-49.5592911
11
173.5233666
21
-49.5592911
0
LINE
8
0
10
173.5233666
20
-49.5592911
11
173.5233666
21
-48.5342911
0
LINE
8
0
10
173.5233666
20
-45.9342911
11
173.5233666
21
-44.9092911
0
LINE
8
0
10
173.5233666
20
-44.9092911
11
168.7733666
21
-44.9092911
0
LINE
8
0
10
157.1483666
20
-103.5592912
11
159.5233666
21
-103.5592912
0
LINE
8
0
10
159.5233666
20
-103.5592912
11
159.5233666
21
-102.5342912
0
LINE
8
0
10
159.5233666
20
-99.9342912
11
159.5233666
21
-98.9092912
0
LINE
8
0
10
159.5233666
20
-98.9092912
11
154.7733666
21
-98.9092912
0
LINE
8
0
10
177.8973905
20
-105.9459483
11
180.2115194
21
-106.4802071
0
LINE
8
0
10
180.2115194
20
-106.4802071
11
180.4420942
21
-105.4814778
0
LINE
8
0
10
181.026967
20
-102.9481156
11
181.2575418
21
-101.9493863
0
LINE
8
0
10
181.2575418
20
-101.9493863
11
176.629284
21
-100.8808687
0
LINE
8
0
10
197.4571852
20
-113.0871156
11
199.591821
21
-114.128247
0
LINE
8
0
10
199.591821
20
-114.128247
11
200.0411514
21
-113.2069831
0
LINE
8
0
10
201.1809164
20
-110.8701186
11
201.6302469
21
-109.9488547
0
LINE
8
0
10
201.6302469
20
-109.9488547
11
197.3609752
21
-107.8665918
0
LINE
8
0
10
101.8759321
20
-95.1272181
11
104.5611413
21
-94.8449912
0
LINE
8
0
10
104.5611413
20
-94.8449912
11
104.2893673
21
-92.2592343
0
LINE
8
0
10
104.2893673
20
-92.2592343
11
101.6041581
21
-92.5414612
0
LINE
8
0
10
100.0989482
20
-78.2203459
11
102.7841574
21
-77.938119
0
LINE
8
0
10
102.7841574
20
-77.938119
11
102.5123834
21
-75.3523621
0
LINE
8
0
10
102.5123834
20
-75.3523621
11
99.8271742
21
-75.634589
0
LINE
8
0
10
98.3219643
20
-61.3134737
11
101.0071735
21
-61.0312468
0
LINE
8
0
10
101.0071735
20
-61.0312468
11
100.7353995
21
-58.4454899
0
LINE
8
0
10
100.7353995
20
-58.4454899
11
98.0501903
21
-58.7277168
0
LINE
8
0
10
118.9591111
20
-78.3804697
11
121.6554108
21
-78.2391627
0
LINE
8
0
10
121.6554108
20
-78.2391627
11
121.5193373
21
-75.6427259
0
LINE
8
0
10
121.5193373
20
-75.6427259
11
118.8230376
21
-75.7840329
0
LINE
8
0
10
118.0693998
20
-61.4037676
11
120.7656995
21
-61.2624606
0
LINE
8
0
10
120.7656995
20
-61.2624606
11
120.629626
21
-58.6660238
0
LINE
8
0
10
120.629626
20
-58.6660238
11
117.9333263
21
-58.8073308
0
LINE
8
0
10
117.1796885
20
-44.4270655
11
119.8759882
21
-44.2857585
0
LINE
8
0
10
119.8759882
20
-44.2857585
11
119.7399147
21
-41.6893217
0
LINE
8
0
10
119.7399147
20
-41.6893217
11
117.043615
21
-41.8306287
0
LINE
8
0
10
137.5233667
20
-74.5342912
11
140.2233667
21
-74.5342912
0
LINE
8
0
10
140.2233667
20
-74.5342912
11
140.2233667
21
-71.9342912
0
LINE
8
0
10
140.2233667
20
-71.9342912
11
137.5233667
21
-71.9342912
0
LINE
8
0
10
137.5233667
20
-57.5342912
11
140.2233667
21
-57.5342912
0
LINE
8
0
10
140.2233667
20
-57.5342912
11
140.2233667
21
-54.9342912
0
LINE
8
0
10
140.2233667
20
-54.9342912
11
137.5233667
21
-54.9342912
0
LINE
8
0
10
137.5233667
20
-40.5342912
11
140.2233667
21
-40.5342912
0
LINE
8
0
10
140.2233667
20
-40.5342912
11
140.2233667
21
-37.9342912
0
LINE
8
0
10
140.2233667
20
-37.9342912
11
137.5233667
21
-37.9342912
0
LINE
8
0
10
155.5233666
20
-80.5342912
11
158.2233666
21
-80.5342912
0
LINE
8
0
10
158.2233666
20
-80.5342912
11
158.2233666
21
-77.9342912
0
LINE
8
0
10
158.2233666
20
-77.9342912
11
155.5233666
21
-77.9342912
0
LINE
8
0
10
155.5233666
20
-63.5342912
11
158.2233666
21
-63.5342912
0
LINE
8
0
10
158.2233666
20
-63.5342912
11
158.2233666
21
-60.9342912
0
LINE
8
0
10
158.2233666
20
-60.9342912
11
155.5233666
21
-60.9342912
0
LINE
8
0
10
155.5233666
20
-46.5342912
11
158.2233666
21
-46.5342912
0
LINE
8
0
10
158.2233666
20
-46.5342912
11
158.2233666
21
-43.9342912
0
LINE
8
0
10
158.2233666
20
-43.9342912
11
155.5233666
21
-43.9342912
0
LINE
8
0
10
173.5233666
20
-82.5342911
11
176.2233666
21
-82.5342911
0
LINE
8
0
10
176.2233666
20
-82.5342911
11
176.2233666
21
-79.9342911
0
LINE
8
0
10
176.2233666
20
-79.9342911
11
173.5233666
21
-79.9342911
0
LINE
8
0
10
173.5233666
20
-65.5342911
11
176.2233666
21
-65.5342911
0
LINE
8
0
10
176.2233666
20
-65.5342911
11
176.2233666
21
-62.9342911
0
LINE
8
0
10
176.2233666
20
-62.9342911
11
173.5233666
21
-62.9342911
0
LINE
8
0
10
173.5233666
20
-48.5342911
11
176.2233666
21
-48.5342911
0
LINE
8
0
10
176.2233666
20
-48.5342911
11
176.2233666
21
-45.9342911
0
LINE
8
0
10
176.2233666
20
-45.9342911
11
173.5233666
21
-45.9342911
0
LINE
8
0
10
159.5233666
20
-102.5342912
11
162.2233666
21
-102.5342912
0
LINE
8
0
10
162.2233666
20
-102.5342912
11
162.2233666
21
-99.9342912
0
LINE
8
0
10
162.2233666
20
-99.9342912
11
159.5233666
21
-99.9342912
0
LINE
8
0
10
180.4420942
20
-105.4814778
11
183.0728934
21
-106.0888456
0
LINE
8
0
10
183.0728934
20
-106.0888456
11
183.6577662
21
-103.5554834
0
LINE
8
0
10
183.6577662
20
-103.5554834
11
181.026967
21
-102.9481156
0
LINE
8
0
10
200.0411514
20
-113.2069831
11
202.4678954
21
-114.3905852
0
LINE
8
0
10
202.4678954
20
-114.3905852
11
203.6076604
21
-112.0537207
0
LINE
8
0
10
203.6076604
20
-112.0537207
11
201.1809164
21
-110.8701186
0
LINE
8
0
10
94.532736
20
-94.4661698
11
96.7730375
21
-92.0185864
0
LINE
8
0
10
99.6210843
20
-96.3948581
11
97.240427
21
-98.8571935
0
LINE
8
0
10
92.7557521
20
-77.5592976
11
94.9960536
21
-75.1117142
0
LINE
8
0
10
97.8441004
20
-79.4879859
11
95.4634431
21
-81.9503213
0
LINE
8
0
10
90.9787682
20
-60.6524254
11
93.2190697
21
-58.204842
0
LINE
8
0
10
96.0671165
20
-62.5811137
11
93.6864592
21
-65.0434491
0
LINE
8
0
10
111.6605751
20
-77.3360142
11
114.0259029
21
-75.0090335
0
LINE
8
0
10
116.6410103
20
-79.5283629
11
114.1347468
21
-81.8627298
0
LINE
8
0
10
110.7708638
20
-60.3593121
11
113.1361916
21
-58.0323314
0
LINE
8
0
10
115.751299
20
-62.5516608
11
113.2450355
21
-64.8860277
0
LINE
8
0
10
109.8811525
20
-43.38261
11
112.2464803
21
-41.0556293
0
LINE
8
0
10
114.8615877
20
-45.5749587
11
112.3553242
21
-47.9093256
0
LINE
8
0
10
130.2894957
20
-73.1092912
11
132.7733667
21
-70.9092912
0
LINE
8
0
10
135.1483667
20
-75.5592912
11
132.5233667
21
-77.7592912
0
LINE
8
0
10
130.2894957
20
-56.1092912
11
132.7733667
21
-53.9092912
0
LINE
8
0
10
135.1483667
20
-58.5592912
11
132.5233667
21
-60.7592912
0
LINE
8
0
10
130.2894957
20
-39.1092912
11
132.7733667
21
-36.9092912
0
LINE
8
0
10
135.1483667
20
-41.5592912
11
132.5233667
21
-43.7592912
0
LINE
8
0
10
148.2894956
20
-79.1092912
11
150.7733666
21
-76.9092912
0
LINE
8
0
10
153.1483666
20
-81.5592912
11
150.5233666
21
-83.7592912
0
LINE
8
0
10
148.2894956
20
-62.1092912
11
150.7733666
21
-59.9092912
0
LINE
8
0
10
153.1483666
20
-64.5592912
11
150.5233666
21
-66.7592912
0
LINE
8
0
10
148.2894956
20
-45.1092912
11
150.7733666
21
-42.9092912
0
LINE
8
0
10
153.1483666
20
-47.5592912
11
150.5233666
21
-49.7592912
0
LINE
8
0
10
166.2894956
20
-81.1092911
11
168.7733666
21
-78.9092911
0
LINE
8
0
10
171.1483666
20
-83.5592911
11
168.5233666
21
-85.7592911
0
LINE
8
0
10
166.2894956
20
-64.1092911
11
168.7733666
21
-61.9092911
0
LINE
8
0
10
171.1483666
20
-66.5592911
11
168.5233666
21
-68.7592911
0
LINE
8
0
10
166.2894956
20
-47.1092911
11
168.7733666
21
-44.9092911
0
LINE
8
0
10
171.1483666
20
-49.5592911
11
168.5233666
21
-51.7592911
0
LINE
8
0
10
152.2894956
20
-101.1092912
11
154.7733666
21
-98.9092912
0
LINE
8
0
10
157.1483666
20
-103.5592912
11
154.5233666
21
-105.7592912
0
LINE
8
0
10
173.714182
20
-102.4657335
11
176.629284
21
-100.8808688
0
LINE
8
0
10
177.8973905
20
-105.9459483
11
174.8447767
21
-107.4990659
0
LINE
8
0
10
194.1640703
20
-108.7550813
11
197.3609752
21
-107.8665918
0
LINE
8
0
10
197.4571852
20
-113.0871156
11
194.1334343
21
-113.9137382
0
LINE
8
0
10
185.1483666
20
-89.6842911
11
188.1483666
21
-89.6842911
0
LINE
8
0
10
189.1483666
20
-88.6842911
11
189.1483666
21
-57.6842911
0
LINE
8
0
10
188.1483666
20
-56.6842911
11
185.1483666
21
-56.6842911
0
LINE
8
0
10
184.1483666
20
-57.6842911
11
184.1483666
21
-88.6842911
0
ARC
8
0
10
188.1483666
20
-88.6842911
40
1
50
270
51
0
0
ARC
8
0
10
188.1483666
20
-57.6842911
40
1
50
0
51
90
0
ARC
8
0
10
185.1483666
20
-57.6842911
40
1
50
90
51
180
0
ARC
8
0
10
185.1483666
20
-88.6842911
40
1
50
180
51
270
0
LINE
8
0
10
198.0483666
20
-89.6842911
11
201.0483666
21
-89.6842911
0
LINE
8
0
10
202.0483666
20
-88.6842911
11
202.0483666
21
-57.6842911
0
LINE
8
0
10
201.0483666
20
-56.6842911
11
198.0483666
21
-56.6842911
0
LINE
8
0
10
197.0483666
20
-57.6842911
11
197.0483666
21
-88.6842911
0
ARC
8
0
10
201.0483666
20
-88.6842911
40
1
50
270
51
0
0
ARC
8
0
10
201.0483666
20
-57.6842911
40
1
50
0
51
90
0
ARC
8
0
10
198.0483666
20
-57.6842911
40
1
50
90
51
180
0
ARC
8
0
10
198.0483666
20
-88.6842911
40
1
50
180
51
270
0
LINE
8
0
10
102.6985068
20
-115.7342912
11
102.6985068
21
-111.7342912
0
LINE
8
0
10
102.6985068
20
-111.7342912
11
100.6985068
21
-111.7342912
0
LINE
8
0
10
100.6985068
20
-111.7342912
11
100.6985068
21
-115.7342912
0
LINE
8
0
10
100.6985068
20
-115.7342912
11
102.6985068
21
-115.7342912
0
ENDSEC
0
EOF