0
SECTION
2
HEADER
9
$INSUNITS
70
4
0
ENDSEC
0
SECTION
2
TABLES
0
TABLE
2
LTYPE
0
LTYPE
72
65
70
64
2
CONTINUOUS
3
______
73
0
40
0
0
ENDTAB
0
TABLE
2
LAYER
0
ENDTAB
0
ENDSEC
0
SECTION
2
ENTITIES
0
LINE
8
0
10
85.6123213
20
-58.7781041
11
91.604389
21
-115.7888197
0
LINE
8
0
10
86.5023147
20
-57.6790537
11
88.7634041
21
-57.4414037
0
LINE
8
0
10
145.1483667
20
-37.6842912
11
145.1483667
21
-36.6842912
0
LINE
8
0
10
144.1483667
20
-35.6842912
11
126.1483667
21
-35.6842912
0
LINE
8
0
10
125.1483667
20
-36.6842912
11
125.1483667
21
-37.6842912
0
LINE
8
0
10
181.1483666
20
-54.6842911
11
181.1483666
21
-50.7342911
0
LINE
8
0
10
181.1483666
20
-48.1342911
11
181.1483666
21
-39.6842912
0
LINE
8
0
10
92.5989109
20
-116.6842912
11
165.9503019
21
-116.6842912
0
LINE
8
0
10
166.175253
20
-116.7099211
11
182.7155249
21
-120.5285438
0
LINE
8
0
10
182.9289449
20
-120.6041199
11
199.7927104
21
-128.8291278
0
LINE
8
0
10
201.1298755
20
-128.3687049
11
205.9300396
21
-118.52691
0
LINE
8
0
10
207.0698046
20
-116.1900455
11
208.5821851
21
-113.089206
0
LINE
8
0
10
203.6099955
20
-109.5515052
11
208.1217622
21
-111.7520409
0
LINE
8
0
10
182.1483666
20
-55.6842911
11
202.0483666
21
-55.6842911
0
LINE
8
0
10
203.0483666
20
-56.6842911
11
203.0483666
21
-108.6527112
0
LINE
8
0
10
89.6588362
20
-56.4380059
11
89.510205
21
-39.6931671
0
LINE
8
0
10
90.5101656
20
-38.6842912
11
124.1483667
21
-38.6842912
0
LINE
8
0
10
146.1483667
20
-38.6842912
11
180.1483666
21
-38.6842912
0
ARC
8
0
10
92.5989109
20
-115.6842912
40
1
50
186.0000021
51
270
0
ARC
8
0
10
165.9503019
20
-117.6842912
40
1
50
76.9999979
51
90
0
ARC
8
0
10
182.4905738
20
-121.5029139
40
1
50
64.0000012
51
76.9999979
0
ARC
8
0
10
200.2310815
20
-127.9303338
40
1
50
244.0000012
51
334.0000012
0
ARC
8
0
10
207.6833911
20
-112.6508349
40
1
50
334.0000012
51
64.0000012
0
ARC
8
0
10
204.0483666
20
-108.6527112
40
1
50
180
51
244.0000012
0
ARC
8
0
10
202.0483666
20
-56.6842911
40
1
50
0
51
90
0
ARC
8
0
10
182.1483666
20
-54.6842911
40
1
50
180
51
270
0
ARC
8
0
10
180.1483666
20
-39.6842912
40
1
50
0
51
90
0
ARC
8
0
10
146.1483667
20
-37.6842912
40
1
50
180
51
270
0
ARC
8
0
10
144.1483667
20
-36.6842912
40
1
50
0
51
90
0
ARC
8
0
10
126.1483667
20
-36.6842912
40
1
50
90
51
180
0
ARC
8
0
10
124.1483667
20
-37.6842912
40
1
50
270
51
0
0
ARC
8
0
10
90.5101656
20
-39.6842912
40
1
50
90
51
180.5085583
0
ARC
8
0
10
88.6588756
20
-56.4468818
40
1
50
276.0000021
51
0.5085583
0
ARC
8
0
10
86.6068432
20
-58.6735756
40
1
50
96.0000021
51
186.0000021
0
CIRCLE
8
0
10
92.50125
20
-44.6842912
40
1.1
0
CIRCLE
8
0
10
178.1483666
20
-41.1842912
40
1.1
0
CIRCLE
8
0
10
135.1483667
20
-91.6842912
40
1.1
0
CIRCLE
8
0
10
199.5280893
20
-101.9976169
40
1.1
0
CIRCLE
8
0
10
94.6985068
20
-113.6842912
40
1.1
0
CIRCLE
8
0
10
100
20
-100
40
1.7
0
CIRCLE
8
0
10
98.2230161
20
-83.0931278
40
1.7
0
CIRCLE
8
0
10
96.4460322
20
-66.1862556
40
1.7
0
CIRCLE
8
0
10
116.8307281
20
-83.148395
40
1.7
0
CIRCLE
8
0
10
115.9410168
20
-66.1716929
40
1.7
0
CIRCLE
8
0
10
115.0513055
20
-49.1949908
40
1.7
0
CIRCLE
8
0
10
135.1483667
20
-79.1842912
40
1.7
0
CIRCLE
8
0
10
135.1483667
20
-62.1842912
40
1.7
0
CIRCLE
8
0
10
135.1483667
20
-45.1842912
40
1.7
0
CIRCLE
8
0
10
153.1483666
20
-85.1842912
40
1.7
0
CIRCLE
8
0
10
153.1483666
20
-68.1842912
40
1.7
0
CIRCLE
8
0
10
153.1483666
20
-51.1842912
40
1.7
0
CIRCLE
8
0
10
171.1483666
20
-87.1842911
40
1.7
0
CIRCLE
8
0
10
171.1483666
20
-70.1842911
40
1.7
0
CIRCLE
8
0
10
171.1483666
20
-53.1842911
40
1.7
0
CIRCLE
8
0
10
157.1483666
20
-107.1842912
40
1.7
0
CIRCLE
8
0
10
177.0819429
20
-109.4780398
40
1.7
0
CIRCLE
8
0
10
195.8680898
20
-116.345244
40
1.7
0
CIRCLE
8
0
10
105.4698704
20
-99.4250935
40
0.9
0
CIRCLE
8
0
10
103.6928865
20
-82.5182213
40
0.9
0
CIRCLE
8
0
10
101.9159026
20
-65.6113491
40
0.9
0
CIRCLE
8
0
10
122.3231905
20
-82.8605472
40
0.9
0
CIRCLE
8
0
10
121.4334792
20
-65.8838451
40
0.9
0
CIRCLE
8
0
10
120.5437679
20
-48.907143
40
0.9
0
CIRCLE
8
0
10
140.6483667
20
-79.1842912
40
0.9
0
CIRCLE
8
0
10
140.6483667
20
-62.1842912
40
0.9
0
CIRCLE
8
0
10
140.6483667
20
-45.1842912
40
0.9
0
CIRCLE
8
0
10
158.6483666
20
-85.1842912
40
0.9
0
CIRCLE
8
0
10
158.6483666
20
-68.1842912
40
0.9
0
CIRCLE
8
0
10
158.6483666
20
-51.1842912
40
0.9
0
CIRCLE
8
0
10
176.6483666
20
-87.1842911
40
0.9
0
CIRCLE
8
0
10
176.6483666
20
-70.1842911
40
0.9
0
CIRCLE
8
0
10
176.6483666
20
-53.1842911
40
0.9
0
CIRCLE
8
0
10
162.6483666
20
-107.1842912
40
0.9
0
CIRCLE
8
0
10
182.4409783
20
-110.7152706
40
0.9
0
CIRCLE
8
0
10
200.8114571
20
-118.7562853
40
0.9
0
CIRCLE
8
0
10
94.5301296
20
-100.5749065
40
0.9
0
CIRCLE
8
0
10
92.7531457
20
-83.6680343
40
0.9
0
CIRCLE
8
0
10
90.9761618
20
-66.7611621
40
0.9
0
CIRCLE
8
0
10
111.3382657
20
-83.4362428
40
0.9
0
CIRCLE
8
0
10
110.4485544
20
-66.4595407
40
0.9
0
CIRCLE
8
0
10
109.5588431
20
-49.4828386
40
0.9
0
CIRCLE
8
0
10
129.6483667
20
-79.1842912
40
0.9
0
CIRCLE
8
0
10
129.6483667
20
-62.1842912
40
0.9
0
CIRCLE
8
0
10
129.6483667
20
-45.1842912
40
0.9
0
CIRCLE
8
0
10
147.6483666
20
-85.1842912
40
0.9
0
CIRCLE
8
0
10
147.6483666
20
-68.1842912
40
0.9
0
CIRCLE
8
0
10
147.6483666
20
-51.1842912
40
0.9
0
CIRCLE
8
0
10
165.6483666
20
-87.1842911
40
0.9
0
CIRCLE
8
0
10
165.6483666
20
-70.1842911
40
0.9
0
CIRCLE
8
0
10
165.6483666
20
-53.1842911
40
0.9
0
CIRCLE
8
0
10
151.6483666
20
-107.1842912
40
0.9
0
CIRCLE
8
0
10
171.7229075
20
-108.240809
40
0.9
0
CIRCLE
8
0
10
190.9247225
20
-113.9342027
40
0.9
0
LINE
8
0
10
97.2590948
20
-96.6431132
11
99.7333691
21
-96.3830565
0
LINE
8
0
10
101.4970164
20
-91.5220762
11
96.7730374
21
-92.0185864
0
LINE
8
0
10
96.7730374
20
-92.0185864
11
96.8801792
21
-93.0379713
0
LINE
8
0
10
97.1519532
20
-95.6237282
11
97.2590948
21
-96.6431132
0
LINE
8
0
10
95.4821109
20
-79.736241
11
97.9563852
21
-79.4761843
0
LINE
8
0
10
99.7200325
20
-74.615204
11
94.9960535
21
-75.1117142
0
LINE
8
0
10
94.9960535
20
-75.1117142
11
95.1031953
21
-76.1310991
0
LINE
8
0
10
95.3749693
20
-78.716856
11
95.4821109
21
-79.736241
0
LINE
8
0
10
93.705127
20
-62.8293688
11
96.1794013
21
-62.5693121
0
LINE
8
0
10
97.9430486
20
-57.7083318
11
93.2190696
21
-58.204842
0
LINE
8
0
10
93.2190696
20
-58.204842
11
93.3262114
21
-59.2242269
0
LINE
8
0
10
93.5979854
20
-61.8099838
11
93.705127
21
-62.8293688
0
LINE
8
0
10
114.2692652
20
-79.6526609
11
116.7537588
21
-79.5224541
0
LINE
8
0
10
118.7693932
20
-74.7604377
11
114.025903
21
-75.0090335
0
LINE
8
0
10
114.025903
20
-75.0090335
11
114.0795472
21
-76.0326288
0
LINE
8
0
10
114.2156207
20
-78.6290656
11
114.2692652
21
-79.6526609
0
LINE
8
0
10
113.3795539
20
-62.6759588
11
115.8640475
21
-62.545752
0
LINE
8
0
10
117.8796819
20
-57.7837356
11
113.1361917
21
-58.0323314
0
LINE
8
0
10
113.1361917
20
-58.0323314
11
113.1898359
21
-59.0559267
0
LINE
8
0
10
113.3259094
20
-61.6523635
11
113.3795539
21
-62.6759588
0
LINE
8
0
10
112.4898426
20
-45.6992567
11
114.9743362
21
-45.5690499
0
LINE
8
0
10
116.9899706
20
-40.8070335
11
112.2464804
21
-41.0556293
0
LINE
8
0
10
112.2464804
20
-41.0556293
11
112.3001246
21
-42.0792246
0
LINE
8
0
10
112.4361981
20
-44.6756614
11
112.4898426
21
-45.6992567
0
LINE
8
0
10
132.7733667
20
-75.5592912
11
135.2612699
21
-75.5592912
0
LINE
8
0
10
137.5233667
20
-70.9092912
11
132.7733667
21
-70.9092912
0
LINE
8
0
10
132.7733667
20
-70.9092912
11
132.7733667
21
-71.9342912
0
LINE
8
0
10
132.7733667
20
-74.5342912
11
132.7733667
21
-75.5592912
0
LINE
8
0
10
132.7733667
20
-58.5592912
11
135.2612699
21
-58.5592912
0
LINE
8
0
10
137.5233667
20
-53.9092912
11
132.7733667
21
-53.9092912
0
LINE
8
0
10
132.7733667
20
-53.9092912
11
132.7733667
21
-54.9342912
0
LINE
8
0
10
132.7733667
20
-57.5342912
11
132.7733667
21
-58.5592912
0
LINE
8
0
10
132.7733667
20
-41.5592912
11
135.2612699
21
-41.5592912
0
LINE
8
0
10
137.5233667
20
-36.9092912
11
132.7733667
21
-36.9092912
0
LINE
8
0
10
132.7733667
20
-36.9092912
11
132.7733667
21
-37.9342912
0
LINE
8
0
10
132.7733667
20
-40.5342912
11
132.7733667
21
-41.5592912
0
LINE
8
0
10
150.7733666
20
-81.5592912
11
153.2612698
21
-81.5592912
0
LINE
8
0
10
155.5233666
20
-76.9092912
11
150.7733666
21
-76.9092912
0
LINE
8
0
10
150.7733666
20
-76.9092912
11
150.7733666
21
-77.9342912
0
LINE
8
0
10
150.7733666
20
-80.5342912
11
150.7733666
21
-81.5592912
0
LINE
8
0
10
150.7733666
20
-64.5592912
11
153.2612698
21
-64.5592912
0
LINE
8
0
10
155.5233666
20
-59.9092912
11
150.7733666
21
-59.9092912
0
LINE
8
0
10
150.7733666
20
-59.9092912
11
150.7733666
21
-60.9342912
0
LINE
8
0
10
150.7733666
20
-63.5342912
11
150.7733666
21
-64.5592912
0
LINE
8
0
10
150.7733666
20
-47.5592912
11
153.2612698
21
-47.5592912
0
LINE
8
0
10
155.5233666
20
-42.9092912
11
150.7733666
21
-42.9092912
0
LINE
8
0
10
150.7733666
20
-42.9092912
11
150.7733666
21
-43.9342912
0
LINE
8
0
10
150.7733666
20
-46.5342912
11
150.7733666
21
-47.5592912
0
LINE
8
0
10
168.7733666
20
-83.5592911
11
171.2612698
21
-83.5592911
0
LINE
8
0
10
173.5233666
20
-78.9092911
11
168.7733666
21
-78.9092911
0
LINE
8
0
10
168.7733666
20
-78.9092911
11
168.7733666
21
-79.9342911
0
LINE
8
0
10
168.7733666
20
-82.5342911
11
168.7733666
21
-83.5592911
0
LINE
8
0
10
168.7733666
20
-66.5592911
11
171.2612698
21
-66.5592911
0
LINE
8
0
10
173.5233666
20
-61.9092911
11
168.7733666
21
-61.9092911
0
LINE
8
0
10
168.7733666
20
-61.9092911
11
168.7733666
21
-62.9342911
0
LINE
8
0
10
168.7733666
20
-65.5342911
11
168.7733666
21
-66.5592911
0
LINE
8
0
10
168.7733666
20
-49.5592911
11
171.2612698
21
-49.5592911
0
LINE
8
0
10
173.5233666
20
-44.9092911
11
168.7733666
21
-44.9092911
0
LINE
8
0
10
168.7733666
20
-44.9092911
11
168.7733666
21
-45.9342911
0
LINE
8
0
10
168.7733666
20
-48.5342911
11
168.7733666
21
-49.5592911
0
LINE
8
0
10
154.7733666
20
-103.5592912
11
157.2612698
21
-103.5592912
0
LINE
8
0
10
159.5233666
20
-98.9092912
11
154.7733666
21
-98.9092912
0
LINE
8
0
10
154.7733666
20
-98.9092912
11
154.7733666
21
-99.9342912
0
LINE
8
0
10
154.7733666
20
-102.5342912
11
154.7733666
21
-103.5592912
0
LINE
8
0
10
175.5832616
20
-105.4116895
11
178.0074
21
-105.971346
0
LINE
8
0
10
181.2575418
20
-101.9493863
11
176.629284
21
-100.8808687
0
LINE
8
0
10
176.629284
20
-100.8808687
11
176.3987092
21
-101.879598
0
LINE
8
0
10
175.8138364
20
-104.4129602
11
175.5832616
21
-105.4116895
0
LINE
8
0
10
195.3225493
20
-112.0459841
11
197.5586619
21
-113.1366091
0
LINE
8
0
10
201.6302469
20
-109.9488547
11
197.3609752
21
-107.8665918
0
LINE
8
0
10
197.3609752
20
-107.8665918
11
196.9116448
21
-108.7878557
0
LINE
8
0
10
195.7718798
20
-111.1247202
11
195.3225493
21
-112.0459841
0
LINE
8
0
10
94.466744
20
-95.9059551
11
97.1519532
21
-95.6237282
0
LINE
8
0
10
96.8801792
20
-93.0379713
11
94.19497
21
-93.3201982
0
LINE
8
0
10
94.19497
20
-93.3201982
11
94.466744
21
-95.9059551
0
LINE
8
0
10
92.6897601
20
-78.9990829
11
95.3749693
21
-78.716856
0
LINE
8
0
10
95.1031953
20
-76.1310991
11
92.4179861
21
-76.413326
0
LINE
8
0
10
92.4179861
20
-76.413326
11
92.6897601
21
-78.9990829
0
LINE
8
0
10
90.9127762
20
-62.0922107
11
93.5979854
21
-61.8099838
0
LINE
8
0
10
93.3262114
20
-59.2242269
11
90.6410022
21
-59.5064538
0
LINE
8
0
10
90.6410022
20
-59.5064538
11
90.9127762
21
-62.0922107
0
LINE
8
0
10
111.519321
20
-78.7703726
11
114.2156207
21
-78.6290656
0
LINE
8
0
10
114.0795472
20
-76.0326288
11
111.3832475
21
-76.1739358
0
LINE
8
0
10
111.3832475
20
-76.1739358
11
111.519321
21
-78.7703726
0
LINE
8
0
10
110.6296097
20
-61.7936705
11
113.3259094
21
-61.6523635
0
LINE
8
0
10
113.1898359
20
-59.0559267
11
110.4935362
21
-59.1972337
0
LINE
8
0
10
110.4935362
20
-59.1972337
11
110.6296097
21
-61.7936705
0
LINE
8
0
10
109.7398984
20
-44.8169684
11
112.4361981
21
-44.6756614
0
LINE
8
0
10
112.3001246
20
-42.0792246
11
109.6038249
21
-42.2205316
0
LINE
8
0
10
109.6038249
20
-42.2205316
11
109.7398984
21
-44.8169684
0
LINE
8
0
10
130.0733667
20
-74.5342912
11
132.7733667
21
-74.5342912
0
LINE
8
0
10
132.7733667
20
-71.9342912
11
130.0733667
21
-71.9342912
0
LINE
8
0
10
130.0733667
20
-71.9342912
11
130.0733667
21
-74.5342912
0
LINE
8
0
10
130.0733667
20
-57.5342912
11
132.7733667
21
-57.5342912
0
LINE
8
0
10
132.7733667
20
-54.9342912
11
130.0733667
21
-54.9342912
0
LINE
8
0
10
130.0733667
20
-54.9342912
11
130.0733667
21
-57.5342912
0
LINE
8
0
10
130.0733667
20
-40.5342912
11
132.7733667
21
-40.5342912
0
LINE
8
0
10
132.7733667
20
-37.9342912
11
130.0733667
21
-37.9342912
0
LINE
8
0
10
130.0733667
20
-37.9342912
11
130.0733667
21
-40.5342912
0
LINE
8
0
10
148.0733666
20
-80.5342912
11
150.7733666
21
-80.5342912
0
LINE
8
0
10
150.7733666
20
-77.9342912
11
148.0733666
21
-77.9342912
0
LINE
8
0
10
148.0733666
20
-77.9342912
11
148.0733666
21
-80.5342912
0
LINE
8
0
10
148.0733666
20
-63.5342912
11
150.7733666
21
-63.5342912
0
LINE
8
0
10
150.7733666
20
-60.9342912
11
148.0733666
21
-60.9342912
0
LINE
8
0
10
148.0733666
20
-60.9342912
11
148.0733666
21
-63.5342912
0
LINE
8
0
10
148.0733666
20
-46.5342912
11
150.7733666
21
-46.5342912
0
LINE
8
0
10
150.7733666
20
-43.9342912
11
148.0733666
21
-43.9342912
0
LINE
8
0
10
148.0733666
20
-43.9342912
11
148.0733666
21
-46.5342912
0
LINE
8
0
10
166.0733666
20
-82.5342911
11
168.7733666
21
-82.5342911
0
LINE
8
0
10
168.7733666
20
-79.9342911
11
166.0733666
21
-79.9342911
0
LINE
8
0
10
166.0733666
20
-79.9342911
11
166.0733666
21
-82.5342911
0
LINE
8
0
10
166.0733666
20
-65.5342911
11
168.7733666
21
-65.5342911
0
LINE
8
0
10
168.7733666
20
-62.9342911
11
166.0733666
21
-62.9342911
0
LINE
8
0
10
166.0733666
20
-62.9342911
11
166.0733666
21
-65.5342911
0
LINE
8
0
10
166.0733666
20
-48.5342911
11
168.7733666
21
-48.5342911
0
LINE
8
0
10
168.7733666
20
-45.9342911
11
166.0733666
21
-45.9342911
0
LINE
8
0
10
166.0733666
20
-45.9342911
11
166.0733666
21
-48.5342911
0
LINE
8
0
10
152.0733666
20
-102.5342912
11
154.7733666
21
-102.5342912
0
LINE
8
0
10
154.7733666
20
-99.9342912
11
152.0733666
21
-99.9342912
0
LINE
8
0
10
152.0733666
20
-99.9342912
11
152.0733666
21
-102.5342912
0
LINE
8
0
10
173.1830372
20
-103.8055924
11
175.8138364
21
-104.4129602
0
LINE
8
0
10
176.3987092
20
-101.879598
11
173.76791
21
-101.2722302
0
LINE
8
0
10
173.76791
20
-101.2722302
11
173.1830372
21
-103.8055924
0
LINE
8
0
10
193.3451358
20
-109.9411181
11
195.7718798
21
-111.1247202
0
LINE
8
0
10
196.9116448
20
-108.7878557
11
194.4849008
21
-107.6042536
0
LINE
8
0
10
194.4849008
20
-107.6042536
11
193.3451358
21
-109.9411181
0
LINE
8
0
10
102.4746448
20
-98.3070551
11
107.1856459
21
-97.8119089
0
LINE
8
0
10
107.1856459
20
-97.8119089
11
107.0785042
21
-96.792524
0
LINE
8
0
10
106.8067302
20
-94.2067671
11
106.6995885
21
-93.1873821
0
LINE
8
0
10
106.6995885
20
-93.1873821
11
104.1972432
21
-93.4503892
0
LINE
8
0
10
100.6976609
20
-81.4001829
11
105.408662
21
-80.9050367
0
LINE
8
0
10
105.408662
20
-80.9050367
11
105.3015203
21
-79.8856518
0
LINE
8
0
10
105.0297463
20
-77.2998949
11
104.9226046
21
-76.2805099
0
LINE
8
0
10
104.9226046
20
-76.2805099
11
102.4202593
21
-76.543517
0
LINE
8
0
10
98.920677
20
-64.4933107
11
103.6316781
21
-63.9981645
0
LINE
8
0
10
103.6316781
20
-63.9981645
11
103.5245364
21
-62.9787796
0
LINE
8
0
10
103.2527624
20
-60.3930227
11
103.1456207
21
-59.3736377
0
LINE
8
0
10
103.1456207
20
-59.3736377
11
100.6432754
21
-59.6366448
0
LINE
8
0
10
119.3905834
20
-81.5872831
11
124.1210421
21
-81.3393703
0
LINE
8
0
10
124.1210421
20
-81.3393703
11
124.0673979
21
-80.3157749
0
LINE
8
0
10
123.9313244
20
-77.7193381
11
123.8776799
21
-76.6957429
0
LINE
8
0
10
123.8776799
20
-76.6957429
11
121.3649992
21
-76.8274269
0
LINE
8
0
10
118.5008721
20
-64.610581
11
123.2313308
21
-64.3626682
0
LINE
8
0
10
123.2313308
20
-64.3626682
11
123.1776866
21
-63.3390728
0
LINE
8
0
10
123.0416131
20
-60.742636
11
122.9879686
21
-59.7190408
0
LINE
8
0
10
122.9879686
20
-59.7190408
11
120.4752879
21
-59.8507248
0
LINE
8
0
10
117.6111608
20
-47.6338789
11
122.3416195
21
-47.3859661
0
LINE
8
0
10
122.3416195
20
-47.3859661
11
122.2879753
21
-46.3623707
0
LINE
8
0
10
122.1519018
20
-43.7659339
11
122.0982573
21
-42.7423387
0
LINE
8
0
10
122.0982573
20
-42.7423387
11
119.5855766
21
-42.8740227
0
LINE
8
0
10
137.7864162
20
-77.7592912
11
142.5233667
21
-77.7592912
0
LINE
8
0
10
142.5233667
20
-77.7592912
11
142.5233667
21
-76.7342912
0
LINE
8
0
10
142.5233667
20
-74.1342912
11
142.5233667
21
-73.1092912
0
LINE
8
0
10
142.5233667
20
-73.1092912
11
140.0072377
21
-73.1092912
0
LINE
8
0
10
137.7864162
20
-60.7592912
11
142.5233667
21
-60.7592912
0
LINE
8
0
10
142.5233667
20
-60.7592912
11
142.5233667
21
-59.7342912
0
LINE
8
0
10
142.5233667
20
-57.1342912
11
142.5233667
21
-56.1092912
0
LINE
8
0
10
142.5233667
20
-56.1092912
11
140.0072377
21
-56.1092912
0
LINE
8
0
10
137.7864162
20
-43.7592912
11
142.5233667
21
-43.7592912
0
LINE
8
0
10
142.5233667
20
-43.7592912
11
142.5233667
21
-42.7342912
0
LINE
8
0
10
142.5233667
20
-40.1342912
11
142.5233667
21
-39.1092912
0
LINE
8
0
10
142.5233667
20
-39.1092912
11
140.0072377
21
-39.1092912
0
LINE
8
0
10
155.7864161
20
-83.7592912
11
160.5233666
21
-83.7592912
0
LINE
8
0
10
160.5233666
20
-83.7592912
11
160.5233666
21
-82.7342912
0
LINE
8
0
10
160.5233666
20
-80.1342912
11
160.5233666
21
-79.1092912
0
LINE
8
0
10
160.5233666
20
-79.1092912
11
158.0072376
21
-79.1092912
0
LINE
8
0
10
155.7864161
20
-66.7592912
11
160.5233666
21
-66.7592912
0
LINE
8
0
10
160.5233666
20
-66.7592912
11
160.5233666
21
-65.7342912
0
LINE
8
0
10
160.5233666
20
-63.1342912
11
160.5233666
21
-62.1092912
0
LINE
8
0
10
160.5233666
20
-62.1092912
11
158.0072376
21
-62.1092912
0
LINE
8
0
10
155.7864161
20
-49.7592912
11
160.5233666
21
-49.7592912
0
LINE
8
0
10
160.5233666
20
-49.7592912
11
160.5233666
21
-48.7342912
0
LINE
8
0
10
160.5233666
20
-46.1342912
11
160.5233666
21
-45.1092912
0
LINE
8
0
10
160.5233666
20
-45.1092912
11
158.0072376
21
-45.1092912
0
LINE
8
0
10
173.7864161
20
-85.7592911
11
178.5233666
21
-85.7592911
0
LINE
8
0
10
178.5233666
20
-85.7592911
11
178.5233666
21
-84.7342911
0
LINE
8
0
10
178.5233666
20
-82.1342911
11
178.5233666
21
-81.1092911
0
LINE
8
0
10
178.5233666
20
-81.1092911
11
176.0072376
21
-81.1092911
0
LINE
8
0
10
173.7864161
20
-68.7592911
11
178.5233666
21
-68.7592911
0
LINE
8
0
10
178.5233666
20
-68.7592911
11
178.5233666
21
-67.7342911
0
LINE
8
0
10
178.5233666
20
-65.1342911
11
178.5233666
21
-64.1092911
0
LINE
8
0
10
178.5233666
20
-64.1092911
11
176.0072376
21
-64.1092911
0
LINE
8
0
10
173.7864161
20
-51.7592911
11
178.5233666
21
-51.7592911
0
LINE
8
0
10
178.5233666
20
-51.7592911
11
178.5233666
21
-50.7342911
0
LINE
8
0
10
178.5233666
20
-48.1342911
11
178.5233666
21
-47.1092911
0
LINE
8
0
10
178.5233666
20
-47.1092911
11
176.0072376
21
-47.1092911
0
LINE
8
0
10
159.7864161
20
-105.7592912
11
164.5233666
21
-105.7592912
0
LINE
8
0
10
164.5233666
20
-105.7592912
11
164.5233666
21
-104.7342912
0
LINE
8
0
10
164.5233666
20
-102.1342912
11
164.5233666
21
-101.1092912
0
LINE
8
0
10
164.5233666
20
-101.1092912
11
162.0072376
21
-101.1092912
0
LINE
8
0
10
179.9729346
20
-108.6829944
11
184.5884774
21
-109.7485765
0
LINE
8
0
10
184.5884774
20
-109.7485765
11
184.8190522
21
-108.7498472
0
LINE
8
0
10
185.403925
20
-106.216485
11
185.6344998
21
-105.2177557
0
LINE
8
0
10
185.6344998
20
-105.2177557
11
183.1828589
21
-104.6517498
0
LINE
8
0
10
198.8638318
20
-116.2209073
11
203.1213747
21
-118.2974497
0
LINE
8
0
10
203.1213747
20
-118.2974497
11
203.5707052
21
-117.3761858
0
LINE
8
0
10
204.7104702
20
-115.0393213
11
205.1598006
21
-114.1180574
0
LINE
8
0
10
205.1598006
20
-114.1180574
11
202.8983189
21
-113.0150591
0
LINE
8
0
10
107.0785042
20
-96.792524
11
109.7637134
21
-96.5102971
0
LINE
8
0
10
109.7637134
20
-96.5102971
11
109.4919394
21
-93.9245402
0
LINE
8
0
10
109.4919394
20
-93.9245402
11
106.8067302
21
-94.2067671
0
LINE
8
0
10
105.3015203
20
-79.8856518
11
107.9867295
21
-79.6034249
0
LINE
8
0
10
107.9867295
20
-79.6034249
11
107.7149555
21
-77.017668
0
LINE
8
0
10
107.7149555
20
-77.017668
11
105.0297463
21
-77.2998949
0
LINE
8
0
10
103.5245364
20
-62.9787796
11
106.2097456
21
-62.6965527
0
LINE
8
0
10
106.2097456
20
-62.6965527
11
105.9379716
21
-60.1107958
0
LINE
8
0
10
105.9379716
20
-60.1107958
11
103.2527624
21
-60.3930227
0
LINE
8
0
10
124.0673979
20
-80.3157749
11
126.7636976
21
-80.1744679
0
LINE
8
0
10
126.7636976
20
-80.1744679
11
126.6276241
21
-77.5780311
0
LINE
8
0
10
126.6276241
20
-77.5780311
11
123.9313244
21
-77.7193381
0
LINE
8
0
10
123.1776866
20
-63.3390728
11
125.8739863
21
-63.1977658
0
LINE
8
0
10
125.8739863
20
-63.1977658
11
125.7379128
21
-60.601329
0
LINE
8
0
10
125.7379128
20
-60.601329
11
123.0416131
21
-60.742636
0
LINE
8
0
10
122.2879753
20
-46.3623707
11
124.984275
21
-46.2210637
0
LINE
8
0
10
124.984275
20
-46.2210637
11
124.8482015
21
-43.6246269
0
LINE
8
0
10
124.8482015
20
-43.6246269
11
122.1519018
21
-43.7659339
0
LINE
8
0
10
142.5233667
20
-76.7342912
11
145.2233667
21
-76.7342912
0
LINE
8
0
10
145.2233667
20
-76.7342912
11
145.2233667
21
-74.1342912
0
LINE
8
0
10
145.2233667
20
-74.1342912
11
142.5233667
21
-74.1342912
0
LINE
8
0
10
142.5233667
20
-59.7342912
11
145.2233667
21
-59.7342912
0
LINE
8
0
10
145.2233667
20
-59.7342912
11
145.2233667
21
-57.1342912
0
LINE
8
0
10
145.2233667
20
-57.1342912
11
142.5233667
21
-57.1342912
0
LINE
8
0
10
142.5233667
20
-42.7342912
11
145.2233667
21
-42.7342912
0
LINE
8
0
10
145.2233667
20
-42.7342912
11
145.2233667
21
-40.1342912
0
LINE
8
0
10
145.2233667
20
-40.1342912
11
142.5233667
21
-40.1342912
0
LINE
8
0
10
160.5233666
20
-82.7342912
11
163.2233666
21
-82.7342912
0
LINE
8
0
10
163.2233666
20
-82.7342912
11
163.2233666
21
-80.1342912
0
LINE
8
0
10
163.2233666
20
-80.1342912
11
160.5233666
21
-80.1342912
0
LINE
8
0
10
160.5233666
20
-65.7342912
11
163.2233666
21
-65.7342912
0
LINE
8
0
10
163.2233666
20
-65.7342912
11
163.2233666
21
-63.1342912
0
LINE
8
0
10
163.2233666
20
-63.1342912
11
160.5233666
21
-63.1342912
0
LINE
8
0
10
160.5233666
20
-48.7342912
11
163.2233666
21
-48.7342912
0
LINE
8
0
10
163.2233666
20
-48.7342912
11
163.2233666
21
-46.1342912
0
LINE
8
0
10
163.2233666
20
-46.1342912
11
160.5233666
21
-46.1342912
0
LINE
8
0
10
178.5233666
20
-84.7342911
11
181.2233666
21
-84.7342911
0
LINE
8
0
10
181.2233666
20
-84.7342911
11
181.2233666
21
-82.1342911
0
LINE
8
0
10
181.2233666
20
-82.1342911
11
178.5233666
21
-82.1342911
0
LINE
8
0
10
178.5233666
20
-67.7342911
11
181.2233666
21
-67.7342911
0
LINE
8
0
10
181.2233666
20
-67.7342911
11
181.2233666
21
-65.1342911
0
LINE
8
0
10
181.2233666
20
-65.1342911
11
178.5233666
21
-65.1342911
0
LINE
8
0
10
178.5233666
20
-50.7342911
11
181.1483666
21
-50.7342911
0
LINE
8
0
10
181.1483666
20
-48.1342911
11
178.5233666
21
-48.1342911
0
LINE
8
0
10
164.5233666
20
-104.7342912
11
167.2233666
21
-104.7342912
0
LINE
8
0
10
167.2233666
20
-104.7342912
11
167.2233666
21
-102.1342912
0
LINE
8
0
10
167.2233666
20
-102.1342912
11
164.5233666
21
-102.1342912
0
LINE
8
0
10
184.8190522
20
-108.7498472
11
187.4498514
21
-109.357215
0
LINE
8
0
10
187.4498514
20
-109.357215
11
188.0347242
21
-106.8238528
0
LINE
8
0
10
188.0347242
20
-106.8238528
11
185.403925
21
-106.216485
0
LINE
8
0
10
203.5707052
20
-117.3761858
11
205.9300396
21
-118.52691
0
LINE
8
0
10
207.0698046
20
-116.1900455
11
204.7104702
21
-115.0393213
0
LINE
8
0
10
101.4970165
20
-91.5220762
11
104.1972432
21
-93.4503892
0
LINE
8
0
10
102.4746448
20
-98.3070551
11
102.4642801
21
-98.3332821
0
LINE
8
0
10
102.4642801
20
-98.3332821
11
99.7333691
21
-96.3830565
0
LINE
8
0
10
99.7200326
20
-74.615204
11
102.4202593
21
-76.543517
0
LINE
8
0
10
100.6976609
20
-81.4001829
11
100.6872962
21
-81.4264099
0
LINE
8
0
10
100.6872962
20
-81.4264099
11
97.9563852
21
-79.4761843
0
LINE
8
0
10
97.9430487
20
-57.7083318
11
100.6432754
21
-59.6366448
0
LINE
8
0
10
98.920677
20
-64.4933107
11
98.9103123
21
-64.5195377
0
LINE
8
0
10
98.9103123
20
-64.5195377
11
96.1794013
21
-62.5693121
0
LINE
8
0
10
118.7693932
20
-74.7604377
11
121.3649992
21
-76.8274269
0
LINE
8
0
10
119.3905834
20
-81.5872831
11
119.3788603
21
-81.6129318
0
LINE
8
0
10
119.3788603
20
-81.6129318
11
116.7537588
21
-79.5224541
0
LINE
8
0
10
117.8796819
20
-57.7837356
11
120.4752879
21
-59.8507248
0
LINE
8
0
10
118.5008721
20
-64.610581
11
118.489149
21
-64.6362297
0
LINE
8
0
10
118.489149
20
-64.6362297
11
115.8640475
21
-62.545752
0
LINE
8
0
10
116.9899706
20
-40.8070335
11
119.5855766
21
-42.8740227
0
LINE
8
0
10
117.6111608
20
-47.6338789
11
117.5994377
21
-47.6595276
0
LINE
8
0
10
117.5994377
20
-47.6595276
11
114.9743362
21
-45.5690499
0
LINE
8
0
10
137.5233667
20
-70.9092912
11
140.0072377
21
-73.1092912
0
LINE
8
0
10
137.7864162
20
-77.7592912
11
137.7733667
21
-77.7842912
0
LINE
8
0
10
137.7733667
20
-77.7842912
11
135.2612699
21
-75.5592912
0
LINE
8
0
10
137.5233667
20
-53.9092912
11
140.0072377
21
-56.1092912
0
LINE
8
0
10
137.7864162
20
-60.7592912
11
137.7733667
21
-60.7842912
0
LINE
8
0
10
137.7733667
20
-60.7842912
11
135.2612699
21
-58.5592912
0
LINE
8
0
10
137.5233667
20
-36.9092912
11
140.0072377
21
-39.1092912
0
LINE
8
0
10
137.7864162
20
-43.7592912
11
137.7733667
21
-43.7842912
0
LINE
8
0
10
137.7733667
20
-43.7842912
11
135.2612699
21
-41.5592912
0
LINE
8
0
10
155.5233666
20
-76.9092912
11
158.0072376
21
-79.1092912
0
LINE
8
0
10
155.7864161
20
-83.7592912
11
155.7733666
21
-83.7842912
0
LINE
8
0
10
155.7733666
20
-83.7842912
11
153.2612698
21
-81.5592912
0
LINE
8
0
10
155.5233666
20
-59.9092912
11
158.0072376
21
-62.1092912
0
LINE
8
0
10
155.7864161
20
-66.7592912
11
155.7733666
21
-66.7842912
0
LINE
8
0
10
155.7733666
20
-66.7842912
11
153.2612698
21
-64.5592912
0
LINE
8
0
10
155.5233666
20
-42.9092912
11
158.0072376
21
-45.1092912
0
LINE
8
0
10
155.7864161
20
-49.7592912
11
155.7733666
21
-49.7842912
0
LINE
8
0
10
155.7733666
20
-49.7842912
11
153.2612698
21
-47.5592912
0
LINE
8
0
10
173.5233666
20
-78.9092911
11
176.0072376
21
-81.1092911
0
LINE
8
0
10
173.7864161
20
-85.7592911
11
173.7733666
21
-85.7842911
0
LINE
8
0
10
173.7733666
20
-85.7842911
11
171.2612698
21
-83.5592911
0
LINE
8
0
10
173.5233666
20
-61.9092911
11
176.0072376
21
-64.1092911
0
LINE
8
0
10
173.7864161
20
-68.7592911
11
173.7733666
21
-68.7842911
0
LINE
8
0
10
173.7733666
20
-68.7842911
11
171.2612698
21
-66.5592911
0
LINE
8
0
10
173.5233666
20
-44.9092911
11
176.0072376
21
-47.1092911
0
LINE
8
0
10
173.7864161
20
-51.7592911
11
173.7733666
21
-51.7842911
0
LINE
8
0
10
173.7733666
20
-51.7842911
11
171.2612698
21
-49.5592911
0
LINE
8
0
10
159.5233666
20
-98.9092912
11
162.0072376
21
-101.1092912
0
LINE
8
0
10
159.7864161
20
-105.7592912
11
159.7733666
21
-105.7842912
0
LINE
8
0
10
159.7733666
20
-105.7842912
11
157.2612698
21
-103.5592912
0
LINE
8
0
10
181.2575418
20
-101.9493863
11
183.1828589
21
-104.6517498
0
LINE
8
0
10
179.9729346
20
-108.6829944
11
179.9545958
21
-108.7044182
0
LINE
8
0
10
179.9545958
20
-108.7044182
11
178.0074
21
-105.971346
0
LINE
8
0
10
201.6302469
20
-109.9488547
11
202.8983189
21
-113.0150591
0
LINE
8
0
10
198.8638318
20
-116.2209073
11
198.8411438
21
-116.2376566
0
LINE
8
0
10
198.8411438
20
-116.2376566
11
197.5586619
21
-113.1366091
0
LINE
8
0
10
185.1483666
20
-89.6842911
11
188.1483666
21
-89.6842911
0
LINE
8
0
10
189.1483666
20
-88.6842911
11
189.1483666
21
-57.6842911
0
LINE
8
0
10
188.1483666
20
-56.6842911
11
185.1483666
21
-56.6842911
0
LINE
8
0
10
184.1483666
20
-57.6842911
11
184.1483666
21
-88.6842911
0
ARC
8
0
10
188.1483666
20
-88.6842911
40
1
50
270
51
0
0
ARC
8
0
10
188.1483666
20
-57.6842911
40
1
50
0
51
90
0
ARC
8
0
10
185.1483666
20
-57.6842911
40
1
50
90
51
180
0
ARC
8
0
10
185.1483666
20
-88.6842911
40
1
50
180
51
270
0
LINE
8
0
10
198.0483666
20
-89.6842911
11
201.0483666
21
-89.6842911
0
LINE
8
0
10
202.0483666
20
-88.6842911
11
202.0483666
21
-57.6842911
0
LINE
8
0
10
201.0483666
20
-56.6842911
11
198.0483666
21
-56.6842911
0
LINE
8
0
10
197.0483666
20
-57.6842911
11
197.0483666
21
-88.6842911
0
ARC
8
0
10
201.0483666
20
-88.6842911
40
1
50
270
51
0
0
ARC
8
0
10
201.0483666
20
-57.6842911
40
1
50
0
51
90
0
ARC
8
0
10
198.0483666
20
-57.6842911
40
1
50
90
51
180
0
ARC
8
0
10
198.0483666
20
-88.6842911
40
1
50
180
51
270
0
LINE
8
0
10
102.6985068
20
-115.7342912
11
102.6985068
21
-111.7342912
0
LINE
8
0
10
102.6985068
20
-111.7342912
11
100.6985068
21
-111.7342912
0
LINE
8
0
10
100.6985068
20
-111.7342912
11
100.6985068
21
-115.7342912
0
LINE
8
0
10
100.6985068
20
-115.7342912
11
102.6985068
21
-115.7342912
0
ENDSEC
0
EOF