0
SECTION
2
HEADER
9
$INSUNITS
70
4
0
ENDSEC
0
SECTION
2
TABLES
0
TABLE
2
LTYPE
0
LTYPE
72
65
70
64
2
CONTINUOUS
3
______
73
0
40
0
0
ENDTAB
0
TABLE
2
LAYER
0
ENDTAB
0
ENDSEC
0
SECTION
2
ENTITIES
0
LINE
8
0
10
85.6123213
20
-58.7781041
11
85.9781709
21
-62.2589308
0
LINE
8
0
10
89.7934598
20
-98.5589799
11
91.604389
21
-115.7888197
0
LINE
8
0
10
88.0164759
20
-81.6521077
11
89.5321387
21
-96.0726752
0
LINE
8
0
10
86.2394921
20
-64.7452355
11
87.7551548
21
-79.165803
0
LINE
8
0
10
86.5023147
20
-57.6790537
11
88.7634041
21
-57.4414037
0
LINE
8
0
10
145.1483667
20
-37.6842912
11
145.1483667
21
-36.6842912
0
LINE
8
0
10
144.1483667
20
-35.6842912
11
126.1483667
21
-35.6842912
0
LINE
8
0
10
125.1483667
20
-36.6842912
11
125.1483667
21
-37.6842912
0
LINE
8
0
10
181.1483666
20
-54.6842911
11
181.1483666
21
-39.6842912
0
LINE
8
0
10
92.5989109
20
-116.6842912
11
165.9503019
21
-116.6842912
0
LINE
8
0
10
166.175253
20
-116.7099211
11
182.7155249
21
-120.5285438
0
LINE
8
0
10
182.9289449
20
-120.6041199
11
199.7927104
21
-128.8291278
0
LINE
8
0
10
201.1298755
20
-128.3687049
11
208.5821851
21
-113.089206
0
LINE
8
0
10
203.6099955
20
-109.5515052
11
208.1217622
21
-111.7520409
0
LINE
8
0
10
182.1483666
20
-55.6842911
11
202.0483666
21
-55.6842911
0
LINE
8
0
10
203.0483666
20
-56.6842911
11
203.0483666
21
-108.6527112
0
LINE
8
0
10
89.6588362
20
-56.4380059
11
89.510205
21
-39.6931671
0
LINE
8
0
10
90.5101656
20
-38.6842912
11
124.1483667
21
-38.6842912
0
LINE
8
0
10
146.1483667
20
-38.6842912
11
180.1483666
21
-38.6842912
0
ARC
8
0
10
92.5989109
20
-115.6842912
40
1
50
186.0000021
51
270
0
ARC
8
0
10
165.9503019
20
-117.6842912
40
1
50
76.9999979
51
90
0
ARC
8
0
10
182.4905738
20
-121.5029139
40
1
50
64.0000012
51
76.9999979
0
ARC
8
0
10
200.2310815
20
-127.9303338
40
1
50
244.0000012
51
334.0000012
0
ARC
8
0
10
207.6833911
20
-112.6508349
40
1
50
334.0000012
51
64.0000012
0
ARC
8
0
10
204.0483666
20
-108.6527112
40
1
50
180
51
244.0000012
0
ARC
8
0
10
202.0483666
20
-56.6842911
40
1
50
0
51
90
0
ARC
8
0
10
182.1483666
20
-54.6842911
40
1
50
180
51
270
0
ARC
8
0
10
180.1483666
20
-39.6842912
40
1
50
0
51
90
0
ARC
8
0
10
146.1483667
20
-37.6842912
40
1
50
180
51
270
0
ARC
8
0
10
144.1483667
20
-36.6842912
40
1
50
0
51
90
0
ARC
8
0
10
126.1483667
20
-36.6842912
40
1
50
90
51
180
0
ARC
8
0
10
124.1483667
20
-37.6842912
40
1
50
270
51
0
0
ARC
8
0
10
90.5101656
20
-39.6842912
40
1
50
90
51
180.5085583
0
ARC
8
0
10
88.6588756
20
-56.4468818
40
1
50
276.0000021
51
0.5085583
0
ARC
8
0
10
86.6068432
20
-58.6735756
40
1
50
96.0000021
51
186.0000021
0
CIRCLE
8
0
10
92.50125
20
-44.6842912
40
1.1
0
CIRCLE
8
0
10
178.1483666
20
-41.1842912
40
1.1
0
CIRCLE
8
0
10
135.1483667
20
-91.6842912
40
1.1
0
CIRCLE
8
0
10
199.5280893
20
-101.9976169
40
1.1
0
CIRCLE
8
0
10
94.6985068
20
-113.6842912
40
1.1
0
CIRCLE
8
0
10
100
20
-100
40
1.9
0
CIRCLE
8
0
10
98.2230161
20
-83.0931278
40
1.9
0
CIRCLE
8
0
10
96.4460322
20
-66.1862556
40
1.9
0
CIRCLE
8
0
10
116.8307281
20
-83.148395
40
1.9
0
CIRCLE
8
0
10
115.9410168
20
-66.1716929
40
1.9
0
CIRCLE
8
0
10
115.0513055
20
-49.1949908
40
1.9
0
CIRCLE
8
0
10
135.1483667
20
-79.1842912
40
1.9
0
CIRCLE
8
0
10
135.1483667
20
-62.1842912
40
1.9
0
CIRCLE
8
0
10
135.1483667
20
-45.1842912
40
1.9
0
CIRCLE
8
0
10
153.1483666
20
-85.1842912
40
1.9
0
CIRCLE
8
0
10
153.1483666
20
-68.1842912
40
1.9
0
CIRCLE
8
0
10
153.1483666
20
-51.1842912
40
1.9
0
CIRCLE
8
0
10
171.1483666
20
-87.1842911
40
1.9
0
CIRCLE
8
0
10
171.1483666
20
-70.1842911
40
1.9
0
CIRCLE
8
0
10
171.1483666
20
-53.1842911
40
1.9
0
CIRCLE
8
0
10
157.1483666
20
-107.1842912
40
1.9
0
CIRCLE
8
0
10
177.0819429
20
-109.4780398
40
1.9
0
CIRCLE
8
0
10
195.8680898
20
-116.345244
40
1.9
0
CIRCLE
8
0
10
105.4698704
20
-99.4250935
40
1
0
CIRCLE
8
0
10
103.6928865
20
-82.5182213
40
1
0
CIRCLE
8
0
10
101.9159026
20
-65.6113491
40
1
0
CIRCLE
8
0
10
122.3231905
20
-82.8605472
40
1
0
CIRCLE
8
0
10
121.4334792
20
-65.8838451
40
1
0
CIRCLE
8
0
10
120.5437679
20
-48.907143
40
1
0
CIRCLE
8
0
10
140.6483667
20
-79.1842912
40
1
0
CIRCLE
8
0
10
140.6483667
20
-62.1842912
40
1
0
CIRCLE
8
0
10
140.6483667
20
-45.1842912
40
1
0
CIRCLE
8
0
10
158.6483666
20
-85.1842912
40
1
0
CIRCLE
8
0
10
158.6483666
20
-68.1842912
40
1
0
CIRCLE
8
0
10
158.6483666
20
-51.1842912
40
1
0
CIRCLE
8
0
10
176.6483666
20
-87.1842911
40
1
0
CIRCLE
8
0
10
176.6483666
20
-70.1842911
40
1
0
CIRCLE
8
0
10
176.6483666
20
-53.1842911
40
1
0
CIRCLE
8
0
10
162.6483666
20
-107.1842912
40
1
0
CIRCLE
8
0
10
182.4409783
20
-110.7152706
40
1
0
CIRCLE
8
0
10
200.8114571
20
-118.7562853
40
1
0
ARC
8
0
10
94.5301296
20
-100.5749065
40
1
50
186.0000078
51
365.9999964
0
ARC
8
0
10
92.7531457
20
-83.6680343
40
1
50
186.0000078
51
365.9999964
0
ARC
8
0
10
90.9761618
20
-66.7611621
40
1
50
186.0000078
51
365.9999964
0
ARC
8
0
10
111.3382657
20
-83.4362428
40
1
50
182.9999966
51
363.0000026
0
ARC
8
0
10
110.4485544
20
-66.4595407
40
1
50
182.9999966
51
363.0000026
0
ARC
8
0
10
109.5588431
20
-49.4828386
40
1
50
182.9999966
51
363.0000026
0
ARC
8
0
10
129.6483667
20
-79.1842912
40
1
50
180
51
360
0
ARC
8
0
10
129.6483667
20
-62.1842912
40
1
50
180
51
360
0
ARC
8
0
10
129.6483667
20
-45.1842912
40
1
50
180
51
360
0
ARC
8
0
10
147.6483666
20
-85.1842912
40
1
50
180
51
360
0
ARC
8
0
10
147.6483666
20
-68.1842912
40
1
50
180
51
360
0
ARC
8
0
10
147.6483666
20
-51.1842912
40
1
50
180
51
360
0
ARC
8
0
10
165.6483666
20
-87.1842911
40
1
50
180
51
360
0
ARC
8
0
10
165.6483666
20
-70.1842911
40
1
50
180
51
360
0
ARC
8
0
10
165.6483666
20
-53.1842911
40
1
50
180
51
360
0
ARC
8
0
10
151.6483666
20
-107.1842912
40
1
50
180
51
360
0
ARC
8
0
10
171.7229075
20
-108.240809
40
1
50
166.9999966
51
347.0000035
0
ARC
8
0
10
171.7229075
20
-108.240809
40
1
50
526.9743761
51
526.9999966
0
ARC
8
0
10
190.9247225
20
-113.9342027
40
1
50
153.9999961
51
334.0000038
0
LINE
8
0
10
92.1879269
20
-99.8155737
11
93.4310792
21
-99.6849131
0
LINE
8
0
10
95.420123
20
-99.4758562
11
97.6577973
21
-99.2406671
0
LINE
8
0
10
95.5911079
20
-93.9275894
11
91.6130203
21
-94.3457033
0
LINE
8
0
10
91.6130203
20
-94.3457033
11
91.769813
21
-95.8374861
0
LINE
8
0
10
92.0311341
20
-98.3237908
11
92.1879269
21
-99.8155737
0
LINE
8
0
10
90.410943
20
-82.9087015
11
91.6540953
21
-82.7780409
0
LINE
8
0
10
93.6431391
20
-82.568984
11
95.8808134
21
-82.3337949
0
LINE
8
0
10
93.814124
20
-77.0207172
11
89.8360364
21
-77.4388311
0
LINE
8
0
10
89.8360364
20
-77.4388311
11
89.9928291
21
-78.9306139
0
LINE
8
0
10
90.2541502
20
-81.4169186
11
90.410943
21
-82.9087015
0
LINE
8
0
10
88.6339591
20
-66.0018293
11
89.8771114
21
-65.8711687
0
LINE
8
0
10
91.8661552
20
-65.6621118
11
94.1038295
21
-65.4269227
0
LINE
8
0
10
92.0371401
20
-60.113845
11
88.0590525
21
-60.5319589
0
LINE
8
0
10
88.0590525
20
-60.5319589
11
88.2158452
21
-62.0237417
0
LINE
8
0
10
88.4771663
20
-64.5100464
11
88.6339591
21
-66.0018293
0
LINE
8
0
10
109.0390133
20
-82.5553691
11
110.2873001
21
-82.4899491
0
LINE
8
0
10
112.2845592
20
-82.3852772
11
114.5314757
21
-82.2675213
0
LINE
8
0
10
112.7456836
20
-76.8535628
11
108.7511655
21
-77.0629067
0
LINE
8
0
10
108.7511655
20
-77.0629067
11
108.8296694
21
-78.5608509
0
LINE
8
0
10
108.9605093
20
-81.0574248
11
109.0390133
21
-82.5553691
0
LINE
8
0
10
108.149302
20
-65.578667
11
109.3975888
21
-65.513247
0
LINE
8
0
10
111.3948479
20
-65.4085751
11
113.6417644
21
-65.2908192
0
LINE
8
0
10
111.8559723
20
-59.8768607
11
107.8614542
21
-60.0862046
0
LINE
8
0
10
107.8614542
20
-60.0862046
11
107.9399581
21
-61.5841488
0
LINE
8
0
10
108.070798
20
-64.0807227
11
108.149302
21
-65.578667
0
LINE
8
0
10
107.2595907
20
-48.6019649
11
108.5078775
21
-48.5365449
0
LINE
8
0
10
110.5051366
20
-48.431873
11
112.7520531
21
-48.3141171
0
LINE
8
0
10
110.966261
20
-42.9001586
11
106.9717429
21
-43.1095025
0
LINE
8
0
10
106.9717429
20
-43.1095025
11
107.0502468
21
-44.6074467
0
LINE
8
0
10
107.1810867
20
-47.1040206
11
107.2595907
21
-48.6019649
0
LINE
8
0
10
127.3983667
20
-78.1842912
11
128.6483667
21
-78.1842912
0
LINE
8
0
10
130.6483667
20
-78.1842912
11
132.8983667
21
-78.1842912
0
LINE
8
0
10
131.3983667
20
-72.6842912
11
127.3983667
21
-72.6842912
0
LINE
8
0
10
127.3983667
20
-72.6842912
11
127.3983667
21
-74.1842912
0
LINE
8
0
10
127.3983667
20
-76.6842912
11
127.3983667
21
-78.1842912
0
LINE
8
0
10
127.3983667
20
-61.1842912
11
128.6483667
21
-61.1842912
0
LINE
8
0
10
130.6483667
20
-61.1842912
11
132.8983667
21
-61.1842912
0
LINE
8
0
10
131.3983667
20
-55.6842912
11
127.3983667
21
-55.6842912
0
LINE
8
0
10
127.3983667
20
-55.6842912
11
127.3983667
21
-57.1842912
0
LINE
8
0
10
127.3983667
20
-59.6842912
11
127.3983667
21
-61.1842912
0
LINE
8
0
10
127.3983667
20
-44.1842912
11
128.6483667
21
-44.1842912
0
LINE
8
0
10
130.6483667
20
-44.1842912
11
132.8983667
21
-44.1842912
0
LINE
8
0
10
131.3983667
20
-38.6842912
11
127.3983667
21
-38.6842912
0
LINE
8
0
10
127.3983667
20
-38.6842912
11
127.3983667
21
-40.1842912
0
LINE
8
0
10
127.3983667
20
-42.6842912
11
127.3983667
21
-44.1842912
0
LINE
8
0
10
145.3983666
20
-84.1842912
11
146.6483666
21
-84.1842912
0
LINE
8
0
10
148.6483666
20
-84.1842912
11
150.8983666
21
-84.1842912
0
LINE
8
0
10
149.3983666
20
-78.6842912
11
145.3983666
21
-78.6842912
0
LINE
8
0
10
145.3983666
20
-78.6842912
11
145.3983666
21
-80.1842912
0
LINE
8
0
10
145.3983666
20
-82.6842912
11
145.3983666
21
-84.1842912
0
LINE
8
0
10
145.3983666
20
-67.1842912
11
146.6483666
21
-67.1842912
0
LINE
8
0
10
148.6483666
20
-67.1842912
11
150.8983666
21
-67.1842912
0
LINE
8
0
10
149.3983666
20
-61.6842912
11
145.3983666
21
-61.6842912
0
LINE
8
0
10
145.3983666
20
-61.6842912
11
145.3983666
21
-63.1842912
0
LINE
8
0
10
145.3983666
20
-65.6842912
11
145.3983666
21
-67.1842912
0
LINE
8
0
10
145.3983666
20
-50.1842912
11
146.6483666
21
-50.1842912
0
LINE
8
0
10
148.6483666
20
-50.1842912
11
150.8983666
21
-50.1842912
0
LINE
8
0
10
149.3983666
20
-44.6842912
11
145.3983666
21
-44.6842912
0
LINE
8
0
10
145.3983666
20
-44.6842912
11
145.3983666
21
-46.1842912
0
LINE
8
0
10
145.3983666
20
-48.6842912
11
145.3983666
21
-50.1842912
0
LINE
8
0
10
163.3983666
20
-86.1842911
11
164.6483666
21
-86.1842911
0
LINE
8
0
10
166.6483666
20
-86.1842911
11
168.8983666
21
-86.1842911
0
LINE
8
0
10
167.3983666
20
-80.6842911
11
163.3983666
21
-80.6842911
0
LINE
8
0
10
163.3983666
20
-80.6842911
11
163.3983666
21
-82.1842911
0
LINE
8
0
10
163.3983666
20
-84.6842911
11
163.3983666
21
-86.1842911
0
LINE
8
0
10
163.3983666
20
-69.1842911
11
164.6483666
21
-69.1842911
0
LINE
8
0
10
166.6483666
20
-69.1842911
11
168.8983666
21
-69.1842911
0
LINE
8
0
10
167.3983666
20
-63.6842911
11
163.3983666
21
-63.6842911
0
LINE
8
0
10
163.3983666
20
-63.6842911
11
163.3983666
21
-65.1842911
0
LINE
8
0
10
163.3983666
20
-67.6842911
11
163.3983666
21
-69.1842911
0
LINE
8
0
10
163.3983666
20
-52.1842911
11
164.6483666
21
-52.1842911
0
LINE
8
0
10
166.6483666
20
-52.1842911
11
168.8983666
21
-52.1842911
0
LINE
8
0
10
167.3983666
20
-46.6842911
11
163.3983666
21
-46.6842911
0
LINE
8
0
10
163.3983666
20
-46.6842911
11
163.3983666
21
-48.1842911
0
LINE
8
0
10
163.3983666
20
-50.6842911
11
163.3983666
21
-52.1842911
0
LINE
8
0
10
149.3983666
20
-106.1842912
11
150.6483666
21
-106.1842912
0
LINE
8
0
10
152.6483666
20
-106.1842912
11
154.8983666
21
-106.1842912
0
LINE
8
0
10
153.3983666
20
-100.6842912
11
149.3983666
21
-100.6842912
0
LINE
8
0
10
149.3983666
20
-100.6842912
11
149.3983666
21
-102.1842912
0
LINE
8
0
10
149.3983666
20
-104.6842912
11
149.3983666
21
-106.1842912
0
LINE
8
0
10
169.7555259
20
-106.7602991
11
170.9734885
21
-107.0414879
0
LINE
8
0
10
172.9222286
20
-107.49139
11
175.1145613
21
-107.9975299
0
LINE
8
0
10
174.890237
20
-102.3010679
11
170.9927567
21
-101.4012637
0
LINE
8
0
10
170.9927567
20
-101.4012637
11
170.6553302
21
-102.8628188
0
LINE
8
0
10
170.0929526
20
-105.298744
11
169.7555259
21
-106.7602991
0
LINE
8
0
10
189.3408071
20
-112.0490736
11
190.4642996
21
-112.5970375
0
LINE
8
0
10
192.2618877
20
-113.4737798
11
194.2841744
21
-114.4601149
0
LINE
8
0
10
195.3470246
20
-108.8591908
11
191.7518484
21
-107.1057063
0
LINE
8
0
10
191.7518484
20
-107.1057063
11
191.0942917
21
-108.4538974
0
LINE
8
0
10
189.9983638
20
-110.7008825
11
189.3408071
21
-112.0490736
0
LINE
8
0
10
89.7934598
20
-98.5589799
11
92.0311341
21
-98.3237908
0
LINE
8
0
10
91.769813
20
-95.8374861
11
89.5321387
21
-96.0726752
0
LINE
8
0
10
88.0164759
20
-81.6521077
11
90.2541502
21
-81.4169186
0
LINE
8
0
10
89.9928291
20
-78.9306139
11
87.7551548
21
-79.165803
0
LINE
8
0
10
86.2394921
20
-64.7452355
11
88.4771663
21
-64.5100464
0
LINE
8
0
10
88.2158452
20
-62.0237417
11
85.9781709
21
-62.2589308
0
LINE
8
0
10
106.2642096
20
-81.1987319
11
108.9605093
21
-81.0574248
0
LINE
8
0
10
108.8296694
20
-78.5608509
11
106.1333697
21
-78.702158
0
LINE
8
0
10
106.1333697
20
-78.702158
11
106.2642096
21
-81.1987319
0
LINE
8
0
10
105.3744983
20
-64.2220298
11
108.070798
21
-64.0807227
0
LINE
8
0
10
107.9399581
20
-61.5841488
11
105.2436584
21
-61.7254559
0
LINE
8
0
10
105.2436584
20
-61.7254559
11
105.3744983
21
-64.2220298
0
LINE
8
0
10
104.484787
20
-47.2453277
11
107.1810867
21
-47.1040206
0
LINE
8
0
10
107.0502468
20
-44.6074467
11
104.3539471
21
-44.7487538
0
LINE
8
0
10
104.3539471
20
-44.7487538
11
104.484787
21
-47.2453277
0
LINE
8
0
10
124.6983667
20
-76.6842912
11
127.3983667
21
-76.6842912
0
LINE
8
0
10
127.3983667
20
-74.1842912
11
124.6983667
21
-74.1842912
0
LINE
8
0
10
124.6983667
20
-74.1842912
11
124.6983667
21
-76.6842912
0
LINE
8
0
10
124.6983667
20
-59.6842912
11
127.3983667
21
-59.6842912
0
LINE
8
0
10
127.3983667
20
-57.1842912
11
124.6983667
21
-57.1842912
0
LINE
8
0
10
124.6983667
20
-57.1842912
11
124.6983667
21
-59.6842912
0
LINE
8
0
10
124.6983667
20
-42.6842912
11
127.3983667
21
-42.6842912
0
LINE
8
0
10
127.3983667
20
-40.1842912
11
124.6983667
21
-40.1842912
0
LINE
8
0
10
124.6983667
20
-40.1842912
11
124.6983667
21
-42.6842912
0
LINE
8
0
10
142.6983666
20
-82.6842912
11
145.3983666
21
-82.6842912
0
LINE
8
0
10
145.3983666
20
-80.1842912
11
142.6983666
21
-80.1842912
0
LINE
8
0
10
142.6983666
20
-80.1842912
11
142.6983666
21
-82.6842912
0
LINE
8
0
10
142.6983666
20
-65.6842912
11
145.3983666
21
-65.6842912
0
LINE
8
0
10
145.3983666
20
-63.1842912
11
142.6983666
21
-63.1842912
0
LINE
8
0
10
142.6983666
20
-63.1842912
11
142.6983666
21
-65.6842912
0
LINE
8
0
10
142.6983666
20
-48.6842912
11
145.3983666
21
-48.6842912
0
LINE
8
0
10
145.3983666
20
-46.1842912
11
142.6983666
21
-46.1842912
0
LINE
8
0
10
142.6983666
20
-46.1842912
11
142.6983666
21
-48.6842912
0
LINE
8
0
10
160.6983666
20
-84.6842911
11
163.3983666
21
-84.6842911
0
LINE
8
0
10
163.3983666
20
-82.1842911
11
160.6983666
21
-82.1842911
0
LINE
8
0
10
160.6983666
20
-82.1842911
11
160.6983666
21
-84.6842911
0
LINE
8
0
10
160.6983666
20
-67.6842911
11
163.3983666
21
-67.6842911
0
LINE
8
0
10
163.3983666
20
-65.1842911
11
160.6983666
21
-65.1842911
0
LINE
8
0
10
160.6983666
20
-65.1842911
11
160.6983666
21
-67.6842911
0
LINE
8
0
10
160.6983666
20
-50.6842911
11
163.3983666
21
-50.6842911
0
LINE
8
0
10
163.3983666
20
-48.1842911
11
160.6983666
21
-48.1842911
0
LINE
8
0
10
160.6983666
20
-48.1842911
11
160.6983666
21
-50.6842911
0
LINE
8
0
10
146.6983666
20
-104.6842912
11
149.3983666
21
-104.6842912
0
LINE
8
0
10
149.3983666
20
-102.1842912
11
146.6983666
21
-102.1842912
0
LINE
8
0
10
146.6983666
20
-102.1842912
11
146.6983666
21
-104.6842912
0
LINE
8
0
10
167.4621534
20
-104.6913762
11
170.0929526
21
-105.298744
0
LINE
8
0
10
170.6553302
20
-102.8628188
11
168.024531
21
-102.255451
0
LINE
8
0
10
168.024531
20
-102.255451
11
167.4621534
21
-104.6913762
0
LINE
8
0
10
187.5716199
20
-109.5172804
11
189.9983638
21
-110.7008825
0
LINE
8
0
10
191.0942917
20
-108.4538974
11
188.6675478
21
-107.2702953
0
LINE
8
0
10
188.6675478
20
-107.2702953
11
187.5716199
21
-109.5172804
0
LINE
8
0
10
98.670987
20
-96.9220584
11
102.4004441
21
-96.5300766
0
LINE
8
0
10
102.4004441
20
-96.5300766
11
102.2436514
21
-95.0382938
0
LINE
8
0
10
101.9823303
20
-92.5519891
11
101.8255375
21
-91.0602062
0
LINE
8
0
10
101.8255375
20
-91.0602062
11
96.3556671
21
-91.6351128
0
LINE
8
0
10
96.8940031
20
-80.0151862
11
100.6234602
21
-79.6232044
0
LINE
8
0
10
100.6234602
20
-79.6232044
11
100.4666675
21
-78.1314216
0
LINE
8
0
10
100.2053464
20
-75.6451169
11
100.0485536
21
-74.153334
0
LINE
8
0
10
100.0485536
20
-74.153334
11
94.5786832
21
-74.7282406
0
LINE
8
0
10
95.1170192
20
-63.108314
11
98.8464763
21
-62.7163322
0
LINE
8
0
10
98.8464763
20
-62.7163322
11
98.6896836
21
-61.2245494
0
LINE
8
0
10
98.4283625
20
-58.7382447
11
98.2715697
21
-57.2464618
0
LINE
8
0
10
98.2715697
20
-57.2464618
11
92.8016993
21
-57.8213684
0
LINE
8
0
10
115.6646235
20
-80.0051164
11
119.4094843
21
-79.8088566
0
LINE
8
0
10
119.4094843
20
-79.8088566
11
119.3309804
21
-78.3109123
0
LINE
8
0
10
119.2001405
20
-75.8143384
11
119.1216365
21
-74.3163942
0
LINE
8
0
10
119.1216365
20
-74.3163942
11
113.6291741
21
-74.604242
0
LINE
8
0
10
114.7749122
20
-63.0284143
11
118.519773
21
-62.8321545
0
LINE
8
0
10
118.519773
20
-62.8321545
11
118.4412691
21
-61.3342102
0
LINE
8
0
10
118.3104292
20
-58.8376363
11
118.2319252
21
-57.3396921
0
LINE
8
0
10
118.2319252
20
-57.3396921
11
112.7394628
21
-57.6275399
0
LINE
8
0
10
113.8852009
20
-46.0517122
11
117.6300617
21
-45.8554524
0
LINE
8
0
10
117.6300617
20
-45.8554524
11
117.5515578
21
-44.3575081
0
LINE
8
0
10
117.4207179
20
-41.8609342
11
117.3422139
21
-40.36299
0
LINE
8
0
10
117.3422139
20
-40.36299
11
111.8497515
21
-40.6508378
0
LINE
8
0
10
134.1483667
20
-75.9842912
11
137.8983667
21
-75.9842912
0
LINE
8
0
10
137.8983667
20
-75.9842912
11
137.8983667
21
-74.4842912
0
LINE
8
0
10
137.8983667
20
-71.9842912
11
137.8983667
21
-70.4842912
0
LINE
8
0
10
137.8983667
20
-70.4842912
11
132.3983667
21
-70.4842912
0
LINE
8
0
10
134.1483667
20
-58.9842912
11
137.8983667
21
-58.9842912
0
LINE
8
0
10
137.8983667
20
-58.9842912
11
137.8983667
21
-57.4842912
0
LINE
8
0
10
137.8983667
20
-54.9842912
11
137.8983667
21
-53.4842912
0
LINE
8
0
10
137.8983667
20
-53.4842912
11
132.3983667
21
-53.4842912
0
LINE
8
0
10
134.1483667
20
-41.9842912
11
137.8983667
21
-41.9842912
0
LINE
8
0
10
137.8983667
20
-41.9842912
11
137.8983667
21
-40.4842912
0
LINE
8
0
10
137.8983667
20
-37.9842912
11
137.8983667
21
-36.4842912
0
LINE
8
0
10
137.8983667
20
-36.4842912
11
132.3983667
21
-36.4842912
0
LINE
8
0
10
152.1483666
20
-81.9842912
11
155.8983666
21
-81.9842912
0
LINE
8
0
10
155.8983666
20
-81.9842912
11
155.8983666
21
-80.4842912
0
LINE
8
0
10
155.8983666
20
-77.9842912
11
155.8983666
21
-76.4842912
0
LINE
8
0
10
155.8983666
20
-76.4842912
11
150.3983666
21
-76.4842912
0
LINE
8
0
10
152.1483666
20
-64.9842912
11
155.8983666
21
-64.9842912
0
LINE
8
0
10
155.8983666
20
-64.9842912
11
155.8983666
21
-63.4842912
0
LINE
8
0
10
155.8983666
20
-60.9842912
11
155.8983666
21
-59.4842912
0
LINE
8
0
10
155.8983666
20
-59.4842912
11
150.3983666
21
-59.4842912
0
LINE
8
0
10
152.1483666
20
-47.9842912
11
155.8983666
21
-47.9842912
0
LINE
8
0
10
155.8983666
20
-47.9842912
11
155.8983666
21
-46.4842912
0
LINE
8
0
10
155.8983666
20
-43.9842912
11
155.8983666
21
-42.4842912
0
LINE
8
0
10
155.8983666
20
-42.4842912
11
150.3983666
21
-42.4842912
0
LINE
8
0
10
170.1483666
20
-83.9842911
11
173.8983666
21
-83.9842911
0
LINE
8
0
10
173.8983666
20
-83.9842911
11
173.8983666
21
-82.4842911
0
LINE
8
0
10
173.8983666
20
-79.9842911
11
173.8983666
21
-78.4842911
0
LINE
8
0
10
173.8983666
20
-78.4842911
11
168.3983666
21
-78.4842911
0
LINE
8
0
10
170.1483666
20
-66.9842911
11
173.8983666
21
-66.9842911
0
LINE
8
0
10
173.8983666
20
-66.9842911
11
173.8983666
21
-65.4842911
0
LINE
8
0
10
173.8983666
20
-62.9842911
11
173.8983666
21
-61.4842911
0
LINE
8
0
10
173.8983666
20
-61.4842911
11
168.3983666
21
-61.4842911
0
LINE
8
0
10
170.1483666
20
-49.9842911
11
173.8983666
21
-49.9842911
0
LINE
8
0
10
173.8983666
20
-49.9842911
11
173.8983666
21
-48.4842911
0
LINE
8
0
10
173.8983666
20
-45.9842911
11
173.8983666
21
-44.4842911
0
LINE
8
0
10
173.8983666
20
-44.4842911
11
168.3983666
21
-44.4842911
0
LINE
8
0
10
156.1483666
20
-103.9842912
11
159.8983666
21
-103.9842912
0
LINE
8
0
10
159.8983666
20
-103.9842912
11
159.8983666
21
-102.4842912
0
LINE
8
0
10
159.8983666
20
-99.9842912
11
159.8983666
21
-98.4842912
0
LINE
8
0
10
159.8983666
20
-98.4842912
11
154.3983666
21
-98.4842912
0
LINE
8
0
10
176.8274162
20
-106.1351045
11
180.481304
21
-106.978671
0
LINE
8
0
10
180.481304
20
-106.978671
11
180.8187305
21
-105.5171159
0
LINE
8
0
10
181.3811081
20
-103.0811907
11
181.7185348
21
-101.6196356
0
LINE
8
0
10
181.7185348
20
-101.6196356
11
176.3594994
21
-100.3824048
0
LINE
8
0
10
196.3720834
20
-113.0307319
11
199.7425611
21
-114.6746237
0
LINE
8
0
10
199.7425611
20
-114.6746237
11
200.4001178
21
-113.3264326
0
LINE
8
0
10
201.4960457
20
-111.0794475
11
202.1536024
21
-109.7312564
0
LINE
8
0
10
202.1536024
20
-109.7312564
11
197.2102351
21
-107.3202151
0
LINE
8
0
10
102.2436514
20
-95.0382938
11
104.9288605
21
-94.7560669
0
LINE
8
0
10
104.9288605
20
-94.7560669
11
104.6675394
21
-92.2697622
0
LINE
8
0
10
104.6675394
20
-92.2697622
11
101.9823303
21
-92.5519891
0
LINE
8
0
10
100.4666675
20
-78.1314216
11
103.1518766
21
-77.8491947
0
LINE
8
0
10
103.1518766
20
-77.8491947
11
102.8905555
21
-75.36289
0
LINE
8
0
10
102.8905555
20
-75.36289
11
100.2053464
21
-75.6451169
0
LINE
8
0
10
98.6896836
20
-61.2245494
11
101.3748927
21
-60.9423225
0
LINE
8
0
10
101.3748927
20
-60.9423225
11
101.1135716
21
-58.4560178
0
LINE
8
0
10
101.1135716
20
-58.4560178
11
98.4283625
21
-58.7382447
0
LINE
8
0
10
119.3309804
20
-78.3109123
11
122.0272801
21
-78.1696052
0
LINE
8
0
10
122.0272801
20
-78.1696052
11
121.8964402
21
-75.6730313
0
LINE
8
0
10
121.8964402
20
-75.6730313
11
119.2001405
21
-75.8143384
0
LINE
8
0
10
118.4412691
20
-61.3342102
11
121.1375688
21
-61.1929031
0
LINE
8
0
10
121.1375688
20
-61.1929031
11
121.0067289
21
-58.6963292
0
LINE
8
0
10
121.0067289
20
-58.6963292
11
118.3104292
21
-58.8376363
0
LINE
8
0
10
117.5515578
20
-44.3575081
11
120.2478575
21
-44.216201
0
LINE
8
0
10
120.2478575
20
-44.216201
11
120.1170176
21
-41.7196271
0
LINE
8
0
10
120.1170176
20
-41.7196271
11
117.4207179
21
-41.8609342
0
LINE
8
0
10
137.8983667
20
-74.4842912
11
140.5983667
21
-74.4842912
0
LINE
8
0
10
140.5983667
20
-74.4842912
11
140.5983667
21
-71.9842912
0
LINE
8
0
10
140.5983667
20
-71.9842912
11
137.8983667
21
-71.9842912
0
LINE
8
0
10
137.8983667
20
-57.4842912
11
140.5983667
21
-57.4842912
0
LINE
8
0
10
140.5983667
20
-57.4842912
11
140.5983667
21
-54.9842912
0
LINE
8
0
10
140.5983667
20
-54.9842912
11
137.8983667
21
-54.9842912
0
LINE
8
0
10
137.8983667
20
-40.4842912
11
140.5983667
21
-40.4842912
0
LINE
8
0
10
140.5983667
20
-40.4842912
11
140.5983667
21
-37.9842912
0
LINE
8
0
10
140.5983667
20
-37.9842912
11
137.8983667
21
-37.9842912
0
LINE
8
0
10
155.8983666
20
-80.4842912
11
158.5983666
21
-80.4842912
0
LINE
8
0
10
158.5983666
20
-80.4842912
11
158.5983666
21
-77.9842912
0
LINE
8
0
10
158.5983666
20
-77.9842912
11
155.8983666
21
-77.9842912
0
LINE
8
0
10
155.8983666
20
-63.4842912
11
158.5983666
21
-63.4842912
0
LINE
8
0
10
158.5983666
20
-63.4842912
11
158.5983666
21
-60.9842912
0
LINE
8
0
10
158.5983666
20
-60.9842912
11
155.8983666
21
-60.9842912
0
LINE
8
0
10
155.8983666
20
-46.4842912
11
158.5983666
21
-46.4842912
0
LINE
8
0
10
158.5983666
20
-46.4842912
11
158.5983666
21
-43.9842912
0
LINE
8
0
10
158.5983666
20
-43.9842912
11
155.8983666
21
-43.9842912
0
LINE
8
0
10
173.8983666
20
-82.4842911
11
176.5983666
21
-82.4842911
0
LINE
8
0
10
176.5983666
20
-82.4842911
11
176.5983666
21
-79.9842911
0
LINE
8
0
10
176.5983666
20
-79.9842911
11
173.8983666
21
-79.9842911
0
LINE
8
0
10
173.8983666
20
-65.4842911
11
176.5983666
21
-65.4842911
0
LINE
8
0
10
176.5983666
20
-65.4842911
11
176.5983666
21
-62.9842911
0
LINE
8
0
10
176.5983666
20
-62.9842911
11
173.8983666
21
-62.9842911
0
LINE
8
0
10
173.8983666
20
-48.4842911
11
176.5983666
21
-48.4842911
0
LINE
8
0
10
176.5983666
20
-48.4842911
11
176.5983666
21
-45.9842911
0
LINE
8
0
10
176.5983666
20
-45.9842911
11
173.8983666
21
-45.9842911
0
LINE
8
0
10
159.8983666
20
-102.4842912
11
162.5983666
21
-102.4842912
0
LINE
8
0
10
162.5983666
20
-102.4842912
11
162.5983666
21
-99.9842912
0
LINE
8
0
10
162.5983666
20
-99.9842912
11
159.8983666
21
-99.9842912
0
LINE
8
0
10
180.8187305
20
-105.5171159
11
183.4495297
21
-106.1244837
0
LINE
8
0
10
183.4495297
20
-106.1244837
11
184.0119073
21
-103.6885585
0
LINE
8
0
10
184.0119073
20
-103.6885585
11
181.3811081
21
-103.0811907
0
LINE
8
0
10
200.4001178
20
-113.3264326
11
202.8268617
21
-114.5100347
0
LINE
8
0
10
202.8268617
20
-114.5100347
11
203.9227896
21
-112.2630496
0
LINE
8
0
10
203.9227896
20
-112.2630496
11
201.4960457
21
-111.0794475
0
LINE
8
0
10
95.5911079
20
-93.9275894
11
96.3556672
21
-91.6351128
0
LINE
8
0
10
98.670987
20
-96.9220584
11
97.6577973
21
-99.2406671
0
LINE
8
0
10
93.814124
20
-77.0207172
11
94.5786833
21
-74.7282406
0
LINE
8
0
10
96.8940031
20
-80.0151862
11
95.8808134
21
-82.3337949
0
LINE
8
0
10
92.0371401
20
-60.113845
11
92.8016994
21
-57.8213684
0
LINE
8
0
10
95.1170192
20
-63.108314
11
94.1038295
21
-65.4269227
0
LINE
8
0
10
112.7456836
20
-76.8535628
11
113.6291741
21
-74.6042419
0
LINE
8
0
10
115.6646235
20
-80.0051164
11
114.5314757
21
-82.2675214
0
LINE
8
0
10
111.8559723
20
-59.8768607
11
112.7394628
21
-57.6275398
0
LINE
8
0
10
114.7749122
20
-63.0284143
11
113.6417644
21
-65.2908193
0
LINE
8
0
10
110.966261
20
-42.9001586
11
111.8497515
21
-40.6508377
0
LINE
8
0
10
113.8852009
20
-46.0517122
11
112.7520531
21
-48.3141172
0
LINE
8
0
10
131.3983667
20
-72.6842912
11
132.3983667
21
-70.4842912
0
LINE
8
0
10
134.1483667
20
-75.9842912
11
132.8983667
21
-78.1842912
0
LINE
8
0
10
131.3983667
20
-55.6842912
11
132.3983667
21
-53.4842912
0
LINE
8
0
10
134.1483667
20
-58.9842912
11
132.8983667
21
-61.1842912
0
LINE
8
0
10
131.3983667
20
-38.6842912
11
132.3983667
21
-36.4842912
0
LINE
8
0
10
134.1483667
20
-41.9842912
11
132.8983667
21
-44.1842912
0
LINE
8
0
10
149.3983666
20
-78.6842912
11
150.3983666
21
-76.4842912
0
LINE
8
0
10
152.1483666
20
-81.9842912
11
150.8983666
21
-84.1842912
0
LINE
8
0
10
149.3983666
20
-61.6842912
11
150.3983666
21
-59.4842912
0
LINE
8
0
10
152.1483666
20
-64.9842912
11
150.8983666
21
-67.1842912
0
LINE
8
0
10
149.3983666
20
-44.6842912
11
150.3983666
21
-42.4842912
0
LINE
8
0
10
152.1483666
20
-47.9842912
11
150.8983666
21
-50.1842912
0
LINE
8
0
10
167.3983666
20
-80.6842911
11
168.3983666
21
-78.4842911
0
LINE
8
0
10
170.1483666
20
-83.9842911
11
168.8983666
21
-86.1842911
0
LINE
8
0
10
167.3983666
20
-63.6842911
11
168.3983666
21
-61.4842911
0
LINE
8
0
10
170.1483666
20
-66.9842911
11
168.8983666
21
-69.1842911
0
LINE
8
0
10
167.3983666
20
-46.6842911
11
168.3983666
21
-44.4842911
0
LINE
8
0
10
170.1483666
20
-49.9842911
11
168.8983666
21
-52.1842911
0
LINE
8
0
10
153.3983666
20
-100.6842912
11
154.3983666
21
-98.4842912
0
LINE
8
0
10
156.1483666
20
-103.9842912
11
154.8983666
21
-106.1842912
0
LINE
8
0
10
174.890237
20
-102.3010679
11
176.3594994
21
-100.3824048
0
LINE
8
0
10
176.8274162
20
-106.1351045
11
175.1145613
21
-107.9975299
0
LINE
8
0
10
195.3470246
20
-108.8591908
11
197.2102351
21
-107.3202151
0
LINE
8
0
10
196.3720834
20
-113.0307319
11
194.2841743
21
-114.4601149
0
LINE
8
0
10
95.5246515
20
-100.4703781
11
95.420123
21
-99.4758562
0
LINE
8
0
10
93.4310792
20
-99.6849131
11
93.5356077
21
-100.6794351
0
LINE
8
0
10
93.7476676
20
-83.5635059
11
93.6431391
21
-82.568984
0
LINE
8
0
10
91.6540953
20
-82.7780409
11
91.7586238
21
-83.7725629
0
LINE
8
0
10
91.9706837
20
-66.6566337
11
91.8661552
21
-65.6621118
0
LINE
8
0
10
89.8771114
20
-65.8711687
11
89.9816399
21
-66.8656907
0
LINE
8
0
10
112.3368952
20
-83.3839068
11
112.2845592
21
-82.3852772
0
LINE
8
0
10
110.2873001
20
-82.4899491
11
110.3396361
21
-83.4885787
0
LINE
8
0
10
111.4471839
20
-66.4072047
11
111.3948479
21
-65.4085751
0
LINE
8
0
10
109.3975888
20
-65.513247
11
109.4499248
21
-66.5118766
0
LINE
8
0
10
110.5574726
20
-49.4305026
11
110.5051366
21
-48.431873
0
LINE
8
0
10
108.5078775
20
-48.5365449
11
108.5602135
21
-49.5351745
0
LINE
8
0
10
130.6483667
20
-79.1842912
11
130.6483667
21
-78.1842912
0
LINE
8
0
10
128.6483667
20
-78.1842912
11
128.6483667
21
-79.1842912
0
LINE
8
0
10
130.6483667
20
-62.1842912
11
130.6483667
21
-61.1842912
0
LINE
8
0
10
128.6483667
20
-61.1842912
11
128.6483667
21
-62.1842912
0
LINE
8
0
10
130.6483667
20
-45.1842912
11
130.6483667
21
-44.1842912
0
LINE
8
0
10
128.6483667
20
-44.1842912
11
128.6483667
21
-45.1842912
0
LINE
8
0
10
148.6483666
20
-85.1842912
11
148.6483666
21
-84.1842912
0
LINE
8
0
10
146.6483666
20
-84.1842912
11
146.6483666
21
-85.1842912
0
LINE
8
0
10
148.6483666
20
-68.1842912
11
148.6483666
21
-67.1842912
0
LINE
8
0
10
146.6483666
20
-67.1842912
11
146.6483666
21
-68.1842912
0
LINE
8
0
10
148.6483666
20
-51.1842912
11
148.6483666
21
-50.1842912
0
LINE
8
0
10
146.6483666
20
-50.1842912
11
146.6483666
21
-51.1842912
0
LINE
8
0
10
166.6483666
20
-87.1842911
11
166.6483666
21
-86.1842911
0
LINE
8
0
10
164.6483666
20
-86.1842911
11
164.6483666
21
-87.1842911
0
LINE
8
0
10
166.6483666
20
-70.1842911
11
166.6483666
21
-69.1842911
0
LINE
8
0
10
164.6483666
20
-69.1842911
11
164.6483666
21
-70.1842911
0
LINE
8
0
10
166.6483666
20
-53.1842911
11
166.6483666
21
-52.1842911
0
LINE
8
0
10
164.6483666
20
-52.1842911
11
164.6483666
21
-53.1842911
0
LINE
8
0
10
152.6483666
20
-107.1842912
11
152.6483666
21
-106.1842912
0
LINE
8
0
10
150.6483666
20
-106.1842912
11
150.6483666
21
-107.1842912
0
LINE
8
0
10
172.6972776
20
-108.46576
11
172.9222286
21
-107.49139
0
LINE
8
0
10
170.9734885
20
-107.0414879
11
170.7486381
21
-108.0154222
0
LINE
8
0
10
191.8235166
20
-114.3725738
11
192.2618877
21
-113.4737798
0
LINE
8
0
10
190.4642996
20
-112.5970375
11
190.0259285
21
-113.4958315
0
LINE
8
0
10
185.1483666
20
-90.4342911
11
188.1483666
21
-90.4342911
0
LINE
8
0
10
189.1483666
20
-89.4342911
11
189.1483666
21
-59.9342911
0
LINE
8
0
10
188.1483666
20
-58.9342911
11
185.1483666
21
-58.9342911
0
LINE
8
0
10
184.1483666
20
-59.9342911
11
184.1483666
21
-89.4342911
0
ARC
8
0
10
188.1483666
20
-89.4342911
40
1
50
270
51
0
0
ARC
8
0
10
188.1483666
20
-59.9342911
40
1
50
0
51
90
0
ARC
8
0
10
185.1483666
20
-59.9342911
40
1
50
90
51
180
0
ARC
8
0
10
185.1483666
20
-89.4342911
40
1
50
180
51
270
0
LINE
8
0
10
198.0483666
20
-90.4342911
11
201.0483666
21
-90.4342911
0
LINE
8
0
10
202.0483666
20
-89.4342911
11
202.0483666
21
-59.9342911
0
LINE
8
0
10
201.0483666
20
-58.9342911
11
198.0483666
21
-58.9342911
0
LINE
8
0
10
197.0483666
20
-59.9342911
11
197.0483666
21
-89.4342911
0
ARC
8
0
10
201.0483666
20
-89.4342911
40
1
50
270
51
0
0
ARC
8
0
10
201.0483666
20
-59.9342911
40
1
50
0
51
90
0
ARC
8
0
10
198.0483666
20
-59.9342911
40
1
50
90
51
180
0
ARC
8
0
10
198.0483666
20
-89.4342911
40
1
50
180
51
270
0
LINE
8
0
10
103.1985068
20
-115.2342912
11
103.1985068
21
-111.2342912
0
LINE
8
0
10
103.1985068
20
-111.2342912
11
98.1985068
21
-111.2342912
0
LINE
8
0
10
98.1985068
20
-111.2342912
11
98.1985068
21
-115.2342912
0
LINE
8
0
10
98.1985068
20
-115.2342912
11
103.1985068
21
-115.2342912
0
ENDSEC
0
EOF