0
SECTION
2
HEADER
9
$INSUNITS
70
4
0
ENDSEC
0
SECTION
2
TABLES
0
TABLE
2
LTYPE
0
LTYPE
72
65
70
64
2
CONTINUOUS
3
______
73
0
40
0
0
ENDTAB
0
TABLE
2
LAYER
0
ENDTAB
0
ENDSEC
0
SECTION
2
ENTITIES
0
LINE
8
0
10
183.9412598
20
-90.1842911
11
202.2554734
21
-90.1842911
0
LINE
8
0
10
202.2554734
20
-90.1842911
11
202.5483666
21
-89.8913979
0
LINE
8
0
10
202.5483666
20
-89.8913979
11
202.5483666
21
-56.4771843
0
LINE
8
0
10
202.2554734
20
-56.1842911
11
202.5483666
21
-56.4771843
0
LINE
8
0
10
183.9412598
20
-56.1842911
11
202.2554734
21
-56.1842911
0
LINE
8
0
10
183.6483666
20
-56.4771843
11
183.9412598
21
-56.1842911
0
LINE
8
0
10
183.6483666
20
-89.8913979
11
183.6483666
21
-56.4771843
0
LINE
8
0
10
183.6483666
20
-89.8913979
11
183.9412598
21
-90.1842911
0
LINE
8
0
10
97.8485068
20
-109.7842912
11
112.6483666
21
-109.7842912
0
LINE
8
0
10
97.8485068
20
-109.7842912
11
97.8485068
21
-116.6842912
0
LINE
8
0
10
97.8485068
20
-116.6842912
11
112.6483666
21
-116.6842912
0
LINE
8
0
10
113.6483666
20
-117.6842912
11
143.6483666
21
-117.6842912
0
ARC
8
0
10
143.6483666
20
-116.6842912
40
1
50
270
51
360
0
LINE
8
0
10
144.6483666
20
-116.6842912
11
144.6483666
21
-96.6842912
0
ARC
8
0
10
143.6483666
20
-96.6842912
40
1
50
0
51
90
0
LINE
8
0
10
143.6483666
20
-95.6842912
11
113.6483666
21
-95.6842912
0
ARC
8
0
10
113.6483666
20
-96.6842912
40
1
50
90
51
180
0
LINE
8
0
10
112.6483666
20
-96.6842912
11
112.6483666
21
-109.7842912
0
ARC
8
0
10
113.6483666
20
-116.6842912
40
1
50
180
51
270
0
LINE
8
0
10
95.15125
20
-42.7842912
11
101.85125
21
-42.7842912
0
ARC
8
0
10
101.85125
20
-41.2842912
40
1.5
50
270
51
360
0
LINE
8
0
10
103.35125
20
-41.2842912
11
103.35125
21
-38.6842912
0
ARC
8
0
10
101.85125
20
-38.6842912
40
1.5
50
0
51
90
0
LINE
8
0
10
101.85125
20
-37.1842912
11
95.15125
21
-37.1842912
0
ARC
8
0
10
95.15125
20
-38.6842912
40
1.5
50
90
51
180
0
LINE
8
0
10
93.65125
20
-38.6842912
11
93.65125
21
-41.2842912
0
ARC
8
0
10
95.15125
20
-41.2842912
40
1.5
50
180
51
270
0
LINE
8
0
10
169.7983666
20
-42.6842912
11
174.4983666
21
-42.6842912
0
ARC
8
0
10
174.4983666
20
-41.6842912
40
1
50
270
51
360
0
LINE
8
0
10
175.4983666
20
-41.6842912
11
175.4983666
21
-38.1842912
0
ARC
8
0
10
174.4983666
20
-38.1842912
40
1
50
0
51
90
0
LINE
8
0
10
174.4983666
20
-37.1842912
11
169.7983666
21
-37.1842912
0
ARC
8
0
10
169.7983666
20
-38.1842912
40
1
50
90
51
180
0
LINE
8
0
10
168.7983666
20
-38.1842912
11
168.7983666
21
-41.6842912
0
ARC
8
0
10
169.7983666
20
-41.6842912
40
1
50
180
51
270
0
ENDSEC
0
EOF