0
SECTION
2
HEADER
9
$INSUNITS
70
4
0
ENDSEC
0
SECTION
2
TABLES
0
TABLE
2
LTYPE
0
LTYPE
72
65
70
64
2
CONTINUOUS
3
______
73
0
40
0
0
ENDTAB
0
TABLE
2
LAYER
0
ENDTAB
0
ENDSEC
0
SECTION
2
ENTITIES
0
LINE
8
0
10
91.819825
20
-110.6634767
11
110.21848
21
-108.7297002
0
LINE
8
0
10
111.1084734
20
-107.6306498
11
109.7114292
21
-94.3386621
0
LINE
8
0
10
85.3375588
20
-58.5556058
11
90.7207746
21
-109.7734833
0
LINE
8
0
10
104.1723994
20
-55.570476
11
86.2275522
21
-57.4565554
0
LINE
8
0
10
110.6536151
20
-93.2355041
11
126.5783269
21
-92.4009254
0
LINE
8
0
10
127.5246204
20
-91.3499599
11
127.4531712
21
-89.9866272
0
LINE
8
0
10
123.7783532
20
-38.9742453
11
105.3037067
21
-39.9424604
0
LINE
8
0
10
104.3574132
20
-40.9934259
11
105.0665004
21
-54.5236181
0
LINE
8
0
10
128.4518007
20
-88.9342912
11
141.8983666
21
-88.9342912
0
LINE
8
0
10
145.3983667
20
-40.4342912
11
145.3983667
21
-36.4342912
0
LINE
8
0
10
144.3983667
20
-35.4342912
11
125.8983667
21
-35.4342912
0
LINE
8
0
10
124.8983667
20
-36.4342912
11
124.8983667
21
-39.1658909
0
LINE
8
0
10
143.8983666
20
-94.9342912
11
147.1483666
21
-94.9342912
0
LINE
8
0
10
142.8983666
20
-89.9342912
11
142.8983666
21
-93.9342912
0
LINE
8
0
10
163.3983666
20
-42.4342911
11
163.3983666
21
-41.4342912
0
LINE
8
0
10
163.3983666
20
-41.4342912
11
146.3983667
21
-41.4342912
0
LINE
8
0
10
181.3983666
20
-95.9342911
11
181.3983666
21
-44.4342911
0
LINE
8
0
10
180.3983666
20
-43.4342911
11
164.3983666
21
-43.4342911
0
ARC
8
0
10
110.1139515
20
-107.7351783
40
1
50
276.0000021
51
6.0000021
0
ARC
8
0
10
110.7059511
20
-94.2341336
40
1
50
93.0000026
51
186.0000021
0
ARC
8
0
10
126.5259909
20
-91.4022959
40
1
50
273.0000026
51
3.0000026
0
ARC
8
0
10
128.4518007
20
-89.9342912
40
1
50
90
51
183.0000026
0
ARC
8
0
10
141.8983666
20
-89.9342912
40
1
50
0
51
90
0
ARC
8
0
10
143.8983666
20
-93.9342912
40
1
50
180
51
270
0
ARC
8
0
10
180.3983666
20
-95.9342911
40
1
50
318.5903791
51
0
0
ARC
8
0
10
180.3983666
20
-44.4342911
40
1
50
0
51
90
0
ARC
8
0
10
164.3983666
20
-42.4342911
40
1
50
180
51
270
0
ARC
8
0
10
146.3983667
20
-40.4342912
40
1
50
180
51
270
0
ARC
8
0
10
144.3983667
20
-36.4342912
40
1
50
0
51
90
0
ARC
8
0
10
125.8983667
20
-36.4342912
40
1
50
90
51
180
0
ARC
8
0
10
123.8306892
20
-39.9728748
40
1
50
51.590376
51
93.0000026
0
ARC
8
0
10
105.3560427
20
-40.9410899
40
1
50
93.0000026
51
183.0000026
0
ARC
8
0
10
104.0678709
20
-54.5759541
40
1
50
276.0000021
51
3.0000026
0
ARC
8
0
10
86.3320807
20
-58.4510773
40
1
50
96.0000021
51
186.0000021
0
ARC
8
0
10
91.7152965
20
-109.6689548
40
1
50
186.0000021
51
276.0000021
0
LINE
8
0
10
124.4519686
20
-39.1892857
11
124.8983667
21
-39.1658909
0
LINE
8
0
10
148.1483666
20
-116.6842912
11
165.9503019
21
-116.6842912
0
LINE
8
0
10
147.1483666
20
-115.6842912
11
147.1483666
21
-94.9342912
0
LINE
8
0
10
166.175253
20
-116.7099211
11
182.7155249
21
-120.5285438
0
LINE
8
0
10
181.1483666
20
-100.6669586
11
188.9626786
21
-102.4710347
0
LINE
8
0
10
182.9289449
20
-120.6041199
11
199.7927104
21
-128.8291278
0
LINE
8
0
10
201.1298755
20
-128.3687049
11
208.5821851
21
-113.089206
0
LINE
8
0
10
208.1217622
20
-111.7520409
11
191.9434692
21
-103.8613602
0
ARC
8
0
10
165.9503019
20
-117.6842912
40
1
50
76.9999979
51
90
0
ARC
8
0
10
182.4905738
20
-121.5029139
40
1
50
64.0000012
51
76.9999979
0
ARC
8
0
10
200.2310815
20
-127.9303338
40
1
50
244.0000012
51
334.0000012
0
ARC
8
0
10
207.6833911
20
-112.6508349
40
1
50
334.0000012
51
64.0000012
0
ARC
8
0
10
191.5050981
20
-104.7601542
40
1
50
64.0000012
51
108.3913756
0
ARC
8
0
10
148.1483666
20
-115.6842912
40
1
50
180
51
270
0
LINE
8
0
10
188.9626786
20
-102.4710347
11
191.0446752
21
-103.4229891
0
LINE
8
0
10
191.0446752
20
-103.4229891
11
191.1895919
21
-103.8112307
0
LINE
8
0
10
181.1483666
20
-96.5957289
11
181.1483666
21
-100.6669586
0
ENDSEC
0
EOF