0
SECTION
2
HEADER
9
$INSUNITS
70
4
0
ENDSEC
0
SECTION
2
TABLES
0
TABLE
2
LTYPE
0
LTYPE
72
65
70
64
2
CONTINUOUS
3
______
73
0
40
0
0
ENDTAB
0
TABLE
2
LAYER
0
ENDTAB
0
ENDSEC
0
SECTION
2
ENTITIES
0
LINE
8
0
10
92.0423233
20
-110.3887141
11
109.9437175
21
-108.5072019
0
LINE
8
0
10
110.8337109
20
-107.4081515
11
109.4352613
21
-94.1027924
0
LINE
8
0
10
85.6123213
20
-58.7781041
11
90.9432729
21
-109.4987207
0
LINE
8
0
10
86.5023147
20
-57.6790537
11
104.4344731
21
-55.794308
0
LINE
8
0
10
110.3774472
20
-92.9996344
11
126.3155855
21
-92.164352
0
LINE
8
0
10
127.261879
20
-91.1133865
11
127.1897261
21
-89.7366272
0
LINE
8
0
10
105.5664481
20
-40.1790338
11
125.1483667
21
-39.152789
0
LINE
8
0
10
104.6201546
20
-41.2299993
11
105.3285741
21
-54.7474501
0
LINE
8
0
10
128.1883556
20
-88.6842912
11
142.1483666
21
-88.6842912
0
LINE
8
0
10
145.1483667
20
-40.6842912
11
145.1483667
21
-36.6842912
0
LINE
8
0
10
144.1483667
20
-35.6842912
11
126.1483667
21
-35.6842912
0
LINE
8
0
10
125.1483667
20
-36.6842912
11
125.1483667
21
-39.152789
0
LINE
8
0
10
144.1483666
20
-94.6842912
11
147.1483666
21
-94.6842912
0
LINE
8
0
10
143.1483666
20
-89.6842912
11
143.1483666
21
-93.6842912
0
LINE
8
0
10
163.1483666
20
-42.6842911
11
163.1483666
21
-41.6842912
0
LINE
8
0
10
163.1483666
20
-41.6842912
11
146.1483667
21
-41.6842912
0
LINE
8
0
10
181.1483666
20
-100.6669586
11
181.1483666
21
-44.6842911
0
LINE
8
0
10
180.1483666
20
-43.6842911
11
164.1483666
21
-43.6842911
0
ARC
8
0
10
109.839189
20
-107.51268
40
1
50
276.0000021
51
6.0000021
0
ARC
8
0
10
110.4297832
20
-93.9982639
40
1
50
93.0000026
51
186.0000021
0
ARC
8
0
10
126.2632495
20
-91.1657225
40
1
50
273.0000026
51
3.0000026
0
ARC
8
0
10
128.1883556
20
-89.6842912
40
1
50
90
51
183.0000026
0
ARC
8
0
10
142.1483666
20
-89.6842912
40
1
50
0
51
90
0
ARC
8
0
10
144.1483666
20
-93.6842912
40
1
50
180
51
270
0
ARC
8
0
10
180.1483666
20
-44.6842911
40
1
50
0
51
90
0
ARC
8
0
10
164.1483666
20
-42.6842911
40
1
50
180
51
270
0
ARC
8
0
10
146.1483667
20
-40.6842912
40
1
50
180
51
270
0
ARC
8
0
10
144.1483667
20
-36.6842912
40
1
50
0
51
90
0
ARC
8
0
10
126.1483667
20
-36.6842912
40
1
50
90
51
180
0
ARC
8
0
10
105.6187841
20
-41.1776633
40
1
50
93.0000026
51
183.0000026
0
ARC
8
0
10
104.3299446
20
-54.7997861
40
1
50
276.0000021
51
3.0000026
0
ARC
8
0
10
86.6068432
20
-58.6735756
40
1
50
96.0000021
51
186.0000021
0
ARC
8
0
10
91.9377948
20
-109.3941922
40
1
50
186.0000021
51
276.0000021
0
LINE
8
0
10
110.3774472
20
-92.9996344
11
110.3770006
21
-92.9996579
0
LINE
8
0
10
148.1483666
20
-116.6842912
11
165.9503019
21
-116.6842912
0
LINE
8
0
10
147.1483666
20
-115.6842912
11
147.1483666
21
-94.6842912
0
LINE
8
0
10
166.175253
20
-116.7099211
11
182.7155249
21
-120.5285438
0
LINE
8
0
10
181.1483666
20
-100.6669586
11
188.9626786
21
-102.4710347
0
LINE
8
0
10
182.9289449
20
-120.6041199
11
199.7927104
21
-128.8291278
0
LINE
8
0
10
201.1298755
20
-128.3687049
11
208.5821851
21
-113.089206
0
LINE
8
0
10
208.1217622
20
-111.7520409
11
191.9434692
21
-103.8613602
0
ARC
8
0
10
165.9503019
20
-117.6842912
40
1
50
76.9999979
51
90
0
ARC
8
0
10
182.4905738
20
-121.5029139
40
1
50
64.0000012
51
76.9999979
0
ARC
8
0
10
200.2310815
20
-127.9303338
40
1
50
244.0000012
51
334.0000012
0
ARC
8
0
10
207.6833911
20
-112.6508349
40
1
50
334.0000012
51
64.0000012
0
ARC
8
0
10
191.5050981
20
-104.7601542
40
1
50
64.0000012
51
108.3913756
0
ARC
8
0
10
148.1483666
20
-115.6842912
40
1
50
180
51
270
0
LINE
8
0
10
188.9626786
20
-102.4710347
11
191.0446752
21
-103.4229891
0
LINE
8
0
10
191.0446752
20
-103.4229891
11
191.1895919
21
-103.8112307
0
ENDSEC
0
EOF