0
SECTION
2
HEADER
9
$INSUNITS
70
4
0
ENDSEC
0
SECTION
2
TABLES
0
TABLE
2
LTYPE
0
LTYPE
72
65
70
64
2
CONTINUOUS
3
______
73
0
40
0
0
ENDTAB
0
TABLE
2
LAYER
0
ENDTAB
0
ENDSEC
0
SECTION
2
ENTITIES
0
LINE
8
0
10
-8.180175
20
-10.6634767
11
10.21848
21
-8.7297002
0
LINE
8
0
10
11.1084734
20
-7.6306498
11
9.7114292
21
5.6613379
0
LINE
8
0
10
-14.6624412
20
41.4443942
11
-9.2792254
21
-9.7734833
0
LINE
8
0
10
4.1723994
20
44.429524
11
-13.7724478
21
42.5434446
0
LINE
8
0
10
10.6536151
20
6.7644959
11
26.5783269
21
7.5990746
0
LINE
8
0
10
27.5246204
20
8.6500401
11
27.4531712
21
10.0133728
0
LINE
8
0
10
23.7783532
20
61.0257547
11
5.3037067
21
60.0575396
0
LINE
8
0
10
4.3574132
20
59.0065741
11
5.0665004
21
45.4763819
0
LINE
8
0
10
28.4518007
20
11.0657088
11
41.8983666
21
11.0657088
0
LINE
8
0
10
45.3983667
20
59.5657088
11
45.3983667
21
63.5657088
0
LINE
8
0
10
44.3983667
20
64.5657088
11
25.8983667
21
64.5657088
0
LINE
8
0
10
24.8983667
20
63.5657088
11
24.8983667
21
60.8341091
0
LINE
8
0
10
43.8983666
20
5.0657088
11
47.1483666
21
5.0657088
0
LINE
8
0
10
42.8983666
20
10.0657088
11
42.8983666
21
6.0657088
0
LINE
8
0
10
63.3983666
20
57.5657089
11
63.3983666
21
58.5657088
0
LINE
8
0
10
63.3983666
20
58.5657088
11
46.3983667
21
58.5657088
0
LINE
8
0
10
81.3983666
20
4.0657089
11
81.3983666
21
55.5657089
0
LINE
8
0
10
80.3983666
20
56.5657089
11
64.3983666
21
56.5657089
0
ARC
8
0
10
10.1139515
20
-7.7351783
40
1
50
276.0000021
51
6.0000021
0
ARC
8
0
10
10.7059511
20
5.7658664
40
1
50
93.0000026
51
186.0000021
0
ARC
8
0
10
26.5259909
20
8.5977041
40
1
50
273.0000026
51
3.0000026
0
ARC
8
0
10
28.4518007
20
10.0657088
40
1
50
90
51
183.0000026
0
ARC
8
0
10
41.8983666
20
10.0657088
40
1
50
0
51
90
0
ARC
8
0
10
43.8983666
20
6.0657088
40
1
50
180
51
270
0
ARC
8
0
10
80.3983666
20
4.0657089
40
1
50
318.5903791
51
0
0
ARC
8
0
10
80.3983666
20
55.5657089
40
1
50
0
51
90
0
ARC
8
0
10
64.3983666
20
57.5657089
40
1
50
180
51
270
0
ARC
8
0
10
46.3983667
20
59.5657088
40
1
50
180
51
270
0
ARC
8
0
10
44.3983667
20
63.5657088
40
1
50
0
51
90
0
ARC
8
0
10
25.8983667
20
63.5657088
40
1
50
90
51
180
0
ARC
8
0
10
23.8306892
20
60.0271252
40
1
50
51.590376
51
93.0000026
0
ARC
8
0
10
5.3560427
20
59.0589101
40
1
50
93.0000026
51
183.0000026
0
ARC
8
0
10
4.0678709
20
45.4240459
40
1
50
276.0000021
51
3.0000026
0
ARC
8
0
10
-13.6679193
20
41.5489227
40
1
50
96.0000021
51
186.0000021
0
ARC
8
0
10
-8.2847035
20
-9.6689548
40
1
50
186.0000021
51
276.0000021
0
LINE
8
0
10
24.4519686
20
60.8107143
11
24.8983667
21
60.8341091
0
LINE
8
0
10
48.1483666
20
-16.6842912
11
65.9503019
21
-16.6842912
0
LINE
8
0
10
47.1483666
20
-15.6842912
11
47.1483666
21
5.0657088
0
LINE
8
0
10
66.175253
20
-16.7099211
11
82.7155249
21
-20.5285438
0
LINE
8
0
10
81.1483666
20
-0.6669586
11
88.9626786
21
-2.4710347
0
LINE
8
0
10
82.9289449
20
-20.6041199
11
99.7927104
21
-28.8291278
0
LINE
8
0
10
101.1298755
20
-28.3687049
11
108.5821851
21
-13.089206
0
LINE
8
0
10
91.9434692
20
-3.8613602
11
108.1217622
21
-11.7520409
0
ARC
8
0
10
65.9503019
20
-17.6842912
40
1
50
76.9999979
51
90
0
ARC
8
0
10
82.4905738
20
-21.5029139
40
1
50
64.0000012
51
76.9999979
0
ARC
8
0
10
100.2310815
20
-27.9303338
40
1
50
244.0000012
51
334.0000012
0
ARC
8
0
10
107.6833911
20
-12.6508349
40
1
50
334.0000012
51
64.0000012
0
ARC
8
0
10
48.1483666
20
-15.6842912
40
1
50
180
51
270
0
LINE
8
0
10
88.9626786
20
-2.4710347
11
91.0446752
21
-3.4229891
0
LINE
8
0
10
91.0446752
20
-3.4229891
11
91.9430673
21
-3.8611642
0
LINE
8
0
10
81.1483666
20
3.4042711
11
81.1483666
21
-0.6669586
0
ENDSEC
0
EOF