0
SECTION
2
HEADER
9
$INSUNITS
70
4
0
ENDSEC
0
SECTION
2
TABLES
0
TABLE
2
LTYPE
0
LTYPE
72
65
70
64
2
CONTINUOUS
3
______
73
0
40
0
0
ENDTAB
0
TABLE
2
LAYER
0
ENDTAB
0
ENDSEC
0
SECTION
2
ENTITIES
0
LINE
8
0
10
91.5450623
20
-110.4409784
11
110.4409785
21
-108.4549376
0
LINE
8
0
10
110.8859752
20
-107.9054125
11
109.3801863
21
-93.5787887
0
LINE
8
0
10
85.560057
20
-58.2808431
11
90.9955372
21
-109.9959817
0
LINE
8
0
10
86.0050537
20
-57.731318
11
104.906356
21
-55.7447111
0
LINE
8
0
10
109.8512792
20
-93.0272097
11
126.8149002
21
-92.138184
0
LINE
8
0
10
127.288047
20
-91.6127012
11
127.1621508
21
-89.2104592
0
LINE
8
0
10
105.0671334
20
-40.2052018
11
124.6745347
21
-39.1776214
0
LINE
8
0
10
104.5939866
20
-40.7306846
11
105.3534066
21
-55.2212822
0
LINE
8
0
10
127.6614656
20
-88.6842912
11
142.6483666
21
-88.6842912
0
LINE
8
0
10
145.1483667
20
-41.1842912
11
145.1483667
21
-36.1842912
0
LINE
8
0
10
144.6483667
20
-35.6842912
11
125.6483667
21
-35.6842912
0
LINE
8
0
10
125.1483667
20
-36.1842912
11
125.1483667
21
-38.6783066
0
LINE
8
0
10
143.6483666
20
-94.6842912
11
146.6483666
21
-94.6842912
0
LINE
8
0
10
143.1483666
20
-89.1842912
11
143.1483666
21
-94.1842912
0
LINE
8
0
10
163.1483666
20
-43.1842911
11
163.1483666
21
-42.1842912
0
LINE
8
0
10
162.6483666
20
-41.6842912
11
145.6483667
21
-41.6842912
0
LINE
8
0
10
181.1483666
20
-100.2692407
11
181.1483666
21
-44.1842911
0
LINE
8
0
10
180.6483666
20
-43.6842911
11
163.6483666
21
-43.6842911
0
LINE
8
0
10
147.6483666
20
-116.6842912
11
166.0072701
21
-116.6842912
0
LINE
8
0
10
147.1483666
20
-116.1842912
11
147.1483666
21
-95.1842912
0
LINE
8
0
10
166.1197456
20
-116.6971062
11
182.7710321
21
-120.5413586
0
LINE
8
0
10
188.913315
20
-102.4596382
11
181.5358911
21
-100.7564257
0
LINE
8
0
10
182.8777421
20
-120.5791466
11
200.2421074
21
-129.0483133
0
LINE
8
0
10
200.91069
20
-128.8181019
11
208.8013706
21
-112.639809
0
LINE
8
0
10
191.0502784
20
-103.4257219
11
208.5711592
21
-111.9712264
0
LINE
8
0
10
189.0087526
20
-102.4921012
11
191.039006
21
-103.420397
0
ARC
8
0
10
110.3887143
20
-107.9576767
40
0.5
50
276.0000021
51
6.0000021
0
ARC
8
0
10
109.8774472
20
-93.5265245
40
0.5
50
93.0000026
51
186.0000021
0
ARC
8
0
10
126.7887322
20
-91.6388692
40
0.5
50
273.0000026
51
3.0000026
0
ARC
8
0
10
127.6614656
20
-89.1842912
40
0.5
50
90
51
183.0000026
0
ARC
8
0
10
142.6483666
20
-89.1842912
40
0.5
50
0
51
90
0
ARC
8
0
10
143.6483666
20
-94.1842912
40
0.5
50
180
51
270
0
ARC
8
0
10
146.6483666
20
-95.1842912
40
0.5
50
0
51
90
0
ARC
8
0
10
147.6483666
20
-116.1842912
40
0.5
50
180
51
270
0
ARC
8
0
10
166.0072701
20
-117.1842912
40
0.5
50
76.9999979
51
90
0
ARC
8
0
10
182.6585565
20
-121.0285436
40
0.5
50
64.0000012
51
76.9999979
0
ARC
8
0
10
200.461293
20
-128.5989163
40
0.5
50
244.0000012
51
334.0000012
0
ARC
8
0
10
208.3519736
20
-112.4206234
40
0.5
50
334.0000012
51
64.0000012
0
ARC
8
0
10
190.8310928
20
-103.875119
40
0.5
50
64.0000012
51
65.4286302
0
ARC
8
0
10
188.8008394
20
-102.9468232
40
0.5
50
65.4286302
51
76.9999979
0
ARC
8
0
10
181.6483666
20
-100.2692407
40
0.5
50
180
51
256.9999979
0
ARC
8
0
10
180.6483666
20
-44.1842911
40
0.5
50
0
51
90
0
ARC
8
0
10
163.6483666
20
-43.1842911
40
0.5
50
180
51
270
0
ARC
8
0
10
162.6483666
20
-42.1842912
40
0.5
50
0
51
90
0
ARC
8
0
10
145.6483667
20
-41.1842912
40
0.5
50
180
51
270
0
ARC
8
0
10
144.6483667
20
-36.1842912
40
0.5
50
0
51
90
0
ARC
8
0
10
125.6483667
20
-36.1842912
40
0.5
50
90
51
180
0
ARC
8
0
10
124.6483667
20
-38.6783066
40
0.5
50
273.0000026
51
0
0
ARC
8
0
10
105.0933014
20
-40.7045166
40
0.5
50
93.0000026
51
183.0000026
0
ARC
8
0
10
104.8540918
20
-55.2474502
40
0.5
50
276.0000021
51
3.0000026
0
ARC
8
0
10
86.0573179
20
-58.2285789
40
0.5
50
96.0000021
51
186.0000021
0
ARC
8
0
10
91.4927981
20
-109.9437175
40
0.5
50
186.0000021
51
276.0000021
0
ENDSEC
0
EOF