0
SECTION
2
HEADER
9
$INSUNITS
70
4
0
ENDSEC
0
SECTION
2
TABLES
0
TABLE
2
LTYPE
0
LTYPE
72
65
70
64
2
CONTINUOUS
3
______
73
0
40
0
0
ENDTAB
0
TABLE
2
LAYER
0
ENDTAB
0
ENDSEC
0
SECTION
2
ENTITIES
0
LINE
8
0
10
147.1483666
20
-38.1842912
11
147.1483667
21
-36.6842912
0
ARC
8
0
10
144.1483667
20
-36.6842912
40
3
50
359.999999
51
450
0
LINE
8
0
10
144.1483667
20
-33.6842912
11
126.1483667
21
-33.6842912
0
ARC
8
0
10
126.1483667
20
-36.6842912
40
3
50
90
51
180
0
LINE
8
0
10
123.1483667
20
-36.6842912
11
123.1483667
21
-37.2548599
0
LINE
8
0
10
123.1483667
20
-37.2548599
11
105.4622228
21
-38.1817515
0
ARC
8
0
10
105.6187841
20
-41.1776634
40
3
50
93.0000003
51
93.8092699
0
LINE
8
0
10
89.1483667
20
-55.3899259
11
86.2932577
21
-55.69001
0
ARC
8
0
10
86.6068432
20
-58.6735757
40
3
50
96.0000002
51
186.0000021
0
LINE
8
0
10
83.6232775
20
-58.9871612
11
88.9542292
21
-109.7077778
0
ARC
8
0
10
91.9377949
20
-109.3941923
40
3
50
186.0000021
51
256.5287805
0
LINE
8
0
10
92.5989109
20
-116.6842912
11
166.0842466
21
-116.6842912
0
ARC
8
0
10
166.4005284
20
-115.7356259
40
1
50
251.561788
51
257.0000002
0
LINE
8
0
10
166.1755773
20
-116.709996
11
183.2648105
21
-120.6553563
0
ARC
8
0
10
184.0527886
20
-120.0396531
40
1
50
218.0030357
51
244.0000002
0
LINE
8
0
10
183.6148195
20
-120.9386431
11
199.7923084
21
-128.8289316
0
ARC
8
0
10
200.2310815
20
-127.9303337
40
1
50
244.0000002
51
334.0000012
0
LINE
8
0
10
201.1300715
20
-128.3683028
11
208.5819889
21
-113.089608
0
ARC
8
0
10
207.683391
20
-112.6508349
40
1
50
334
51
424.0000012
0
LINE
8
0
10
208.1213601
20
-111.7518449
11
203.4483666
21
-109.4726737
0
LINE
8
0
10
185.1483667
20
-56.6842911
11
202.4483666
21
-56.6842911
0
ARC
8
0
10
202.4483666
20
-57.6842911
40
1
50
360
51
90
0
LINE
8
0
10
203.4483666
20
-57.6842911
11
203.4483666
21
-109.4726737
0
LINE
8
0
10
91.604389
20
-115.7888197
11
91.2389242
21
-112.3116535
0
ARC
8
0
10
92.5989109
20
-115.6842912
40
1
50
186.0000002
51
269.999998
0
LINE
8
0
10
89.1483667
20
-55.3899259
11
89.1483667
21
-39.1842912
0
ARC
8
0
10
90.1483667
20
-39.1842912
40
1
50
90
51
180
0
LINE
8
0
10
90.1483667
20
-38.1842912
11
105.4194781
21
-38.1842912
0
LINE
8
0
10
147.1483666
20
-38.1842912
11
184.1483667
21
-38.1842912
0
ARC
8
0
10
184.1483667
20
-39.1842912
40
1
50
360
51
90
0
LINE
8
0
10
185.1483667
20
-39.1842912
11
185.1483667
21
-56.6842911
0
ENDSEC
0
EOF