0
SECTION
2
HEADER
9
$INSUNITS
70
4
0
ENDSEC
0
SECTION
2
TABLES
0
TABLE
2
LTYPE
0
LTYPE
72
65
70
64
2
CONTINUOUS
3
______
73
0
40
0
0
ENDTAB
0
TABLE
2
LAYER
0
ENDTAB
0
ENDSEC
0
SECTION
2
ENTITIES
0
LINE
8
0
10
144.6483666
20
-39.1842912
11
144.6483667
21
-36.6842912
0
ARC
8
0
10
144.1483667
20
-36.6842912
40
0.5
50
359.999999
51
450
0
LINE
8
0
10
144.1483667
20
-36.1842912
11
126.1483667
21
-36.1842912
0
ARC
8
0
10
126.1483667
20
-36.6842912
40
0.5
50
90
51
180
0
LINE
8
0
10
125.6483667
20
-36.6842912
11
125.6483667
21
-39.1842912
0
LINE
8
0
10
90.1483667
20
-57.7985925
11
86.5548935
21
-58.1762818
0
ARC
8
0
10
86.6068432
20
-58.6735757
40
0.5
50
96.0000002
51
185.999997
0
LINE
8
0
10
86.1096154
20
-58.7261544
11
87.8865332
21
-75.6323976
0
LINE
8
0
10
87.8865993
20
-75.6330266
11
89.6635171
21
-92.5392698
0
LINE
8
0
10
89.6635832
20
-92.5398988
11
91.440501
21
-109.446142
0
ARC
8
0
10
91.9377949
20
-109.3941923
40
0.5
50
185.999997
51
276.0000002
0
LINE
8
0
10
148.1483666
20
-116.1842912
11
166.1483666
21
-116.1842912
0
ARC
8
0
10
166.1483666
20
-115.6842912
40
0.5
50
270
51
273.4049952
0
ARC
8
0
10
166.4005284
20
-115.7356259
40
0.5
50
243.5811257
51
257.0000002
0
LINE
8
0
10
166.2880529
20
-116.2228109
11
183.5849634
21
-120.2161173
0
ARC
8
0
10
184.0527886
20
-120.0396531
40
0.5
50
200.6665327
51
244.0000002
0
LINE
8
0
10
183.833603
20
-120.4890501
11
200.0118959
21
-128.3797307
0
ARC
8
0
10
200.2310815
20
-127.9303337
40
0.5
50
244.0000002
51
333.9999961
0
LINE
8
0
10
200.6804785
20
-128.1495193
11
208.132788
21
-112.8700205
0
ARC
8
0
10
207.683391
20
-112.6508349
40
0.5
50
334
51
423.9999961
0
LINE
8
0
10
207.9025766
20
-112.2014379
11
202.4483666
21
-109.541242
0
ARC
8
0
10
148.1483666
20
-115.6842912
40
0.5
50
180
51
270
0
LINE
8
0
10
184.1483667
20
-57.6842911
11
201.4483666
21
-57.6842911
0
LINE
8
0
10
202.4483666
20
-109.541242
11
202.4483666
21
-58.6842911
0
ARC
8
0
10
201.4483666
20
-58.6842911
40
1
50
0
51
90
0
LINE
8
0
10
92.5047931
20
-114.7888197
11
91.9900591
21
-109.8914532
0
LINE
8
0
10
147.6483666
20
-115.6842912
11
93.499315
21
-115.6842912
0
ARC
8
0
10
93.499315
20
-114.6842912
40
1
50
186.0000021
51
270
0
LINE
8
0
10
90.1483667
20
-57.7985925
11
90.1483667
21
-40.1842912
0
LINE
8
0
10
91.1483667
20
-39.1842912
11
125.6483667
21
-39.1842912
0
LINE
8
0
10
144.6483666
20
-39.1842912
11
183.1483667
21
-39.1842912
0
LINE
8
0
10
184.1483667
20
-40.1842912
11
184.1483667
21
-57.6842911
0
ARC
8
0
10
91.1483667
20
-40.1842912
40
1
50
90
51
180
0
ARC
8
0
10
183.1483667
20
-40.1842912
40
1
50
0
51
90
0
ENDSEC
0
EOF