0
SECTION
2
HEADER
9
$INSUNITS
70
4
0
ENDSEC
0
SECTION
2
TABLES
0
TABLE
2
LTYPE
0
LTYPE
72
65
70
64
2
CONTINUOUS
3
______
73
0
40
0
0
ENDTAB
0
TABLE
2
LAYER
0
ENDTAB
0
ENDSEC
0
SECTION
2
ENTITIES
0
LINE
8
0
10
85.5077928
20
-57.7835822
11
91.6985068
21
-116.6842912
0
LINE
8
0
10
85.5077928
20
-57.7835822
11
89.6668997
21
-57.3464425
0
LINE
8
0
10
145.1483667
20
-38.6842912
11
145.1483667
21
-35.6842912
0
LINE
8
0
10
145.1483667
20
-35.6842912
11
125.1483667
21
-35.6842912
0
LINE
8
0
10
125.1483667
20
-35.6842912
11
125.1483667
21
-38.6842912
0
LINE
8
0
10
181.1483666
20
-56.6842911
11
181.1483666
21
-38.6842912
0
LINE
8
0
10
144.6483666
20
-116.6842912
11
166.0642377
21
-116.6842912
0
LINE
8
0
10
166.0642377
20
-116.6842912
11
182.8265399
21
-120.5541736
0
LINE
8
0
10
182.8265399
20
-120.5541736
11
200.6915044
21
-129.2674989
0
LINE
8
0
10
200.6915044
20
-129.2674989
11
209.0205562
21
-112.190412
0
LINE
8
0
10
203.0483666
20
-109.2775805
11
209.0205562
21
-112.190412
0
LINE
8
0
10
91.6985068
20
-116.6842912
11
112.6483666
21
-116.6842912
0
LINE
8
0
10
89.6668997
20
-57.3464425
11
89.50125
21
-38.6842912
0
LINE
8
0
10
89.50125
20
-38.6842912
11
125.1483667
21
-38.6842912
0
LINE
8
0
10
145.1483667
20
-38.6842912
11
181.1483666
21
-38.6842912
0
LINE
8
0
10
180.1483666
20
-56.6842911
11
203.0483666
21
-56.6842911
0
LINE
8
0
10
203.0483666
20
-109.2775805
11
203.0483666
21
-56.6842911
0
LINE
8
0
10
144.6483666
20
-116.6842912
11
144.6483666
21
-96.6842912
0
ARC
8
0
10
143.6483666
20
-96.6842912
40
1
50
0
51
360
0
LINE
8
0
10
113.6483666
20
-95.6842912
11
143.6483666
21
-95.6842912
0
ARC
8
0
10
113.6483666
20
-96.6842912
40
1
50
90
51
450
0
LINE
8
0
10
112.6483666
20
-116.6842912
11
112.6483666
21
-96.6842912
0
CIRCLE
8
0
10
92.50125
20
-44.6842912
40
1.1
0
CIRCLE
8
0
10
178.1483666
20
-41.1842912
40
1.1
0
CIRCLE
8
0
10
135.1483667
20
-91.6842912
40
1.1
0
CIRCLE
8
0
10
199.5280893
20
-101.9976169
40
1.1
0
CIRCLE
8
0
10
94.6985068
20
-113.6842912
40
1.1
0
LINE
8
0
10
91.9377949
20
-109.3941923
11
109.839189
21
-107.5126799
0
LINE
8
0
10
104.5082373
20
-56.7920633
11
109.839189
21
-107.5126799
0
LINE
8
0
10
86.6068432
20
-58.6735757
11
91.9377949
21
-109.3941923
0
LINE
8
0
10
104.5082373
20
-56.7920633
11
86.6068432
21
-58.6735757
0
LINE
8
0
10
108.2879179
20
-92.1077697
11
126.2632495
21
-91.1657224
0
LINE
8
0
10
126.2632495
20
-91.1657224
11
125.3735383
21
-74.1890203
0
LINE
8
0
10
107.3982067
20
-75.1310676
11
108.2879179
21
-92.1077697
0
LINE
8
0
10
125.3735382
20
-74.1890203
11
124.483827
21
-57.2123182
0
LINE
8
0
10
106.5084954
20
-58.1543655
11
107.3982066
21
-75.1310676
0
LINE
8
0
10
124.4838269
20
-57.2123182
11
123.5941157
21
-40.2356161
0
LINE
8
0
10
123.5941157
20
-40.2356161
11
105.6187841
21
-41.1776634
0
LINE
8
0
10
105.6187841
20
-41.1776634
11
106.5084953
21
-58.1543655
0
LINE
8
0
10
126.1483667
20
-87.6842912
11
144.1483667
21
-87.6842912
0
LINE
8
0
10
126.1483667
20
-87.6842912
11
126.1483667
21
-36.6842912
0
LINE
8
0
10
144.1483666
20
-42.6842912
11
144.1483667
21
-36.6842912
0
LINE
8
0
10
144.1483667
20
-36.6842912
11
126.1483667
21
-36.6842912
0
LINE
8
0
10
144.1483666
20
-93.6842912
11
162.1483666
21
-93.6842912
0
LINE
8
0
10
144.1483667
20
-87.6842912
11
144.1483666
21
-93.6842912
0
LINE
8
0
10
162.1483666
20
-44.6842911
11
162.1483666
21
-42.6842912
0
LINE
8
0
10
162.1483666
20
-42.6842912
11
144.1483666
21
-42.6842912
0
LINE
8
0
10
162.1483666
20
-95.6842911
11
180.1483666
21
-95.6842911
0
LINE
8
0
10
180.1483666
20
-95.6842911
11
180.1483666
21
-44.6842911
0
LINE
8
0
10
162.1483666
20
-93.6842912
11
162.1483666
21
-95.6842911
0
LINE
8
0
10
180.1483666
20
-44.6842911
11
162.1483666
21
-44.6842911
0
LINE
8
0
10
148.1483666
20
-115.6842912
11
166.1483666
21
-115.6842912
0
LINE
8
0
10
166.1483666
20
-115.6842912
11
166.1483666
21
-98.6842912
0
LINE
8
0
10
166.1483666
20
-98.6842912
11
148.1483666
21
-98.6842912
0
LINE
8
0
10
148.1483666
20
-98.6842912
11
148.1483666
21
-115.6842912
0
LINE
8
0
10
166.4005284
20
-115.7356259
11
183.9391895
21
-119.7847448
0
LINE
8
0
10
183.9391895
20
-119.7847448
11
187.7633574
21
-103.2204537
0
LINE
8
0
10
187.7633574
20
-103.2204537
11
170.2246963
21
-99.1713348
0
LINE
8
0
10
170.2246963
20
-99.1713348
11
166.4005284
21
-115.7356259
0
LINE
8
0
10
184.0527886
20
-120.0396531
11
200.2310815
21
-127.9303337
0
LINE
8
0
10
200.2310815
20
-127.9303337
11
207.683391
21
-112.6508349
0
LINE
8
0
10
207.683391
20
-112.6508349
11
191.5050981
21
-104.7601543
0
LINE
8
0
10
191.5050981
20
-104.7601543
11
184.0527886
21
-120.0396531
0
LINE
8
0
10
110.1985068
20
-116.6842912
11
110.1985068
21
-109.7842912
0
LINE
8
0
10
110.1985068
20
-109.7842912
11
97.8485068
21
-109.7842912
0
LINE
8
0
10
97.8485068
20
-109.7842912
11
97.8485068
21
-116.6842912
0
LINE
8
0
10
113.6483666
20
-117.6842912
11
143.6483666
21
-117.6842912
0
ARC
8
0
10
143.6483666
20
-116.6842912
40
1
50
270
51
360
0
ARC
8
0
10
113.6483666
20
-116.6842912
40
1
50
180
51
270
0
LINE
8
0
10
95.15125
20
-41.7842912
11
101.85125
21
-41.7842912
0
LINE
8
0
10
101.85125
20
-41.7842912
11
101.85125
21
-39.1842912
0
LINE
8
0
10
101.85125
20
-39.1842912
11
99.15125
21
-39.1842912
0
LINE
8
0
10
97.85125
20
-39.1842912
11
95.15125
21
-39.1842912
0
LINE
8
0
10
95.15125
20
-39.1842912
11
95.15125
21
-41.7842912
0
LINE
8
0
10
99.15125
20
-39.1842912
11
99.15125
21
-37.6842912
0
LINE
8
0
10
99.15125
20
-37.6842912
11
97.85125
21
-37.6842912
0
LINE
8
0
10
97.85125
20
-37.6842912
11
97.85125
21
-39.1842912
0
LINE
8
0
10
169.7983666
20
-42.1842912
11
174.4983666
21
-42.1842912
0
LINE
8
0
10
174.4983666
20
-42.1842912
11
174.4983666
21
-38.6842912
0
LINE
8
0
10
169.7983666
20
-38.6842912
11
169.7983666
21
-42.1842912
0
LINE
8
0
10
173.4483666
20
-38.6842912
11
173.4483666
21
-37.6842912
0
LINE
8
0
10
173.4483666
20
-37.6842912
11
170.8483666
21
-37.6842912
0
LINE
8
0
10
170.8483666
20
-37.6842912
11
170.8483666
21
-38.6842912
0
LINE
8
0
10
180.1483665
20
-98.3848647
11
180.1483666
21
-56.6842911
0
ARC
8
0
10
159.4232851
20
-185.9660899
40
90
50
61.0056659
51
76.6865205
0
LINE
8
0
10
184.1483666
20
-90.6842911
11
203.0483666
21
-90.6842911
0
LINE
8
0
10
184.1483666
20
-56.6842911
11
184.1483666
21
-90.6842911
0
ENDSEC
0
EOF