0
SECTION
2
HEADER
9
$INSUNITS
70
4
0
ENDSEC
0
SECTION
2
TABLES
0
TABLE
2
LTYPE
0
LTYPE
72
65
70
64
2
CONTINUOUS
3
______
73
0
40
0
0
ENDTAB
0
TABLE
2
LAYER
0
ENDTAB
0
ENDSEC
0
SECTION
2
ENTITIES
0
LINE
8
0
10
85.6123213
20
-58.7781041
11
91.604389
21
-115.7888197
0
LINE
8
0
10
86.5023147
20
-57.6790537
11
88.7634041
21
-57.4414037
0
LINE
8
0
10
145.1483667
20
-37.6842912
11
145.1483667
21
-36.6842912
0
LINE
8
0
10
144.1483667
20
-35.6842912
11
126.1483667
21
-35.6842912
0
LINE
8
0
10
125.1483667
20
-36.6842912
11
125.1483667
21
-37.6842912
0
LINE
8
0
10
181.1483666
20
-55.6842911
11
181.1483666
21
-39.6842912
0
LINE
8
0
10
145.6483666
20
-116.6842912
11
165.9503019
21
-116.6842912
0
LINE
8
0
10
166.175253
20
-116.7099211
11
182.7155249
21
-120.5285438
0
LINE
8
0
10
182.9289449
20
-120.6041199
11
199.7927104
21
-128.8291278
0
LINE
8
0
10
201.1298755
20
-128.3687049
11
208.5821851
21
-113.089206
0
LINE
8
0
10
203.6099955
20
-109.5515052
11
208.1217622
21
-111.7520409
0
LINE
8
0
10
92.5989109
20
-116.6842912
11
111.6483666
21
-116.6842912
0
LINE
8
0
10
89.6588362
20
-56.4380059
11
89.510205
21
-39.6931671
0
LINE
8
0
10
90.5101656
20
-38.6842912
11
124.1483667
21
-38.6842912
0
LINE
8
0
10
146.1483667
20
-38.6842912
11
180.1483666
21
-38.6842912
0
LINE
8
0
10
180.1483666
20
-56.6842911
11
203.0483666
21
-56.6842911
0
LINE
8
0
10
203.0483666
20
-108.6527112
11
203.0483666
21
-56.6842911
0
LINE
8
0
10
144.6483666
20
-116.6842912
11
144.6483666
21
-96.6842912
0
ARC
8
0
10
143.6483666
20
-96.6842912
40
1
50
0
51
360
0
LINE
8
0
10
113.6483666
20
-95.6842912
11
143.6483666
21
-95.6842912
0
ARC
8
0
10
113.6483666
20
-96.6842912
40
1
50
90
51
450
0
LINE
8
0
10
112.6483666
20
-116.6842912
11
112.6483666
21
-96.6842912
0
ARC
8
0
10
92.5989109
20
-115.6842912
40
1
50
186.0000021
51
270
0
ARC
8
0
10
111.6483666
20
-115.6842912
40
1
50
270
51
0
0
ARC
8
0
10
145.6483666
20
-115.6842912
40
1
50
180
51
270
0
ARC
8
0
10
165.9503019
20
-117.6842912
40
1
50
76.9999979
51
90
0
ARC
8
0
10
182.4905738
20
-121.5029139
40
1
50
64.0000012
51
76.9999979
0
ARC
8
0
10
200.2310815
20
-127.9303338
40
1
50
244.0000012
51
334.0000012
0
ARC
8
0
10
207.6833911
20
-112.6508349
40
1
50
334.0000012
51
64.0000012
0
ARC
8
0
10
204.0483666
20
-108.6527112
40
1
50
180
51
244.0000012
0
ARC
8
0
10
202.0483666
20
-57.6842911
40
1
50
0
51
90
0
ARC
8
0
10
182.1483666
20
-55.6842911
40
1
50
180
51
270
0
ARC
8
0
10
180.1483666
20
-39.6842912
40
1
50
0
51
90
0
ARC
8
0
10
146.1483667
20
-37.6842912
40
1
50
180
51
270
0
ARC
8
0
10
144.1483667
20
-36.6842912
40
1
50
0
51
90
0
ARC
8
0
10
126.1483667
20
-36.6842912
40
1
50
90
51
180
0
ARC
8
0
10
124.1483667
20
-37.6842912
40
1
50
270
51
0
0
ARC
8
0
10
90.5101656
20
-39.6842912
40
1
50
90
51
180.5085583
0
ARC
8
0
10
88.6588756
20
-56.4468818
40
1
50
276.0000021
51
0.5085583
0
ARC
8
0
10
86.6068432
20
-58.6735756
40
1
50
96.0000021
51
186.0000021
0
CIRCLE
8
0
10
92.50125
20
-44.6842912
40
1.1
0
CIRCLE
8
0
10
178.1483666
20
-41.1842912
40
1.1
0
CIRCLE
8
0
10
135.1483667
20
-91.6842912
40
1.1
0
CIRCLE
8
0
10
199.5280893
20
-101.9976169
40
1.1
0
CIRCLE
8
0
10
94.6985068
20
-113.6842912
40
1.1
0
LINE
8
0
10
91.9377949
20
-109.3941923
11
109.839189
21
-107.5126799
0
LINE
8
0
10
104.5082373
20
-56.7920633
11
109.839189
21
-107.5126799
0
LINE
8
0
10
86.6068432
20
-58.6735757
11
91.9377949
21
-109.3941923
0
LINE
8
0
10
104.5082373
20
-56.7920633
11
86.6068432
21
-58.6735757
0
LINE
8
0
10
108.2879179
20
-92.1077697
11
126.2632495
21
-91.1657224
0
LINE
8
0
10
126.2632495
20
-91.1657224
11
125.3735383
21
-74.1890203
0
LINE
8
0
10
107.3982067
20
-75.1310676
11
108.2879179
21
-92.1077697
0
LINE
8
0
10
125.3735382
20
-74.1890203
11
124.483827
21
-57.2123182
0
LINE
8
0
10
106.5084954
20
-58.1543655
11
107.3982066
21
-75.1310676
0
LINE
8
0
10
124.4838269
20
-57.2123182
11
123.5941157
21
-40.2356161
0
LINE
8
0
10
123.5941157
20
-40.2356161
11
105.6187841
21
-41.1776634
0
LINE
8
0
10
105.6187841
20
-41.1776634
11
106.5084953
21
-58.1543655
0
LINE
8
0
10
126.1483667
20
-87.6842912
11
144.1483667
21
-87.6842912
0
LINE
8
0
10
126.1483667
20
-87.6842912
11
126.1483667
21
-36.6842912
0
LINE
8
0
10
144.1483666
20
-42.6842912
11
144.1483667
21
-36.6842912
0
LINE
8
0
10
144.1483667
20
-36.6842912
11
126.1483667
21
-36.6842912
0
LINE
8
0
10
144.1483666
20
-93.6842912
11
162.1483666
21
-93.6842912
0
LINE
8
0
10
144.1483667
20
-87.6842912
11
144.1483666
21
-93.6842912
0
LINE
8
0
10
162.1483666
20
-44.6842911
11
162.1483666
21
-42.6842912
0
LINE
8
0
10
162.1483666
20
-42.6842912
11
144.1483666
21
-42.6842912
0
LINE
8
0
10
162.1483666
20
-95.6842911
11
180.1483666
21
-95.6842911
0
LINE
8
0
10
180.1483666
20
-95.6842911
11
180.1483666
21
-44.6842911
0
LINE
8
0
10
162.1483666
20
-93.6842912
11
162.1483666
21
-95.6842911
0
LINE
8
0
10
180.1483666
20
-44.6842911
11
162.1483666
21
-44.6842911
0
LINE
8
0
10
148.1483666
20
-115.6842912
11
166.1483666
21
-115.6842912
0
LINE
8
0
10
166.1483666
20
-115.6842912
11
166.1483666
21
-98.6842912
0
LINE
8
0
10
166.1483666
20
-98.6842912
11
148.1483666
21
-98.6842912
0
LINE
8
0
10
148.1483666
20
-98.6842912
11
148.1483666
21
-115.6842912
0
LINE
8
0
10
166.4005284
20
-115.7356259
11
183.9391895
21
-119.7847448
0
LINE
8
0
10
183.9391895
20
-119.7847448
11
187.7633574
21
-103.2204537
0
LINE
8
0
10
187.7633574
20
-103.2204537
11
170.2246963
21
-99.1713348
0
LINE
8
0
10
170.2246963
20
-99.1713348
11
166.4005284
21
-115.7356259
0
LINE
8
0
10
184.0527886
20
-120.0396531
11
200.2310815
21
-127.9303337
0
LINE
8
0
10
200.2310815
20
-127.9303337
11
207.683391
21
-112.6508349
0
LINE
8
0
10
207.683391
20
-112.6508349
11
191.5050981
21
-104.7601543
0
LINE
8
0
10
191.5050981
20
-104.7601543
11
184.0527886
21
-120.0396531
0
LINE
8
0
10
110.1985068
20
-116.6842912
11
110.1985068
21
-109.7842912
0
LINE
8
0
10
110.1985068
20
-109.7842912
11
97.8485068
21
-109.7842912
0
LINE
8
0
10
97.8485068
20
-109.7842912
11
97.8485068
21
-116.6842912
0
LINE
8
0
10
113.6483666
20
-117.6842912
11
143.6483666
21
-117.6842912
0
ARC
8
0
10
143.6483666
20
-116.6842912
40
1
50
270
51
360
0
ARC
8
0
10
113.6483666
20
-116.6842912
40
1
50
180
51
270
0
LINE
8
0
10
95.15125
20
-41.7842912
11
101.85125
21
-41.7842912
0
LINE
8
0
10
101.85125
20
-41.7842912
11
101.85125
21
-39.1842912
0
LINE
8
0
10
101.85125
20
-39.1842912
11
99.15125
21
-39.1842912
0
LINE
8
0
10
97.85125
20
-39.1842912
11
95.15125
21
-39.1842912
0
LINE
8
0
10
95.15125
20
-39.1842912
11
95.15125
21
-41.7842912
0
LINE
8
0
10
99.15125
20
-39.1842912
11
99.15125
21
-37.6842912
0
LINE
8
0
10
99.15125
20
-37.6842912
11
97.85125
21
-37.6842912
0
LINE
8
0
10
97.85125
20
-37.6842912
11
97.85125
21
-39.1842912
0
LINE
8
0
10
169.7983666
20
-42.1842912
11
174.4983666
21
-42.1842912
0
LINE
8
0
10
174.4983666
20
-42.1842912
11
174.4983666
21
-38.6842912
0
LINE
8
0
10
169.7983666
20
-38.6842912
11
169.7983666
21
-42.1842912
0
LINE
8
0
10
173.4483666
20
-38.6842912
11
173.4483666
21
-37.6842912
0
LINE
8
0
10
173.4483666
20
-37.6842912
11
170.8483666
21
-37.6842912
0
LINE
8
0
10
170.8483666
20
-37.6842912
11
170.8483666
21
-38.6842912
0
LINE
8
0
10
180.1483665
20
-98.3848647
11
180.1483666
21
-56.6842911
0
ARC
8
0
10
159.4232851
20
-185.9660899
40
90
50
61.0056659
51
76.6865205
0
LINE
8
0
10
184.1483666
20
-90.6842911
11
203.0483666
21
-90.6842911
0
LINE
8
0
10
184.1483666
20
-56.6842911
11
184.1483666
21
-90.6842911
0
LINE
8
0
10
147.1483666
20
-116.6842912
11
147.1483666
21
-93.6842912
0
ENDSEC
0
EOF