0
SECTION
2
HEADER
9
$INSUNITS
70
4
0
ENDSEC
0
SECTION
2
TABLES
0
TABLE
2
LTYPE
0
LTYPE
72
65
70
64
2
CONTINUOUS
3
______
73
0
40
0
0
ENDTAB
0
TABLE
2
LAYER
0
ENDTAB
0
ENDSEC
0
SECTION
2
ENTITIES
0
LINE
8
0
10
-14.6624412
20
41.4443942
11
-10.2632253
21
-0.411349
0
LINE
8
0
10
-9.8791909
20
42.9526424
11
-13.7724478
21
42.5434446
0
LINE
8
0
10
45.3983667
20
61.3157088
11
45.3983667
21
63.5657088
0
LINE
8
0
10
44.3983667
20
64.5657088
11
25.8983667
21
64.5657088
0
LINE
8
0
10
24.8983667
20
63.5657088
11
24.8983667
21
61.3157088
0
ARC
8
0
10
44.3983667
20
63.5657088
40
1
50
0
51
90
0
ARC
8
0
10
25.8983667
20
63.5657088
40
1
50
90
51
180
0
ARC
8
0
10
-13.6679193
20
41.5489227
40
1
50
96.0000021
51
186.0000021
0
LINE
8
0
10
44.1483666
20
-16.6842912
11
65.9503019
21
-16.6842912
0
LINE
8
0
10
66.175253
20
-16.7099211
11
82.7155249
21
-20.5285438
0
LINE
8
0
10
82.9289449
20
-20.6041199
11
99.7927104
21
-28.8291278
0
LINE
8
0
10
101.1298755
20
-28.3687049
11
108.5821851
21
-13.089206
0
LINE
8
0
10
91.0446752
20
-3.4229891
11
108.1217622
21
-11.7520409
0
ARC
8
0
10
65.9503019
20
-17.6842912
40
1
50
76.9999979
51
90
0
ARC
8
0
10
82.4905738
20
-21.5029139
40
1
50
64.0000012
51
76.9999979
0
ARC
8
0
10
100.2310815
20
-27.9303338
40
1
50
244.0000012
51
334.0000012
0
ARC
8
0
10
107.6833911
20
-12.6508349
40
1
50
334.0000012
51
64.0000012
0
LINE
8
0
10
-8.8858977
20
-15.7735897
11
-10.2632253
21
-0.411349
0
LINE
8
0
10
12.1483666
20
-16.6842912
11
-7.8898928
21
-16.6842912
0
ARC
8
0
10
-7.8898928
20
-15.6842912
40
1
50
185.1232516
51
270
0
LINE
8
0
10
-9.8791909
20
42.9526424
11
-9.8531318
21
60.3172095
0
LINE
8
0
10
-8.8531329
20
61.3157088
11
24.8983667
21
61.3157088
0
LINE
8
0
10
45.3983667
20
61.3157088
11
83.1483667
21
61.3157088
0
LINE
8
0
10
84.1483667
20
60.3157088
11
84.1483667
21
42.3157089
0
ARC
8
0
10
-8.8531329
20
60.3157088
40
1
50
90
51
179.9140162
0
ARC
8
0
10
83.1483667
20
60.3157088
40
1
50
0
51
90
0
LINE
8
0
10
12.1483666
20
-16.6842912
11
12.1483666
21
3.3157088
0
LINE
8
0
10
44.1483666
20
-16.6842912
11
44.1483666
21
3.3157088
0
ARC
8
0
10
43.1483666
20
3.3157088
40
1
50
0
51
360
0
LINE
8
0
10
13.1483666
20
4.3157088
11
43.1483666
21
4.3157088
0
ARC
8
0
10
13.1483666
20
3.3157088
40
1
50
90
51
450
0
CIRCLE
8
0
10
-2.4519145
20
52.0287239
40
1.8
0
LINE
8
0
10
80.1483666
20
42.3157089
11
102.4483666
21
42.3157089
0
LINE
8
0
10
102.4483666
20
-8.984941
11
102.4483666
21
42.3157089
0
LINE
8
0
10
-8.0622051
20
-9.3941923
11
9.839189
21
-7.5126799
0
LINE
8
0
10
4.5082373
20
43.2079367
11
9.839189
21
-7.5126799
0
LINE
8
0
10
-13.3931568
20
41.3264243
11
-8.0622051
21
-9.3941923
0
LINE
8
0
10
4.5082373
20
43.2079367
11
-13.3931568
21
41.3264243
0
LINE
8
0
10
8.2879179
20
7.8922303
11
26.2632495
21
8.8342776
0
LINE
8
0
10
26.2632495
20
8.8342776
11
25.3735383
21
25.8109797
0
LINE
8
0
10
7.3982067
20
24.8689324
11
8.2879179
21
7.8922303
0
LINE
8
0
10
25.3735382
20
25.8109797
11
24.483827
21
42.7876818
0
LINE
8
0
10
6.5084954
20
41.8456345
11
7.3982066
21
24.8689324
0
LINE
8
0
10
24.4838269
20
42.7876818
11
23.5941157
21
59.7643839
0
LINE
8
0
10
23.5941157
20
59.7643839
11
5.6187841
21
58.8223366
0
LINE
8
0
10
5.6187841
20
58.8223366
11
6.5084953
21
41.8456345
0
LINE
8
0
10
26.1483667
20
12.3157088
11
44.1483667
21
12.3157088
0
LINE
8
0
10
26.1483667
20
12.3157088
11
26.1483667
21
63.3157088
0
LINE
8
0
10
44.1483666
20
57.3157088
11
44.1483667
21
63.3157088
0
LINE
8
0
10
44.1483667
20
63.3157088
11
26.1483667
21
63.3157088
0
LINE
8
0
10
44.1483666
20
6.3157088
11
62.1483666
21
6.3157088
0
LINE
8
0
10
44.1483667
20
12.3157088
11
44.1483666
21
6.3157088
0
LINE
8
0
10
62.1483666
20
55.3157089
11
62.1483666
21
57.3157088
0
LINE
8
0
10
62.1483666
20
57.3157088
11
44.1483666
21
57.3157088
0
LINE
8
0
10
62.1483666
20
4.3157089
11
80.1483666
21
4.3157089
0
LINE
8
0
10
80.1483666
20
-0.4360904
11
80.1483666
21
55.3157089
0
LINE
8
0
10
62.1483666
20
6.3157088
11
62.1483666
21
4.3157089
0
LINE
8
0
10
80.1483666
20
55.3157089
11
62.1483666
21
55.3157089
0
LINE
8
0
10
48.1483666
20
-15.6842912
11
66.1483666
21
-15.6842912
0
LINE
8
0
10
66.1483666
20
-15.6842912
11
66.1483666
21
1.3157088
0
LINE
8
0
10
66.1483666
20
1.3157088
11
48.1483666
21
1.3157088
0
LINE
8
0
10
48.1483666
20
1.3157088
11
48.1483666
21
-15.6842912
0
LINE
8
0
10
66.4005284
20
-15.7356259
11
83.9391895
21
-19.7847448
0
LINE
8
0
10
83.9391895
20
-19.7847448
11
87.7633574
21
-3.2204537
0
LINE
8
0
10
87.7633574
20
-3.2204537
11
70.2246963
21
0.8286652
0
LINE
8
0
10
70.2246963
20
0.8286652
11
66.4005284
21
-15.7356259
0
LINE
8
0
10
84.0527886
20
-20.0396531
11
100.2310815
21
-27.9303337
0
LINE
8
0
10
100.2310815
20
-27.9303337
11
107.683391
21
-12.6508349
0
LINE
8
0
10
107.683391
20
-12.6508349
11
91.5050981
21
-4.7601543
0
LINE
8
0
10
91.5050981
20
-4.7601543
11
84.0527886
21
-20.0396531
0
LINE
8
0
10
-1.8516334
20
-11.6842912
11
-1.8516334
21
-16.1842912
0
LINE
8
0
10
-1.8516334
20
-16.1842912
11
6.1483666
21
-16.1842912
0
LINE
8
0
10
6.1483666
20
-16.1842912
11
6.1483666
21
-11.6842912
0
LINE
8
0
10
6.1483666
20
-11.6842912
11
-1.8516334
21
-11.6842912
0
ARC
8
0
10
13.1483666
20
-16.6842912
40
1
50
180
51
270
0
LINE
8
0
10
13.1483666
20
-17.6842912
11
43.1483666
21
-17.6842912
0
ARC
8
0
10
43.1483666
20
-16.6842912
40
1
50
270
51
360
0
LINE
8
0
10
-5.2016333
20
58.2157088
11
-5.2016333
21
60.8157088
0
LINE
8
0
10
-5.2016333
20
60.8157088
11
-3.6016333
21
60.8157088
0
LINE
8
0
10
-2.3016333
20
60.8157088
11
1.4983667
21
60.8157088
0
LINE
8
0
10
1.4983667
20
60.8157088
11
1.4983667
21
58.2157088
0
LINE
8
0
10
1.4983667
20
58.2157088
11
-5.2016333
21
58.2157088
0
LINE
8
0
10
-3.6016333
20
60.8157088
11
-3.6016333
21
62.1157088
0
LINE
8
0
10
-3.6016333
20
62.1157088
11
-2.3016333
21
62.1157088
0
LINE
8
0
10
-2.3016333
20
62.1157088
11
-2.3016333
21
60.8157088
0
LINE
8
0
10
68.1483667
20
57.8157088
11
68.1483667
21
61.3157088
0
LINE
8
0
10
72.8483667
20
61.3157088
11
72.8483667
21
57.8157088
0
LINE
8
0
10
72.8483667
20
57.8157088
11
68.1483667
21
57.8157088
0
LINE
8
0
10
69.1483667
20
61.3157088
11
69.1483667
21
62.3157088
0
LINE
8
0
10
69.1483667
20
62.3157088
11
71.7483667
21
62.3157088
0
LINE
8
0
10
71.7483667
20
62.3157088
11
71.7483667
21
61.3157088
0
LINE
8
0
10
80.1483666
20
-0.4360904
11
88.9626786
21
-2.4710347
0
LINE
8
0
10
88.9626786
20
-2.4710347
11
91.0446752
21
-3.4229891
0
ENDSEC
0
EOF