0
SECTION
2
HEADER
9
$INSUNITS
70
4
0
ENDSEC
0
SECTION
2
TABLES
0
TABLE
2
LTYPE
0
LTYPE
72
65
70
64
2
CONTINUOUS
3
______
73
0
40
0
0
ENDTAB
0
TABLE
2
LAYER
0
ENDTAB
0
ENDSEC
0
SECTION
2
ENTITIES
0
LINE
8
0
10
86.6068432
20
-58.6735757
11
92.5047931
21
-114.7888197
0
LINE
8
0
10
86.6068432
20
-58.6735757
11
104.5082373
21
-56.7920633
0
LINE
8
0
10
144.1483666
20
-42.6842912
11
144.1483667
21
-36.6842912
0
LINE
8
0
10
144.1483667
20
-36.6842912
11
126.1483667
21
-36.6842912
0
LINE
8
0
10
126.1483667
20
-87.6842912
11
126.1483667
21
-36.6842912
0
LINE
8
0
10
93.499315
20
-115.6842912
11
166.1483666
21
-115.6842912
0
LINE
8
0
10
184.0527886
20
-120.0396531
11
200.2310815
21
-127.9303337
0
LINE
8
0
10
200.2310815
20
-127.9303337
11
207.683391
21
-112.6508349
0
LINE
8
0
10
191.5050981
20
-104.7601543
11
207.683391
21
-112.6508349
0
LINE
8
0
10
184.0527886
20
-120.0396531
11
166.1483666
21
-115.6842912
0
LINE
8
0
10
184.1483667
20
-57.6842911
11
201.4483666
21
-57.6842911
0
LINE
8
0
10
202.4483666
20
-110.0975429
11
202.4483666
21
-58.6842911
0
ARC
8
0
10
201.4483666
20
-58.6842911
40
1
50
0
51
90
0
ARC
8
0
10
93.499315
20
-114.6842912
40
1
50
186.0000021
51
270
0
LINE
8
0
10
90.1483667
20
-58.3013466
11
90.1483667
21
-40.1842912
0
LINE
8
0
10
91.1483667
20
-39.1842912
11
126.1483667
21
-39.1842912
0
LINE
8
0
10
144.1483666
20
-39.1842912
11
183.1483667
21
-39.1842912
0
LINE
8
0
10
184.1483667
20
-40.1842912
11
184.1483667
21
-57.6842911
0
ARC
8
0
10
91.1483667
20
-40.1842912
40
1
50
90
51
180
0
ARC
8
0
10
183.1483667
20
-40.1842912
40
1
50
0
51
90
0
LINE
8
0
10
91.9377949
20
-109.3941923
11
109.839189
21
-107.5126799
0
LINE
8
0
10
104.5082373
20
-56.7920633
11
109.839189
21
-107.5126799
0
LINE
8
0
10
108.2879179
20
-92.1077697
11
126.2632495
21
-91.1657224
0
LINE
8
0
10
126.2632495
20
-91.1657224
11
125.3735383
21
-74.1890203
0
LINE
8
0
10
107.3982067
20
-75.1310676
11
108.2879179
21
-92.1077697
0
LINE
8
0
10
125.3735382
20
-74.1890203
11
124.483827
21
-57.2123182
0
LINE
8
0
10
106.5084954
20
-58.1543655
11
107.3982066
21
-75.1310676
0
LINE
8
0
10
124.4838269
20
-57.2123182
11
123.5941157
21
-40.2356161
0
LINE
8
0
10
123.5941157
20
-40.2356161
11
105.6187841
21
-41.1776634
0
LINE
8
0
10
105.6187841
20
-41.1776634
11
106.5084953
21
-58.1543655
0
LINE
8
0
10
126.1483667
20
-87.6842912
11
144.1483667
21
-87.6842912
0
LINE
8
0
10
144.1483666
20
-93.6842912
11
162.1483666
21
-93.6842912
0
LINE
8
0
10
144.1483667
20
-87.6842912
11
144.1483666
21
-93.6842912
0
LINE
8
0
10
162.1483666
20
-44.6842911
11
162.1483666
21
-42.6842912
0
LINE
8
0
10
162.1483666
20
-42.6842912
11
144.1483666
21
-42.6842912
0
LINE
8
0
10
162.1483666
20
-95.6842911
11
180.1483666
21
-95.6842911
0
LINE
8
0
10
180.1483666
20
-95.6842911
11
180.1483666
21
-44.6842911
0
LINE
8
0
10
162.1483666
20
-93.6842912
11
162.1483666
21
-95.6842911
0
LINE
8
0
10
180.1483666
20
-44.6842911
11
162.1483666
21
-44.6842911
0
LINE
8
0
10
166.1483666
20
-115.6842912
11
166.1483666
21
-98.6842912
0
LINE
8
0
10
166.1483666
20
-98.6842912
11
148.1483666
21
-98.6842912
0
LINE
8
0
10
148.1483666
20
-98.6842912
11
148.1483666
21
-115.6842912
0
LINE
8
0
10
166.4005284
20
-115.7356259
11
183.9391895
21
-119.7847448
0
LINE
8
0
10
183.9391895
20
-119.7847448
11
187.7633574
21
-103.2204537
0
LINE
8
0
10
187.7633574
20
-103.2204537
11
170.2246963
21
-99.1713348
0
LINE
8
0
10
170.2246963
20
-99.1713348
11
166.4005284
21
-115.7356259
0
LINE
8
0
10
191.5050981
20
-104.7601543
11
184.0527886
21
-120.0396531
0
LINE
8
0
10
113.1483666
20
-95.6842912
11
113.1483666
21
-115.6842912
0
LINE
8
0
10
143.1483666
20
-115.6842912
11
143.1483666
21
-95.6842912
0
LINE
8
0
10
143.1483666
20
-95.6842912
11
113.1483666
21
-95.6842912
0
LINE
8
0
10
201.4483666
20
-90.6842911
11
185.1483666
21
-90.6842911
0
LINE
8
0
10
184.1483666
20
-89.6842911
11
184.1483666
21
-58.6842911
0
ARC
8
0
10
185.1483666
20
-89.6842911
40
1
50
180
51
270
0
ARC
8
0
10
185.1483666
20
-58.6842911
40
1
50
90
51
180
0
ARC
8
0
10
201.4483666
20
-89.6842911
40
1
50
270
51
0
0
CIRCLE
8
0
10
94.2509345
20
-45.3012958
40
1.8
0
CIRCLE
8
0
10
181.1483666
20
-42.6842911
40
1.8
0
CIRCLE
8
0
10
135.1483667
20
-91.6842912
40
1.8
0
CIRCLE
8
0
10
198.6292952
20
-101.5592457
40
1.8
0
CIRCLE
8
0
10
95.2872102
20
-112.5614335
40
1.8
0
LINE
8
0
10
94.7983667
20
-42.7842912
11
94.7983667
21
-40.1842912
0
LINE
8
0
10
94.7983667
20
-40.1842912
11
96.3983667
21
-40.1842912
0
LINE
8
0
10
97.6983667
20
-40.1842912
11
101.4983667
21
-40.1842912
0
LINE
8
0
10
101.4983667
20
-40.1842912
11
101.4983667
21
-42.7842912
0
LINE
8
0
10
101.4983667
20
-42.7842912
11
94.7983667
21
-42.7842912
0
LINE
8
0
10
96.3983667
20
-40.1842912
11
96.3983667
21
-38.8842912
0
LINE
8
0
10
96.3983667
20
-38.8842912
11
97.6983667
21
-38.8842912
0
LINE
8
0
10
97.6983667
20
-38.8842912
11
97.6983667
21
-40.1842912
0
LINE
8
0
10
168.1483667
20
-42.6842912
11
168.1483667
21
-39.1842912
0
LINE
8
0
10
172.8483667
20
-39.1842912
11
172.8483667
21
-42.6842912
0
LINE
8
0
10
172.8483667
20
-42.6842912
11
168.1483667
21
-42.6842912
0
LINE
8
0
10
169.1483667
20
-39.1842912
11
169.1483667
21
-38.1842912
0
LINE
8
0
10
169.1483667
20
-38.1842912
11
171.7483667
21
-38.1842912
0
LINE
8
0
10
171.7483667
20
-38.1842912
11
171.7483667
21
-39.1842912
0
ENDSEC
0
EOF