0
SECTION
2
HEADER
9
$INSUNITS
70
4
0
ENDSEC
0
SECTION
2
TABLES
0
TABLE
2
LTYPE
0
LTYPE
72
65
70
64
2
CONTINUOUS
3
______
73
0
40
0
0
ENDTAB
0
TABLE
2
LAYER
0
ENDTAB
0
ENDSEC
0
SECTION
2
ENTITIES
0
LINE
8
0
10
85.3375588
20
-58.5556058
11
89.7367747
21
-100.411349
0
LINE
8
0
10
90.1213428
20
-57.0473015
11
86.2275522
21
-57.4565554
0
LINE
8
0
10
123.7783532
20
-38.9742453
11
119.7704378
21
-39.1842912
0
LINE
8
0
10
145.3983667
20
-39.1842912
11
145.3983667
21
-36.4342912
0
LINE
8
0
10
144.3983667
20
-35.4342912
11
125.8983667
21
-35.4342912
0
LINE
8
0
10
124.8983667
20
-36.4342912
11
124.8983667
21
-39.1658909
0
ARC
8
0
10
144.3983667
20
-36.4342912
40
1
50
0
51
90
0
ARC
8
0
10
125.8983667
20
-36.4342912
40
1
50
90
51
180
0
ARC
8
0
10
123.8306892
20
-39.9728748
40
1
50
52.0533413
51
93.0000026
0
ARC
8
0
10
86.3320807
20
-58.4510773
40
1
50
96.0000021
51
186.0000021
0
LINE
8
0
10
124.5472684
20
-39.1842912
11
124.8983667
21
-39.1658909
0
LINE
8
0
10
144.1483666
20
-116.6842912
11
165.9503019
21
-116.6842912
0
LINE
8
0
10
166.175253
20
-116.7099211
11
182.7155249
21
-120.5285438
0
LINE
8
0
10
182.9289449
20
-120.6041199
11
199.7927104
21
-128.8291278
0
LINE
8
0
10
201.1298755
20
-128.3687049
11
208.5821851
21
-113.089206
0
LINE
8
0
10
191.0446752
20
-103.4229891
11
208.1217622
21
-111.7520409
0
ARC
8
0
10
165.9503019
20
-117.6842912
40
1
50
76.9999979
51
90
0
ARC
8
0
10
182.4905738
20
-121.5029139
40
1
50
64.0000012
51
76.9999979
0
ARC
8
0
10
200.2310815
20
-127.9303338
40
1
50
244.0000012
51
334.0000012
0
ARC
8
0
10
207.6833911
20
-112.6508349
40
1
50
334.0000012
51
64.0000012
0
LINE
8
0
10
180.1483666
20
-57.1842911
11
202.4483666
21
-57.1842911
0
ARC
8
0
10
202.4483666
20
-57.6842911
40
0.5
50
360
51
720
0
LINE
8
0
10
202.9483666
20
-109.2288073
11
202.9483666
21
-57.6842911
0
LINE
8
0
10
191.9430673
20
-103.8611642
11
191.9434692
21
-103.8613602
0
LINE
8
0
10
91.1141023
20
-115.7735897
11
89.7367747
21
-100.411349
0
LINE
8
0
10
112.1483666
20
-116.6842912
11
92.1101072
21
-116.6842912
0
ARC
8
0
10
92.1101072
20
-115.6842912
40
1
50
185.1232516
51
270
0
LINE
8
0
10
90.1213428
20
-57.0473015
11
90.1468562
21
-40.1827784
0
LINE
8
0
10
91.1468551
20
-39.1842912
11
119.7704378
21
-39.1842912
0
LINE
8
0
10
145.3983667
20
-39.1842912
11
183.1483667
21
-39.1842912
0
LINE
8
0
10
124.4456168
20
-39.1842912
11
124.5472684
21
-39.1842912
0
LINE
8
0
10
184.1483667
20
-40.1842912
11
184.1483667
21
-57.1842911
0
ARC
8
0
10
91.1468551
20
-40.1842912
40
1
50
90
51
179.9133229
0
ARC
8
0
10
183.1483667
20
-40.1842912
40
1
50
0
51
90
0
LINE
8
0
10
112.1483666
20
-116.6842912
11
112.1483666
21
-96.6842912
0
LINE
8
0
10
144.1483666
20
-116.6842912
11
144.1483666
21
-96.6842912
0
ARC
8
0
10
143.1483666
20
-96.6842912
40
1
50
0
51
360
0
LINE
8
0
10
113.1483666
20
-95.6842912
11
143.1483666
21
-95.6842912
0
ARC
8
0
10
113.1483666
20
-96.6842912
40
1
50
90
51
450
0
LINE
8
0
10
91.9377949
20
-109.3941923
11
109.839189
21
-107.5126799
0
LINE
8
0
10
104.5082373
20
-56.7920633
11
109.839189
21
-107.5126799
0
LINE
8
0
10
86.6068432
20
-58.6735757
11
91.9377949
21
-109.3941923
0
LINE
8
0
10
104.5082373
20
-56.7920633
11
86.6068432
21
-58.6735757
0
LINE
8
0
10
108.2879179
20
-92.1077697
11
126.2632495
21
-91.1657224
0
LINE
8
0
10
126.2632495
20
-91.1657224
11
125.3735383
21
-74.1890203
0
LINE
8
0
10
107.3982067
20
-75.1310676
11
108.2879179
21
-92.1077697
0
LINE
8
0
10
125.3735382
20
-74.1890203
11
124.483827
21
-57.2123182
0
LINE
8
0
10
106.5084954
20
-58.1543655
11
107.3982066
21
-75.1310676
0
LINE
8
0
10
124.4838269
20
-57.2123182
11
123.5941157
21
-40.2356161
0
LINE
8
0
10
123.5941157
20
-40.2356161
11
105.6187841
21
-41.1776634
0
LINE
8
0
10
105.6187841
20
-41.1776634
11
106.5084953
21
-58.1543655
0
LINE
8
0
10
126.1483667
20
-87.6842912
11
144.1483667
21
-87.6842912
0
LINE
8
0
10
126.1483667
20
-87.6842912
11
126.1483667
21
-36.6842912
0
LINE
8
0
10
144.1483666
20
-42.6842912
11
144.1483667
21
-36.6842912
0
LINE
8
0
10
144.1483667
20
-36.6842912
11
126.1483667
21
-36.6842912
0
LINE
8
0
10
144.1483666
20
-93.6842912
11
162.1483666
21
-93.6842912
0
LINE
8
0
10
144.1483667
20
-87.6842912
11
144.1483666
21
-93.6842912
0
LINE
8
0
10
162.1483666
20
-44.6842911
11
162.1483666
21
-42.6842912
0
LINE
8
0
10
162.1483666
20
-42.6842912
11
144.1483666
21
-42.6842912
0
LINE
8
0
10
162.1483666
20
-95.6842911
11
180.1483666
21
-95.6842911
0
LINE
8
0
10
180.1483666
20
-95.6842911
11
180.1483666
21
-44.6842911
0
LINE
8
0
10
162.1483666
20
-93.6842912
11
162.1483666
21
-95.6842911
0
LINE
8
0
10
180.1483666
20
-44.6842911
11
162.1483666
21
-44.6842911
0
LINE
8
0
10
148.1483666
20
-115.6842912
11
166.1483666
21
-115.6842912
0
LINE
8
0
10
166.1483666
20
-115.6842912
11
166.1483666
21
-98.6842912
0
LINE
8
0
10
166.1483666
20
-98.6842912
11
148.1483666
21
-98.6842912
0
LINE
8
0
10
148.1483666
20
-98.6842912
11
148.1483666
21
-115.6842912
0
LINE
8
0
10
166.4005284
20
-115.7356259
11
183.9391895
21
-119.7847448
0
LINE
8
0
10
183.9391895
20
-119.7847448
11
187.7633574
21
-103.2204537
0
LINE
8
0
10
187.7633574
20
-103.2204537
11
170.2246963
21
-99.1713348
0
LINE
8
0
10
170.2246963
20
-99.1713348
11
166.4005284
21
-115.7356259
0
LINE
8
0
10
184.0527886
20
-120.0396531
11
200.2310815
21
-127.9303337
0
LINE
8
0
10
200.2310815
20
-127.9303337
11
207.683391
21
-112.6508349
0
LINE
8
0
10
207.683391
20
-112.6508349
11
191.5050981
21
-104.7601543
0
LINE
8
0
10
191.5050981
20
-104.7601543
11
184.0527886
21
-120.0396531
0
LINE
8
0
10
98.1483666
20
-111.6842912
11
98.1483666
21
-116.1842912
0
LINE
8
0
10
98.1483666
20
-116.1842912
11
106.1483666
21
-116.1842912
0
LINE
8
0
10
106.1483666
20
-116.1842912
11
106.1483666
21
-111.6842912
0
LINE
8
0
10
106.1483666
20
-111.6842912
11
98.1483666
21
-111.6842912
0
ARC
8
0
10
113.1483666
20
-116.6842912
40
1
50
180
51
270
0
LINE
8
0
10
113.1483666
20
-117.6842912
11
143.1483666
21
-117.6842912
0
ARC
8
0
10
143.1483666
20
-116.6842912
40
1
50
270
51
360
0
LINE
8
0
10
94.7983667
20
-42.2842912
11
94.7983667
21
-39.6842912
0
LINE
8
0
10
94.7983667
20
-39.6842912
11
96.3983667
21
-39.6842912
0
LINE
8
0
10
97.6983667
20
-39.6842912
11
101.4983667
21
-39.6842912
0
LINE
8
0
10
101.4983667
20
-39.6842912
11
101.4983667
21
-42.2842912
0
LINE
8
0
10
101.4983667
20
-42.2842912
11
94.7983667
21
-42.2842912
0
LINE
8
0
10
96.3983667
20
-39.6842912
11
96.3983667
21
-38.3842912
0
LINE
8
0
10
96.3983667
20
-38.3842912
11
97.6983667
21
-38.3842912
0
LINE
8
0
10
97.6983667
20
-38.3842912
11
97.6983667
21
-39.6842912
0
LINE
8
0
10
168.1483667
20
-42.6842912
11
168.1483667
21
-39.1842912
0
LINE
8
0
10
172.8483667
20
-39.1842912
11
172.8483667
21
-42.6842912
0
LINE
8
0
10
172.8483667
20
-42.6842912
11
168.1483667
21
-42.6842912
0
LINE
8
0
10
169.1483667
20
-39.1842912
11
169.1483667
21
-38.1842912
0
LINE
8
0
10
169.1483667
20
-38.1842912
11
171.7483667
21
-38.1842912
0
LINE
8
0
10
171.7483667
20
-38.1842912
11
171.7483667
21
-39.1842912
0
LINE
8
0
10
179.6483666
20
-100.3206563
11
179.6483666
21
-57.6842911
0
ARC
8
0
10
180.1483666
20
-57.6842911
40
0.5
50
90
51
180
0
LINE
8
0
10
179.6483666
20
-100.3206563
11
188.9626786
21
-102.4710347
0
LINE
8
0
10
188.9626786
20
-102.4710347
11
191.0446752
21
-103.4229891
0
ENDSEC
0
EOF