0
SECTION
2
HEADER
9
$INSUNITS
70
4
0
ENDSEC
0
SECTION
2
TABLES
0
TABLE
2
LTYPE
0
LTYPE
72
65
70
64
2
CONTINUOUS
3
______
73
0
40
0
0
ENDTAB
0
TABLE
2
LAYER
0
ENDTAB
0
ENDSEC
0
SECTION
2
ENTITIES
0
LINE
8
0
10
86.6068432
20
-58.6735757
11
92.5989109
21
-115.6842912
0
LINE
8
0
10
86.6068432
20
-58.6735757
11
104.5082373
21
-56.7920633
0
LINE
8
0
10
144.1483666
20
-42.6842912
11
144.1483667
21
-36.6842912
0
LINE
8
0
10
144.1483667
20
-36.6842912
11
126.1483667
21
-36.6842912
0
LINE
8
0
10
126.1483667
20
-87.6842912
11
126.1483667
21
-36.6842912
0
LINE
8
0
10
180.1483666
20
-101.4623946
11
180.1483666
21
-39.6842912
0
LINE
8
0
10
144.6483666
20
-115.6842912
11
166.1483666
21
-115.6842912
0
LINE
8
0
10
184.0527886
20
-120.0396531
11
200.2310815
21
-127.9303337
0
LINE
8
0
10
200.2310815
20
-127.9303337
11
207.683391
21
-112.6508349
0
LINE
8
0
10
191.5050981
20
-104.7601543
11
207.683391
21
-112.6508349
0
LINE
8
0
10
184.0527886
20
-120.0396531
11
166.1483666
21
-115.6842912
0
LINE
8
0
10
92.5989109
20
-115.6842912
11
112.6483666
21
-115.6842912
0
LINE
8
0
10
90.5826936
20
-58.255697
11
90.3796813
21
-39.6842912
0
LINE
8
0
10
90.3796813
20
-39.6842912
11
126.1483667
21
-39.6842912
0
LINE
8
0
10
144.1483666
20
-39.6842912
11
180.1483666
21
-39.6842912
0
LINE
8
0
10
180.1483666
20
-56.6842911
11
202.4483666
21
-56.6842911
0
LINE
8
0
10
202.4483666
20
-110.0975429
11
202.4483666
21
-56.6842911
0
LINE
8
0
10
144.6483666
20
-115.6842912
11
144.6483666
21
-95.6842912
0
ARC
8
0
10
143.6483666
20
-95.6842912
40
1
50
0
51
360
0
LINE
8
0
10
113.6483666
20
-94.6842912
11
143.6483666
21
-94.6842912
0
ARC
8
0
10
113.6483666
20
-95.6842912
40
1
50
90
51
450
0
LINE
8
0
10
112.6483666
20
-115.6842912
11
112.6483666
21
-95.6842912
0
CIRCLE
8
0
10
93.3796813
20
-45.6842912
40
1.1
0
CIRCLE
8
0
10
177.1483666
20
-42.1842912
40
1.1
0
CIRCLE
8
0
10
135.1483667
20
-90.6842912
40
1.1
0
CIRCLE
8
0
10
198.651347
20
-103.795205
40
1.1
0
CIRCLE
8
0
10
95.5989109
20
-112.6842912
40
1.1
0
LINE
8
0
10
91.9377949
20
-109.3941923
11
109.839189
21
-107.5126799
0
LINE
8
0
10
104.5082373
20
-56.7920633
11
109.839189
21
-107.5126799
0
LINE
8
0
10
108.2879179
20
-92.1077697
11
126.2632495
21
-91.1657224
0
LINE
8
0
10
126.2632495
20
-91.1657224
11
125.3735383
21
-74.1890203
0
LINE
8
0
10
107.3982067
20
-75.1310676
11
108.2879179
21
-92.1077697
0
LINE
8
0
10
125.3735382
20
-74.1890203
11
124.483827
21
-57.2123182
0
LINE
8
0
10
106.5084954
20
-58.1543655
11
107.3982066
21
-75.1310676
0
LINE
8
0
10
124.4838269
20
-57.2123182
11
123.5941157
21
-40.2356161
0
LINE
8
0
10
123.5941157
20
-40.2356161
11
105.6187841
21
-41.1776634
0
LINE
8
0
10
105.6187841
20
-41.1776634
11
106.5084953
21
-58.1543655
0
LINE
8
0
10
126.1483667
20
-87.6842912
11
144.1483667
21
-87.6842912
0
LINE
8
0
10
144.1483666
20
-93.6842912
11
162.1483666
21
-93.6842912
0
LINE
8
0
10
144.1483667
20
-87.6842912
11
144.1483666
21
-93.6842912
0
LINE
8
0
10
162.1483666
20
-44.6842911
11
162.1483666
21
-42.6842912
0
LINE
8
0
10
162.1483666
20
-42.6842912
11
144.1483666
21
-42.6842912
0
LINE
8
0
10
162.1483666
20
-95.6842911
11
180.1483666
21
-95.6842911
0
LINE
8
0
10
162.1483666
20
-93.6842912
11
162.1483666
21
-95.6842911
0
LINE
8
0
10
180.1483666
20
-44.6842911
11
162.1483666
21
-44.6842911
0
LINE
8
0
10
166.1483666
20
-115.6842912
11
166.1483666
21
-98.6842912
0
LINE
8
0
10
166.1483666
20
-98.6842912
11
148.1483666
21
-98.6842912
0
LINE
8
0
10
148.1483666
20
-98.6842912
11
148.1483666
21
-115.6842912
0
LINE
8
0
10
166.4005284
20
-115.7356259
11
183.9391895
21
-119.7847448
0
LINE
8
0
10
183.9391895
20
-119.7847448
11
187.7633574
21
-103.2204537
0
LINE
8
0
10
170.2246963
20
-99.1713348
11
187.7633574
21
-103.2204537
0
LINE
8
0
10
170.2246963
20
-99.1713348
11
166.4005284
21
-115.7356259
0
LINE
8
0
10
191.5050981
20
-104.7601543
11
184.0527886
21
-120.0396531
0
LINE
8
0
10
107.5989109
20
-115.6842912
11
107.5989109
21
-111.1842912
0
LINE
8
0
10
107.5989109
20
-111.1842912
11
99.5989109
21
-111.1842912
0
LINE
8
0
10
99.5989109
20
-111.1842912
11
99.5989109
21
-115.6842912
0
LINE
8
0
10
113.6483666
20
-116.6842912
11
143.6483666
21
-116.6842912
0
ARC
8
0
10
143.6483666
20
-115.6842912
40
1
50
270
51
360
0
ARC
8
0
10
113.6483666
20
-115.6842912
40
1
50
180
51
270
0
LINE
8
0
10
96.0296813
20
-42.7842912
11
102.7296813
21
-42.7842912
0
LINE
8
0
10
102.7296813
20
-42.7842912
11
102.7296813
21
-40.1842912
0
LINE
8
0
10
102.7296813
20
-40.1842912
11
100.0296813
21
-40.1842912
0
LINE
8
0
10
98.7296813
20
-40.1842912
11
96.0296813
21
-40.1842912
0
LINE
8
0
10
96.0296813
20
-40.1842912
11
96.0296813
21
-42.7842912
0
LINE
8
0
10
100.0296813
20
-40.1842912
11
100.0296813
21
-38.6842912
0
LINE
8
0
10
100.0296813
20
-38.6842912
11
98.7296813
21
-38.6842912
0
LINE
8
0
10
98.7296813
20
-38.6842912
11
98.7296813
21
-40.1842912
0
LINE
8
0
10
168.7983666
20
-43.1842912
11
173.4983666
21
-43.1842912
0
LINE
8
0
10
173.4983666
20
-43.1842912
11
173.4983666
21
-39.6842912
0
LINE
8
0
10
168.7983666
20
-39.6842912
11
168.7983666
21
-43.1842912
0
LINE
8
0
10
172.4483666
20
-39.6842912
11
172.4483666
21
-38.6842912
0
LINE
8
0
10
172.4483666
20
-38.6842912
11
169.8483666
21
-38.6842912
0
LINE
8
0
10
169.8483666
20
-38.6842912
11
169.8483666
21
-39.6842912
0
LINE
8
0
10
187.7633574
20
-103.2204537
11
191.5050981
21
-104.7601543
0
LINE
8
0
10
184.1483666
20
-89.6842911
11
202.4483666
21
-89.6842911
0
LINE
8
0
10
184.1483666
20
-56.6842911
11
184.1483666
21
-89.6842911
0
ENDSEC
0
EOF