0
SECTION
2
HEADER
9
$INSUNITS
70
4
0
ENDSEC
0
SECTION
2
TABLES
0
TABLE
2
LTYPE
0
LTYPE
72
65
70
64
2
CONTINUOUS
3
______
73
0
40
0
0
ENDTAB
0
TABLE
2
LAYER
0
ENDTAB
0
ENDSEC
0
SECTION
2
ENTITIES
0
LINE
8
0
10
85.6123213
20
-58.7781041
11
91.604389
21
-115.7888197
0
LINE
8
0
10
86.5023147
20
-57.6790537
11
88.7634041
21
-57.4414037
0
LINE
8
0
10
145.1483667
20
-37.6842912
11
145.1483667
21
-36.6842912
0
LINE
8
0
10
144.1483667
20
-35.6842912
11
126.1483667
21
-35.6842912
0
LINE
8
0
10
125.1483667
20
-36.6842912
11
125.1483667
21
-37.6842912
0
LINE
8
0
10
181.1483666
20
-99.8715227
11
181.1483666
21
-39.6842912
0
LINE
8
0
10
145.6483666
20
-116.6842912
11
165.9503019
21
-116.6842912
0
LINE
8
0
10
166.175253
20
-116.7099211
11
182.7155249
21
-120.5285438
0
LINE
8
0
10
188.8639519
20
-102.4482418
11
181.9234155
21
-100.8458928
0
LINE
8
0
10
182.9289449
20
-120.6041199
11
199.7927104
21
-128.8291278
0
LINE
8
0
10
201.1298755
20
-128.3687049
11
208.5821851
21
-113.089206
0
LINE
8
0
10
191.0558831
20
-103.4284556
11
208.1217622
21
-111.7520409
0
LINE
8
0
10
189.0548272
20
-102.5131679
11
191.0333384
21
-103.4178056
0
LINE
8
0
10
112.6483666
20
-116.6842912
11
111.6985068
21
-116.6842912
0
LINE
8
0
10
96.3485068
20
-116.6842912
11
92.5989109
21
-116.6842912
0
LINE
8
0
10
89.6588362
20
-56.4380059
11
89.510205
21
-39.6931671
0
LINE
8
0
10
90.5101656
20
-38.6842912
11
93.15125
21
-38.6842912
0
LINE
8
0
10
103.85125
20
-38.6842912
11
124.1483667
21
-38.6842912
0
LINE
8
0
10
146.1483667
20
-38.6842912
11
167.7983666
21
-38.6842912
0
LINE
8
0
10
176.4983666
20
-38.6842912
11
180.1483666
21
-38.6842912
0
LINE
8
0
10
144.6483666
20
-115.6842912
11
144.6483666
21
-96.6842912
0
ARC
8
0
10
143.6483666
20
-96.6842912
40
1
50
0
51
90
0
LINE
8
0
10
143.6483666
20
-95.6842912
11
113.6483666
21
-95.6842912
0
ARC
8
0
10
113.6483666
20
-96.6842912
40
1
50
90
51
180
0
LINE
8
0
10
112.6483666
20
-96.6842912
11
112.6483666
21
-116.6842912
0
LINE
8
0
10
95.15125
20
-42.2842912
11
101.85125
21
-42.2842912
0
ARC
8
0
10
101.85125
20
-41.2842912
40
1
50
270
51
360
0
LINE
8
0
10
102.85125
20
-41.2842912
11
102.85125
21
-39.6842912
0
LINE
8
0
10
94.15125
20
-39.6842912
11
94.15125
21
-41.2842912
0
ARC
8
0
10
95.15125
20
-41.2842912
40
1
50
180
51
270
0
LINE
8
0
10
169.7983666
20
-42.6842912
11
174.4983666
21
-42.6842912
0
ARC
8
0
10
174.4983666
20
-41.6842912
40
1
50
270
51
360
0
LINE
8
0
10
175.4983666
20
-41.6842912
11
175.4983666
21
-39.6842912
0
LINE
8
0
10
168.7983666
20
-39.6842912
11
168.7983666
21
-41.6842912
0
ARC
8
0
10
169.7983666
20
-41.6842912
40
1
50
180
51
270
0
LINE
8
0
10
110.6985068
20
-115.6842912
11
110.6985068
21
-109.7842912
0
ARC
8
0
10
110.1985068
20
-109.7842912
40
0.5
50
0
51
90
0
LINE
8
0
10
110.1985068
20
-109.2842912
11
97.8485068
21
-109.2842912
0
ARC
8
0
10
97.8485068
20
-109.7842912
40
0.5
50
90
51
180
0
LINE
8
0
10
97.3485068
20
-109.7842912
11
97.3485068
21
-115.6842912
0
LINE
8
0
10
94.7645679
20
-107.588824
11
106.6988306
21
-106.3344825
0
LINE
8
0
10
107.588824
20
-105.2354321
11
106.3344825
21
-93.3011694
0
LINE
8
0
10
105.2354321
20
-92.411176
11
93.3011694
21
-93.6655175
0
LINE
8
0
10
92.411176
20
-94.7645679
11
93.6655175
21
-106.6988306
0
LINE
8
0
10
92.987584
20
-90.6819518
11
104.9218467
21
-89.4276103
0
LINE
8
0
10
105.8118401
20
-88.3285599
11
104.5574986
21
-76.3942972
0
LINE
8
0
10
103.4584482
20
-75.5043038
11
91.5241855
21
-76.7586453
0
LINE
8
0
10
90.6341921
20
-77.8576957
11
91.8885336
21
-89.7919584
0
LINE
8
0
10
91.2106001
20
-73.7750796
11
103.1448628
21
-72.5207381
0
LINE
8
0
10
104.0348562
20
-71.4216877
11
102.7805147
21
-59.487425
0
LINE
8
0
10
101.6814643
20
-58.5974316
11
89.7472016
21
-59.8517731
0
LINE
8
0
10
88.8572082
20
-60.9508235
11
90.1115497
21
-72.8850862
0
LINE
8
0
10
111.2053026
20
-90.4528174
11
123.188857
21
-89.824786
0
LINE
8
0
10
124.1351505
20
-88.7738205
11
123.5071191
21
-76.7902661
0
LINE
8
0
10
122.4561536
20
-75.8439726
11
110.4725992
21
-76.472004
0
LINE
8
0
10
109.5263057
20
-77.5229695
11
110.1543371
21
-89.5065239
0
LINE
8
0
10
110.3155913
20
-73.4761153
11
122.2991457
21
-72.8480839
0
LINE
8
0
10
123.2454392
20
-71.7971184
11
122.6174078
21
-59.813564
0
LINE
8
0
10
121.5664423
20
-58.8672705
11
109.5828879
21
-59.4953019
0
LINE
8
0
10
108.6365944
20
-60.5462674
11
109.2646258
21
-72.5298218
0
LINE
8
0
10
109.42588
20
-56.4994132
11
121.4094344
21
-55.8713818
0
LINE
8
0
10
122.3557279
20
-54.8204163
11
121.7276965
21
-42.8368619
0
LINE
8
0
10
120.676731
20
-41.8905684
11
108.6931766
21
-42.5185998
0
LINE
8
0
10
107.7468831
20
-43.5695653
11
108.3749145
21
-55.5531197
0
LINE
8
0
10
129.1483667
20
-86.1842912
11
141.1483667
21
-86.1842912
0
LINE
8
0
10
142.1483667
20
-85.1842912
11
142.1483667
21
-73.1842912
0
LINE
8
0
10
141.1483667
20
-72.1842912
11
129.1483667
21
-72.1842912
0
LINE
8
0
10
128.1483667
20
-73.1842912
11
128.1483667
21
-85.1842912
0
LINE
8
0
10
129.1483667
20
-69.1842912
11
141.1483667
21
-69.1842912
0
LINE
8
0
10
142.1483667
20
-68.1842912
11
142.1483667
21
-56.1842912
0
LINE
8
0
10
141.1483667
20
-55.1842912
11
129.1483667
21
-55.1842912
0
LINE
8
0
10
128.1483667
20
-56.1842912
11
128.1483667
21
-68.1842912
0
LINE
8
0
10
129.1483667
20
-52.1842912
11
141.1483667
21
-52.1842912
0
LINE
8
0
10
142.1483667
20
-51.1842912
11
142.1483667
21
-39.1842912
0
LINE
8
0
10
141.1483667
20
-38.1842912
11
129.1483667
21
-38.1842912
0
LINE
8
0
10
128.1483667
20
-39.1842912
11
128.1483667
21
-51.1842912
0
LINE
8
0
10
147.1483666
20
-92.1842912
11
159.1483666
21
-92.1842912
0
LINE
8
0
10
160.1483666
20
-91.1842912
11
160.1483666
21
-79.1842912
0
LINE
8
0
10
159.1483666
20
-78.1842912
11
147.1483666
21
-78.1842912
0
LINE
8
0
10
146.1483666
20
-79.1842912
11
146.1483666
21
-91.1842912
0
LINE
8
0
10
147.1483666
20
-75.1842912
11
159.1483666
21
-75.1842912
0
LINE
8
0
10
160.1483666
20
-74.1842912
11
160.1483666
21
-62.1842912
0
LINE
8
0
10
159.1483666
20
-61.1842912
11
147.1483666
21
-61.1842912
0
LINE
8
0
10
146.1483666
20
-62.1842912
11
146.1483666
21
-74.1842912
0
LINE
8
0
10
147.1483666
20
-58.1842912
11
159.1483666
21
-58.1842912
0
LINE
8
0
10
160.1483666
20
-57.1842912
11
160.1483666
21
-45.1842912
0
LINE
8
0
10
159.1483666
20
-44.1842912
11
147.1483666
21
-44.1842912
0
LINE
8
0
10
146.1483666
20
-45.1842912
11
146.1483666
21
-57.1842912
0
LINE
8
0
10
165.1483666
20
-94.1842911
11
177.1483666
21
-94.1842911
0
LINE
8
0
10
178.1483666
20
-93.1842911
11
178.1483666
21
-81.1842911
0
LINE
8
0
10
177.1483666
20
-80.1842911
11
165.1483666
21
-80.1842911
0
LINE
8
0
10
164.1483666
20
-81.1842911
11
164.1483666
21
-93.1842911
0
LINE
8
0
10
165.1483666
20
-77.1842911
11
177.1483666
21
-77.1842911
0
LINE
8
0
10
178.1483666
20
-76.1842911
11
178.1483666
21
-64.1842911
0
LINE
8
0
10
177.1483666
20
-63.1842911
11
165.1483666
21
-63.1842911
0
LINE
8
0
10
164.1483666
20
-64.1842911
11
164.1483666
21
-76.1842911
0
LINE
8
0
10
165.1483666
20
-60.1842911
11
177.1483666
21
-60.1842911
0
LINE
8
0
10
178.1483666
20
-59.1842911
11
178.1483666
21
-47.1842911
0
LINE
8
0
10
177.1483666
20
-46.1842911
11
165.1483666
21
-46.1842911
0
LINE
8
0
10
164.1483666
20
-47.1842911
11
164.1483666
21
-59.1842911
0
LINE
8
0
10
151.1483666
20
-114.1842912
11
163.1483666
21
-114.1842912
0
LINE
8
0
10
164.1483666
20
-113.1842912
11
164.1483666
21
-101.1842912
0
LINE
8
0
10
163.1483666
20
-100.1842912
11
151.1483666
21
-100.1842912
0
LINE
8
0
10
150.1483666
20
-101.1842912
11
150.1483666
21
-113.1842912
0
LINE
8
0
10
169.6610652
20
-114.948924
11
181.3535059
21
-117.6483365
0
LINE
8
0
10
182.5528271
20
-116.8989175
11
185.2522396
21
-105.2064768
0
LINE
8
0
10
184.5028206
20
-104.0071556
11
172.8103799
21
-101.3077431
0
LINE
8
0
10
171.6110587
20
-102.0571621
11
168.9116462
21
-113.7496028
0
LINE
8
0
10
187.4067274
20
-120.0065754
11
198.1922561
21
-125.2670293
0
LINE
8
0
10
199.5294212
20
-124.8066064
11
204.7898751
21
-114.0210777
0
LINE
8
0
10
204.3294522
20
-112.6839126
11
193.5439235
21
-107.4234587
0
LINE
8
0
10
192.2067584
20
-107.8838816
11
186.9463045
21
-118.6694103
0
ARC
8
0
10
92.5989109
20
-115.6842912
40
1
50
186.0000021
51
270
0
ARC
8
0
10
96.3485068
20
-115.6842912
40
1
50
270
51
0
0
ARC
8
0
10
111.6985068
20
-115.6842912
40
1
50
180
51
270
0
ARC
8
0
10
145.6483666
20
-115.6842912
40
1
50
180
51
270
0
ARC
8
0
10
165.9503019
20
-117.6842912
40
1
50
76.9999979
51
90
0
ARC
8
0
10
182.4905738
20
-121.5029139
40
1
50
64.0000012
51
76.9999979
0
ARC
8
0
10
200.2310815
20
-127.9303338
40
1
50
244.0000012
51
334.0000012
0
ARC
8
0
10
207.6833911
20
-112.6508349
40
1
50
334.0000012
51
64.0000012
0
ARC
8
0
10
190.617512
20
-104.3272496
40
1
50
64.0000012
51
65.4286302
0
ARC
8
0
10
188.6390008
20
-103.4226119
40
1
50
65.4286302
51
76.9999979
0
ARC
8
0
10
182.1483666
20
-99.8715227
40
1
50
180
51
256.9999979
0
ARC
8
0
10
180.1483666
20
-39.6842912
40
1
50
0
51
90
0
ARC
8
0
10
176.4983666
20
-39.6842912
40
1
50
90
51
180
0
ARC
8
0
10
167.7983666
20
-39.6842912
40
1
50
0
51
90
0
ARC
8
0
10
146.1483667
20
-37.6842912
40
1
50
180
51
270
0
ARC
8
0
10
144.1483667
20
-36.6842912
40
1
50
0
51
90
0
ARC
8
0
10
126.1483667
20
-36.6842912
40
1
50
90
51
180
0
ARC
8
0
10
124.1483667
20
-37.6842912
40
1
50
270
51
0
0
ARC
8
0
10
103.85125
20
-39.6842912
40
1
50
90
51
180
0
ARC
8
0
10
93.15125
20
-39.6842912
40
1
50
0
51
90
0
ARC
8
0
10
90.5101656
20
-39.6842912
40
1
50
90
51
180.5085583
0
ARC
8
0
10
88.6588756
20
-56.4468818
40
1
50
276.0000021
51
0.5085583
0
ARC
8
0
10
86.6068432
20
-58.6735756
40
1
50
96.0000021
51
186.0000021
0
ARC
8
0
10
198.6306272
20
-124.3682353
40
1
50
244.0000012
51
334.0000012
0
ARC
8
0
10
203.8910811
20
-113.5827066
40
1
50
334.0000012
51
64.0000012
0
ARC
8
0
10
193.1055524
20
-108.3222527
40
1
50
64.0000012
51
154.0000012
0
ARC
8
0
10
187.8450985
20
-119.1077814
40
1
50
154.0000012
51
244.0000012
0
ARC
8
0
10
141.1483667
20
-85.1842912
40
1
50
270
51
0
0
ARC
8
0
10
141.1483667
20
-73.1842912
40
1
50
0
51
90
0
ARC
8
0
10
129.1483667
20
-73.1842912
40
1
50
90
51
180
0
ARC
8
0
10
129.1483667
20
-85.1842912
40
1
50
180
51
270
0
ARC
8
0
10
141.1483667
20
-68.1842912
40
1
50
270
51
0
0
ARC
8
0
10
141.1483667
20
-56.1842912
40
1
50
0
51
90
0
ARC
8
0
10
129.1483667
20
-56.1842912
40
1
50
90
51
180
0
ARC
8
0
10
129.1483667
20
-68.1842912
40
1
50
180
51
270
0
ARC
8
0
10
141.1483667
20
-51.1842912
40
1
50
270
51
0
0
ARC
8
0
10
141.1483667
20
-39.1842912
40
1
50
0
51
90
0
ARC
8
0
10
129.1483667
20
-39.1842912
40
1
50
90
51
180
0
ARC
8
0
10
129.1483667
20
-51.1842912
40
1
50
180
51
270
0
ARC
8
0
10
159.1483666
20
-91.1842912
40
1
50
270
51
0
0
ARC
8
0
10
159.1483666
20
-79.1842912
40
1
50
0
51
90
0
ARC
8
0
10
147.1483666
20
-79.1842912
40
1
50
90
51
180
0
ARC
8
0
10
147.1483666
20
-91.1842912
40
1
50
180
51
270
0
ARC
8
0
10
159.1483666
20
-74.1842912
40
1
50
270
51
0
0
ARC
8
0
10
159.1483666
20
-62.1842912
40
1
50
0
51
90
0
ARC
8
0
10
147.1483666
20
-62.1842912
40
1
50
90
51
180
0
ARC
8
0
10
147.1483666
20
-74.1842912
40
1
50
180
51
270
0
ARC
8
0
10
159.1483666
20
-57.1842912
40
1
50
270
51
0
0
ARC
8
0
10
159.1483666
20
-45.1842912
40
1
50
0
51
90
0
ARC
8
0
10
147.1483666
20
-45.1842912
40
1
50
90
51
180
0
ARC
8
0
10
147.1483666
20
-57.1842912
40
1
50
180
51
270
0
ARC
8
0
10
177.1483666
20
-93.1842911
40
1
50
270
51
0
0
ARC
8
0
10
177.1483666
20
-81.1842911
40
1
50
0
51
90
0
ARC
8
0
10
165.1483666
20
-81.1842911
40
1
50
90
51
180
0
ARC
8
0
10
165.1483666
20
-93.1842911
40
1
50
180
51
270
0
ARC
8
0
10
177.1483666
20
-76.1842911
40
1
50
270
51
0
0
ARC
8
0
10
177.1483666
20
-64.1842911
40
1
50
0
51
90
0
ARC
8
0
10
165.1483666
20
-64.1842911
40
1
50
90
51
180
0
ARC
8
0
10
165.1483666
20
-76.1842911
40
1
50
180
51
270
0
ARC
8
0
10
177.1483666
20
-59.1842911
40
1
50
270
51
0
0
ARC
8
0
10
177.1483666
20
-47.1842911
40
1
50
0
51
90
0
ARC
8
0
10
165.1483666
20
-47.1842911
40
1
50
90
51
180
0
ARC
8
0
10
165.1483666
20
-59.1842911
40
1
50
180
51
270
0
ARC
8
0
10
163.1483666
20
-113.1842912
40
1
50
270
51
0
0
ARC
8
0
10
163.1483666
20
-101.1842912
40
1
50
0
51
90
0
ARC
8
0
10
151.1483666
20
-101.1842912
40
1
50
90
51
180
0
ARC
8
0
10
151.1483666
20
-113.1842912
40
1
50
180
51
270
0
ARC
8
0
10
181.578457
20
-116.6739664
40
1
50
256.9999979
51
346.9999979
0
ARC
8
0
10
184.2778695
20
-104.9815257
40
1
50
346.9999979
51
76.9999979
0
ARC
8
0
10
172.5854288
20
-102.2821132
40
1
50
76.9999979
51
166.9999979
0
ARC
8
0
10
169.8860163
20
-113.9745539
40
1
50
166.9999979
51
256.9999979
0
ARC
8
0
10
104.8173182
20
-88.4330884
40
1
50
276.0000021
51
6.0000021
0
ARC
8
0
10
103.5629767
20
-76.4988257
40
1
50
6.0000021
51
96.0000021
0
ARC
8
0
10
91.628714
20
-77.7531672
40
1
50
96.0000021
51
186.0000021
0
ARC
8
0
10
92.8830555
20
-89.6874299
40
1
50
186.0000021
51
276.0000021
0
ARC
8
0
10
103.0403343
20
-71.5262162
40
1
50
276.0000021
51
6.0000021
0
ARC
8
0
10
101.7859928
20
-59.5919535
40
1
50
6.0000021
51
96.0000021
0
ARC
8
0
10
89.8517301
20
-60.846295
40
1
50
96.0000021
51
186.0000021
0
ARC
8
0
10
91.1060716
20
-72.7805577
40
1
50
186.0000021
51
276.0000021
0
ARC
8
0
10
106.5943021
20
-105.3399606
40
1
50
276.0000021
51
6.0000021
0
ARC
8
0
10
105.3399606
20
-93.4056979
40
1
50
6.0000021
51
96.0000021
0
ARC
8
0
10
93.4056979
20
-94.6600394
40
1
50
96.0000021
51
186.0000021
0
ARC
8
0
10
94.6600394
20
-106.5943021
40
1
50
186.0000021
51
276.0000021
0
ARC
8
0
10
123.136521
20
-88.8261565
40
1
50
273.0000026
51
3.0000026
0
ARC
8
0
10
122.5084896
20
-76.8426021
40
1
50
3.0000026
51
93.0000026
0
ARC
8
0
10
110.5249352
20
-77.4706335
40
1
50
93.0000026
51
183.0000026
0
ARC
8
0
10
111.1529666
20
-89.4541879
40
1
50
183.0000026
51
273.0000026
0
ARC
8
0
10
122.2468097
20
-71.8494544
40
1
50
273.0000026
51
3.0000026
0
ARC
8
0
10
121.6187783
20
-59.8659
40
1
50
3.0000026
51
93.0000026
0
ARC
8
0
10
109.6352239
20
-60.4939314
40
1
50
93.0000026
51
183.0000026
0
ARC
8
0
10
110.2632553
20
-72.4774858
40
1
50
183.0000026
51
273.0000026
0
ARC
8
0
10
121.3570984
20
-54.8727523
40
1
50
273.0000026
51
3.0000026
0
ARC
8
0
10
120.729067
20
-42.8891979
40
1
50
3.0000026
51
93.0000026
0
ARC
8
0
10
108.7455126
20
-43.5172293
40
1
50
93.0000026
51
183.0000026
0
ARC
8
0
10
109.373544
20
-55.5007837
40
1
50
183.0000026
51
273.0000026
0
CIRCLE
8
0
10
92.50125
20
-44.6842912
40
1.1
0
CIRCLE
8
0
10
178.1483666
20
-41.1842912
40
1.1
0
CIRCLE
8
0
10
135.1483667
20
-91.6842912
40
1.1
0
CIRCLE
8
0
10
94.6985068
20
-113.6842912
40
1.1
0
ENDSEC
0
EOF