0
SECTION
2
HEADER
9
$INSUNITS
70
4
0
ENDSEC
0
SECTION
2
TABLES
0
TABLE
2
LTYPE
0
LTYPE
72
65
70
64
2
CONTINUOUS
3
______
73
0
40
0
0
ENDTAB
0
TABLE
2
LAYER
0
ENDTAB
0
ENDSEC
0
SECTION
2
ENTITIES
0
LINE
8
0
10
86.6068432
20
-58.6735757
11
92.5989109
21
-115.6842912
0
LINE
8
0
10
86.6068432
20
-58.6735757
11
90.5826936
21
-58.255697
0
LINE
8
0
10
144.1483666
20
-39.6842912
11
144.1483667
21
-36.6842912
0
LINE
8
0
10
144.1483667
20
-36.6842912
11
126.1483667
21
-36.6842912
0
LINE
8
0
10
126.1483667
20
-36.6842912
11
126.1483667
21
-39.6842912
0
LINE
8
0
10
180.1483666
20
-78.7734384
11
180.1483666
21
-39.6842912
0
LINE
8
0
10
144.6483666
20
-115.6842912
11
166.1483666
21
-115.6842912
0
LINE
8
0
10
187.7633574
20
-103.2204537
11
180.3983666
21
-101.5201116
0
LINE
8
0
10
184.0527886
20
-120.0396531
11
200.2310815
21
-127.9303337
0
LINE
8
0
10
200.2310815
20
-127.9303337
11
207.683391
21
-112.6508349
0
LINE
8
0
10
191.5050981
20
-104.7601543
11
207.683391
21
-112.6508349
0
LINE
8
0
10
187.7633574
20
-103.2204537
11
191.5050981
21
-104.7601543
0
LINE
8
0
10
184.0527886
20
-120.0396531
11
166.1483666
21
-115.6842912
0
LINE
8
0
10
180.1483666
20
-78.7734384
11
180.3983666
21
-78.6842911
0
LINE
8
0
10
180.3983666
20
-78.6842911
11
180.3983666
21
-101.5201116
0
LINE
8
0
10
112.6483666
20
-115.6842912
11
108.0989109
21
-115.6842912
0
LINE
8
0
10
99.0989109
20
-115.6842912
11
92.5989109
21
-115.6842912
0
LINE
8
0
10
90.5826936
20
-58.255697
11
90.3796813
21
-39.6842912
0
LINE
8
0
10
90.3796813
20
-39.6842912
11
95.0296813
21
-39.6842912
0
LINE
8
0
10
103.7296813
20
-39.6842912
11
126.1483667
21
-39.6842912
0
LINE
8
0
10
144.1483666
20
-39.6842912
11
167.7983666
21
-39.6842912
0
LINE
8
0
10
174.4983666
20
-39.6842912
11
180.1483666
21
-39.6842912
0
LINE
8
0
10
144.6483666
20
-115.6842912
11
144.6483666
21
-95.6842912
0
ARC
8
0
10
143.6483666
20
-95.6842912
40
1
50
0
51
90
0
LINE
8
0
10
143.6483666
20
-94.6842912
11
113.6483666
21
-94.6842912
0
ARC
8
0
10
113.6483666
20
-95.6842912
40
1
50
90
51
180
0
LINE
8
0
10
112.6483666
20
-95.6842912
11
112.6483666
21
-115.6842912
0
LINE
8
0
10
93.770046
20
-107.6933525
11
107.6933525
21
-106.229954
0
LINE
8
0
10
107.6933525
20
-106.229954
11
106.229954
21
-92.3066475
0
LINE
8
0
10
106.229954
20
-92.3066475
11
92.3066475
21
-93.770046
0
LINE
8
0
10
92.3066475
20
-93.770046
11
93.770046
21
-107.6933525
0
LINE
8
0
10
91.9930621
20
-90.7864803
11
105.9163686
21
-89.3230818
0
LINE
8
0
10
105.9163686
20
-89.3230818
11
104.4529701
21
-75.3997753
0
LINE
8
0
10
104.4529701
20
-75.3997753
11
90.5296636
21
-76.8631738
0
LINE
8
0
10
90.5296636
20
-76.8631738
11
91.9930621
21
-90.7864803
0
LINE
8
0
10
90.2160782
20
-73.8796081
11
104.1393847
21
-72.4162096
0
LINE
8
0
10
104.1393847
20
-72.4162096
11
102.6759862
21
-58.4929031
0
LINE
8
0
10
102.6759862
20
-58.4929031
11
88.7526797
21
-59.9563016
0
LINE
8
0
10
88.7526797
20
-59.9563016
11
90.2160782
21
-73.8796081
0
LINE
8
0
10
110.2066731
20
-90.5051534
11
124.1874865
21
-89.77245
0
LINE
8
0
10
124.1874865
20
-89.77245
11
123.4547831
21
-75.7916366
0
LINE
8
0
10
123.4547831
20
-75.7916366
11
109.4739697
21
-76.52434
0
LINE
8
0
10
109.4739697
20
-76.52434
11
110.2066731
21
-90.5051534
0
LINE
8
0
10
109.3169618
20
-73.5284513
11
123.2977752
21
-72.7957479
0
LINE
8
0
10
123.2977752
20
-72.7957479
11
122.5650718
21
-58.8149345
0
LINE
8
0
10
122.5650718
20
-58.8149345
11
108.5842584
21
-59.5476379
0
LINE
8
0
10
108.5842584
20
-59.5476379
11
109.3169618
21
-73.5284513
0
LINE
8
0
10
108.4272505
20
-56.5517492
11
122.4080639
21
-55.8190458
0
LINE
8
0
10
122.4080639
20
-55.8190458
11
121.6753605
21
-41.8382324
0
LINE
8
0
10
121.6753605
20
-41.8382324
11
107.6945471
21
-42.5709358
0
LINE
8
0
10
107.6945471
20
-42.5709358
11
108.4272505
21
-56.5517492
0
LINE
8
0
10
128.1483667
20
-86.1842912
11
142.1483667
21
-86.1842912
0
LINE
8
0
10
142.1483667
20
-86.1842912
11
142.1483667
21
-72.1842912
0
LINE
8
0
10
142.1483667
20
-72.1842912
11
128.1483667
21
-72.1842912
0
LINE
8
0
10
128.1483667
20
-72.1842912
11
128.1483667
21
-86.1842912
0
LINE
8
0
10
128.1483667
20
-69.1842912
11
142.1483667
21
-69.1842912
0
LINE
8
0
10
142.1483667
20
-69.1842912
11
142.1483667
21
-55.1842912
0
LINE
8
0
10
142.1483667
20
-55.1842912
11
128.1483667
21
-55.1842912
0
LINE
8
0
10
128.1483667
20
-55.1842912
11
128.1483667
21
-69.1842912
0
LINE
8
0
10
128.1483667
20
-52.1842912
11
142.1483667
21
-52.1842912
0
LINE
8
0
10
142.1483667
20
-52.1842912
11
142.1483667
21
-38.1842912
0
LINE
8
0
10
142.1483667
20
-38.1842912
11
128.1483667
21
-38.1842912
0
LINE
8
0
10
128.1483667
20
-38.1842912
11
128.1483667
21
-52.1842912
0
LINE
8
0
10
146.1483666
20
-92.1842912
11
160.1483666
21
-92.1842912
0
LINE
8
0
10
160.1483666
20
-92.1842912
11
160.1483666
21
-78.1842912
0
LINE
8
0
10
160.1483666
20
-78.1842912
11
146.1483666
21
-78.1842912
0
LINE
8
0
10
146.1483666
20
-78.1842912
11
146.1483666
21
-92.1842912
0
LINE
8
0
10
146.1483666
20
-75.1842912
11
160.1483666
21
-75.1842912
0
LINE
8
0
10
160.1483666
20
-75.1842912
11
160.1483666
21
-61.1842912
0
LINE
8
0
10
160.1483666
20
-61.1842912
11
146.1483666
21
-61.1842912
0
LINE
8
0
10
146.1483666
20
-61.1842912
11
146.1483666
21
-75.1842912
0
LINE
8
0
10
146.1483666
20
-58.1842912
11
160.1483666
21
-58.1842912
0
LINE
8
0
10
160.1483666
20
-58.1842912
11
160.1483666
21
-44.1842912
0
LINE
8
0
10
160.1483666
20
-44.1842912
11
146.1483666
21
-44.1842912
0
LINE
8
0
10
146.1483666
20
-44.1842912
11
146.1483666
21
-58.1842912
0
LINE
8
0
10
164.1483666
20
-94.1842911
11
178.1483666
21
-94.1842911
0
LINE
8
0
10
178.1483666
20
-94.1842911
11
178.1483666
21
-80.1842911
0
LINE
8
0
10
178.1483666
20
-80.1842911
11
164.1483666
21
-80.1842911
0
LINE
8
0
10
164.1483666
20
-80.1842911
11
164.1483666
21
-94.1842911
0
LINE
8
0
10
164.1483666
20
-77.1842911
11
178.1483666
21
-77.1842911
0
LINE
8
0
10
178.1483666
20
-77.1842911
11
178.1483666
21
-63.1842911
0
LINE
8
0
10
178.1483666
20
-63.1842911
11
164.1483666
21
-63.1842911
0
LINE
8
0
10
164.1483666
20
-63.1842911
11
164.1483666
21
-77.1842911
0
LINE
8
0
10
164.1483666
20
-60.1842911
11
178.1483666
21
-60.1842911
0
LINE
8
0
10
178.1483666
20
-60.1842911
11
178.1483666
21
-46.1842911
0
LINE
8
0
10
178.1483666
20
-46.1842911
11
164.1483666
21
-46.1842911
0
LINE
8
0
10
164.1483666
20
-46.1842911
11
164.1483666
21
-60.1842911
0
LINE
8
0
10
150.1483666
20
-114.1842912
11
164.1483666
21
-114.1842912
0
LINE
8
0
10
164.1483666
20
-114.1842912
11
164.1483666
21
-100.1842912
0
LINE
8
0
10
164.1483666
20
-100.1842912
11
150.1483666
21
-100.1842912
0
LINE
8
0
10
150.1483666
20
-100.1842912
11
150.1483666
21
-114.1842912
0
LINE
8
0
10
168.6866951
20
-114.7239729
11
182.327876
21
-117.8732876
0
LINE
8
0
10
182.327876
20
-117.8732876
11
185.4771907
21
-104.2321067
0
LINE
8
0
10
185.4771907
20
-104.2321067
11
171.8360098
21
-101.082792
0
LINE
8
0
10
171.8360098
20
-101.082792
11
168.6866951
21
-114.7239729
0
LINE
8
0
10
186.5079334
20
-119.5682043
11
199.0910501
21
-125.7054004
0
LINE
8
0
10
199.0910501
20
-125.7054004
11
205.2282462
21
-113.1222837
0
LINE
8
0
10
205.2282462
20
-113.1222837
11
192.6451295
21
-106.9850876
0
LINE
8
0
10
192.6451295
20
-106.9850876
11
186.5079334
21
-119.5682043
0
CIRCLE
8
0
10
93.3796813
20
-45.6842912
40
1.1
0
CIRCLE
8
0
10
177.1483666
20
-42.1842912
40
1.1
0
CIRCLE
8
0
10
135.1483667
20
-90.6842912
40
1.1
0
CIRCLE
8
0
10
95.5989109
20
-112.6842912
40
1.1
0
LINE
8
0
10
96.0296813
20
-43.2842912
11
102.7296813
21
-43.2842912
0
ARC
8
0
10
102.7296813
20
-42.2842912
40
1
50
270
51
360
0
LINE
8
0
10
103.7296813
20
-42.2842912
11
103.7296813
21
-39.6842912
0
LINE
8
0
10
95.0296813
20
-39.6842912
11
95.0296813
21
-42.2842912
0
ARC
8
0
10
96.0296813
20
-42.2842912
40
1
50
180
51
270
0
LINE
8
0
10
168.7983666
20
-43.6842912
11
173.4983666
21
-43.6842912
0
ARC
8
0
10
173.4983666
20
-42.6842912
40
1
50
270
51
360
0
LINE
8
0
10
174.4983666
20
-42.6842912
11
174.4983666
21
-39.6842912
0
LINE
8
0
10
167.7983666
20
-39.6842912
11
167.7983666
21
-42.6842912
0
ARC
8
0
10
168.7983666
20
-42.6842912
40
1
50
180
51
270
0
LINE
8
0
10
108.0989109
20
-115.6842912
11
108.0989109
21
-111.1842912
0
ARC
8
0
10
107.5989109
20
-111.1842912
40
0.5
50
0
51
90
0
LINE
8
0
10
107.5989109
20
-110.6842912
11
99.5989109
21
-110.6842912
0
ARC
8
0
10
99.5989109
20
-111.1842912
40
0.5
50
90
51
180
0
LINE
8
0
10
99.0989109
20
-111.1842912
11
99.0989109
21
-115.6842912
0
ENDSEC
0
EOF