0
SECTION
2
HEADER
9
$INSUNITS
70
4
0
ENDSEC
0
SECTION
2
TABLES
0
TABLE
2
LTYPE
0
LTYPE
72
65
70
64
2
CONTINUOUS
3
______
73
0
40
0
0
ENDTAB
0
TABLE
2
LAYER
0
ENDTAB
0
ENDSEC
0
SECTION
2
ENTITIES
0
LINE
8
0
10
-14.6624412
20
41.4443942
11
-10.2632253
21
-0.411349
0
LINE
8
0
10
-9.8791909
20
42.9526424
11
-13.7724478
21
42.5434446
0
LINE
8
0
10
45.3983667
20
61.3157088
11
45.3983667
21
63.5657088
0
LINE
8
0
10
44.3983667
20
64.5657088
11
25.8983667
21
64.5657088
0
LINE
8
0
10
24.8983667
20
63.5657088
11
24.8983667
21
61.3157088
0
ARC
8
0
10
44.3983667
20
63.5657088
40
1
50
0
51
90
0
ARC
8
0
10
25.8983667
20
63.5657088
40
1
50
90
51
180
0
ARC
8
0
10
-13.6679193
20
41.5489227
40
1
50
96.0000021
51
186.0000021
0
LINE
8
0
10
44.1483666
20
-16.6842912
11
65.9503019
21
-16.6842912
0
LINE
8
0
10
66.175253
20
-16.7099211
11
82.7155249
21
-20.5285438
0
LINE
8
0
10
84.1483667
20
-1.3595632
11
88.9626786
21
-2.4710347
0
LINE
8
0
10
82.9289449
20
-20.6041199
11
99.7927104
21
-28.8291278
0
LINE
8
0
10
101.1298755
20
-28.3687049
11
108.5821851
21
-13.089206
0
LINE
8
0
10
91.9434692
20
-3.8613602
11
108.1217622
21
-11.7520409
0
ARC
8
0
10
65.9503019
20
-17.6842912
40
1
50
76.9999979
51
90
0
ARC
8
0
10
82.4905738
20
-21.5029139
40
1
50
64.0000012
51
76.9999979
0
ARC
8
0
10
100.2310815
20
-27.9303338
40
1
50
244.0000012
51
334.0000012
0
ARC
8
0
10
107.6833911
20
-12.6508349
40
1
50
334.0000012
51
64.0000012
0
LINE
8
0
10
88.9626786
20
-2.4710347
11
91.0446752
21
-3.4229891
0
LINE
8
0
10
91.0446752
20
-3.4229891
11
91.9430673
21
-3.8611642
0
LINE
8
0
10
-8.8858977
20
-15.7735897
11
-10.2632253
21
-0.411349
0
LINE
8
0
10
-2.3516334
20
-16.6842912
11
-7.8898928
21
-16.6842912
0
ARC
8
0
10
-7.8898928
20
-15.6842912
40
1
50
185.1232516
51
270
0
LINE
8
0
10
-9.8791909
20
42.9526424
11
-9.8531318
21
60.3172095
0
LINE
8
0
10
-8.8531329
20
61.3157088
11
-5.7016333
21
61.3157088
0
LINE
8
0
10
1.9983667
20
61.3157088
11
24.8983667
21
61.3157088
0
LINE
8
0
10
45.3983667
20
61.3157088
11
68.1483667
21
61.3157088
0
LINE
8
0
10
72.8483667
20
61.3157088
11
83.1483667
21
61.3157088
0
LINE
8
0
10
84.1483667
20
60.3157088
11
84.1483667
21
-1.3595632
0
ARC
8
0
10
-8.8531329
20
60.3157088
40
1
50
90
51
179.9140162
0
ARC
8
0
10
83.1483667
20
60.3157088
40
1
50
0
51
90
0
LINE
8
0
10
12.1483666
20
3.3157088
11
12.1483666
21
-11.1842912
0
LINE
8
0
10
44.1483666
20
-16.6842912
11
44.1483666
21
3.3157088
0
ARC
8
0
10
43.1483666
20
3.3157088
40
1
50
0
51
90
0
LINE
8
0
10
43.1483666
20
4.3157088
11
13.1483666
21
4.3157088
0
ARC
8
0
10
13.1483666
20
3.3157088
40
1
50
90
51
180
0
LINE
8
0
10
-6.229954
20
-7.6933525
11
7.6933525
21
-6.229954
0
LINE
8
0
10
7.6933525
20
-6.229954
11
6.229954
21
7.6933525
0
LINE
8
0
10
6.229954
20
7.6933525
11
-7.6933525
21
6.229954
0
LINE
8
0
10
-7.6933525
20
6.229954
11
-6.229954
21
-7.6933525
0
LINE
8
0
10
-8.0069379
20
9.2135197
11
5.9163686
21
10.6769182
0
LINE
8
0
10
5.9163686
20
10.6769182
11
4.4529701
21
24.6002247
0
LINE
8
0
10
4.4529701
20
24.6002247
11
-9.4703364
21
23.1368262
0
LINE
8
0
10
-9.4703364
20
23.1368262
11
-8.0069379
21
9.2135197
0
LINE
8
0
10
-9.7839218
20
26.1203919
11
4.1393847
21
27.5837904
0
LINE
8
0
10
4.1393847
20
27.5837904
11
2.6759862
21
41.5070969
0
LINE
8
0
10
2.6759862
20
41.5070969
11
-11.2473203
21
40.0436984
0
LINE
8
0
10
-11.2473203
20
40.0436984
11
-9.7839218
21
26.1203919
0
LINE
8
0
10
10.2066731
20
9.4948466
11
24.1874865
21
10.22755
0
LINE
8
0
10
24.1874865
20
10.22755
11
23.4547831
21
24.2083634
0
LINE
8
0
10
23.4547831
20
24.2083634
11
9.4739697
21
23.47566
0
LINE
8
0
10
9.4739697
20
23.47566
11
10.2066731
21
9.4948466
0
LINE
8
0
10
9.3169618
20
26.4715487
11
23.2977752
21
27.2042521
0
LINE
8
0
10
23.2977752
20
27.2042521
11
22.5650718
21
41.1850655
0
LINE
8
0
10
22.5650718
20
41.1850655
11
8.5842584
21
40.4523621
0
LINE
8
0
10
8.5842584
20
40.4523621
11
9.3169618
21
26.4715487
0
LINE
8
0
10
8.4272505
20
43.4482508
11
22.4080639
21
44.1809542
0
LINE
8
0
10
22.4080639
20
44.1809542
11
21.6753605
21
58.1617676
0
LINE
8
0
10
21.6753605
20
58.1617676
11
7.6945471
21
57.4290642
0
LINE
8
0
10
7.6945471
20
57.4290642
11
8.4272505
21
43.4482508
0
LINE
8
0
10
28.1483667
20
13.8157088
11
42.1483667
21
13.8157088
0
LINE
8
0
10
42.1483667
20
13.8157088
11
42.1483667
21
27.8157088
0
LINE
8
0
10
42.1483667
20
27.8157088
11
28.1483667
21
27.8157088
0
LINE
8
0
10
28.1483667
20
27.8157088
11
28.1483667
21
13.8157088
0
LINE
8
0
10
28.1483667
20
30.8157088
11
42.1483667
21
30.8157088
0
LINE
8
0
10
42.1483667
20
30.8157088
11
42.1483667
21
44.8157088
0
LINE
8
0
10
42.1483667
20
44.8157088
11
28.1483667
21
44.8157088
0
LINE
8
0
10
28.1483667
20
44.8157088
11
28.1483667
21
30.8157088
0
LINE
8
0
10
28.1483667
20
47.8157088
11
42.1483667
21
47.8157088
0
LINE
8
0
10
42.1483667
20
47.8157088
11
42.1483667
21
61.8157088
0
LINE
8
0
10
42.1483667
20
61.8157088
11
28.1483667
21
61.8157088
0
LINE
8
0
10
28.1483667
20
61.8157088
11
28.1483667
21
47.8157088
0
LINE
8
0
10
46.1483666
20
7.8157088
11
60.1483666
21
7.8157088
0
LINE
8
0
10
60.1483666
20
7.8157088
11
60.1483666
21
21.8157088
0
LINE
8
0
10
60.1483666
20
21.8157088
11
46.1483666
21
21.8157088
0
LINE
8
0
10
46.1483666
20
21.8157088
11
46.1483666
21
7.8157088
0
LINE
8
0
10
46.1483666
20
24.8157088
11
60.1483666
21
24.8157088
0
LINE
8
0
10
60.1483666
20
24.8157088
11
60.1483666
21
38.8157088
0
LINE
8
0
10
60.1483666
20
38.8157088
11
46.1483666
21
38.8157088
0
LINE
8
0
10
46.1483666
20
38.8157088
11
46.1483666
21
24.8157088
0
LINE
8
0
10
46.1483666
20
41.8157088
11
60.1483666
21
41.8157088
0
LINE
8
0
10
60.1483666
20
41.8157088
11
60.1483666
21
55.8157088
0
LINE
8
0
10
60.1483666
20
55.8157088
11
46.1483666
21
55.8157088
0
LINE
8
0
10
46.1483666
20
55.8157088
11
46.1483666
21
41.8157088
0
LINE
8
0
10
64.1483666
20
5.8157089
11
78.1483666
21
5.8157089
0
LINE
8
0
10
78.1483666
20
5.8157089
11
78.1483666
21
19.8157089
0
LINE
8
0
10
78.1483666
20
19.8157089
11
64.1483666
21
19.8157089
0
LINE
8
0
10
64.1483666
20
19.8157089
11
64.1483666
21
5.8157089
0
LINE
8
0
10
64.1483666
20
22.8157089
11
78.1483666
21
22.8157089
0
LINE
8
0
10
78.1483666
20
22.8157089
11
78.1483666
21
36.8157089
0
LINE
8
0
10
78.1483666
20
36.8157089
11
64.1483666
21
36.8157089
0
LINE
8
0
10
64.1483666
20
36.8157089
11
64.1483666
21
22.8157089
0
LINE
8
0
10
64.1483666
20
39.8157089
11
78.1483666
21
39.8157089
0
LINE
8
0
10
78.1483666
20
39.8157089
11
78.1483666
21
53.8157089
0
LINE
8
0
10
78.1483666
20
53.8157089
11
64.1483666
21
53.8157089
0
LINE
8
0
10
64.1483666
20
53.8157089
11
64.1483666
21
39.8157089
0
LINE
8
0
10
50.1483666
20
-14.1842912
11
64.1483666
21
-14.1842912
0
LINE
8
0
10
64.1483666
20
-14.1842912
11
64.1483666
21
-0.1842912
0
LINE
8
0
10
64.1483666
20
-0.1842912
11
50.1483666
21
-0.1842912
0
LINE
8
0
10
50.1483666
20
-0.1842912
11
50.1483666
21
-14.1842912
0
LINE
8
0
10
68.6866951
20
-14.7239729
11
82.327876
21
-17.8732876
0
LINE
8
0
10
82.327876
20
-17.8732876
11
85.4771907
21
-4.2321067
0
LINE
8
0
10
85.4771907
20
-4.2321067
11
71.8360098
21
-1.082792
0
LINE
8
0
10
71.8360098
20
-1.082792
11
68.6866951
21
-14.7239729
0
LINE
8
0
10
86.5079334
20
-19.5682043
11
99.0910501
21
-25.7054004
0
LINE
8
0
10
99.0910501
20
-25.7054004
11
105.2282462
21
-13.1222837
0
LINE
8
0
10
105.2282462
20
-13.1222837
11
92.6451295
21
-6.9850876
0
LINE
8
0
10
92.6451295
20
-6.9850876
11
86.5079334
21
-19.5682043
0
CIRCLE
8
0
10
-2.4519145
20
52.0287239
40
1.8
0
LINE
8
0
10
-5.7016333
20
58.7157088
11
-5.7016333
21
61.3157088
0
LINE
8
0
10
1.9983667
20
61.3157088
11
1.9983667
21
58.7157088
0
ARC
8
0
10
1.4983667
20
58.7157088
40
0.5
50
270
51
0
0
LINE
8
0
10
1.4983667
20
58.2157088
11
-5.2016333
21
58.2157088
0
ARC
8
0
10
-5.2016333
20
58.7157088
40
0.5
50
180
51
270
0
LINE
8
0
10
68.1483667
20
57.8157088
11
68.1483667
21
61.3157088
0
LINE
8
0
10
72.8483667
20
61.3157088
11
72.8483667
21
57.8157088
0
LINE
8
0
10
72.8483667
20
57.8157088
11
68.1483667
21
57.8157088
0
LINE
8
0
10
-2.3516334
20
-11.6842912
11
-2.3516334
21
-16.6842912
0
LINE
8
0
10
12.1483666
20
-11.1842912
11
-1.8516334
21
-11.1842912
0
ARC
8
0
10
-1.8516334
20
-11.6842912
40
0.5
50
90
51
180
0
ENDSEC
0
EOF