0
SECTION
2
HEADER
9
$INSUNITS
70
4
0
ENDSEC
0
SECTION
2
TABLES
0
TABLE
2
LTYPE
0
LTYPE
72
65
70
64
2
CONTINUOUS
3
______
73
0
40
0
0
ENDTAB
0
TABLE
2
LAYER
0
ENDTAB
0
ENDSEC
0
SECTION
2
ENTITIES
0
LINE
8
0
10
144.6483666
20
-39.1842912
11
144.6483667
21
-36.6842912
0
ARC
8
0
10
144.1483667
20
-36.6842912
40
0.5
50
359.999999
51
450
0
LINE
8
0
10
144.1483667
20
-36.1842912
11
126.1483667
21
-36.1842912
0
ARC
8
0
10
126.1483667
20
-36.6842912
40
0.5
50
90
51
180
0
LINE
8
0
10
125.6483667
20
-36.6842912
11
125.6483667
21
-39.1842912
0
LINE
8
0
10
90.1483667
20
-57.7985925
11
86.5548935
21
-58.1762818
0
ARC
8
0
10
86.6068432
20
-58.6735757
40
0.5
50
96.0000002
51
185.999997
0
LINE
8
0
10
86.1096154
20
-58.7261544
11
87.8865332
21
-75.6323976
0
LINE
8
0
10
87.8865993
20
-75.6330266
11
89.6635171
21
-92.5392698
0
LINE
8
0
10
89.6635832
20
-92.5398988
11
91.440501
21
-109.446142
0
ARC
8
0
10
91.9377949
20
-109.3941923
40
0.5
50
185.999997
51
276.0000002
0
LINE
8
0
10
148.1483666
20
-116.1842912
11
166.1483666
21
-116.1842912
0
ARC
8
0
10
166.1483666
20
-115.6842912
40
0.5
50
270
51
273.4049952
0
ARC
8
0
10
166.4005284
20
-115.7356259
40
0.5
50
243.5811257
51
257.0000002
0
LINE
8
0
10
166.2880529
20
-116.2228109
11
183.5849634
21
-120.2161173
0
ARC
8
0
10
184.0527886
20
-120.0396531
40
0.5
50
200.6665327
51
244.0000002
0
LINE
8
0
10
183.833603
20
-120.4890501
11
200.0118959
21
-128.3797307
0
ARC
8
0
10
200.2310815
20
-127.9303337
40
0.5
50
244.0000002
51
333.9999961
0
LINE
8
0
10
200.6804785
20
-128.1495193
11
208.132788
21
-112.8700205
0
ARC
8
0
10
207.683391
20
-112.6508349
40
0.5
50
334
51
423.9999961
0
LINE
8
0
10
207.9025766
20
-112.2014379
11
202.4483666
21
-109.541242
0
ARC
8
0
10
148.1483666
20
-115.6842912
40
0.5
50
180
51
270
0
LINE
8
0
10
184.1483667
20
-57.6842911
11
201.4483666
21
-57.6842911
0
LINE
8
0
10
202.4483666
20
-109.541242
11
202.4483666
21
-58.6842911
0
ARC
8
0
10
201.4483666
20
-58.6842911
40
1
50
0
51
90
0
LINE
8
0
10
92.5047931
20
-114.7888197
11
91.9900591
21
-109.8914532
0
LINE
8
0
10
147.6483666
20
-115.6842912
11
93.499315
21
-115.6842912
0
ARC
8
0
10
93.499315
20
-114.6842912
40
1
50
186.0000021
51
270
0
LINE
8
0
10
90.1483667
20
-57.7985925
11
90.1483667
21
-40.1842912
0
LINE
8
0
10
91.1483667
20
-39.1842912
11
125.6483667
21
-39.1842912
0
LINE
8
0
10
144.6483666
20
-39.1842912
11
183.1483667
21
-39.1842912
0
LINE
8
0
10
184.1483667
20
-40.1842912
11
184.1483667
21
-57.6842911
0
ARC
8
0
10
91.1483667
20
-40.1842912
40
1
50
90
51
180
0
ARC
8
0
10
183.1483667
20
-40.1842912
40
1
50
0
51
90
0
LINE
8
0
10
93.770046
20
-107.6933525
11
107.6933525
21
-106.229954
0
LINE
8
0
10
107.6933525
20
-106.229954
11
106.229954
21
-92.3066475
0
LINE
8
0
10
106.229954
20
-92.3066475
11
92.3066475
21
-93.770046
0
LINE
8
0
10
92.3066475
20
-93.770046
11
93.770046
21
-107.6933525
0
LINE
8
0
10
91.9930621
20
-90.7864803
11
105.9163686
21
-89.3230818
0
LINE
8
0
10
105.9163686
20
-89.3230818
11
104.4529701
21
-75.3997753
0
LINE
8
0
10
104.4529701
20
-75.3997753
11
90.5296636
21
-76.8631738
0
LINE
8
0
10
90.5296636
20
-76.8631738
11
91.9930621
21
-90.7864803
0
LINE
8
0
10
90.2160782
20
-73.8796081
11
104.1393847
21
-72.4162096
0
LINE
8
0
10
104.1393847
20
-72.4162096
11
102.6759862
21
-58.4929031
0
LINE
8
0
10
102.6759862
20
-58.4929031
11
88.7526797
21
-59.9563016
0
LINE
8
0
10
88.7526797
20
-59.9563016
11
90.2160782
21
-73.8796081
0
LINE
8
0
10
110.2066731
20
-90.5051534
11
124.1874865
21
-89.77245
0
LINE
8
0
10
124.1874865
20
-89.77245
11
123.4547831
21
-75.7916366
0
LINE
8
0
10
123.4547831
20
-75.7916366
11
109.4739697
21
-76.52434
0
LINE
8
0
10
109.4739697
20
-76.52434
11
110.2066731
21
-90.5051534
0
LINE
8
0
10
109.3169618
20
-73.5284513
11
123.2977752
21
-72.7957479
0
LINE
8
0
10
123.2977752
20
-72.7957479
11
122.5650718
21
-58.8149345
0
LINE
8
0
10
122.5650718
20
-58.8149345
11
108.5842584
21
-59.5476379
0
LINE
8
0
10
108.5842584
20
-59.5476379
11
109.3169618
21
-73.5284513
0
LINE
8
0
10
108.4272505
20
-56.5517492
11
122.4080639
21
-55.8190458
0
LINE
8
0
10
122.4080639
20
-55.8190458
11
121.6753605
21
-41.8382324
0
LINE
8
0
10
121.6753605
20
-41.8382324
11
107.6945471
21
-42.5709358
0
LINE
8
0
10
107.6945471
20
-42.5709358
11
108.4272505
21
-56.5517492
0
LINE
8
0
10
128.1483667
20
-86.1842912
11
142.1483667
21
-86.1842912
0
LINE
8
0
10
142.1483667
20
-86.1842912
11
142.1483667
21
-72.1842912
0
LINE
8
0
10
142.1483667
20
-72.1842912
11
128.1483667
21
-72.1842912
0
LINE
8
0
10
128.1483667
20
-72.1842912
11
128.1483667
21
-86.1842912
0
LINE
8
0
10
128.1483667
20
-69.1842912
11
142.1483667
21
-69.1842912
0
LINE
8
0
10
142.1483667
20
-69.1842912
11
142.1483667
21
-55.1842912
0
LINE
8
0
10
142.1483667
20
-55.1842912
11
128.1483667
21
-55.1842912
0
LINE
8
0
10
128.1483667
20
-55.1842912
11
128.1483667
21
-69.1842912
0
LINE
8
0
10
128.1483667
20
-52.1842912
11
142.1483667
21
-52.1842912
0
LINE
8
0
10
142.1483667
20
-52.1842912
11
142.1483667
21
-38.1842912
0
LINE
8
0
10
142.1483667
20
-38.1842912
11
128.1483667
21
-38.1842912
0
LINE
8
0
10
128.1483667
20
-38.1842912
11
128.1483667
21
-52.1842912
0
LINE
8
0
10
146.1483666
20
-92.1842912
11
160.1483666
21
-92.1842912
0
LINE
8
0
10
160.1483666
20
-92.1842912
11
160.1483666
21
-78.1842912
0
LINE
8
0
10
160.1483666
20
-78.1842912
11
146.1483666
21
-78.1842912
0
LINE
8
0
10
146.1483666
20
-78.1842912
11
146.1483666
21
-92.1842912
0
LINE
8
0
10
146.1483666
20
-75.1842912
11
160.1483666
21
-75.1842912
0
LINE
8
0
10
160.1483666
20
-75.1842912
11
160.1483666
21
-61.1842912
0
LINE
8
0
10
160.1483666
20
-61.1842912
11
146.1483666
21
-61.1842912
0
LINE
8
0
10
146.1483666
20
-61.1842912
11
146.1483666
21
-75.1842912
0
LINE
8
0
10
146.1483666
20
-58.1842912
11
160.1483666
21
-58.1842912
0
LINE
8
0
10
160.1483666
20
-58.1842912
11
160.1483666
21
-44.1842912
0
LINE
8
0
10
160.1483666
20
-44.1842912
11
146.1483666
21
-44.1842912
0
LINE
8
0
10
146.1483666
20
-44.1842912
11
146.1483666
21
-58.1842912
0
LINE
8
0
10
164.1483666
20
-94.1842911
11
178.1483666
21
-94.1842911
0
LINE
8
0
10
178.1483666
20
-94.1842911
11
178.1483666
21
-80.1842911
0
LINE
8
0
10
178.1483666
20
-80.1842911
11
164.1483666
21
-80.1842911
0
LINE
8
0
10
164.1483666
20
-80.1842911
11
164.1483666
21
-94.1842911
0
LINE
8
0
10
164.1483666
20
-77.1842911
11
178.1483666
21
-77.1842911
0
LINE
8
0
10
178.1483666
20
-77.1842911
11
178.1483666
21
-63.1842911
0
LINE
8
0
10
178.1483666
20
-63.1842911
11
164.1483666
21
-63.1842911
0
LINE
8
0
10
164.1483666
20
-63.1842911
11
164.1483666
21
-77.1842911
0
LINE
8
0
10
164.1483666
20
-60.1842911
11
178.1483666
21
-60.1842911
0
LINE
8
0
10
178.1483666
20
-60.1842911
11
178.1483666
21
-46.1842911
0
LINE
8
0
10
178.1483666
20
-46.1842911
11
164.1483666
21
-46.1842911
0
LINE
8
0
10
164.1483666
20
-46.1842911
11
164.1483666
21
-60.1842911
0
LINE
8
0
10
150.1483666
20
-114.1842912
11
164.1483666
21
-114.1842912
0
LINE
8
0
10
164.1483666
20
-114.1842912
11
164.1483666
21
-100.1842912
0
LINE
8
0
10
164.1483666
20
-100.1842912
11
150.1483666
21
-100.1842912
0
LINE
8
0
10
150.1483666
20
-100.1842912
11
150.1483666
21
-114.1842912
0
LINE
8
0
10
168.6866951
20
-114.7239729
11
182.327876
21
-117.8732876
0
LINE
8
0
10
182.327876
20
-117.8732876
11
185.4771907
21
-104.2321067
0
LINE
8
0
10
185.4771907
20
-104.2321067
11
171.8360098
21
-101.082792
0
LINE
8
0
10
171.8360098
20
-101.082792
11
168.6866951
21
-114.7239729
0
LINE
8
0
10
186.5079334
20
-119.5682043
11
199.0910501
21
-125.7054004
0
LINE
8
0
10
199.0910501
20
-125.7054004
11
205.2282462
21
-113.1222837
0
LINE
8
0
10
205.2282462
20
-113.1222837
11
192.6451295
21
-106.9850876
0
LINE
8
0
10
192.6451295
20
-106.9850876
11
186.5079334
21
-119.5682043
0
ENDSEC
0
EOF