0
SECTION
2
HEADER
9
$INSUNITS
70
4
0
ENDSEC
0
SECTION
2
TABLES
0
TABLE
2
LTYPE
0
LTYPE
72
65
70
64
2
CONTINUOUS
3
______
73
0
40
0
0
ENDTAB
0
TABLE
2
LAYER
0
ENDTAB
0
ENDSEC
0
SECTION
2
ENTITIES
0
LINE
8
0
10
-9
20
-9.5
11
9
21
-9.5
0
ARC
8
0
10
9
20
-8.5
40
1
50
270
51
360
0
LINE
8
0
10
10
20
-8.5
11
10
21
5.9324289
0
LINE
8
0
10
10
20
5.9324289
11
26.9904742
21
5.0419958
0
ARC
8
0
10
27.0428102
20
6.0406253
40
1
50
266.9999997
51
356.9999974
0
LINE
8
0
10
28.0414397
20
5.9882893
11
28.1687432
21
8.4173847
0
LINE
8
0
10
28.1687432
20
8.4173847
11
44.094809
21
6.7434877
0
LINE
8
0
10
44.094809
20
6.7434877
11
43.5721667
21
1.7708783
0
ARC
8
0
10
44.5666886
20
1.6663498
40
1
50
173.9999979
51
263.9999998
0
LINE
8
0
10
44.4621601
20
0.6718279
11
49.4347696
21
0.1491856
0
LINE
8
0
10
84.7193625
20
29.7229495
11
86.4858935
21
46.5303694
0
ARC
8
0
10
85.4913716
20
46.6348979
40
1
50
353.9999999
51
443.9999979
0
LINE
8
0
10
85.5959001
20
47.6294198
11
68.6890279
21
49.4064037
0
LINE
8
0
10
68.6890279
20
49.4064037
11
68.7935563
21
50.4009255
0
ARC
8
0
10
67.7990344
20
50.505454
40
1
50
354.0000005
51
443.9999979
0
LINE
8
0
10
67.9035629
20
51.4999759
11
50.9966907
21
53.2769598
0
LINE
8
0
10
50.9966907
20
53.2769598
11
51.519333
21
58.2495692
0
ARC
8
0
10
50.5248111
20
58.3540977
40
1
50
353.9999997
51
443.9999979
0
LINE
8
0
10
50.6293396
20
59.3486196
11
32.7279455
21
61.230132
0
ARC
8
0
10
32.623417
20
60.2356101
40
1
50
83.9999998
51
173.9999979
0
LINE
8
0
10
31.6288951
20
60.3401386
11
31.3708668
21
57.8851636
0
LINE
8
0
10
11.7889484
20
58.9114084
11
31.3708668
21
57.8851636
0
ARC
8
0
10
11.7366124
20
57.9127789
40
1
50
86.9999997
51
176.9999974
0
LINE
8
0
10
10.7379829
20
57.9651149
11
9.94468
21
42.8279934
0
ARC
8
0
10
9
20
42.5
40
1
50
19.1470285
51
90
0
LINE
8
0
10
9
20
43.5
11
-9
21
43.5
0
ARC
8
0
10
-9
20
42.5
40
1
50
90
51
180
0
LINE
8
0
10
-10
20
-8.5
11
-10
21
42.5
0
ARC
8
0
10
-9
20
-8.5
40
1
50
180
51
270
0
LINE
8
0
10
48.1296653
20
-21.8348246
11
65.9041154
21
-23.7029947
0
ARC
8
0
10
66.4895715
20
-22.8922906
40
1
50
234.1647817
51
254
0
LINE
8
0
10
66.2139341
20
-23.8535523
11
83.5166446
21
-28.8150247
0
ARC
8
0
10
83.792282
20
-27.853763
40
1
50
254
51
264.7711455
0
ARC
8
0
10
84.186133
20
-27.9750792
40
1
50
240.9885034
51
244.0000002
0
LINE
8
0
10
83.7481639
20
-28.8740692
11
99.9256528
21
-36.7643577
0
ARC
8
0
10
100.3644259
20
-35.8657598
40
1
50
244.0000002
51
334.0000012
0
LINE
8
0
10
101.2634159
20
-36.3037289
11
108.7153333
21
-21.0250341
0
ARC
8
0
10
107.8167354
20
-20.586261
40
1
50
334
51
424.0000012
0
LINE
8
0
10
108.2547045
20
-19.687271
11
102.2564602
21
-16.7617318
0
LINE
8
0
10
47.2396719
20
-20.7357742
11
49.4347696
21
0.1491856
0
ARC
8
0
10
48.2341938
20
-20.8403027
40
1
50
173.9999979
51
263.9999998
0
LINE
8
0
10
84.7193625
20
29.7229495
11
106.8972007
21
27.3919648
0
LINE
8
0
10
102.2564602
20
-16.7617318
11
106.8972007
21
27.3919648
0
LINE
8
0
10
102.285994
20
-6.9139644
11
84.0862433
21
-5.0010935
0
LINE
8
0
10
84.0862433
20
-5.0010935
11
87.6506639
21
28.9121031
0
LINE
8
0
10
87.6506639
20
28.9121031
11
105.8504146
21
26.9992323
0
LINE
8
0
10
105.8504146
20
26.9992323
11
102.285994
21
-6.9139644
0
ENDSEC
0
EOF