0
SECTION
2
HEADER
9
$INSUNITS
70
4
0
ENDSEC
0
SECTION
2
TABLES
0
TABLE
2
LTYPE
0
LTYPE
72
65
70
64
2
CONTINUOUS
3
______
73
0
40
0
0
ENDTAB
0
TABLE
2
LAYER
0
ENDTAB
0
ENDSEC
0
SECTION
2
ENTITIES
0
LINE
8
0
10
-10
20
-7.8828101
11
-10
21
42.4950166
0
LINE
8
0
10
-9.193618
20
44.0997832
11
10.3575766
21
58.6418726
0
LINE
8
0
10
11.3262168
20
59.024412
11
31.5165012
21
61.3101032
0
LINE
8
0
10
31.950536
20
61.311841
11
51.4025194
21
59.2673552
0
LINE
8
0
10
51.8346746
20
59.1727366
11
85.8823479
21
47.6485102
0
LINE
8
0
10
86.3145031
20
47.5538916
11
104.7619872
21
45.6149829
0
LINE
8
0
10
106.5512699
20
43.7074161
11
109.1333331
21
-19.6213902
0
LINE
8
0
10
108.9325815
20
-20.5796095
11
101.7076281
21
-35.3929592
0
LINE
8
0
10
99.0209832
20
-36.3077465
11
84.6408406
21
-29.1715191
0
LINE
8
0
10
84.3030586
20
-29.0405253
11
65.4238666
21
-23.6270041
0
LINE
8
0
10
65.0754986
20
-23.5598469
11
47.2439362
21
-21.7413909
0
LINE
8
0
10
47.0282086
20
-21.7074058
11
-8.4186344
21
-9.8385057
0
ARC
8
0
10
-8
20
42.4950166
40
2
50
126.6417006
51
180
0
ARC
8
0
10
11.5511946
20
57.037106
40
2
50
96.4588096
51
126.6417006
0
ARC
8
0
10
31.741479
20
59.3227972
40
2
50
83.9999979
51
96.4588096
0
ARC
8
0
10
51.1934624
20
57.2783114
40
2
50
71.3004166
51
83.9999979
0
ARC
8
0
10
86.5235601
20
49.5429354
40
2
50
251.3004166
51
263.9999979
0
ARC
8
0
10
104.5529302
20
43.6259391
40
2
50
2.3347903
51
83.9999979
0
ARC
8
0
10
107.1349934
20
-19.7028672
40
2
50
334.0000012
51
2.3347903
0
ARC
8
0
10
99.91004
20
-34.5162169
40
2
50
243.6068312
51
334.0000012
0
ARC
8
0
10
83.7517838
20
-30.9630487
40
2
50
63.6068312
51
73.9999976
0
ARC
8
0
10
64.8725918
20
-25.5495275
40
2
50
73.9999976
51
84.1771302
0
ARC
8
0
10
47.446843
20
-19.7517102
40
2
50
257.9176586
51
264.1771302
0
ARC
8
0
10
-8
20
-7.8828101
40
2
50
180
51
257.9176586
0
LINE
8
0
10
-9
20
-8.5
11
9
21
-8.5
0
LINE
8
0
10
9
20
-8.5
11
9
21
42.5
0
LINE
8
0
10
-9
20
-8.5
11
-9
21
42.5
0
LINE
8
0
10
9
20
42.5
11
-9
21
42.5
0
LINE
8
0
10
9.0674786
20
6.9826726
11
27.0428102
21
6.0406253
0
LINE
8
0
10
27.0428102
20
6.0406253
11
27.9325214
21
23.0173274
0
LINE
8
0
10
9.9571898
20
23.9593747
11
9.0674786
21
6.9826726
0
LINE
8
0
10
27.9325215
20
23.0173274
11
28.8222327
21
39.9940295
0
LINE
8
0
10
10.8469011
20
40.9360768
11
9.9571899
21
23.9593747
0
LINE
8
0
10
28.8222328
20
39.9940295
11
29.711944
21
56.9707316
0
LINE
8
0
10
29.711944
20
56.9707316
11
11.7366124
21
57.9127789
0
LINE
8
0
10
11.7366124
20
57.9127789
11
10.8469012
21
40.9360768
0
LINE
8
0
10
27.2924653
20
9.5149935
11
45.1938594
21
7.6334811
0
LINE
8
0
10
27.2924653
20
9.5149935
11
32.623417
21
60.2356101
0
LINE
8
0
10
49.8976403
20
52.3869664
11
50.5248111
21
58.3540977
0
LINE
8
0
10
50.5248111
20
58.3540977
11
32.623417
21
60.2356101
0
LINE
8
0
10
44.5666886
20
1.6663498
11
62.4680827
21
-0.2151626
0
LINE
8
0
10
45.1938594
20
7.6334811
11
44.5666886
21
1.6663498
0
LINE
8
0
10
67.5899775
20
48.5164103
11
67.7990344
21
50.505454
0
LINE
8
0
10
67.7990344
20
50.505454
11
49.8976403
21
52.3869664
0
LINE
8
0
10
62.2590258
20
-2.2042063
11
80.1604199
21
-4.0857187
0
LINE
8
0
10
80.1604199
20
-4.0857187
11
85.4913716
21
46.6348979
0
LINE
8
0
10
62.4680827
20
-0.2151626
11
62.2590258
21
-2.2042063
0
LINE
8
0
10
85.4913716
20
46.6348979
11
67.5899775
21
48.5164103
0
LINE
8
0
10
48.2341938
20
-20.8403027
11
66.1355879
21
-22.7218151
0
LINE
8
0
10
66.1355879
20
-22.7218151
11
67.9125718
21
-5.8149429
0
LINE
8
0
10
67.9125718
20
-5.8149429
11
50.0111777
21
-3.9334305
0
LINE
8
0
10
50.0111777
20
-3.9334305
11
48.2341938
21
-20.8403027
0
LINE
8
0
10
66.4895715
20
-22.8922906
11
83.792282
21
-27.853763
0
LINE
8
0
10
83.792282
20
-27.853763
11
88.4781171
21
-11.5123142
0
LINE
8
0
10
88.4781171
20
-11.5123142
11
71.1754066
21
-6.5508418
0
LINE
8
0
10
71.1754066
20
-6.5508418
11
66.4895715
21
-22.8922906
0
LINE
8
0
10
84.186133
20
-27.9750792
11
100.3644259
21
-35.8657598
0
LINE
8
0
10
100.3644259
20
-35.8657598
11
107.8167354
21
-20.586261
0
LINE
8
0
10
107.8167354
20
-20.586261
11
91.6384425
21
-12.6955804
0
LINE
8
0
10
91.6384425
20
-12.6955804
11
84.186133
21
-27.9750792
0
ENDSEC
0
EOF