0
SECTION
2
HEADER
9
$INSUNITS
70
4
0
ENDSEC
0
SECTION
2
TABLES
0
TABLE
2
LTYPE
0
LTYPE
72
65
70
64
2
CONTINUOUS
3
______
73
0
40
0
0
ENDTAB
0
TABLE
2
LAYER
0
ENDTAB
0
ENDSEC
0
SECTION
2
ENTITIES
0
LINE
8
0
10
-10
20
-7.8057459
11
-10
21
42.5632501
0
LINE
8
0
10
-9.2803688
20
44.0996927
11
7.5833749
21
58.1528124
0
LINE
8
0
10
8.5349457
20
58.5891576
11
25.8367268
21
61.4727878
0
LINE
8
0
10
26.1655248
20
61.5
11
45.7774384
21
61.5
0
LINE
8
0
10
46.2171166
20
61.4510723
11
80.5380337
21
53.7167811
0
LINE
8
0
10
81.9137687
20
52.6049196
11
111.1653199
21
-10.6731672
0
LINE
8
0
10
111.2292919
20
-12.1964182
11
105.7016681
21
-27.3834395
0
LINE
8
0
10
103.1253623
20
-28.5740464
11
88.0780567
21
-22.9800463
0
LINE
8
0
10
87.7284325
20
-22.8850779
11
68.386795
21
-19.4746254
0
LINE
8
0
10
68.0333156
20
-19.4442505
11
50.1686374
21
-19.4994787
0
LINE
8
0
10
49.8336564
20
-19.4722761
11
-8.328798
21
-9.7785337
0
ARC
8
0
10
-8
20
42.5632501
40
2
50
129.8055704
51
180
0
ARC
8
0
10
8.8637437
20
56.6163698
40
2
50
99.4623231
51
129.8055704
0
ARC
8
0
10
26.1655248
20
59.5
40
2
50
90
51
99.4623231
0
ARC
8
0
10
45.7774384
20
59.5
40
2
50
77.3004167
51
90
0
ARC
8
0
10
80.0983555
20
51.7657088
40
2
50
24.8096777
51
77.3004167
0
ARC
8
0
10
109.3499067
20
-11.512378
40
2
50
340.0000019
51
24.8096777
0
ARC
8
0
10
103.8222829
20
-26.6993993
40
2
50
249.6068321
51
340.0000019
0
ARC
8
0
10
87.3811361
20
-24.8546934
40
2
50
69.6068321
51
79.9999992
0
ARC
8
0
10
68.0394986
20
-21.4442409
40
2
50
79.9999992
51
90.1771302
0
ARC
8
0
10
50.1624544
20
-17.4994883
40
2
50
260.5376769
51
270.1771302
0
ARC
8
0
10
-8
20
-7.8057459
40
2
50
180
51
260.5376769
0
LINE
8
0
10
-9
20
-8.5
11
9
21
-8.5
0
LINE
8
0
10
9
20
-8.5
11
9
21
6.5
0
LINE
8
0
10
-9
20
-8.5
11
-9
21
42.5
0
LINE
8
0
10
9
20
42.5
11
-9
21
42.5
0
LINE
8
0
10
9
20
6.5
11
27
21
6.5
0
LINE
8
0
10
27
20
6.5
11
27
21
9.5
0
LINE
8
0
10
27
20
57.5
11
9
21
57.5
0
LINE
8
0
10
9
20
57.5
11
9
21
42.5
0
LINE
8
0
10
27
20
9.5
11
45
21
9.5
0
LINE
8
0
10
45
20
54.5
11
45
21
60.5
0
LINE
8
0
10
45
20
60.5
11
27
21
60.5
0
LINE
8
0
10
27
20
60.5
11
27
21
57.5
0
LINE
8
0
10
45
20
3.5
11
63
21
3.5
0
LINE
8
0
10
45
20
9.5
11
45
21
3.5
0
LINE
8
0
10
63
20
52.5
11
63
21
54.5
0
LINE
8
0
10
63
20
54.5
11
45
21
54.5
0
LINE
8
0
10
63
20
1.5
11
81
21
1.5
0
LINE
8
0
10
81
20
1.5
11
81
21
52.5
0
LINE
8
0
10
63
20
3.5
11
63
21
1.5
0
LINE
8
0
10
81
20
52.5
11
63
21
52.5
0
LINE
8
0
10
51
20
-18.5
11
69
21
-18.5
0
LINE
8
0
10
69
20
-18.5
11
69
21
-1.5
0
LINE
8
0
10
69
20
-1.5
11
51
21
-1.5
0
LINE
8
0
10
51
20
-1.5
11
51
21
-18.5
0
LINE
8
0
10
69.3698639
20
-18.6325403
11
87.0964035
21
-21.7582075
0
LINE
8
0
10
87.0964035
20
-21.7582075
11
90.0484225
21
-5.0164757
0
LINE
8
0
10
90.0484225
20
-5.0164757
11
72.3218829
21
-1.8908085
0
LINE
8
0
10
72.3218829
20
-1.8908085
11
69.3698639
21
-18.6325403
0
LINE
8
0
10
87.5007781
20
-21.8376904
11
104.4152453
21
-27.994053
0
LINE
8
0
10
104.4152453
20
-27.994053
11
110.2295877
21
-12.0192784
0
LINE
8
0
10
110.2295877
20
-12.0192784
11
93.3151205
21
-5.8629158
0
LINE
8
0
10
93.3151205
20
-5.8629158
11
87.5007781
21
-21.8376904
0
ENDSEC
0
EOF