0
SECTION
2
HEADER
9
$INSUNITS
70
4
0
ENDSEC
0
SECTION
2
TABLES
0
TABLE
2
LTYPE
0
LTYPE
72
65
70
64
2
CONTINUOUS
3
______
73
0
40
0
0
ENDTAB
0
TABLE
2
LAYER
0
ENDTAB
0
ENDSEC
0
SECTION
2
ENTITIES
0
LINE
8
0
10
-11
20
-8.8057459
11
-11
21
43.5632501
0
LINE
8
0
10
-10.2803688
20
45.0996927
11
6.5833749
21
59.1528124
0
LINE
8
0
10
7.5349457
20
59.5891576
11
24.8367268
21
62.4727878
0
LINE
8
0
10
25.1655248
20
62.5
11
46.7774384
21
62.5
0
LINE
8
0
10
47.2171166
20
62.4510723
11
81.5394966
21
54.7164515
0
LINE
8
0
10
82.9142176
20
53.6067801
11
112.4455355
21
-10.0746317
0
LINE
8
0
10
112.5105216
20
-11.6000729
11
106.3066092
21
-28.6451819
0
LINE
8
0
10
103.7106636
20
-29.8283699
11
88.8984277
21
-24.1440824
0
LINE
8
0
10
88.5291637
20
-24.0416951
11
67.2387534
21
-20.2876213
0
LINE
8
0
10
66.8643016
20
-20.2574212
11
49.1791875
21
-20.4975668
0
LINE
8
0
10
48.8232341
20
-20.470539
11
-9.328798
21
-10.7785337
0
ARC
8
0
10
-9
20
43.5632501
40
2
50
129.8055704
51
180
0
ARC
8
0
10
7.8637437
20
57.6163698
40
2
50
99.4623231
51
129.8055704
0
ARC
8
0
10
25.1655248
20
60.5
40
2
50
90
51
99.4623231
0
ARC
8
0
10
46.7774384
20
60.5
40
2
50
77.3004167
51
90
0
ARC
8
0
10
81.0998184
20
52.7653791
40
2
50
24.8788205
51
77.3004167
0
ARC
8
0
10
110.6311363
20
-10.9160327
40
2
50
340.0000019
51
24.8788205
0
ARC
8
0
10
104.427224
20
-27.9611417
40
2
50
249.0053852
51
340.0000019
0
ARC
8
0
10
88.1818673
20
-26.0113106
40
2
50
69.0053852
51
79.9999992
0
ARC
8
0
10
66.891457
20
-22.2572368
40
2
50
79.9999992
51
90.7779688
0
ARC
8
0
10
49.1520321
20
-18.4977512
40
2
50
260.5376769
51
270.7779688
0
ARC
8
0
10
-9
20
-8.8057459
40
2
50
180
51
260.5376769
0
LINE
8
0
10
-9
20
-8.5
11
9
21
-8.5
0
LINE
8
0
10
9
20
-8.5
11
9
21
6.5
0
LINE
8
0
10
-9
20
-8.5
11
-9
21
42.5
0
LINE
8
0
10
9
20
42.5
11
-9
21
42.5
0
LINE
8
0
10
9
20
6.5
11
27
21
6.5
0
LINE
8
0
10
27
20
6.5
11
27
21
9.5
0
LINE
8
0
10
27
20
57.5
11
9
21
57.5
0
LINE
8
0
10
9
20
57.5
11
9
21
42.5
0
LINE
8
0
10
27
20
9.5
11
45
21
9.5
0
LINE
8
0
10
45
20
54.5
11
45
21
60.5
0
LINE
8
0
10
45
20
60.5
11
27
21
60.5
0
LINE
8
0
10
27
20
60.5
11
27
21
57.5
0
LINE
8
0
10
45
20
3.5
11
63
21
3.5
0
LINE
8
0
10
45
20
9.5
11
45
21
3.5
0
LINE
8
0
10
63
20
52.5
11
63
21
54.5
0
LINE
8
0
10
63
20
54.5
11
45
21
54.5
0
LINE
8
0
10
63
20
1.5
11
81
21
1.5
0
LINE
8
0
10
81
20
1.5
11
81
21
52.5
0
LINE
8
0
10
63
20
3.5
11
63
21
1.5
0
LINE
8
0
10
81
20
52.5
11
63
21
52.5
0
LINE
8
0
10
51
20
-18.5
11
69
21
-18.5
0
LINE
8
0
10
69
20
-18.5
11
69
21
-1.5
0
LINE
8
0
10
69
20
-1.5
11
51
21
-1.5
0
LINE
8
0
10
51
20
-1.5
11
51
21
-18.5
0
LINE
8
0
10
69.3698639
20
-18.6325403
11
87.0964035
21
-21.7582075
0
LINE
8
0
10
87.0964035
20
-21.7582075
11
90.0484225
21
-5.0164757
0
LINE
8
0
10
90.0484225
20
-5.0164757
11
72.3218829
21
-1.8908085
0
LINE
8
0
10
72.3218829
20
-1.8908085
11
69.3698639
21
-18.6325403
0
LINE
8
0
10
87.5007781
20
-21.8376904
11
104.4152453
21
-27.994053
0
LINE
8
0
10
104.4152453
20
-27.994053
11
110.2295877
21
-12.0192784
0
LINE
8
0
10
110.2295877
20
-12.0192784
11
93.3151205
21
-5.8629158
0
LINE
8
0
10
93.3151205
20
-5.8629158
11
87.5007781
21
-21.8376904
0
ENDSEC
0
EOF