0
SECTION
2
HEADER
9
$INSUNITS
70
4
0
ENDSEC
0
SECTION
2
TABLES
0
TABLE
2
LTYPE
0
LTYPE
72
65
70
64
2
CONTINUOUS
3
______
73
0
40
0
0
ENDTAB
0
TABLE
2
LAYER
0
ENDTAB
0
ENDSEC
0
SECTION
2
ENTITIES
0
LINE
8
0
10
-8.7141343
20
-11.1544636
11
-20.5023021
21
39.9057008
0
LINE
8
0
10
-20.0774972
20
41.6508333
11
-1.8021137
21
63.1531855
0
LINE
8
0
10
-0.8629826
20
63.7705461
11
21.5023328
21
70.6090828
0
LINE
8
0
10
21.9824648
20
70.693751
11
43.4641743
21
71.8195596
0
LINE
8
0
10
43.9458983
20
71.7864369
11
81.7211838
21
64.5347797
0
LINE
8
0
10
83.2254039
20
63.2494772
11
106.8860541
21
-2.3219704
0
LINE
8
0
10
106.8841672
20
-3.6848444
11
100.6456616
21
-20.8249976
0
LINE
8
0
10
98.049716
20
-22.0081856
11
83.2374801
21
-16.3238981
0
LINE
8
0
10
82.8682161
20
-16.2215108
11
61.5778058
21
-12.467437
0
LINE
8
0
10
61.203354
20
-12.4372369
11
43.3521418
21
-12.679638
0
LINE
8
0
10
43.3259742
20
-12.6798222
11
-6.7644064
21
-12.7045612
0
ARC
8
0
10
-18.553562
20
40.355603
40
2
50
139.6379632
51
193.0000021
0
ARC
8
0
10
-0.2781786
20
61.8579551
40
2
50
107.001815
51
139.6379632
0
ARC
8
0
10
22.0871368
20
68.6964919
40
2
50
93.0000026
51
107.001815
0
ARC
8
0
10
43.5688464
20
69.8223005
40
2
50
79.1332243
51
93.0000026
0
ARC
8
0
10
81.3441318
20
62.5706433
40
2
50
19.8413533
51
79.1332243
0
ARC
8
0
10
105.004782
20
-3.0008042
40
2
50
340.0000019
51
19.8413533
0
ARC
8
0
10
98.7662764
20
-20.1409574
40
2
50
249.0053852
51
340.0000019
0
ARC
8
0
10
82.5209197
20
-18.1911263
40
2
50
69.0053852
51
79.9999992
0
ARC
8
0
10
61.2305094
20
-14.4370525
40
2
50
79.9999992
51
90.7779688
0
ARC
8
0
10
43.3249864
20
-10.6798224
40
2
50
270.0282984
51
270.7779688
0
ARC
8
0
10
-6.7653942
20
-10.7045614
40
2
50
193.0000021
51
270.0282984
0
LINE
8
0
10
-6.8572466
20
-10.306705
11
10.6814145
21
-6.2575861
0
LINE
8
0
10
-0.7910892
20
43.4352872
11
10.6814145
21
-6.2575861
0
LINE
8
0
10
-18.3297503
20
39.3861683
11
-6.8572466
21
-10.306705
0
LINE
8
0
10
-0.7910892
20
43.4352872
11
-18.3297503
21
39.3861683
0
LINE
8
0
10
7.9337921
20
11.3934757
11
25.7586174
21
13.8985915
0
LINE
8
0
10
18.6607893
20
64.4022631
11
25.7586174
21
13.8985915
0
LINE
8
0
10
0.835964
20
61.8971473
11
7.9337921
21
11.3934757
0
LINE
8
0
10
18.6607893
20
64.4022631
11
0.835964
21
61.8971473
0
LINE
8
0
10
26.5082652
20
17.8582037
11
44.4835968
21
18.800251
0
LINE
8
0
10
44.4835968
20
18.800251
11
43.5938856
21
35.7769531
0
LINE
8
0
10
25.618554
20
34.8349058
11
26.5082652
21
17.8582037
0
LINE
8
0
10
43.5938855
20
35.7769531
11
42.7041743
21
52.7536552
0
LINE
8
0
10
24.7288427
20
51.8116079
11
25.6185539
21
34.8349058
0
LINE
8
0
10
42.7041742
20
52.7536552
11
41.814463
21
69.7303573
0
LINE
8
0
10
41.814463
20
69.7303573
11
23.8391314
21
68.78831
0
LINE
8
0
10
23.8391314
20
68.78831
11
24.7288426
21
51.8116079
0
LINE
8
0
10
45.3390524
20
13.3201843
11
63.3390524
21
13.3201843
0
LINE
8
0
10
45.3390524
20
13.3201843
11
45.3390524
21
64.3201843
0
LINE
8
0
10
63.3390524
20
62.3201844
11
63.3390524
21
64.3201843
0
LINE
8
0
10
63.3390524
20
64.3201843
11
45.3390524
21
64.3201843
0
LINE
8
0
10
63.3390524
20
11.3201844
11
81.3390524
21
11.3201844
0
LINE
8
0
10
81.3390524
20
11.3201844
11
81.3390524
21
62.3201844
0
LINE
8
0
10
63.3390524
20
13.3201843
11
63.3390524
21
11.3201844
0
LINE
8
0
10
81.3390524
20
62.3201844
11
63.3390524
21
62.3201844
0
LINE
8
0
10
45.3390524
20
-10.6798157
11
63.3390524
21
-10.6798157
0
LINE
8
0
10
63.3390524
20
-10.6798157
11
63.3390524
21
6.3201843
0
LINE
8
0
10
63.3390524
20
6.3201843
11
45.3390524
21
6.3201843
0
LINE
8
0
10
45.3390524
20
6.3201843
11
45.3390524
21
-10.6798157
0
LINE
8
0
10
63.7089163
20
-10.812356
11
81.4354559
21
-13.9380232
0
LINE
8
0
10
81.4354559
20
-13.9380232
11
84.3874749
21
2.8037086
0
LINE
8
0
10
84.3874749
20
2.8037086
11
66.6609353
21
5.9293758
0
LINE
8
0
10
66.6609353
20
5.9293758
11
63.7089163
21
-10.812356
0
LINE
8
0
10
81.8398305
20
-14.0175061
11
98.7542977
21
-20.1738687
0
LINE
8
0
10
98.7542977
20
-20.1738687
11
104.5686401
21
-4.1990941
0
LINE
8
0
10
104.5686401
20
-4.1990941
11
87.6541729
21
1.9572685
0
LINE
8
0
10
87.6541729
20
1.9572685
11
81.8398305
21
-14.0175061
0
ENDSEC
0
EOF