0
SECTION
2
HEADER
9
$INSUNITS
70
4
0
ENDSEC
0
SECTION
2
TABLES
0
TABLE
2
LTYPE
0
LTYPE
72
65
70
64
2
CONTINUOUS
3
______
73
0
40
0
0
ENDTAB
0
TABLE
2
LAYER
0
ENDTAB
0
ENDSEC
0
SECTION
2
ENTITIES
0
LINE
8
0
10
-10
20
-7.8880884
11
-10
21
42.5096246
0
LINE
8
0
10
-9.2123073
20
44.1003197
11
9.8547902
21
58.6318174
0
LINE
8
0
10
10.8341883
20
59.0275143
11
30.513273
21
61.3349349
0
LINE
8
0
10
30.9552392
20
61.3375867
11
50.4032046
21
59.2935232
0
LINE
8
0
10
50.8353598
20
59.1989046
11
84.8830331
21
47.6746782
0
LINE
8
0
10
85.3151883
20
47.5800596
11
103.7626724
21
45.6411509
0
LINE
8
0
10
105.5519551
20
43.7335841
11
108.1340183
21
-19.5952222
0
LINE
8
0
10
107.9332667
20
-20.5534415
11
100.7083133
21
-35.3667912
0
LINE
8
0
10
98.0216684
20
-36.2815785
11
83.6415258
21
-29.1453511
0
LINE
8
0
10
83.3037438
20
-29.0143573
11
64.4245518
21
-23.6008361
0
LINE
8
0
10
64.0761838
20
-23.5336789
11
46.2478106
21
-21.7155481
0
LINE
8
0
10
46.0258353
20
-21.6802153
11
-8.4248822
21
-9.8424362
0
ARC
8
0
10
-8
20
42.5096246
40
2
50
127.3119046
51
180
0
ARC
8
0
10
11.0670975
20
57.0411223
40
2
50
96.6875314
51
127.3119046
0
ARC
8
0
10
30.7461822
20
59.3485429
40
2
50
83.9999979
51
96.6875314
0
ARC
8
0
10
50.1941476
20
57.3044794
40
2
50
71.3004166
51
83.9999979
0
ARC
8
0
10
85.5242453
20
49.5691034
40
2
50
251.3004166
51
263.9999979
0
ARC
8
0
10
103.5536154
20
43.6521071
40
2
50
2.3347903
51
83.9999979
0
ARC
8
0
10
106.1356786
20
-19.6766992
40
2
50
334.0000012
51
2.3347903
0
ARC
8
0
10
98.9107252
20
-34.4900489
40
2
50
243.6068312
51
334.0000012
0
ARC
8
0
10
82.752469
20
-30.9368807
40
2
50
63.6068312
51
73.9999976
0
ARC
8
0
10
63.873277
20
-25.5233595
40
2
50
73.9999976
51
84.1771302
0
ARC
8
0
10
46.4507174
20
-19.7258675
40
2
50
257.7345549
51
264.1771302
0
ARC
8
0
10
-8
20
-7.8880884
40
2
50
180
51
257.7345549
0
LINE
8
0
10
-9
20
-8.5
11
9
21
-8.5
0
LINE
8
0
10
9
20
-8.5
11
9
21
6.9600051
0
LINE
8
0
10
-9
20
-8.5
11
-9
21
42.5
0
LINE
8
0
10
9
20
15.2356731
11
9
21
42.5
0
LINE
8
0
10
9
20
42.5
11
-9
21
42.5
0
LINE
8
0
10
9
20
6.9600051
11
26.5428102
21
6.0406253
0
LINE
8
0
10
26.5428102
20
6.0406253
11
26.7238929
21
9.4958887
0
LINE
8
0
10
27.1570078
20
17.7602147
11
27.4325214
21
23.0173274
0
LINE
8
0
10
9.4571898
20
23.9593747
11
9
21
15.2356731
0
LINE
8
0
10
27.4325215
20
23.0173274
11
28.3222327
21
39.9940295
0
LINE
8
0
10
10.3469011
20
40.9360768
11
9.4571899
21
23.9593747
0
LINE
8
0
10
28.3222328
20
39.9940295
11
29.211944
21
56.9707316
0
LINE
8
0
10
29.211944
20
56.9707316
11
11.2366124
21
57.9127789
0
LINE
8
0
10
11.2366124
20
57.9127789
11
10.3469012
21
40.9360768
0
LINE
8
0
10
26.7238929
20
9.4958887
11
44.1945446
21
7.6596491
0
LINE
8
0
10
27.1570078
20
17.7602147
11
31.6241022
21
60.2617781
0
LINE
8
0
10
48.8983255
20
52.4131344
11
49.5254963
21
58.3802657
0
LINE
8
0
10
49.5254963
20
58.3802657
11
31.6241022
21
60.2617781
0
LINE
8
0
10
43.5673738
20
1.6925178
11
61.4687679
21
-0.1889946
0
LINE
8
0
10
44.1945446
20
7.6596491
11
43.5673738
21
1.6925178
0
LINE
8
0
10
66.5906627
20
48.5425783
11
66.7997196
21
50.531622
0
LINE
8
0
10
66.7997196
20
50.531622
11
48.8983255
21
52.4131344
0
LINE
8
0
10
61.259711
20
-2.1780383
11
79.1611051
21
-4.0595507
0
LINE
8
0
10
79.1611051
20
-4.0595507
11
84.4920568
21
46.6610659
0
LINE
8
0
10
61.4687679
20
-0.1889946
11
61.259711
21
-2.1780383
0
LINE
8
0
10
84.4920568
20
46.6610659
11
66.5906627
21
48.5425783
0
LINE
8
0
10
47.234879
20
-20.8141347
11
65.1362731
21
-22.6956471
0
LINE
8
0
10
65.1362731
20
-22.6956471
11
66.913257
21
-5.7887749
0
LINE
8
0
10
66.913257
20
-5.7887749
11
49.0118629
21
-3.9072625
0
LINE
8
0
10
49.0118629
20
-3.9072625
11
47.234879
21
-20.8141347
0
LINE
8
0
10
65.4902567
20
-22.8661226
11
82.7929672
21
-27.827595
0
LINE
8
0
10
82.7929672
20
-27.827595
11
87.4788023
21
-11.4861462
0
LINE
8
0
10
87.4788023
20
-11.4861462
11
70.1760918
21
-6.5246738
0
LINE
8
0
10
70.1760918
20
-6.5246738
11
65.4902567
21
-22.8661226
0
LINE
8
0
10
83.1868182
20
-27.9489112
11
99.3651111
21
-35.8395918
0
LINE
8
0
10
99.3651111
20
-35.8395918
11
106.8174206
21
-20.560093
0
LINE
8
0
10
106.8174206
20
-20.560093
11
90.6391277
21
-12.6694124
0
LINE
8
0
10
90.6391277
20
-12.6694124
11
83.1868182
21
-27.9489112
0
ENDSEC
0
EOF