0
SECTION
2
HEADER
9
$INSUNITS
70
4
0
ENDSEC
0
SECTION
2
TABLES
0
TABLE
2
LTYPE
0
LTYPE
72
65
70
64
2
CONTINUOUS
3
______
73
0
40
0
0
ENDTAB
0
TABLE
2
LAYER
0
ENDTAB
0
ENDSEC
0
SECTION
2
ENTITIES
0
LINE
8
0
10
-9
20
-8.5
11
9
21
-8.5
0
LINE
8
0
10
9
20
-8.5
11
9
21
6.5
0
LINE
8
0
10
-9
20
-8.5
11
-9
21
42.5
0
LINE
8
0
10
9
20
42.5
11
-9
21
42.5
0
LINE
8
0
10
9
20
6.5
11
27
21
6.5
0
LINE
8
0
10
27
20
6.5
11
27
21
9.5
0
LINE
8
0
10
27
20
57.5
11
9
21
57.5
0
LINE
8
0
10
9
20
57.5
11
9
21
42.5
0
LINE
8
0
10
27
20
9.5
11
45
21
9.5
0
LINE
8
0
10
45
20
54.5
11
45
21
60.5
0
LINE
8
0
10
45
20
60.5
11
27
21
60.5
0
LINE
8
0
10
27
20
60.5
11
27
21
57.5
0
LINE
8
0
10
45
20
3.5
11
63
21
3.5
0
LINE
8
0
10
45
20
9.5
11
45
21
3.5
0
LINE
8
0
10
63
20
52.5
11
63
21
54.5
0
LINE
8
0
10
63
20
54.5
11
45
21
54.5
0
LINE
8
0
10
63
20
1.5
11
81
21
1.5
0
LINE
8
0
10
81
20
1.5
11
81
21
52.5
0
LINE
8
0
10
63
20
3.5
11
63
21
1.5
0
LINE
8
0
10
81
20
52.5
11
63
21
52.5
0
LINE
8
0
10
51
20
-18.5
11
69
21
-18.5
0
LINE
8
0
10
69
20
-18.5
11
69
21
-1.5
0
LINE
8
0
10
69
20
-1.5
11
51
21
-1.5
0
LINE
8
0
10
51
20
-1.5
11
51
21
-18.5
0
LINE
8
0
10
69.3698639
20
-18.6325403
11
87.0964035
21
-21.7582075
0
LINE
8
0
10
87.0964035
20
-21.7582075
11
90.0484225
21
-5.0164757
0
LINE
8
0
10
90.0484225
20
-5.0164757
11
72.3218829
21
-1.8908085
0
LINE
8
0
10
72.3218829
20
-1.8908085
11
69.3698639
21
-18.6325403
0
LINE
8
0
10
87.5007781
20
-21.8376904
11
104.4152453
21
-27.994053
0
LINE
8
0
10
104.4152453
20
-27.994053
11
110.2295877
21
-12.0192784
0
LINE
8
0
10
110.2295877
20
-12.0192784
11
93.3151205
21
-5.8629158
0
LINE
8
0
10
93.3151205
20
-5.8629158
11
87.5007781
21
-21.8376904
0
ENDSEC
0
EOF