0
SECTION
2
HEADER
9
$INSUNITS
70
4
0
ENDSEC
0
SECTION
2
TABLES
0
TABLE
2
LTYPE
0
LTYPE
72
65
70
64
2
CONTINUOUS
3
______
73
0
40
0
0
ENDTAB
0
TABLE
2
LAYER
0
ENDTAB
0
ENDSEC
0
SECTION
2
ENTITIES
0
LINE
8
0
10
-9
20
-8.5
11
9
21
-8.5
0
LINE
8
0
10
9
20
-8.5
11
9
21
42.5
0
LINE
8
0
10
-9
20
-8.5
11
-9
21
42.5
0
LINE
8
0
10
9
20
42.5
11
-9
21
42.5
0
LINE
8
0
10
9.0674786
20
6.9826726
11
27.0428102
21
6.0406253
0
LINE
8
0
10
27.0428102
20
6.0406253
11
27.9325214
21
23.0173274
0
LINE
8
0
10
9.9571898
20
23.9593747
11
9.0674786
21
6.9826726
0
LINE
8
0
10
27.9325215
20
23.0173274
11
28.8222327
21
39.9940295
0
LINE
8
0
10
10.8469011
20
40.9360768
11
9.9571899
21
23.9593747
0
LINE
8
0
10
28.8222328
20
39.9940295
11
29.711944
21
56.9707316
0
LINE
8
0
10
29.711944
20
56.9707316
11
11.7366124
21
57.9127789
0
LINE
8
0
10
11.7366124
20
57.9127789
11
10.8469012
21
40.9360768
0
LINE
8
0
10
27.2924653
20
9.5149935
11
45.1938594
21
7.6334811
0
LINE
8
0
10
27.2924653
20
9.5149935
11
32.623417
21
60.2356101
0
LINE
8
0
10
49.8976403
20
52.3869664
11
50.5248111
21
58.3540977
0
LINE
8
0
10
50.5248111
20
58.3540977
11
32.623417
21
60.2356101
0
LINE
8
0
10
44.5666886
20
1.6663498
11
62.4680827
21
-0.2151626
0
LINE
8
0
10
45.1938594
20
7.6334811
11
44.5666886
21
1.6663498
0
LINE
8
0
10
67.5899775
20
48.5164103
11
67.7990344
21
50.505454
0
LINE
8
0
10
67.7990344
20
50.505454
11
49.8976403
21
52.3869664
0
LINE
8
0
10
62.2590258
20
-2.2042063
11
80.1604199
21
-4.0857187
0
LINE
8
0
10
80.1604199
20
-4.0857187
11
85.4913716
21
46.6348979
0
LINE
8
0
10
62.4680827
20
-0.2151626
11
62.2590258
21
-2.2042063
0
LINE
8
0
10
85.4913716
20
46.6348979
11
67.5899775
21
48.5164103
0
LINE
8
0
10
48.2341938
20
-20.8403027
11
66.1355879
21
-22.7218151
0
LINE
8
0
10
66.1355879
20
-22.7218151
11
67.9125718
21
-5.8149429
0
LINE
8
0
10
67.9125718
20
-5.8149429
11
50.0111777
21
-3.9334305
0
LINE
8
0
10
50.0111777
20
-3.9334305
11
48.2341938
21
-20.8403027
0
LINE
8
0
10
66.4895715
20
-22.8922906
11
83.792282
21
-27.853763
0
LINE
8
0
10
83.792282
20
-27.853763
11
88.4781171
21
-11.5123142
0
LINE
8
0
10
88.4781171
20
-11.5123142
11
71.1754066
21
-6.5508418
0
LINE
8
0
10
71.1754066
20
-6.5508418
11
66.4895715
21
-22.8922906
0
LINE
8
0
10
84.186133
20
-27.9750792
11
100.3644259
21
-35.8657598
0
LINE
8
0
10
100.3644259
20
-35.8657598
11
107.8167354
21
-20.586261
0
LINE
8
0
10
107.8167354
20
-20.586261
11
91.6384425
21
-12.6955804
0
LINE
8
0
10
91.6384425
20
-12.6955804
11
84.186133
21
-27.9750792
0
LINE
8
0
10
219.0028684
20
-8.5
11
237.0028684
21
-8.5
0
LINE
8
0
10
237.0028684
20
-8.5
11
237.0028684
21
42.5
0
LINE
8
0
10
219.0028684
20
-8.5
11
219.0028684
21
42.5
0
LINE
8
0
10
237.0028684
20
42.5
11
219.0028684
21
42.5
0
LINE
8
0
10
200.9600582
20
6.0406253
11
218.9353898
21
6.9826726
0
LINE
8
0
10
218.9353898
20
6.9826726
11
218.0456786
21
23.9593747
0
LINE
8
0
10
200.070347
20
23.0173274
11
200.9600582
21
6.0406253
0
LINE
8
0
10
218.0456785
20
23.9593747
11
217.1559673
21
40.9360768
0
LINE
8
0
10
199.1806357
20
39.9940295
11
200.0703469
21
23.0173274
0
LINE
8
0
10
217.1559672
20
40.9360768
11
216.266256
21
57.9127789
0
LINE
8
0
10
216.266256
20
57.9127789
11
198.2909244
21
56.9707316
0
LINE
8
0
10
198.2909244
20
56.9707316
11
199.1806356
21
39.9940295
0
LINE
8
0
10
182.809009
20
7.6334811
11
200.7104031
21
9.5149935
0
LINE
8
0
10
195.3794514
20
60.2356101
11
200.7104031
21
9.5149935
0
LINE
8
0
10
195.3794514
20
60.2356101
11
177.4780573
21
58.3540977
0
LINE
8
0
10
177.4780573
20
58.3540977
11
178.1052281
21
52.3869664
0
LINE
8
0
10
165.5347857
20
-0.2151626
11
183.4361798
21
1.6663498
0
LINE
8
0
10
183.4361798
20
1.6663498
11
182.809009
21
7.6334811
0
LINE
8
0
10
178.1052281
20
52.3869664
11
160.203834
21
50.505454
0
LINE
8
0
10
160.203834
20
50.505454
11
160.4128909
21
48.5164103
0
LINE
8
0
10
147.8424485
20
-4.0857187
11
165.7438426
21
-2.2042063
0
LINE
8
0
10
165.7438426
20
-2.2042063
11
165.5347857
21
-0.2151626
0
LINE
8
0
10
142.5114968
20
46.6348979
11
147.8424485
21
-4.0857187
0
LINE
8
0
10
160.4128909
20
48.5164103
11
142.5114968
21
46.6348979
0
LINE
8
0
10
161.8672805
20
-22.7218151
11
179.7686746
21
-20.8403027
0
LINE
8
0
10
179.7686746
20
-20.8403027
11
177.9916907
21
-3.9334305
0
LINE
8
0
10
177.9916907
20
-3.9334305
11
160.0902966
21
-5.8149429
0
LINE
8
0
10
160.0902966
20
-5.8149429
11
161.8672805
21
-22.7218151
0
LINE
8
0
10
144.2105864
20
-27.853763
11
161.5132969
21
-22.8922906
0
LINE
8
0
10
161.5132969
20
-22.8922906
11
156.8274618
21
-6.5508418
0
LINE
8
0
10
156.8274618
20
-6.5508418
11
139.5247513
21
-11.5123142
0
LINE
8
0
10
139.5247513
20
-11.5123142
11
144.2105864
21
-27.853763
0
LINE
8
0
10
127.6384425
20
-35.8657598
11
143.8167354
21
-27.9750792
0
LINE
8
0
10
143.8167354
20
-27.9750792
11
136.3644259
21
-12.6955804
0
LINE
8
0
10
136.3644259
20
-12.6955804
11
120.186133
21
-20.586261
0
LINE
8
0
10
120.186133
20
-20.586261
11
127.6384425
21
-35.8657598
0
ENDSEC
0
EOF