0
SECTION
2
HEADER
9
$INSUNITS
70
4
0
ENDSEC
0
SECTION
2
TABLES
0
TABLE
2
LTYPE
0
LTYPE
72
65
70
64
2
CONTINUOUS
3
______
73
0
40
0
0
ENDTAB
0
TABLE
2
LAYER
0
ENDTAB
0
ENDSEC
0
SECTION
2
ENTITIES
0
LINE
8
0
10
-9
20
-8.5
11
9
21
-8.5
0
LINE
8
0
10
9
20
-8.5
11
9
21
6.9600051
0
LINE
8
0
10
-9
20
-8.5
11
-9
21
42.5
0
LINE
8
0
10
9
20
15.2356731
11
9
21
42.5
0
LINE
8
0
10
9
20
42.5
11
-9
21
42.5
0
LINE
8
0
10
9
20
6.9600051
11
26.5428102
21
6.0406253
0
LINE
8
0
10
26.5428102
20
6.0406253
11
26.7238929
21
9.4958887
0
LINE
8
0
10
27.1570078
20
17.7602147
11
27.4325214
21
23.0173274
0
LINE
8
0
10
9.4571898
20
23.9593747
11
9
21
15.2356731
0
LINE
8
0
10
27.4325215
20
23.0173274
11
28.3222327
21
39.9940295
0
LINE
8
0
10
10.3469011
20
40.9360768
11
9.4571899
21
23.9593747
0
LINE
8
0
10
28.3222328
20
39.9940295
11
29.211944
21
56.9707316
0
LINE
8
0
10
29.211944
20
56.9707316
11
11.2366124
21
57.9127789
0
LINE
8
0
10
11.2366124
20
57.9127789
11
10.3469012
21
40.9360768
0
LINE
8
0
10
26.7238929
20
9.4958887
11
44.1945446
21
7.6596491
0
LINE
8
0
10
27.1570078
20
17.7602147
11
31.6241022
21
60.2617781
0
LINE
8
0
10
48.8983255
20
52.4131344
11
49.5254963
21
58.3802657
0
LINE
8
0
10
49.5254963
20
58.3802657
11
31.6241022
21
60.2617781
0
LINE
8
0
10
43.5673738
20
1.6925178
11
61.4687679
21
-0.1889946
0
LINE
8
0
10
44.1945446
20
7.6596491
11
43.5673738
21
1.6925178
0
LINE
8
0
10
66.5906627
20
48.5425783
11
66.7997196
21
50.531622
0
LINE
8
0
10
66.7997196
20
50.531622
11
48.8983255
21
52.4131344
0
LINE
8
0
10
61.259711
20
-2.1780383
11
79.1611051
21
-4.0595507
0
LINE
8
0
10
79.1611051
20
-4.0595507
11
84.4920568
21
46.6610659
0
LINE
8
0
10
61.4687679
20
-0.1889946
11
61.259711
21
-2.1780383
0
LINE
8
0
10
84.4920568
20
46.6610659
11
66.5906627
21
48.5425783
0
LINE
8
0
10
47.234879
20
-20.8141347
11
65.1362731
21
-22.6956471
0
LINE
8
0
10
65.1362731
20
-22.6956471
11
66.913257
21
-5.7887749
0
LINE
8
0
10
66.913257
20
-5.7887749
11
49.0118629
21
-3.9072625
0
LINE
8
0
10
49.0118629
20
-3.9072625
11
47.234879
21
-20.8141347
0
LINE
8
0
10
65.4902567
20
-22.8661226
11
82.7929672
21
-27.827595
0
LINE
8
0
10
82.7929672
20
-27.827595
11
87.4788023
21
-11.4861462
0
LINE
8
0
10
87.4788023
20
-11.4861462
11
70.1760918
21
-6.5246738
0
LINE
8
0
10
70.1760918
20
-6.5246738
11
65.4902567
21
-22.8661226
0
LINE
8
0
10
83.1868182
20
-27.9489112
11
99.3651111
21
-35.8395918
0
LINE
8
0
10
99.3651111
20
-35.8395918
11
106.8174206
21
-20.560093
0
LINE
8
0
10
106.8174206
20
-20.560093
11
90.6391277
21
-12.6694124
0
LINE
8
0
10
90.6391277
20
-12.6694124
11
83.1868182
21
-27.9489112
0
LINE
8
0
10
217.0042388
20
-8.5
11
235.0042388
21
-8.5
0
LINE
8
0
10
235.0042388
20
-8.5
11
235.0042388
21
42.5
0
LINE
8
0
10
217.0042388
20
6.9600051
11
217.0042388
21
-8.5
0
LINE
8
0
10
217.0042388
20
15.2356731
11
217.0042388
21
42.5
0
LINE
8
0
10
235.0042388
20
42.5
11
217.0042388
21
42.5
0
LINE
8
0
10
199.4614286
20
6.0406253
11
217.0042388
21
6.9600051
0
LINE
8
0
10
217.0042388
20
15.2356731
11
216.547049
21
23.9593747
0
LINE
8
0
10
198.5717174
20
23.0173274
11
198.847231
21
17.7602147
0
LINE
8
0
10
199.2803459
20
9.4958887
11
199.4614286
21
6.0406253
0
LINE
8
0
10
216.5470489
20
23.9593747
11
215.6573377
21
40.9360768
0
LINE
8
0
10
197.6820061
20
39.9940295
11
198.5717173
21
23.0173274
0
LINE
8
0
10
215.6573376
20
40.9360768
11
214.7676264
21
57.9127789
0
LINE
8
0
10
214.7676264
20
57.9127789
11
196.7922948
21
56.9707316
0
LINE
8
0
10
196.7922948
20
56.9707316
11
197.682006
21
39.9940295
0
LINE
8
0
10
181.8096942
20
7.6596491
11
199.2803459
21
9.4958887
0
LINE
8
0
10
194.3801366
20
60.2617781
11
198.847231
21
17.7602147
0
LINE
8
0
10
194.3801366
20
60.2617781
11
176.4787425
21
58.3802657
0
LINE
8
0
10
176.4787425
20
58.3802657
11
177.1059133
21
52.4131344
0
LINE
8
0
10
164.5354709
20
-0.1889946
11
182.436865
21
1.6925178
0
LINE
8
0
10
182.436865
20
1.6925178
11
181.8096942
21
7.6596491
0
LINE
8
0
10
177.1059133
20
52.4131344
11
159.2045192
21
50.531622
0
LINE
8
0
10
159.2045192
20
50.531622
11
159.4135761
21
48.5425783
0
LINE
8
0
10
146.8431337
20
-4.0595507
11
164.7445278
21
-2.1780383
0
LINE
8
0
10
164.7445278
20
-2.1780383
11
164.5354709
21
-0.1889946
0
LINE
8
0
10
141.512182
20
46.6610659
11
146.8431337
21
-4.0595507
0
LINE
8
0
10
159.4135761
20
48.5425783
11
141.512182
21
46.6610659
0
LINE
8
0
10
160.8679657
20
-22.6956471
11
178.7693598
21
-20.8141347
0
LINE
8
0
10
178.7693598
20
-20.8141347
11
176.9923759
21
-3.9072625
0
LINE
8
0
10
176.9923759
20
-3.9072625
11
159.0909818
21
-5.7887749
0
LINE
8
0
10
159.0909818
20
-5.7887749
11
160.8679657
21
-22.6956471
0
LINE
8
0
10
143.2112716
20
-27.827595
11
160.5139821
21
-22.8661226
0
LINE
8
0
10
160.5139821
20
-22.8661226
11
155.828147
21
-6.5246738
0
LINE
8
0
10
155.828147
20
-6.5246738
11
138.5254365
21
-11.4861462
0
LINE
8
0
10
138.5254365
20
-11.4861462
11
143.2112716
21
-27.827595
0
LINE
8
0
10
126.6391277
20
-35.8395918
11
142.8174206
21
-27.9489112
0
LINE
8
0
10
142.8174206
20
-27.9489112
11
135.3651111
21
-12.6694124
0
LINE
8
0
10
135.3651111
20
-12.6694124
11
119.1868182
21
-20.560093
0
LINE
8
0
10
119.1868182
20
-20.560093
11
126.6391277
21
-35.8395918
0
ENDSEC
0
EOF