0
SECTION
2
HEADER
9
$INSUNITS
70
4
0
ENDSEC
0
SECTION
2
TABLES
0
TABLE
2
LTYPE
0
LTYPE
72
65
70
64
2
CONTINUOUS
3
______
73
0
40
0
0
ENDTAB
0
TABLE
2
LAYER
0
ENDTAB
0
ENDSEC
0
SECTION
2
ENTITIES
0
LINE
8
0
10
-6.8572466
20
-10.306705
11
10.6814145
21
-6.2575861
0
LINE
8
0
10
-0.7910892
20
43.4352872
11
10.6814145
21
-6.2575861
0
LINE
8
0
10
-18.3297503
20
39.3861683
11
-6.8572466
21
-10.306705
0
LINE
8
0
10
-0.7910892
20
43.4352872
11
-18.3297503
21
39.3861683
0
LINE
8
0
10
7.9337921
20
11.3934757
11
25.7586174
21
13.8985915
0
LINE
8
0
10
18.6607893
20
64.4022631
11
25.7586174
21
13.8985915
0
LINE
8
0
10
0.835964
20
61.8971473
11
7.9337921
21
11.3934757
0
LINE
8
0
10
18.6607893
20
64.4022631
11
0.835964
21
61.8971473
0
LINE
8
0
10
26.5082652
20
17.8582037
11
44.4835968
21
18.800251
0
LINE
8
0
10
44.4835968
20
18.800251
11
43.5938856
21
35.7769531
0
LINE
8
0
10
25.618554
20
34.8349058
11
26.5082652
21
17.8582037
0
LINE
8
0
10
43.5938855
20
35.7769531
11
42.7041743
21
52.7536552
0
LINE
8
0
10
24.7288427
20
51.8116079
11
25.6185539
21
34.8349058
0
LINE
8
0
10
42.7041742
20
52.7536552
11
41.814463
21
69.7303573
0
LINE
8
0
10
41.814463
20
69.7303573
11
23.8391314
21
68.78831
0
LINE
8
0
10
23.8391314
20
68.78831
11
24.7288426
21
51.8116079
0
LINE
8
0
10
45.3390524
20
13.3201843
11
63.3390524
21
13.3201843
0
LINE
8
0
10
45.3390524
20
13.3201843
11
45.3390524
21
64.3201843
0
LINE
8
0
10
63.3390524
20
62.3201844
11
63.3390524
21
64.3201843
0
LINE
8
0
10
63.3390524
20
64.3201843
11
45.3390524
21
64.3201843
0
LINE
8
0
10
63.3390524
20
11.3201844
11
81.3390524
21
11.3201844
0
LINE
8
0
10
81.3390524
20
11.3201844
11
81.3390524
21
62.3201844
0
LINE
8
0
10
63.3390524
20
13.3201843
11
63.3390524
21
11.3201844
0
LINE
8
0
10
81.3390524
20
62.3201844
11
63.3390524
21
62.3201844
0
LINE
8
0
10
45.3390524
20
-10.6798157
11
63.3390524
21
-10.6798157
0
LINE
8
0
10
63.3390524
20
-10.6798157
11
63.3390524
21
6.3201843
0
LINE
8
0
10
63.3390524
20
6.3201843
11
45.3390524
21
6.3201843
0
LINE
8
0
10
45.3390524
20
6.3201843
11
45.3390524
21
-10.6798157
0
LINE
8
0
10
63.7089163
20
-10.812356
11
81.4354559
21
-13.9380232
0
LINE
8
0
10
81.4354559
20
-13.9380232
11
84.3874749
21
2.8037086
0
LINE
8
0
10
84.3874749
20
2.8037086
11
66.6609353
21
5.9293758
0
LINE
8
0
10
66.6609353
20
5.9293758
11
63.7089163
21
-10.812356
0
LINE
8
0
10
81.8398305
20
-14.0175061
11
98.7542977
21
-20.1738687
0
LINE
8
0
10
98.7542977
20
-20.1738687
11
104.5686401
21
-4.1990941
0
LINE
8
0
10
104.5686401
20
-4.1990941
11
87.6541729
21
1.9572685
0
LINE
8
0
10
87.6541729
20
1.9572685
11
81.8398305
21
-14.0175061
0
ENDSEC
0
EOF