0
SECTION
2
HEADER
9
$INSUNITS
70
4
0
ENDSEC
0
SECTION
2
TABLES
0
TABLE
2
LTYPE
0
LTYPE
72
65
70
64
2
CONTINUOUS
3
______
73
0
40
0
0
ENDTAB
0
TABLE
2
LAYER
0
ENDTAB
0
ENDSEC
0
SECTION
2
ENTITIES
0
LINE
8
0
10
-9.25
20
-8.75
11
9.25
21
-8.75
0
LINE
8
0
10
9.25
20
-8.75
11
9.25
21
6.6965601
0
LINE
8
0
10
-9.25
20
-8.75
11
-9.25
21
42.75
0
LINE
8
0
10
9.25
20
24.7827871
11
9.25
21
42.75
0
LINE
8
0
10
9.25
20
42.75
11
-9.25
21
42.75
0
LINE
8
0
10
9.25
20
6.6965601
11
26.7793836
21
5.777884
0
LINE
8
0
10
26.7793836
20
5.777884
11
26.9597626
21
9.2197206
0
LINE
8
0
10
27.9063227
20
27.2811622
11
28.5588062
21
39.7312882
0
LINE
8
0
10
28.5588062
20
39.7312882
11
28.5849741
21
40.2306029
0
LINE
8
0
10
10.1103277
20
41.1988181
11
10.0841598
21
40.6995034
0
LINE
8
0
10
10.0841598
20
40.6995034
11
9.25
21
24.7827871
0
LINE
8
0
10
28.5849741
20
40.2306029
11
29.4746854
21
57.207305
0
LINE
8
0
10
29.4746854
20
57.207305
11
11.000039
21
58.1755202
0
LINE
8
0
10
11.000039
20
58.1755202
11
10.1103277
21
41.1988181
0
LINE
8
0
10
26.9597626
20
9.2197206
11
43.919782
21
7.4371507
0
LINE
8
0
10
29.6246199
20
43.6296685
11
29.5723557
21
43.1324075
0
LINE
8
0
10
29.5723557
20
43.1324075
11
27.9063227
21
27.2811622
0
LINE
8
0
10
49.1730881
20
52.6356328
11
49.8002589
21
58.6027641
0
LINE
8
0
10
49.8002589
20
58.6027641
11
31.4016038
21
60.5365407
0
LINE
8
0
10
31.4016038
20
60.5365407
11
29.6246199
21
43.6296685
0
LINE
8
0
10
43.2926112
20
1.4700194
11
61.1940053
21
-0.411493
0
LINE
8
0
10
43.919782
20
7.4371507
11
43.2926112
21
1.4700194
0
LINE
8
0
10
66.8654253
20
48.7650767
11
67.0744822
21
50.7541204
0
LINE
8
0
10
67.0744822
20
50.7541204
11
49.1730881
21
52.6356328
0
LINE
8
0
10
60.9849484
20
-2.4005367
11
79.3836035
21
-4.3343133
0
LINE
8
0
10
79.3836035
20
-4.3343133
11
81.1605874
21
12.5725589
0
LINE
8
0
10
81.1605874
20
12.5725589
11
81.2128516
21
13.0698199
0
LINE
8
0
10
61.1940053
20
-0.411493
11
60.9849484
21
-2.4005367
0
LINE
8
0
10
81.2128516
20
13.0698199
11
82.9375713
21
29.4794311
0
LINE
8
0
10
82.9375713
20
29.4794311
11
82.9898355
21
29.9766921
0
LINE
8
0
10
82.9898355
20
29.9766921
11
84.7668194
21
46.8835643
0
LINE
8
0
10
84.7668194
20
46.8835643
11
66.8654253
21
48.7650767
0
LINE
8
0
10
46.9601164
20
-21.0366331
11
65.2049149
21
-22.9542387
0
LINE
8
0
10
65.4504817
20
-22.0978457
11
67.1880196
21
-5.5662765
0
LINE
8
0
10
67.1880196
20
-5.5662765
11
48.7893645
21
-3.6324999
0
LINE
8
0
10
48.7893645
20
-3.6324999
11
46.9601164
21
-21.0366331
0
LINE
8
0
10
65.1810319
20
-23.0375287
11
82.9643733
21
-28.1368198
0
LINE
8
0
10
82.9643733
20
-28.1368198
11
82.9689648
21
-28.1208074
0
LINE
8
0
10
83.1746021
20
-27.4036649
11
87.7880271
21
-11.3147401
0
LINE
8
0
10
87.7880271
20
-11.3147401
11
70.0046857
21
-6.215449
0
LINE
8
0
10
70.0046857
20
-6.215449
11
65.4504817
21
-22.0978457
0
LINE
8
0
10
65.2049149
20
-22.9542387
11
65.1810319
21
-23.0375287
0
LINE
8
0
10
82.9689648
20
-28.1208074
11
99.4802168
21
-36.1738831
0
LINE
8
0
10
99.4802168
20
-36.1738831
11
107.1517119
21
-20.4449873
0
LINE
8
0
10
107.1517119
20
-20.4449873
11
90.524022
21
-12.3351211
0
LINE
8
0
10
90.524022
20
-12.3351211
11
83.1746021
21
-27.4036649
0
LINE
8
0
10
216.7542388
20
-8.75
11
235.2542388
21
-8.75
0
LINE
8
0
10
235.2542388
20
-8.75
11
235.2542388
21
42.75
0
LINE
8
0
10
216.7542388
20
6.6965601
11
216.7542388
21
-8.75
0
LINE
8
0
10
216.7542388
20
24.7827871
11
216.7542388
21
42.75
0
LINE
8
0
10
235.2542388
20
42.75
11
216.7542388
21
42.75
0
LINE
8
0
10
199.2248552
20
5.777884
11
216.7542388
21
6.6965601
0
LINE
8
0
10
199.0444762
20
9.2197206
11
199.2248552
21
5.777884
0
LINE
8
0
10
216.7542388
20
24.7827871
11
215.920079
21
40.6995034
0
LINE
8
0
10
215.920079
20
40.6995034
11
215.8939111
21
41.1988181
0
LINE
8
0
10
197.4192647
20
40.2306029
11
197.4454326
21
39.7312882
0
LINE
8
0
10
197.4454326
20
39.7312882
11
198.0979161
21
27.2811622
0
LINE
8
0
10
215.8939111
20
41.1988181
11
215.0041998
21
58.1755202
0
LINE
8
0
10
215.0041998
20
58.1755202
11
196.5295534
21
57.207305
0
LINE
8
0
10
196.5295534
20
57.207305
11
197.4192647
21
40.2306029
0
LINE
8
0
10
182.0844568
20
7.4371507
11
199.0444762
21
9.2197206
0
LINE
8
0
10
198.0979161
20
27.2811622
11
196.4318831
21
43.1324075
0
LINE
8
0
10
196.4318831
20
43.1324075
11
196.3796189
21
43.6296685
0
LINE
8
0
10
196.3796189
20
43.6296685
11
194.602635
21
60.5365407
0
LINE
8
0
10
194.602635
20
60.5365407
11
176.2039799
21
58.6027641
0
LINE
8
0
10
176.2039799
20
58.6027641
11
176.8311507
21
52.6356328
0
LINE
8
0
10
164.8102335
20
-0.411493
11
182.7116276
21
1.4700194
0
LINE
8
0
10
182.7116276
20
1.4700194
11
182.0844568
21
7.4371507
0
LINE
8
0
10
176.8311507
20
52.6356328
11
158.9297566
21
50.7541204
0
LINE
8
0
10
158.9297566
20
50.7541204
11
159.1388135
21
48.7650767
0
LINE
8
0
10
146.6206353
20
-4.3343133
11
165.0192904
21
-2.4005367
0
LINE
8
0
10
165.0192904
20
-2.4005367
11
164.8102335
21
-0.411493
0
LINE
8
0
10
144.7913872
20
13.0698199
11
144.8436514
21
12.5725589
0
LINE
8
0
10
144.8436514
20
12.5725589
11
146.6206353
21
-4.3343133
0
LINE
8
0
10
143.0144033
20
29.9766921
11
143.0666675
21
29.4794311
0
LINE
8
0
10
143.0666675
20
29.4794311
11
144.7913872
21
13.0698199
0
LINE
8
0
10
159.1388135
20
48.7650767
11
141.2374194
21
46.8835643
0
LINE
8
0
10
141.2374194
20
46.8835643
11
143.0144033
21
29.9766921
0
LINE
8
0
10
160.7993239
20
-22.9542387
11
179.0441224
21
-21.0366331
0
LINE
8
0
10
179.0441224
20
-21.0366331
11
177.2148743
21
-3.6324999
0
LINE
8
0
10
177.2148743
20
-3.6324999
11
158.8162192
21
-5.5662765
0
LINE
8
0
10
158.8162192
20
-5.5662765
11
160.5537571
21
-22.0978457
0
LINE
8
0
10
143.0398655
20
-28.1368198
11
160.8232069
21
-23.0375287
0
LINE
8
0
10
160.8232069
20
-23.0375287
11
160.7993239
21
-22.9542387
0
LINE
8
0
10
160.5537571
20
-22.0978457
11
155.9995531
21
-6.215449
0
LINE
8
0
10
155.9995531
20
-6.215449
11
138.2162117
21
-11.3147401
0
LINE
8
0
10
138.2162117
20
-11.3147401
11
142.8296367
21
-27.4036649
0
LINE
8
0
10
143.035274
20
-28.1208074
11
143.0398655
21
-28.1368198
0
LINE
8
0
10
126.524022
20
-36.1738831
11
143.035274
21
-28.1208074
0
LINE
8
0
10
142.8296367
20
-27.4036649
11
135.4802168
21
-12.3351211
0
LINE
8
0
10
135.4802168
20
-12.3351211
11
118.8525269
21
-20.4449873
0
LINE
8
0
10
118.8525269
20
-20.4449873
11
126.524022
21
-36.1738831
0
ENDSEC
0
EOF