0
SECTION
2
HEADER
9
$INSUNITS
70
4
0
ENDSEC
0
SECTION
2
TABLES
0
TABLE
2
LTYPE
0
LTYPE
72
65
70
64
2
CONTINUOUS
3
______
73
0
40
0
0
ENDTAB
0
TABLE
2
LAYER
0
ENDTAB
0
ENDSEC
0
SECTION
2
ENTITIES
0
LINE
8
0
10
-7.0446014
20
-10.6065353
11
10.9812448
21
-6.4449408
0
LINE
8
0
10
-0.6037344
20
43.7351175
11
10.9812448
21
-6.4449408
0
LINE
8
0
10
-18.6295806
20
39.573523
11
-7.0446014
21
-10.6065353
0
LINE
8
0
10
-0.6037344
20
43.7351175
11
-18.6295806
21
39.573523
0
LINE
8
0
10
7.7210184
20
11.1111154
11
26.0409777
21
13.6858178
0
LINE
8
0
10
26.0409777
20
13.6858178
11
23.675035
21
30.520375
0
LINE
8
0
10
23.675035
20
30.520375
11
23.6054484
21
31.015509
0
LINE
8
0
10
5.2854891
20
28.4408066
11
5.3550757
21
27.9456726
0
LINE
8
0
10
5.3550757
20
27.9456726
11
7.7210184
21
11.1111154
0
LINE
8
0
10
23.6054484
20
31.015509
11
21.3090923
21
47.3549322
0
LINE
8
0
10
21.3090923
20
47.3549322
11
21.2395057
21
47.8500662
0
LINE
8
0
10
2.9195464
20
45.2753638
11
2.989133
21
44.7802298
0
LINE
8
0
10
2.989133
20
44.7802298
11
5.2854891
21
28.4408066
0
LINE
8
0
10
21.2395057
20
47.8500662
11
18.873563
21
64.6846234
0
LINE
8
0
10
18.873563
20
64.6846234
11
0.5536037
21
62.109921
0
LINE
8
0
10
0.5536037
20
62.109921
11
2.9195464
21
45.2753638
0
LINE
8
0
10
26.2716918
20
17.5954624
11
44.7463382
21
18.5636776
0
LINE
8
0
10
44.7463382
20
18.5636776
11
43.8566269
21
35.5403797
0
LINE
8
0
10
43.8566269
20
35.5403797
11
43.830459
21
36.0396944
0
LINE
8
0
10
25.3558126
20
35.0714792
11
25.3819805
21
34.5721645
0
LINE
8
0
10
25.3819805
20
34.5721645
11
26.2716918
21
17.5954624
0
LINE
8
0
10
43.830459
20
36.0396944
11
42.9669156
21
52.5170818
0
LINE
8
0
10
42.9669156
20
52.5170818
11
42.9407477
21
53.0163965
0
LINE
8
0
10
24.4661013
20
52.0481813
11
24.4922692
21
51.5488666
0
LINE
8
0
10
24.4922692
20
51.5488666
11
25.3558126
21
35.0714792
0
LINE
8
0
10
42.9407477
20
53.0163965
11
42.0510364
21
69.9930986
0
LINE
8
0
10
42.0510364
20
69.9930986
11
23.57639
21
69.0248834
0
LINE
8
0
10
23.57639
20
69.0248834
11
24.4661013
21
52.0481813
0
LINE
8
0
10
45.0890524
20
13.0701843
11
63.0890524
21
13.0701843
0
LINE
8
0
10
45.0890524
20
13.0701843
11
45.0890524
21
64.5701843
0
LINE
8
0
10
63.5890524
20
62.5701844
11
63.5890524
21
64.5701843
0
LINE
8
0
10
63.5890524
20
64.5701843
11
45.0890524
21
64.5701843
0
LINE
8
0
10
63.0890524
20
11.0701844
11
81.5890524
21
11.0701844
0
LINE
8
0
10
81.5890524
20
11.0701844
11
81.5890524
21
62.5701844
0
LINE
8
0
10
63.0890524
20
13.0701843
11
63.0890524
21
11.0701844
0
LINE
8
0
10
81.5890524
20
62.5701844
11
63.5890524
21
62.5701844
0
LINE
8
0
10
45.0890524
20
-10.9298157
11
63.4343483
21
-10.9298157
0
LINE
8
0
10
63.5890524
20
-10.0524452
11
63.5890524
21
6.5701843
0
LINE
8
0
10
63.5890524
20
6.5701843
11
45.0890524
21
6.5701843
0
LINE
8
0
10
45.0890524
20
6.5701843
11
45.0890524
21
-10.9298157
0
LINE
8
0
10
63.4193023
20
-11.0151459
11
81.6382458
21
-14.2276372
0
LINE
8
0
10
81.6382458
20
-14.2276372
11
81.6411384
21
-14.2112325
0
LINE
8
0
10
81.7706872
20
-13.4765245
11
84.6770889
21
3.0064985
0
LINE
8
0
10
84.6770889
20
3.0064985
11
66.4581454
21
6.2189898
0
LINE
8
0
10
66.4581454
20
6.2189898
11
63.5890524
21
-10.0524452
0
LINE
8
0
10
63.4343483
20
-10.9298157
11
63.4193023
21
-11.0151459
0
LINE
8
0
10
81.6411384
20
-14.2112325
11
98.9037158
21
-20.4942969
0
LINE
8
0
10
98.9037158
20
-20.4942969
11
104.8890683
21
-4.049676
0
LINE
8
0
10
104.8890683
20
-4.049676
11
87.5047548
21
2.2776967
0
LINE
8
0
10
87.5047548
20
2.2776967
11
81.7706872
21
-13.4765245
0
ENDSEC
0
EOF