0
SECTION
2
HEADER
9
$INSUNITS
70
4
0
ENDSEC
0
SECTION
2
TABLES
0
TABLE
2
LTYPE
0
LTYPE
72
65
70
64
2
CONTINUOUS
3
______
73
0
40
0
0
ENDTAB
0
TABLE
2
LAYER
0
ENDTAB
0
ENDSEC
0
SECTION
2
ENTITIES
0
LINE
8
0
10
-9.25
20
-8.75
11
9.25
21
-8.75
0
LINE
8
0
10
9.25
20
-8.75
11
9.25
21
6.25
0
LINE
8
0
10
-9.25
20
-8.75
11
-9.25
21
42.75
0
LINE
8
0
10
8.75
20
42.75
11
-9.25
21
42.75
0
LINE
8
0
10
9.25
20
6.25
11
27.25
21
6.25
0
LINE
8
0
10
27.25
20
6.25
11
27.25
21
9.25
0
LINE
8
0
10
26.75
20
57.75
11
8.75
21
57.75
0
LINE
8
0
10
8.75
20
57.75
11
8.75
21
42.75
0
LINE
8
0
10
27.25
20
9.25
11
44.75
21
9.25
0
LINE
8
0
10
45.25
20
54.75
11
45.25
21
60.75
0
LINE
8
0
10
45.25
20
60.75
11
26.75
21
60.75
0
LINE
8
0
10
26.75
20
60.75
11
26.75
21
57.75
0
LINE
8
0
10
44.75
20
3.25
11
62.75
21
3.25
0
LINE
8
0
10
44.75
20
9.25
11
44.75
21
3.25
0
LINE
8
0
10
63.25
20
52.75
11
63.25
21
54.75
0
LINE
8
0
10
63.25
20
54.75
11
45.25
21
54.75
0
LINE
8
0
10
62.75
20
1.25
11
81.25
21
1.25
0
LINE
8
0
10
81.25
20
1.25
11
81.25
21
52.75
0
LINE
8
0
10
62.75
20
3.25
11
62.75
21
1.25
0
LINE
8
0
10
81.25
20
52.75
11
63.25
21
52.75
0
LINE
8
0
10
50.75
20
-18.75
11
69.0952959
21
-18.75
0
LINE
8
0
10
69.25
20
-17.8726295
11
69.25
21
-1.25
0
LINE
8
0
10
69.25
20
-1.25
11
50.75
21
-1.25
0
LINE
8
0
10
50.75
20
-1.25
11
50.75
21
-18.75
0
LINE
8
0
10
69.0802499
20
-18.8353302
11
87.2991934
21
-22.0478215
0
LINE
8
0
10
87.2991934
20
-22.0478215
11
87.302086
21
-22.0314168
0
LINE
8
0
10
87.4316348
20
-21.2967088
11
90.3380365
21
-4.8136858
0
LINE
8
0
10
90.3380365
20
-4.8136858
11
72.119093
21
-1.6011945
0
LINE
8
0
10
72.119093
20
-1.6011945
11
69.25
21
-17.8726295
0
LINE
8
0
10
69.0952959
20
-18.75
11
69.0802499
21
-18.8353302
0
LINE
8
0
10
87.302086
20
-22.0314168
11
102.952076
21
-27.7275474
0
LINE
8
0
10
103.8651829
20
-28.0598911
11
104.5646634
21
-28.3144812
0
LINE
8
0
10
104.5646634
20
-28.3144812
11
104.7782898
21
-27.7275474
0
LINE
8
0
10
103.8651829
20
-9.4367801
11
93.1657024
21
-5.5424876
0
LINE
8
0
10
93.1657024
20
-5.5424876
11
87.4316348
21
-21.2967088
0
LINE
8
0
10
198.4803658
20
-8.75
11
216.9803658
21
-8.75
0
LINE
8
0
10
216.9803658
20
-8.75
11
216.9803658
21
42.75
0
LINE
8
0
10
198.4803658
20
6.25
11
198.4803658
21
-8.75
0
LINE
8
0
10
216.9803658
20
42.75
11
198.9803658
21
42.75
0
LINE
8
0
10
180.4803658
20
6.25
11
198.4803658
21
6.25
0
LINE
8
0
10
180.4803658
20
9.25
11
180.4803658
21
6.25
0
LINE
8
0
10
198.9803658
20
42.75
11
198.9803658
21
57.75
0
LINE
8
0
10
198.9803658
20
57.75
11
180.9803658
21
57.75
0
LINE
8
0
10
162.9803658
20
9.25
11
180.4803658
21
9.25
0
LINE
8
0
10
180.9803658
20
57.75
11
180.9803658
21
60.75
0
LINE
8
0
10
180.9803658
20
60.75
11
162.4803658
21
60.75
0
LINE
8
0
10
162.4803658
20
60.75
11
162.4803658
21
54.75
0
LINE
8
0
10
144.9803658
20
3.25
11
162.9803658
21
3.25
0
LINE
8
0
10
162.9803658
20
3.25
11
162.9803658
21
9.25
0
LINE
8
0
10
162.4803658
20
54.75
11
144.4803658
21
54.75
0
LINE
8
0
10
144.4803658
20
54.75
11
144.4803658
21
52.75
0
LINE
8
0
10
126.4803658
20
1.25
11
144.9803658
21
1.25
0
LINE
8
0
10
144.9803658
20
1.25
11
144.9803658
21
3.25
0
LINE
8
0
10
126.4803658
20
1.25
11
126.4803658
21
52.75
0
LINE
8
0
10
144.4803658
20
52.75
11
126.4803658
21
52.75
0
LINE
8
0
10
138.6350699
20
-18.75
11
156.9803658
21
-18.75
0
LINE
8
0
10
156.9803658
20
-18.75
11
156.9803658
21
-1.25
0
LINE
8
0
10
156.9803658
20
-1.25
11
138.4803658
21
-1.25
0
LINE
8
0
10
138.4803658
20
-1.25
11
138.4803658
21
-17.8726295
0
LINE
8
0
10
120.4311724
20
-22.0478215
11
138.6501159
21
-18.8353302
0
LINE
8
0
10
138.6501159
20
-18.8353302
11
138.6350699
21
-18.75
0
LINE
8
0
10
138.4803658
20
-17.8726295
11
135.6112728
21
-1.6011945
0
LINE
8
0
10
135.6112728
20
-1.6011945
11
117.3923293
21
-4.8136858
0
LINE
8
0
10
117.3923293
20
-4.8136858
11
120.298731
21
-21.2967088
0
LINE
8
0
10
120.4282798
20
-22.0314168
11
120.4311724
21
-22.0478215
0
LINE
8
0
10
103.1657024
20
-28.3144812
11
103.8651829
21
-28.0598911
0
LINE
8
0
10
104.7782898
20
-27.7275474
11
120.4282798
21
-22.0314168
0
LINE
8
0
10
120.298731
20
-21.2967088
11
114.5646634
21
-5.5424876
0
LINE
8
0
10
114.5646634
20
-5.5424876
11
103.8651829
21
-9.4367801
0
LINE
8
0
10
102.952076
20
-27.7275474
11
103.1657024
21
-28.3144812
0
ENDSEC
0
EOF