0
SECTION
2
HEADER
9
$INSUNITS
70
4
0
ENDSEC
0
SECTION
2
TABLES
0
TABLE
2
LTYPE
0
LTYPE
72
65
70
64
2
CONTINUOUS
3
______
73
0
40
0
0
ENDTAB
0
TABLE
2
LAYER
0
ENDTAB
0
ENDSEC
0
SECTION
2
ENTITIES
0
LINE
8
0
10
-9.25
20
-8.75
11
9.25
21
-8.75
0
LINE
8
0
10
9.25
20
-8.75
11
9.25
21
6.25
0
LINE
8
0
10
-9.25
20
-8.75
11
-9.25
21
42.75
0
LINE
8
0
10
8.75
20
42.75
11
-9.25
21
42.75
0
LINE
8
0
10
9.25
20
6.25
11
27.25
21
6.25
0
LINE
8
0
10
27.25
20
6.25
11
27.25
21
9.25
0
LINE
8
0
10
26.75
20
57.75
11
8.75
21
57.75
0
LINE
8
0
10
8.75
20
57.75
11
8.75
21
42.75
0
LINE
8
0
10
27.25
20
9.25
11
44.75
21
9.25
0
LINE
8
0
10
45.25
20
54.75
11
45.25
21
60.75
0
LINE
8
0
10
45.25
20
60.75
11
26.75
21
60.75
0
LINE
8
0
10
26.75
20
60.75
11
26.75
21
57.75
0
LINE
8
0
10
44.75
20
3.25
11
62.75
21
3.25
0
LINE
8
0
10
44.75
20
9.25
11
44.75
21
3.25
0
LINE
8
0
10
63.25
20
52.75
11
63.25
21
54.75
0
LINE
8
0
10
63.25
20
54.75
11
45.25
21
54.75
0
LINE
8
0
10
62.75
20
1.25
11
81.25
21
1.25
0
LINE
8
0
10
81.25
20
1.25
11
81.25
21
52.75
0
LINE
8
0
10
62.75
20
3.25
11
62.75
21
1.25
0
LINE
8
0
10
81.25
20
52.75
11
63.25
21
52.75
0
LINE
8
0
10
50.75
20
-18.75
11
69.0952959
21
-18.75
0
LINE
8
0
10
69.25
20
-17.8726295
11
69.25
21
-1.25
0
LINE
8
0
10
69.25
20
-1.25
11
50.75
21
-1.25
0
LINE
8
0
10
50.75
20
-1.25
11
50.75
21
-18.75
0
LINE
8
0
10
69.0802499
20
-18.8353302
11
87.2991934
21
-22.0478215
0
LINE
8
0
10
87.2991934
20
-22.0478215
11
87.302086
21
-22.0314168
0
LINE
8
0
10
87.4316348
20
-21.2967088
11
90.3380365
21
-4.8136858
0
LINE
8
0
10
90.3380365
20
-4.8136858
11
72.119093
21
-1.6011945
0
LINE
8
0
10
72.119093
20
-1.6011945
11
69.25
21
-17.8726295
0
LINE
8
0
10
69.0952959
20
-18.75
11
69.0802499
21
-18.8353302
0
LINE
8
0
10
87.302086
20
-22.0314168
11
104.5646634
21
-28.3144812
0
LINE
8
0
10
104.5646634
20
-28.3144812
11
110.5500159
21
-11.8698603
0
LINE
8
0
10
110.5500159
20
-11.8698603
11
93.1657024
21
-5.5424876
0
LINE
8
0
10
93.1657024
20
-5.5424876
11
87.4316348
21
-21.2967088
0
ENDSEC
0
EOF