0
SECTION
2
HEADER
9
$INSUNITS
70
4
0
ENDSEC
0
SECTION
2
TABLES
0
TABLE
2
LTYPE
0
LTYPE
72
65
70
64
2
CONTINUOUS
3
______
73
0
40
0
0
ENDTAB
0
TABLE
2
LAYER
0
ENDTAB
0
ENDSEC
0
SECTION
2
ENTITIES
0
LINE
8
0
10
-9.25
20
-8.75
11
9.25
21
-8.75
0
LINE
8
0
10
9.25
20
-8.75
11
9.25
21
6.722764
0
LINE
8
0
10
-9.25
20
-8.75
11
-9.25
21
42.75
0
LINE
8
0
10
9.25
20
15.2422198
11
9.25
21
42.75
0
LINE
8
0
10
9.25
20
42.75
11
-9.25
21
42.75
0
LINE
8
0
10
9.25
20
6.722764
11
27.2793836
21
5.777884
0
LINE
8
0
10
27.2793836
20
5.777884
11
27.461134
21
9.2458886
0
LINE
8
0
10
27.9070079
20
17.7536694
11
28.1690949
21
22.7545861
0
LINE
8
0
10
28.1690949
20
22.7545861
11
28.1952628
21
23.2539008
0
LINE
8
0
10
9.7206164
20
24.222116
11
9.6944485
21
23.7228013
0
LINE
8
0
10
9.6944485
20
23.7228013
11
9.25
21
15.2422198
0
LINE
8
0
10
28.1952628
20
23.2539008
11
29.0588062
21
39.7312882
0
LINE
8
0
10
29.0588062
20
39.7312882
11
29.0849741
21
40.2306029
0
LINE
8
0
10
10.6103277
20
41.1988181
11
10.5841598
21
40.6995034
0
LINE
8
0
10
10.5841598
20
40.6995034
11
9.7206164
21
24.222116
0
LINE
8
0
10
29.0849741
20
40.2306029
11
29.9746854
21
57.207305
0
LINE
8
0
10
29.9746854
20
57.207305
11
11.500039
21
58.1755202
0
LINE
8
0
10
11.500039
20
58.1755202
11
10.6103277
21
41.1988181
0
LINE
8
0
10
27.461134
20
9.2458886
11
44.9190968
21
7.4109827
0
LINE
8
0
10
28.8469508
20
26.6966283
11
28.7946866
21
26.1993673
0
LINE
8
0
10
28.7946866
20
26.1993673
11
27.9070079
21
17.7536694
0
LINE
8
0
10
30.6239347
20
43.6035005
11
30.5716705
21
43.1062395
0
LINE
8
0
10
30.5716705
20
43.1062395
11
28.8469508
21
26.6966283
0
LINE
8
0
10
50.1724029
20
52.6094648
11
50.7995737
21
58.5765961
0
LINE
8
0
10
50.7995737
20
58.5765961
11
32.4009186
21
60.5103727
0
LINE
8
0
10
32.4009186
20
60.5103727
11
30.6239347
21
43.6035005
0
LINE
8
0
10
44.291926
20
1.4438514
11
62.1933201
21
-0.437661
0
LINE
8
0
10
44.9190968
20
7.4109827
11
44.291926
21
1.4438514
0
LINE
8
0
10
67.8647401
20
48.7389087
11
68.073797
21
50.7279524
0
LINE
8
0
10
68.073797
20
50.7279524
11
50.1724029
21
52.6094648
0
LINE
8
0
10
61.9842632
20
-2.4267047
11
80.3829183
21
-4.3604813
0
LINE
8
0
10
80.3829183
20
-4.3604813
11
82.1599022
21
12.5463909
0
LINE
8
0
10
82.1599022
20
12.5463909
11
82.2121664
21
13.0436519
0
LINE
8
0
10
62.1933201
20
-0.437661
11
61.9842632
21
-2.4267047
0
LINE
8
0
10
82.2121664
20
13.0436519
11
83.9368861
21
29.4532631
0
LINE
8
0
10
83.9368861
20
29.4532631
11
83.9891503
21
29.9505241
0
LINE
8
0
10
83.9891503
20
29.9505241
11
85.7661342
21
46.8573963
0
LINE
8
0
10
85.7661342
20
46.8573963
11
67.8647401
21
48.7389087
0
LINE
8
0
10
47.9594312
20
-21.0628011
11
66.2042297
21
-22.9804067
0
LINE
8
0
10
66.4497965
20
-22.1240137
11
68.1873344
21
-5.5924445
0
LINE
8
0
10
68.1873344
20
-5.5924445
11
49.7886793
21
-3.6586679
0
LINE
8
0
10
49.7886793
20
-3.6586679
11
47.9594312
21
-21.0628011
0
LINE
8
0
10
66.1803467
20
-23.0636967
11
83.9636881
21
-28.1629878
0
LINE
8
0
10
83.9636881
20
-28.1629878
11
83.9682796
21
-28.1469754
0
LINE
8
0
10
84.1739169
20
-27.4298329
11
88.7873419
21
-11.3409081
0
LINE
8
0
10
88.7873419
20
-11.3409081
11
71.0040005
21
-6.241617
0
LINE
8
0
10
71.0040005
20
-6.241617
11
66.4497965
21
-22.1240137
0
LINE
8
0
10
66.2042297
20
-22.9804067
11
66.1803467
21
-23.0636967
0
LINE
8
0
10
83.9682796
20
-28.1469754
11
100.4795316
21
-36.2000511
0
LINE
8
0
10
100.4795316
20
-36.2000511
11
108.1510267
21
-20.4711553
0
LINE
8
0
10
108.1510267
20
-20.4711553
11
91.5233368
21
-12.3612891
0
LINE
8
0
10
91.5233368
20
-12.3612891
11
84.1739169
21
-27.4298329
0
LINE
8
0
10
218.7528684
20
-8.75
11
237.2528684
21
-8.75
0
LINE
8
0
10
237.2528684
20
-8.75
11
237.2528684
21
42.75
0
LINE
8
0
10
218.7528684
20
6.722764
11
218.7528684
21
-8.75
0
LINE
8
0
10
218.7528684
20
15.2422198
11
218.7528684
21
42.75
0
LINE
8
0
10
237.2528684
20
42.75
11
218.7528684
21
42.75
0
LINE
8
0
10
200.7234848
20
5.777884
11
218.7528684
21
6.722764
0
LINE
8
0
10
218.7528684
20
15.2422198
11
218.3084199
21
23.7228013
0
LINE
8
0
10
218.3084199
20
23.7228013
11
218.282252
21
24.222116
0
LINE
8
0
10
199.8076056
20
23.2539008
11
199.8337735
21
22.7545861
0
LINE
8
0
10
199.8337735
20
22.7545861
11
200.0958605
21
17.7536694
0
LINE
8
0
10
200.5417344
20
9.2458886
11
200.7234848
21
5.777884
0
LINE
8
0
10
218.282252
20
24.222116
11
217.4187086
21
40.6995034
0
LINE
8
0
10
217.4187086
20
40.6995034
11
217.3925407
21
41.1988181
0
LINE
8
0
10
198.9178943
20
40.2306029
11
198.9440622
21
39.7312882
0
LINE
8
0
10
198.9440622
20
39.7312882
11
199.8076056
21
23.2539008
0
LINE
8
0
10
217.3925407
20
41.1988181
11
216.5028294
21
58.1755202
0
LINE
8
0
10
216.5028294
20
58.1755202
11
198.028183
21
57.207305
0
LINE
8
0
10
198.028183
20
57.207305
11
198.9178943
21
40.2306029
0
LINE
8
0
10
183.0837716
20
7.4109827
11
200.5417344
21
9.2458886
0
LINE
8
0
10
200.0958605
20
17.7536694
11
199.2081818
21
26.1993673
0
LINE
8
0
10
199.2081818
20
26.1993673
11
199.1559176
21
26.6966283
0
LINE
8
0
10
199.1559176
20
26.6966283
11
197.4311979
21
43.1062395
0
LINE
8
0
10
197.4311979
20
43.1062395
11
197.3789337
21
43.6035005
0
LINE
8
0
10
197.3789337
20
43.6035005
11
195.6019498
21
60.5103727
0
LINE
8
0
10
195.6019498
20
60.5103727
11
177.2032947
21
58.5765961
0
LINE
8
0
10
177.2032947
20
58.5765961
11
177.8304655
21
52.6094648
0
LINE
8
0
10
165.8095483
20
-0.437661
11
183.7109424
21
1.4438514
0
LINE
8
0
10
183.7109424
20
1.4438514
11
183.0837716
21
7.4109827
0
LINE
8
0
10
177.8304655
20
52.6094648
11
159.9290714
21
50.7279524
0
LINE
8
0
10
159.9290714
20
50.7279524
11
160.1381283
21
48.7389087
0
LINE
8
0
10
147.6199501
20
-4.3604813
11
166.0186052
21
-2.4267047
0
LINE
8
0
10
166.0186052
20
-2.4267047
11
165.8095483
21
-0.437661
0
LINE
8
0
10
145.790702
20
13.0436519
11
145.8429662
21
12.5463909
0
LINE
8
0
10
145.8429662
20
12.5463909
11
147.6199501
21
-4.3604813
0
LINE
8
0
10
144.0137181
20
29.9505241
11
144.0659823
21
29.4532631
0
LINE
8
0
10
144.0659823
20
29.4532631
11
145.790702
21
13.0436519
0
LINE
8
0
10
160.1381283
20
48.7389087
11
142.2367342
21
46.8573963
0
LINE
8
0
10
142.2367342
20
46.8573963
11
144.0137181
21
29.9505241
0
LINE
8
0
10
161.7986387
20
-22.9804067
11
180.0434372
21
-21.0628011
0
LINE
8
0
10
180.0434372
20
-21.0628011
11
178.2141891
21
-3.6586679
0
LINE
8
0
10
178.2141891
20
-3.6586679
11
159.815534
21
-5.5924445
0
LINE
8
0
10
159.815534
20
-5.5924445
11
161.5530719
21
-22.1240137
0
LINE
8
0
10
144.0391803
20
-28.1629878
11
161.8225217
21
-23.0636967
0
LINE
8
0
10
161.8225217
20
-23.0636967
11
161.7986387
21
-22.9804067
0
LINE
8
0
10
161.5530719
20
-22.1240137
11
156.9988679
21
-6.241617
0
LINE
8
0
10
156.9988679
20
-6.241617
11
139.2155265
21
-11.3409081
0
LINE
8
0
10
139.2155265
20
-11.3409081
11
143.8289515
21
-27.4298329
0
LINE
8
0
10
144.0345888
20
-28.1469754
11
144.0391803
21
-28.1629878
0
LINE
8
0
10
127.5233368
20
-36.2000511
11
144.0345888
21
-28.1469754
0
LINE
8
0
10
143.8289515
20
-27.4298329
11
136.4795316
21
-12.3612891
0
LINE
8
0
10
136.4795316
20
-12.3612891
11
119.8518417
21
-20.4711553
0
LINE
8
0
10
119.8518417
20
-20.4711553
11
127.5233368
21
-36.2000511
0
ENDSEC
0
EOF