0
SECTION
2
HEADER
9
$INSUNITS
70
4
0
ENDSEC
0
SECTION
2
TABLES
0
TABLE
2
LTYPE
0
LTYPE
72
65
70
64
2
CONTINUOUS
3
______
73
0
40
0
0
ENDTAB
0
TABLE
2
LAYER
0
ENDTAB
0
ENDSEC
0
SECTION
2
ENTITIES
0
LINE
8
0
10
-9
20
-9.5
11
9
21
-9.5
0
ARC
8
0
10
9
20
-8.5
40
1
50
270
51
360
0
LINE
8
0
10
10
20
-8.5
11
10
21
5.9324289
0
LINE
8
0
10
10
20
5.9324289
11
26.9904742
21
5.0419958
0
ARC
8
0
10
27.0428102
20
6.0406253
40
1
50
266.9999997
51
356.9999974
0
LINE
8
0
10
28.0414397
20
5.9882893
11
28.1687432
21
8.4173847
0
LINE
8
0
10
28.1687432
20
8.4173847
11
44.094809
21
6.7434877
0
LINE
8
0
10
44.094809
20
6.7434877
11
43.5721667
21
1.7708783
0
ARC
8
0
10
44.5666886
20
1.6663498
40
1
50
173.9999979
51
263.9999998
0
LINE
8
0
10
44.4621601
20
0.6718279
11
47.4457258
21
0.3582425
0
LINE
8
0
10
84.7193625
20
29.7229495
11
86.4858935
21
46.5303694
0
ARC
8
0
10
85.4913716
20
46.6348979
40
1
50
353.9999999
51
443.9999979
0
LINE
8
0
10
85.5959001
20
47.6294198
11
68.6890279
21
49.4064037
0
LINE
8
0
10
68.6890279
20
49.4064037
11
68.7935563
21
50.4009255
0
ARC
8
0
10
67.7990344
20
50.505454
40
1
50
354.0000005
51
443.9999979
0
LINE
8
0
10
67.9035629
20
51.4999759
11
50.9966907
21
53.2769598
0
LINE
8
0
10
50.9966907
20
53.2769598
11
51.519333
21
58.2495692
0
ARC
8
0
10
50.5248111
20
58.3540977
40
1
50
353.9999997
51
443.9999979
0
LINE
8
0
10
50.6293396
20
59.3486196
11
32.7279455
21
61.230132
0
ARC
8
0
10
32.623417
20
60.2356101
40
1
50
83.9999998
51
173.9999979
0
LINE
8
0
10
31.6288951
20
60.3401386
11
31.3708668
21
57.8851636
0
LINE
8
0
10
11.7889484
20
58.9114084
11
31.3708668
21
57.8851636
0
ARC
8
0
10
11.7366124
20
57.9127789
40
1
50
86.9999997
51
176.9999974
0
LINE
8
0
10
10.7379829
20
57.9651149
11
9.94468
21
42.8279934
0
ARC
8
0
10
9
20
42.5
40
1
50
19.1470285
51
90
0
LINE
8
0
10
9
20
43.5
11
-9
21
43.5
0
ARC
8
0
10
-9
20
42.5
40
1
50
90
51
180
0
LINE
8
0
10
-10
20
-8.5
11
-10
21
42.5
0
ARC
8
0
10
-9
20
-8.5
40
1
50
180
51
270
0
LINE
8
0
10
46.1406215
20
-21.6257677
11
63.9782471
21
-23.5005778
0
ARC
8
0
10
64.3919585
20
-22.5901697
40
1
50
245.561807
51
251
0
LINE
8
0
10
64.0663903
20
-23.5356883
11
80.6496044
21
-29.2457468
0
ARC
8
0
10
81.4976244
20
-28.7157826
40
1
50
212.0030365
51
237.9999998
0
LINE
8
0
10
80.9677051
20
-29.5638307
11
96.2325708
21
-39.1023775
0
ARC
8
0
10
96.7624901
20
-38.2543294
40
1
50
237.9999998
51
327.9999984
0
LINE
8
0
10
97.6105382
20
-38.7842487
11
106.6191657
21
-24.3674311
0
ARC
8
0
10
105.7711176
20
-23.8375118
40
1
50
327.9999999
51
417.9999984
0
LINE
8
0
10
106.3010369
20
-22.9894637
11
101.8915017
21
-20.2340803
0
LINE
8
0
10
45.2506281
20
-20.5267173
11
47.4457258
21
0.3582425
0
ARC
8
0
10
46.24515
20
-20.6312458
40
1
50
173.9999979
51
263.9999998
0
LINE
8
0
10
84.7193625
20
29.7229495
11
106.8972007
21
27.3919648
0
LINE
8
0
10
101.8915017
20
-20.2340803
11
106.8972007
21
27.3919648
0
LINE
8
0
10
14.641253
20
1.44151
11
13.5953841
21
-10.5128264
0
LINE
8
0
10
13.5953841
20
-10.5128264
11
43.481225
21
-13.1274987
0
LINE
8
0
10
43.481225
20
-13.1274987
11
44.527094
21
-1.1731623
0
LINE
8
0
10
44.527094
20
-1.1731623
11
14.641253
21
1.44151
0
ENDSEC
0
EOF