0
SECTION
2
HEADER
9
$INSUNITS
70
4
0
ENDSEC
0
SECTION
2
TABLES
0
TABLE
2
LTYPE
0
LTYPE
72
65
70
64
2
CONTINUOUS
3
______
73
0
40
0
0
ENDTAB
0
TABLE
2
LAYER
0
ENDTAB
0
ENDSEC
0
SECTION
2
ENTITIES
0
LINE
8
0
10
-7.9576766
20
-10.3887142
11
9.9437175
21
-8.5072018
0
ARC
8
0
10
9.839189
20
-7.5126799
40
1
50
276.0000002
51
366.0000021
0
LINE
8
0
10
10.8337109
20
-7.4081514
11
9.3251113
21
6.945215
0
LINE
8
0
10
9.3251113
20
6.945215
11
26.3155855
21
7.8356481
0
ARC
8
0
10
26.2632495
20
8.8342776
40
1
50
273.0000003
51
363.0000026
0
LINE
8
0
10
27.261879
20
8.8866136
11
27.1345755
21
11.3157088
0
LINE
8
0
10
27.1345755
20
11.3157088
11
43.1483667
21
11.3157088
0
LINE
8
0
10
43.1483667
20
11.3157088
11
43.1483666
21
6.3157088
0
ARC
8
0
10
44.1483666
20
6.3157088
40
1
50
180
51
270
0
LINE
8
0
10
44.1483666
20
5.3157088
11
47.1483666
21
5.3157088
0
LINE
8
0
10
81.1483666
20
38.4157089
11
81.1483666
21
55.3157089
0
ARC
8
0
10
80.1483666
20
55.3157089
40
1
50
0
51
90
0
LINE
8
0
10
80.1483666
20
56.3157089
11
63.1483666
21
56.3157089
0
LINE
8
0
10
63.1483666
20
56.3157089
11
63.1483666
21
57.3157088
0
ARC
8
0
10
62.1483666
20
57.3157088
40
1
50
0
51
90
0
LINE
8
0
10
62.1483666
20
58.3157088
11
45.1483666
21
58.3157088
0
LINE
8
0
10
45.1483666
20
58.3157088
11
45.1483667
21
63.3157088
0
ARC
8
0
10
44.1483667
20
63.3157088
40
1
50
359.999999
51
450
0
LINE
8
0
10
44.1483667
20
64.3157088
11
26.1483667
21
64.3157088
0
ARC
8
0
10
26.1483667
20
63.3157088
40
1
50
90
51
180
0
LINE
8
0
10
25.1483667
20
63.3157088
11
25.1483667
21
60.847211
0
LINE
8
0
10
5.5664481
20
59.8209661
11
25.1483667
21
60.847211
0
ARC
8
0
10
5.6187841
20
58.8223366
40
1
50
93.0000003
51
183.0000026
0
LINE
8
0
10
4.6201546
20
58.7700006
11
5.4134575
21
43.6328795
0
ARC
8
0
10
4.5082373
20
43.2079367
40
1
50
25.147043
51
96.0000021
0
LINE
8
0
10
4.4037088
20
44.2024586
11
-13.4976853
21
42.3209462
0
ARC
8
0
10
-13.3931568
20
41.3264243
40
1
50
96.0000002
51
186.0000021
0
LINE
8
0
10
-14.3876787
20
41.2218958
11
-9.056727
21
-9.4987208
0
ARC
8
0
10
-8.0622051
20
-9.3941923
40
1
50
186.0000021
51
276.0000002
0
LINE
8
0
10
48.1483666
20
-16.6842912
11
66.0842466
21
-16.6842912
0
ARC
8
0
10
66.4005284
20
-15.7356259
40
1
50
251.561788
51
257.0000002
0
LINE
8
0
10
66.1755773
20
-16.709996
11
83.2648105
21
-20.6553563
0
ARC
8
0
10
84.0527886
20
-20.0396531
40
1
50
218.0030357
51
244.0000002
0
LINE
8
0
10
83.6148195
20
-20.9386431
11
99.7923084
21
-28.8289316
0
ARC
8
0
10
100.2310815
20
-27.9303337
40
1
50
244.0000002
51
334.0000012
0
LINE
8
0
10
101.1300715
20
-28.3683028
11
108.5819889
21
-13.089608
0
ARC
8
0
10
107.683391
20
-12.6508349
40
1
50
334
51
424.0000012
0
LINE
8
0
10
108.1213601
20
-11.7518449
11
103.4483666
21
-9.4726737
0
LINE
8
0
10
47.1483666
20
-15.6842912
11
47.1483666
21
5.3157088
0
ARC
8
0
10
48.1483666
20
-15.6842912
40
1
50
180
51
270
0
LINE
8
0
10
81.1483666
20
38.4157089
11
103.4483666
21
38.4157089
0
LINE
8
0
10
103.4483666
20
-9.4726737
11
103.4483666
21
38.4157089
0
ENDSEC
0
EOF