0
SECTION
2
HEADER
9
$INSUNITS
70
4
0
ENDSEC
0
SECTION
2
TABLES
0
TABLE
2
LTYPE
0
LTYPE
72
65
70
64
2
CONTINUOUS
3
______
73
0
40
0
0
ENDTAB
0
TABLE
2
LAYER
0
ENDTAB
0
ENDSEC
0
SECTION
2
ENTITIES
0
LINE
8
0
10
81.1483666
20
37.9157089
11
81.1483666
21
55.3157089
0
ARC
8
0
10
80.1483666
20
55.3157089
40
1
50
0
51
90
0
LINE
8
0
10
80.1483666
20
56.3157089
11
63.1483666
21
56.3157089
0
LINE
8
0
10
63.1483666
20
56.3157089
11
63.1483666
21
57.3157088
0
ARC
8
0
10
62.1483666
20
57.3157088
40
1
50
0
51
90
0
LINE
8
0
10
62.1483666
20
58.3157088
11
45.1483666
21
58.3157088
0
LINE
8
0
10
45.1483666
20
58.3157088
11
45.1483667
21
63.3157088
0
ARC
8
0
10
44.1483667
20
63.3157088
40
1
50
359.999999
51
450
0
LINE
8
0
10
44.1483667
20
64.3157088
11
26.1483667
21
64.3157088
0
ARC
8
0
10
26.1483667
20
63.3157088
40
1
50
90
51
180
0
LINE
8
0
10
25.1483667
20
63.3157088
11
25.1483667
21
60.847211
0
LINE
8
0
10
5.5664481
20
59.8209661
11
25.1483667
21
60.847211
0
ARC
8
0
10
5.6187841
20
58.8223366
40
1
50
93.0000003
51
183.0000026
0
LINE
8
0
10
4.6201546
20
58.7700006
11
5.4134575
21
43.6328795
0
ARC
8
0
10
4.5082373
20
43.2079367
40
1
50
25.147043
51
96.0000021
0
LINE
8
0
10
4.4037088
20
44.2024586
11
-13.4976853
21
42.3209462
0
ARC
8
0
10
-13.3931568
20
41.3264243
40
1
50
96.0000002
51
186.0000021
0
LINE
8
0
10
-14.3876787
20
41.2218958
11
-8.1682351
21
-17.9521569
0
LINE
8
0
10
-7.8516334
20
-18.6842912
11
66.0842466
21
-18.6842912
0
ARC
8
0
10
66.4005284
20
-17.7356259
40
1
50
251.561788
51
257.0000002
0
LINE
8
0
10
66.1755773
20
-18.709996
11
83.2648105
21
-22.6553563
0
ARC
8
0
10
84.0527886
20
-22.0396531
40
1
50
218.0030357
51
244.0000002
0
LINE
8
0
10
83.6148195
20
-22.9386431
11
99.7923084
21
-30.8289316
0
ARC
8
0
10
100.2310815
20
-29.9303337
40
1
50
244.0000002
51
334.0000012
0
LINE
8
0
10
101.1300715
20
-30.3683028
11
108.5819889
21
-15.089608
0
ARC
8
0
10
107.683391
20
-14.6508349
40
1
50
334
51
424.0000012
0
LINE
8
0
10
108.1213601
20
-13.7518449
11
102.4483666
21
-10.9849411
0
LINE
8
0
10
81.1483666
20
37.9157089
11
102.4483666
21
37.9157089
0
LINE
8
0
10
102.4483666
20
-10.9849411
11
102.4483666
21
37.9157089
0
LINE
8
0
10
-7.8516334
20
-18.6842912
11
-8.1682351
21
-17.9521569
0
LINE
8
0
10
-2.8516333
20
58.3157088
11
-2.8516333
21
60.3157088
0
LINE
8
0
10
-2.8516333
20
60.3157088
11
2.1483667
21
60.3157088
0
LINE
8
0
10
2.1483667
20
60.3157088
11
2.1483667
21
58.3157088
0
LINE
8
0
10
2.1483667
20
58.3157088
11
-2.8516333
21
58.3157088
0
LINE
8
0
10
65.1483667
20
58.3157088
11
65.1483667
21
60.3157088
0
LINE
8
0
10
65.1483667
20
60.3157088
11
70.1483667
21
60.3157088
0
LINE
8
0
10
70.1483667
20
60.3157088
11
70.1483667
21
58.3157088
0
LINE
8
0
10
70.1483667
20
58.3157088
11
65.1483667
21
58.3157088
0
ENDSEC
0
EOF