0
SECTION
2
HEADER
9
$INSUNITS
70
4
0
ENDSEC
0
SECTION
2
TABLES
0
TABLE
2
LTYPE
0
LTYPE
72
65
70
64
2
CONTINUOUS
3
______
73
0
40
0
0
ENDTAB
0
TABLE
2
LAYER
0
ENDTAB
0
ENDSEC
0
SECTION
2
ENTITIES
0
LINE
8
0
10
-9
20
-9.5
11
9
21
-9.5
0
ARC
8
0
10
9
20
-8.5
40
1
50
270
51
360
0
LINE
8
0
10
10
20
-8.5
11
10
21
5.9324289
0
LINE
8
0
10
10
20
5.9324289
11
26.9904742
21
5.0419958
0
ARC
8
0
10
27.0428102
20
6.0406253
40
1
50
266.9999997
51
356.9999974
0
LINE
8
0
10
28.0414397
20
5.9882893
11
28.1687432
21
8.4173847
0
LINE
8
0
10
28.1687432
20
8.4173847
11
44.094809
21
6.7434877
0
LINE
8
0
10
44.094809
20
6.7434877
11
43.5721667
21
1.7708783
0
ARC
8
0
10
44.5666886
20
1.6663498
40
1
50
173.9999979
51
263.9999998
0
LINE
8
0
10
44.4621601
20
0.6718279
11
61.3690323
21
-1.1051561
0
LINE
8
0
10
61.3690323
20
-1.1051561
11
61.2645039
21
-2.0996778
0
ARC
8
0
10
62.2590258
20
-2.2042063
40
1
50
173.9999979
51
263.9999998
0
LINE
8
0
10
62.1544973
20
-3.1987282
11
80.0558914
21
-5.0802406
0
ARC
8
0
10
80.1604199
20
-4.0857187
40
1
50
263.9999998
51
353.9999979
0
LINE
8
0
10
81.1549418
20
-4.1902472
11
86.4858935
21
46.5303694
0
ARC
8
0
10
85.4913716
20
46.6348979
40
1
50
353.9999999
51
443.9999979
0
LINE
8
0
10
85.5959001
20
47.6294198
11
68.6890279
21
49.4064037
0
LINE
8
0
10
68.6890279
20
49.4064037
11
68.7935563
21
50.4009255
0
ARC
8
0
10
67.7990344
20
50.505454
40
1
50
354.0000005
51
443.9999979
0
LINE
8
0
10
67.9035629
20
51.4999759
11
50.9966907
21
53.2769598
0
LINE
8
0
10
50.9966907
20
53.2769598
11
51.519333
21
58.2495692
0
ARC
8
0
10
50.5248111
20
58.3540977
40
1
50
353.9999997
51
443.9999979
0
LINE
8
0
10
50.6293396
20
59.3486196
11
32.7279455
21
61.230132
0
ARC
8
0
10
32.623417
20
60.2356101
40
1
50
83.9999998
51
173.9999979
0
LINE
8
0
10
31.6288951
20
60.3401386
11
30.1549522
21
46.3165085
0
LINE
8
0
10
30.1549522
20
46.3165085
11
30.7105735
21
56.9183956
0
ARC
8
0
10
29.711944
20
56.9707316
40
1
50
357.0000002
51
446.9999974
0
LINE
8
0
10
29.76428
20
57.9693611
11
11.7889484
21
58.9114084
0
ARC
8
0
10
11.7366124
20
57.9127789
40
1
50
86.9999997
51
176.9999974
0
LINE
8
0
10
10.7379829
20
57.9651149
11
9.94468
21
42.8279934
0
ARC
8
0
10
9
20
42.5
40
1
50
19.1470285
51
90
0
LINE
8
0
10
9
20
43.5
11
-9
21
43.5
0
ARC
8
0
10
-9
20
42.5
40
1
50
90
51
180
0
LINE
8
0
10
-10
20
-8.5
11
-10
21
42.5
0
ARC
8
0
10
-9
20
-8.5
40
1
50
180
51
270
0
ENDSEC
0
EOF