0
SECTION
2
HEADER
9
$INSUNITS
70
4
0
ENDSEC
0
SECTION
2
TABLES
0
TABLE
2
LTYPE
0
LTYPE
72
65
70
64
2
CONTINUOUS
3
______
73
0
40
0
0
ENDTAB
0
TABLE
2
LAYER
0
ENDTAB
0
ENDSEC
0
SECTION
2
ENTITIES
0
LINE
8
0
10
45.1483666
20
60.8157088
11
45.1483667
21
63.3157088
0
ARC
8
0
10
44.1483667
20
63.3157088
40
1
50
359.999999
51
450
0
LINE
8
0
10
44.1483667
20
64.3157088
11
26.1483667
21
64.3157088
0
ARC
8
0
10
26.1483667
20
63.3157088
40
1
50
90
51
180
0
LINE
8
0
10
25.1483667
20
63.3157088
11
25.1483667
21
60.847211
0
LINE
8
0
10
-9.8516333
20
42.7041617
11
-13.4976853
21
42.3209462
0
ARC
8
0
10
-13.3931568
20
41.3264243
40
1
50
96.0000002
51
186.0000021
0
LINE
8
0
10
-14.3876787
20
41.2218958
11
-8.1682351
21
-17.9521569
0
LINE
8
0
10
-7.8516334
20
-18.6842912
11
66.0842466
21
-18.6842912
0
ARC
8
0
10
66.4005284
20
-17.7356259
40
1
50
251.561788
51
257.0000002
0
LINE
8
0
10
66.1755773
20
-18.709996
11
83.2648105
21
-22.6553563
0
ARC
8
0
10
84.0527886
20
-22.0396531
40
1
50
218.0030357
51
244.0000002
0
LINE
8
0
10
83.6148195
20
-22.9386431
11
99.7923084
21
-30.8289316
0
ARC
8
0
10
100.2310815
20
-29.9303337
40
1
50
244.0000002
51
334.0000012
0
LINE
8
0
10
101.1300715
20
-30.3683028
11
108.5819889
21
-15.089608
0
ARC
8
0
10
107.683391
20
-14.6508349
40
1
50
334
51
424.0000012
0
LINE
8
0
10
108.1213601
20
-13.7518449
11
102.4483666
21
-10.9849411
0
LINE
8
0
10
24.5472679
20
60.8157088
11
25.1483667
21
60.847211
0
LINE
8
0
10
84.1483667
20
37.9157089
11
101.4483666
21
37.9157089
0
LINE
8
0
10
102.4483666
20
-10.9849411
11
102.4483666
21
36.9157089
0
ARC
8
0
10
101.4483666
20
36.9157089
40
1
50
0
51
90
0
LINE
8
0
10
-7.8516334
20
-18.6842912
11
-8.1682351
21
-17.9521569
0
LINE
8
0
10
-9.8516333
20
42.7041617
11
-9.8516333
21
59.8157088
0
LINE
8
0
10
-8.8516333
20
60.8157088
11
24.5472679
21
60.8157088
0
LINE
8
0
10
45.1483666
20
60.8157088
11
83.1483667
21
60.8157088
0
LINE
8
0
10
84.1483667
20
59.8157088
11
84.1483667
21
37.9157089
0
ARC
8
0
10
-8.8516333
20
59.8157088
40
1
50
90
51
180
0
ARC
8
0
10
83.1483667
20
59.8157088
40
1
50
0
51
90
0
LINE
8
0
10
-8.0622051
20
-9.3941923
11
9.839189
21
-7.5126799
0
LINE
8
0
10
4.5082373
20
43.2079367
11
9.839189
21
-7.5126799
0
LINE
8
0
10
-13.3931568
20
41.3264243
11
-8.0622051
21
-9.3941923
0
LINE
8
0
10
4.5082373
20
43.2079367
11
-13.3931568
21
41.3264243
0
LINE
8
0
10
8.2879179
20
7.8922303
11
26.2632495
21
8.8342776
0
LINE
8
0
10
26.2632495
20
8.8342776
11
25.3735383
21
25.8109797
0
LINE
8
0
10
7.3982067
20
24.8689324
11
8.2879179
21
7.8922303
0
LINE
8
0
10
25.3735382
20
25.8109797
11
24.483827
21
42.7876818
0
LINE
8
0
10
6.5084954
20
41.8456345
11
7.3982066
21
24.8689324
0
LINE
8
0
10
24.4838269
20
42.7876818
11
23.5941157
21
59.7643839
0
LINE
8
0
10
23.5941157
20
59.7643839
11
5.6187841
21
58.8223366
0
LINE
8
0
10
5.6187841
20
58.8223366
11
6.5084953
21
41.8456345
0
LINE
8
0
10
26.1483667
20
12.3157088
11
44.1483667
21
12.3157088
0
LINE
8
0
10
26.1483667
20
12.3157088
11
26.1483667
21
63.3157088
0
LINE
8
0
10
44.1483666
20
57.3157088
11
44.1483667
21
63.3157088
0
LINE
8
0
10
44.1483667
20
63.3157088
11
26.1483667
21
63.3157088
0
LINE
8
0
10
44.1483666
20
6.3157088
11
62.1483666
21
6.3157088
0
LINE
8
0
10
44.1483667
20
12.3157088
11
44.1483666
21
6.3157088
0
LINE
8
0
10
62.1483666
20
55.3157089
11
62.1483666
21
57.3157088
0
LINE
8
0
10
62.1483666
20
57.3157088
11
44.1483666
21
57.3157088
0
LINE
8
0
10
62.1483666
20
4.3157089
11
80.1483666
21
4.3157089
0
LINE
8
0
10
80.1483666
20
4.3157089
11
80.1483666
21
55.3157089
0
LINE
8
0
10
62.1483666
20
6.3157088
11
62.1483666
21
4.3157089
0
LINE
8
0
10
80.1483666
20
55.3157089
11
62.1483666
21
55.3157089
0
LINE
8
0
10
48.1483666
20
-17.6842912
11
66.1483666
21
-17.6842912
0
LINE
8
0
10
66.1483666
20
-17.6842912
11
66.1483666
21
-0.6842912
0
LINE
8
0
10
66.1483666
20
-0.6842912
11
48.1483666
21
-0.6842912
0
LINE
8
0
10
48.1483666
20
-0.6842912
11
48.1483666
21
-17.6842912
0
LINE
8
0
10
66.4005284
20
-17.7356259
11
83.9391895
21
-21.7847448
0
LINE
8
0
10
83.9391895
20
-21.7847448
11
87.7633574
21
-5.2204537
0
LINE
8
0
10
87.7633574
20
-5.2204537
11
70.2246963
21
-1.1713348
0
LINE
8
0
10
70.2246963
20
-1.1713348
11
66.4005284
21
-17.7356259
0
LINE
8
0
10
84.0527886
20
-22.0396531
11
100.2310815
21
-29.9303337
0
LINE
8
0
10
100.2310815
20
-29.9303337
11
107.683391
21
-14.6508349
0
LINE
8
0
10
107.683391
20
-14.6508349
11
91.5050981
21
-6.7601543
0
LINE
8
0
10
91.5050981
20
-6.7601543
11
84.0527886
21
-22.0396531
0
LINE
8
0
10
13.1483666
20
3.8157088
11
13.1483666
21
-16.1842912
0
LINE
8
0
10
13.1483666
20
-16.1842912
11
43.1483666
21
-16.1842912
0
LINE
8
0
10
43.1483666
20
-16.1842912
11
43.1483666
21
3.8157088
0
LINE
8
0
10
43.1483666
20
3.8157088
11
13.1483666
21
3.8157088
0
LINE
8
0
10
-4.8516334
20
-11.4342912
11
-4.8516334
21
-15.9342912
0
LINE
8
0
10
-4.8516334
20
-15.9342912
11
3.1483666
21
-15.9342912
0
LINE
8
0
10
3.1483666
20
-15.9342912
11
3.1483666
21
-11.4342912
0
LINE
8
0
10
3.1483666
20
-11.4342912
11
-4.8516334
21
-11.4342912
0
LINE
8
0
10
101.4483666
20
3.8157089
11
85.1483666
21
3.8157089
0
LINE
8
0
10
84.1483666
20
4.8157089
11
84.1483666
21
36.9157089
0
ARC
8
0
10
85.1483666
20
4.8157089
40
1
50
180
51
270
0
ARC
8
0
10
85.1483666
20
36.9157089
40
1
50
90
51
180
0
ARC
8
0
10
101.4483666
20
4.8157089
40
1
50
270
51
0
0
LINE
8
0
10
-4.8516333
20
58.2157088
11
-4.8516333
21
60.8157088
0
LINE
8
0
10
1.8483667
20
60.8157088
11
1.8483667
21
58.2157088
0
LINE
8
0
10
1.8483667
20
58.2157088
11
-4.8516333
21
58.2157088
0
LINE
8
0
10
-3.2516333
20
60.8157088
11
-3.2516333
21
62.1157088
0
LINE
8
0
10
-3.2516333
20
62.1157088
11
-1.9516333
21
62.1157088
0
LINE
8
0
10
-1.9516333
20
62.1157088
11
-1.9516333
21
60.8157088
0
LINE
8
0
10
68.1483667
20
57.3157088
11
68.1483667
21
60.8157088
0
LINE
8
0
10
72.8483667
20
60.8157088
11
72.8483667
21
57.3157088
0
LINE
8
0
10
72.8483667
20
57.3157088
11
68.1483667
21
57.3157088
0
LINE
8
0
10
69.1983667
20
60.8157088
11
69.1983667
21
61.8157088
0
LINE
8
0
10
69.1983667
20
61.8157088
11
71.7983667
21
61.8157088
0
LINE
8
0
10
71.7983667
20
61.8157088
11
71.7983667
21
60.8157088
0
ENDSEC
0
EOF