0
SECTION
2
HEADER
9
$INSUNITS
70
4
0
ENDSEC
0
SECTION
2
TABLES
0
TABLE
2
LTYPE
0
LTYPE
72
65
70
64
2
CONTINUOUS
3
______
73
0
40
0
0
ENDTAB
0
TABLE
2
LAYER
0
ENDTAB
0
ENDSEC
0
SECTION
2
ENTITIES
0
LINE
8
0
10
-80
20
-100
11
-80
21
130
0
LINE
8
0
10
-80
20
130
11
170
21
130
0
LINE
8
0
10
170
20
130
11
170
21
57.3157088
0
LINE
8
0
10
170
20
6.3157088
11
170
21
-0.6842912
0
LINE
8
0
10
170
20
-17.6842912
11
170
21
-100
0
LINE
8
0
10
170
20
-100
11
-80
21
-100
0
LINE
8
0
10
-8.0622051
20
-9.3941923
11
9.839189
21
-7.5126799
0
LINE
8
0
10
4.5082373
20
43.2079367
11
9.839189
21
-7.5126799
0
LINE
8
0
10
-13.3931568
20
41.3264243
11
-8.0622051
21
-9.3941923
0
LINE
8
0
10
4.5082373
20
43.2079367
11
-13.3931568
21
41.3264243
0
LINE
8
0
10
8.2879179
20
7.8922303
11
26.2632495
21
8.8342776
0
LINE
8
0
10
26.2632495
20
8.8342776
11
25.3735383
21
25.8109797
0
LINE
8
0
10
7.3982067
20
24.8689324
11
8.2879179
21
7.8922303
0
LINE
8
0
10
25.3735382
20
25.8109797
11
24.483827
21
42.7876818
0
LINE
8
0
10
6.5084954
20
41.8456345
11
7.3982066
21
24.8689324
0
LINE
8
0
10
24.4838269
20
42.7876818
11
23.5941157
21
59.7643839
0
LINE
8
0
10
23.5941157
20
59.7643839
11
5.6187841
21
58.8223366
0
LINE
8
0
10
5.6187841
20
58.8223366
11
6.5084953
21
41.8456345
0
LINE
8
0
10
26.1483667
20
12.3157088
11
44.1483667
21
12.3157088
0
LINE
8
0
10
26.1483667
20
12.3157088
11
26.1483667
21
63.3157088
0
LINE
8
0
10
44.1483666
20
57.3157088
11
44.1483667
21
63.3157088
0
LINE
8
0
10
44.1483667
20
63.3157088
11
26.1483667
21
63.3157088
0
LINE
8
0
10
44.1483666
20
6.3157088
11
62.1483666
21
6.3157088
0
LINE
8
0
10
44.1483667
20
12.3157088
11
44.1483666
21
6.3157088
0
LINE
8
0
10
62.1483666
20
55.3157089
11
62.1483666
21
57.3157088
0
LINE
8
0
10
62.1483666
20
57.3157088
11
44.1483666
21
57.3157088
0
LINE
8
0
10
62.1483666
20
4.3157089
11
80.1483666
21
4.3157089
0
LINE
8
0
10
80.1483666
20
4.3157089
11
80.1483666
21
55.3157089
0
LINE
8
0
10
62.1483666
20
6.3157088
11
62.1483666
21
4.3157089
0
LINE
8
0
10
80.1483666
20
55.3157089
11
62.1483666
21
55.3157089
0
LINE
8
0
10
48.1483666
20
-17.6842912
11
66.1483666
21
-17.6842912
0
LINE
8
0
10
66.1483666
20
-17.6842912
11
66.1483666
21
-0.6842912
0
LINE
8
0
10
66.1483666
20
-0.6842912
11
48.1483666
21
-0.6842912
0
LINE
8
0
10
48.1483666
20
-0.6842912
11
48.1483666
21
-17.6842912
0
LINE
8
0
10
66.4005284
20
-17.7356259
11
83.9391895
21
-21.7847448
0
LINE
8
0
10
83.9391895
20
-21.7847448
11
87.7633574
21
-5.2204537
0
LINE
8
0
10
87.7633574
20
-5.2204537
11
70.2246963
21
-1.1713348
0
LINE
8
0
10
70.2246963
20
-1.1713348
11
66.4005284
21
-17.7356259
0
LINE
8
0
10
84.0527886
20
-22.0396531
11
100.2310815
21
-29.9303337
0
LINE
8
0
10
100.2310815
20
-29.9303337
11
107.683391
21
-14.6508349
0
LINE
8
0
10
107.683391
20
-14.6508349
11
91.5050981
21
-6.7601543
0
LINE
8
0
10
91.5050981
20
-6.7601543
11
84.0527886
21
-22.0396531
0
LINE
8
0
10
165.587813
20
6.3157088
11
170
21
6.3157088
0
LINE
8
0
10
170
20
57.3157088
11
165.587813
21
57.3157088
0
LINE
8
0
10
165.587813
20
57.3157088
11
165.587813
21
55.3157089
0
LINE
8
0
10
147.587813
20
4.3157089
11
165.587813
21
4.3157089
0
LINE
8
0
10
165.587813
20
4.3157089
11
165.587813
21
6.3157088
0
LINE
8
0
10
147.587813
20
4.3157089
11
147.587813
21
55.3157089
0
LINE
8
0
10
165.587813
20
55.3157089
11
147.587813
21
55.3157089
0
LINE
8
0
10
161.587813
20
-17.6842912
11
170
21
-17.6842912
0
LINE
8
0
10
170
20
-0.6842912
11
161.587813
21
-0.6842912
0
LINE
8
0
10
161.587813
20
-0.6842912
11
161.587813
21
-17.6842912
0
LINE
8
0
10
143.7969901
20
-21.7847448
11
161.3356512
21
-17.7356259
0
LINE
8
0
10
161.3356512
20
-17.7356259
11
157.5114833
21
-1.1713348
0
LINE
8
0
10
157.5114833
20
-1.1713348
11
139.9728222
21
-5.2204537
0
LINE
8
0
10
139.9728222
20
-5.2204537
11
143.7969901
21
-21.7847448
0
LINE
8
0
10
127.5050981
20
-29.9303337
11
143.683391
21
-22.0396531
0
LINE
8
0
10
143.683391
20
-22.0396531
11
136.2310815
21
-6.7601543
0
LINE
8
0
10
136.2310815
20
-6.7601543
11
120.0527886
21
-14.6508349
0
LINE
8
0
10
120.0527886
20
-14.6508349
11
127.5050981
21
-29.9303337
0
LINE
8
0
10
12.6901361
20
4.1052513
11
13.0391842
21
-15.8917026
0
LINE
8
0
10
13.0391842
20
-15.8917026
11
43.0346151
21
-15.3681304
0
LINE
8
0
10
43.0346151
20
-15.3681304
11
42.6855669
21
4.6288235
0
LINE
8
0
10
42.6855669
20
4.6288235
11
12.6901361
21
4.1052513
0
LINE
8
0
10
-3.7182679
20
-12.4569051
11
-3.2478898
21
-16.9322536
0
LINE
8
0
10
-3.2478898
20
-16.9322536
11
4.7082854
21
-16.0960259
0
LINE
8
0
10
4.7082854
20
-16.0960259
11
4.2379073
21
-11.6206774
0
LINE
8
0
10
4.2379073
20
-11.6206774
11
-3.7182679
21
-12.4569051
0
LINE
8
0
10
102.4483666
20
3.8157089
11
84.1483666
21
3.8157089
0
LINE
8
0
10
84.1483666
20
3.8157089
11
84.1483666
21
37.9157089
0
LINE
8
0
10
84.1483666
20
37.9157089
11
102.4483666
21
37.9157089
0
LINE
8
0
10
102.4483666
20
37.9157089
11
102.4483666
21
3.8157089
0
ENDSEC
0
EOF