0
SECTION
2
HEADER
9
$INSUNITS
70
4
0
ENDSEC
0
SECTION
2
TABLES
0
TABLE
2
LTYPE
0
LTYPE
72
65
70
64
2
CONTINUOUS
3
______
73
0
40
0
0
ENDTAB
0
TABLE
2
LAYER
0
ENDTAB
0
ENDSEC
0
SECTION
2
ENTITIES
0
LINE
8
0
10
45.1483666
20
60.3157088
11
45.1483667
21
63.3157088
0
ARC
8
0
10
44.1483667
20
63.3157088
40
1
50
359.999999
51
450
0
LINE
8
0
10
44.1483667
20
64.3157088
11
26.1483667
21
64.3157088
0
ARC
8
0
10
26.1483667
20
63.3157088
40
1
50
90
51
180
0
LINE
8
0
10
25.1483667
20
63.3157088
11
25.1483667
21
60.847211
0
LINE
8
0
10
15.0066994
20
60.3157088
11
25.1483667
21
60.847211
0
LINE
8
0
10
-9.8516333
20
42.7041617
11
-13.4976853
21
42.3209462
0
ARC
8
0
10
-13.3931568
20
41.3264243
40
1
50
96.0000002
51
186.0000021
0
LINE
8
0
10
-14.3876787
20
41.2218958
11
-8.1682351
21
-17.9521569
0
LINE
8
0
10
-7.8516334
20
-18.6842912
11
66.0842466
21
-18.6842912
0
ARC
8
0
10
66.4005284
20
-17.7356259
40
1
50
251.561788
51
257.0000002
0
LINE
8
0
10
66.1755773
20
-18.709996
11
83.2648105
21
-22.6553563
0
ARC
8
0
10
84.0527886
20
-22.0396531
40
1
50
218.0030357
51
244.0000002
0
LINE
8
0
10
83.6148195
20
-22.9386431
11
99.7923084
21
-30.8289316
0
ARC
8
0
10
100.2310815
20
-29.9303337
40
1
50
244.0000002
51
334.0000012
0
LINE
8
0
10
101.1300715
20
-30.3683028
11
108.5819889
21
-15.089608
0
ARC
8
0
10
107.683391
20
-14.6508349
40
1
50
334
51
424.0000012
0
LINE
8
0
10
108.1213601
20
-13.7518449
11
102.4483666
21
-10.9849411
0
LINE
8
0
10
84.1483666
20
37.9157089
11
102.4483666
21
37.9157089
0
LINE
8
0
10
102.4483666
20
-10.9849411
11
102.4483666
21
37.9157089
0
LINE
8
0
10
-7.8516334
20
-18.6842912
11
-8.1682351
21
-17.9521569
0
LINE
8
0
10
-9.8516333
20
42.7041617
11
-9.8516333
21
60.3157088
0
LINE
8
0
10
-9.8516333
20
60.3157088
11
15.0066994
21
60.3157088
0
LINE
8
0
10
45.1483666
20
60.3157088
11
84.1483667
21
60.3157088
0
LINE
8
0
10
84.1483667
20
60.3157088
11
84.1483666
21
37.9157089
0
LINE
8
0
10
-6.229954
20
-7.6933525
11
7.6933525
21
-6.229954
0
LINE
8
0
10
7.6933525
20
-6.229954
11
6.229954
21
7.6933525
0
LINE
8
0
10
6.229954
20
7.6933525
11
-7.6933525
21
6.229954
0
LINE
8
0
10
-7.6933525
20
6.229954
11
-6.229954
21
-7.6933525
0
LINE
8
0
10
-8.0069379
20
9.2135197
11
5.9163686
21
10.6769182
0
LINE
8
0
10
5.9163686
20
10.6769182
11
4.4529701
21
24.6002247
0
LINE
8
0
10
4.4529701
20
24.6002247
11
-9.4703364
21
23.1368262
0
LINE
8
0
10
-9.4703364
20
23.1368262
11
-8.0069379
21
9.2135197
0
LINE
8
0
10
-9.7839218
20
26.1203919
11
4.1393847
21
27.5837904
0
LINE
8
0
10
4.1393847
20
27.5837904
11
2.6759862
21
41.5070969
0
LINE
8
0
10
2.6759862
20
41.5070969
11
-11.2473203
21
40.0436984
0
LINE
8
0
10
-11.2473203
20
40.0436984
11
-9.7839218
21
26.1203919
0
LINE
8
0
10
10.2066731
20
9.4948466
11
24.1874865
21
10.22755
0
LINE
8
0
10
24.1874865
20
10.22755
11
23.4547831
21
24.2083634
0
LINE
8
0
10
23.4547831
20
24.2083634
11
9.4739697
21
23.47566
0
LINE
8
0
10
9.4739697
20
23.47566
11
10.2066731
21
9.4948466
0
LINE
8
0
10
9.3169618
20
26.4715487
11
23.2977752
21
27.2042521
0
LINE
8
0
10
23.2977752
20
27.2042521
11
22.5650718
21
41.1850655
0
LINE
8
0
10
22.5650718
20
41.1850655
11
8.5842584
21
40.4523621
0
LINE
8
0
10
8.5842584
20
40.4523621
11
9.3169618
21
26.4715487
0
LINE
8
0
10
8.4272505
20
43.4482508
11
22.4080639
21
44.1809542
0
LINE
8
0
10
22.4080639
20
44.1809542
11
21.6753605
21
58.1617676
0
LINE
8
0
10
21.6753605
20
58.1617676
11
7.6945471
21
57.4290642
0
LINE
8
0
10
7.6945471
20
57.4290642
11
8.4272505
21
43.4482508
0
LINE
8
0
10
28.1483667
20
13.8157088
11
42.1483667
21
13.8157088
0
LINE
8
0
10
42.1483667
20
13.8157088
11
42.1483667
21
27.8157088
0
LINE
8
0
10
42.1483667
20
27.8157088
11
28.1483667
21
27.8157088
0
LINE
8
0
10
28.1483667
20
27.8157088
11
28.1483667
21
13.8157088
0
LINE
8
0
10
28.1483667
20
30.8157088
11
42.1483667
21
30.8157088
0
LINE
8
0
10
42.1483667
20
30.8157088
11
42.1483667
21
44.8157088
0
LINE
8
0
10
42.1483667
20
44.8157088
11
28.1483667
21
44.8157088
0
LINE
8
0
10
28.1483667
20
44.8157088
11
28.1483667
21
30.8157088
0
LINE
8
0
10
28.1483667
20
47.8157088
11
42.1483667
21
47.8157088
0
LINE
8
0
10
42.1483667
20
47.8157088
11
42.1483667
21
61.8157088
0
LINE
8
0
10
42.1483667
20
61.8157088
11
28.1483667
21
61.8157088
0
LINE
8
0
10
28.1483667
20
61.8157088
11
28.1483667
21
47.8157088
0
LINE
8
0
10
46.1483666
20
7.8157088
11
60.1483666
21
7.8157088
0
LINE
8
0
10
60.1483666
20
7.8157088
11
60.1483666
21
21.8157088
0
LINE
8
0
10
60.1483666
20
21.8157088
11
46.1483666
21
21.8157088
0
LINE
8
0
10
46.1483666
20
21.8157088
11
46.1483666
21
7.8157088
0
LINE
8
0
10
46.1483666
20
24.8157088
11
60.1483666
21
24.8157088
0
LINE
8
0
10
60.1483666
20
24.8157088
11
60.1483666
21
38.8157088
0
LINE
8
0
10
60.1483666
20
38.8157088
11
46.1483666
21
38.8157088
0
LINE
8
0
10
46.1483666
20
38.8157088
11
46.1483666
21
24.8157088
0
LINE
8
0
10
46.1483666
20
41.8157088
11
60.1483666
21
41.8157088
0
LINE
8
0
10
60.1483666
20
41.8157088
11
60.1483666
21
55.8157088
0
LINE
8
0
10
60.1483666
20
55.8157088
11
46.1483666
21
55.8157088
0
LINE
8
0
10
46.1483666
20
55.8157088
11
46.1483666
21
41.8157088
0
LINE
8
0
10
64.1483666
20
5.8157089
11
78.1483666
21
5.8157089
0
LINE
8
0
10
78.1483666
20
5.8157089
11
78.1483666
21
19.8157089
0
LINE
8
0
10
78.1483666
20
19.8157089
11
64.1483666
21
19.8157089
0
LINE
8
0
10
64.1483666
20
19.8157089
11
64.1483666
21
5.8157089
0
LINE
8
0
10
64.1483666
20
22.8157089
11
78.1483666
21
22.8157089
0
LINE
8
0
10
78.1483666
20
22.8157089
11
78.1483666
21
36.8157089
0
LINE
8
0
10
78.1483666
20
36.8157089
11
64.1483666
21
36.8157089
0
LINE
8
0
10
64.1483666
20
36.8157089
11
64.1483666
21
22.8157089
0
LINE
8
0
10
64.1483666
20
39.8157089
11
78.1483666
21
39.8157089
0
LINE
8
0
10
78.1483666
20
39.8157089
11
78.1483666
21
53.8157089
0
LINE
8
0
10
78.1483666
20
53.8157089
11
64.1483666
21
53.8157089
0
LINE
8
0
10
64.1483666
20
53.8157089
11
64.1483666
21
39.8157089
0
LINE
8
0
10
50.1483666
20
-16.1842912
11
64.1483666
21
-16.1842912
0
LINE
8
0
10
64.1483666
20
-16.1842912
11
64.1483666
21
-2.1842912
0
LINE
8
0
10
64.1483666
20
-2.1842912
11
50.1483666
21
-2.1842912
0
LINE
8
0
10
50.1483666
20
-2.1842912
11
50.1483666
21
-16.1842912
0
LINE
8
0
10
68.6866951
20
-16.7239729
11
82.327876
21
-19.8732876
0
LINE
8
0
10
82.327876
20
-19.8732876
11
85.4771907
21
-6.2321067
0
LINE
8
0
10
85.4771907
20
-6.2321067
11
71.8360098
21
-3.082792
0
LINE
8
0
10
71.8360098
20
-3.082792
11
68.6866951
21
-16.7239729
0
LINE
8
0
10
86.5079334
20
-21.5682043
11
99.0910501
21
-27.7054004
0
LINE
8
0
10
99.0910501
20
-27.7054004
11
105.2282462
21
-15.1222837
0
LINE
8
0
10
105.2282462
20
-15.1222837
11
92.6451295
21
-8.9850876
0
LINE
8
0
10
92.6451295
20
-8.9850876
11
86.5079334
21
-21.5682043
0
ENDSEC
0
EOF