0
SECTION
2
HEADER
9
$INSUNITS
70
4
0
ENDSEC
0
SECTION
2
TABLES
0
TABLE
2
LTYPE
0
LTYPE
72
65
70
64
2
CONTINUOUS
3
______
73
0
40
0
0
ENDTAB
0
TABLE
2
LAYER
0
ENDTAB
0
ENDSEC
0
SECTION
2
ENTITIES
0
LINE
8
0
10
-80
20
-100
11
-80
21
130
0
LINE
8
0
10
-80
20
130
11
170
21
130
0
LINE
8
0
10
170
20
130
11
170
21
55.8157088
0
LINE
8
0
10
170
20
7.8157088
11
170
21
-2.1842912
0
LINE
8
0
10
170
20
24.8157088
11
170
21
21.8157088
0
LINE
8
0
10
170
20
41.8157088
11
170
21
38.8157088
0
LINE
8
0
10
170
20
-16.1842912
11
170
21
-100
0
LINE
8
0
10
170
20
-100
11
-80
21
-100
0
LINE
8
0
10
-6.229954
20
-7.6933525
11
7.6933525
21
-6.229954
0
LINE
8
0
10
7.6933525
20
-6.229954
11
6.229954
21
7.6933525
0
LINE
8
0
10
6.229954
20
7.6933525
11
-7.6933525
21
6.229954
0
LINE
8
0
10
-7.6933525
20
6.229954
11
-6.229954
21
-7.6933525
0
LINE
8
0
10
-8.0069379
20
9.2135197
11
5.9163686
21
10.6769182
0
LINE
8
0
10
5.9163686
20
10.6769182
11
4.4529701
21
24.6002247
0
LINE
8
0
10
4.4529701
20
24.6002247
11
-9.4703364
21
23.1368262
0
LINE
8
0
10
-9.4703364
20
23.1368262
11
-8.0069379
21
9.2135197
0
LINE
8
0
10
-9.7839218
20
26.1203919
11
4.1393847
21
27.5837904
0
LINE
8
0
10
4.1393847
20
27.5837904
11
2.6759862
21
41.5070969
0
LINE
8
0
10
2.6759862
20
41.5070969
11
-11.2473203
21
40.0436984
0
LINE
8
0
10
-11.2473203
20
40.0436984
11
-9.7839218
21
26.1203919
0
LINE
8
0
10
10.2066731
20
9.4948466
11
24.1874865
21
10.22755
0
LINE
8
0
10
24.1874865
20
10.22755
11
23.4547831
21
24.2083634
0
LINE
8
0
10
23.4547831
20
24.2083634
11
9.4739697
21
23.47566
0
LINE
8
0
10
9.4739697
20
23.47566
11
10.2066731
21
9.4948466
0
LINE
8
0
10
9.3169618
20
26.4715487
11
23.2977752
21
27.2042521
0
LINE
8
0
10
23.2977752
20
27.2042521
11
22.5650718
21
41.1850655
0
LINE
8
0
10
22.5650718
20
41.1850655
11
8.5842584
21
40.4523621
0
LINE
8
0
10
8.5842584
20
40.4523621
11
9.3169618
21
26.4715487
0
LINE
8
0
10
8.4272505
20
43.4482508
11
22.4080639
21
44.1809542
0
LINE
8
0
10
22.4080639
20
44.1809542
11
21.6753605
21
58.1617676
0
LINE
8
0
10
21.6753605
20
58.1617676
11
7.6945471
21
57.4290642
0
LINE
8
0
10
7.6945471
20
57.4290642
11
8.4272505
21
43.4482508
0
LINE
8
0
10
28.1483667
20
13.8157088
11
42.1483667
21
13.8157088
0
LINE
8
0
10
42.1483667
20
13.8157088
11
42.1483667
21
27.8157088
0
LINE
8
0
10
42.1483667
20
27.8157088
11
28.1483667
21
27.8157088
0
LINE
8
0
10
28.1483667
20
27.8157088
11
28.1483667
21
13.8157088
0
LINE
8
0
10
28.1483667
20
30.8157088
11
42.1483667
21
30.8157088
0
LINE
8
0
10
42.1483667
20
30.8157088
11
42.1483667
21
44.8157088
0
LINE
8
0
10
42.1483667
20
44.8157088
11
28.1483667
21
44.8157088
0
LINE
8
0
10
28.1483667
20
44.8157088
11
28.1483667
21
30.8157088
0
LINE
8
0
10
28.1483667
20
47.8157088
11
42.1483667
21
47.8157088
0
LINE
8
0
10
42.1483667
20
47.8157088
11
42.1483667
21
61.8157088
0
LINE
8
0
10
42.1483667
20
61.8157088
11
28.1483667
21
61.8157088
0
LINE
8
0
10
28.1483667
20
61.8157088
11
28.1483667
21
47.8157088
0
LINE
8
0
10
46.1483666
20
7.8157088
11
60.1483666
21
7.8157088
0
LINE
8
0
10
60.1483666
20
7.8157088
11
60.1483666
21
21.8157088
0
LINE
8
0
10
60.1483666
20
21.8157088
11
46.1483666
21
21.8157088
0
LINE
8
0
10
46.1483666
20
21.8157088
11
46.1483666
21
7.8157088
0
LINE
8
0
10
46.1483666
20
24.8157088
11
60.1483666
21
24.8157088
0
LINE
8
0
10
60.1483666
20
24.8157088
11
60.1483666
21
38.8157088
0
LINE
8
0
10
60.1483666
20
38.8157088
11
46.1483666
21
38.8157088
0
LINE
8
0
10
46.1483666
20
38.8157088
11
46.1483666
21
24.8157088
0
LINE
8
0
10
46.1483666
20
41.8157088
11
60.1483666
21
41.8157088
0
LINE
8
0
10
60.1483666
20
41.8157088
11
60.1483666
21
55.8157088
0
LINE
8
0
10
60.1483666
20
55.8157088
11
46.1483666
21
55.8157088
0
LINE
8
0
10
46.1483666
20
55.8157088
11
46.1483666
21
41.8157088
0
LINE
8
0
10
64.1483666
20
5.8157089
11
78.1483666
21
5.8157089
0
LINE
8
0
10
78.1483666
20
5.8157089
11
78.1483666
21
19.8157089
0
LINE
8
0
10
78.1483666
20
19.8157089
11
64.1483666
21
19.8157089
0
LINE
8
0
10
64.1483666
20
19.8157089
11
64.1483666
21
5.8157089
0
LINE
8
0
10
64.1483666
20
22.8157089
11
78.1483666
21
22.8157089
0
LINE
8
0
10
78.1483666
20
22.8157089
11
78.1483666
21
36.8157089
0
LINE
8
0
10
78.1483666
20
36.8157089
11
64.1483666
21
36.8157089
0
LINE
8
0
10
64.1483666
20
36.8157089
11
64.1483666
21
22.8157089
0
LINE
8
0
10
64.1483666
20
39.8157089
11
78.1483666
21
39.8157089
0
LINE
8
0
10
78.1483666
20
39.8157089
11
78.1483666
21
53.8157089
0
LINE
8
0
10
78.1483666
20
53.8157089
11
64.1483666
21
53.8157089
0
LINE
8
0
10
64.1483666
20
53.8157089
11
64.1483666
21
39.8157089
0
LINE
8
0
10
50.1483666
20
-16.1842912
11
64.1483666
21
-16.1842912
0
LINE
8
0
10
64.1483666
20
-16.1842912
11
64.1483666
21
-2.1842912
0
LINE
8
0
10
64.1483666
20
-2.1842912
11
50.1483666
21
-2.1842912
0
LINE
8
0
10
50.1483666
20
-2.1842912
11
50.1483666
21
-16.1842912
0
LINE
8
0
10
68.6866951
20
-16.7239729
11
82.327876
21
-19.8732876
0
LINE
8
0
10
82.327876
20
-19.8732876
11
85.4771907
21
-6.2321067
0
LINE
8
0
10
85.4771907
20
-6.2321067
11
71.8360098
21
-3.082792
0
LINE
8
0
10
71.8360098
20
-3.082792
11
68.6866951
21
-16.7239729
0
LINE
8
0
10
86.5079334
20
-21.5682043
11
99.0910501
21
-27.7054004
0
LINE
8
0
10
99.0910501
20
-27.7054004
11
105.2282462
21
-15.1222837
0
LINE
8
0
10
105.2282462
20
-15.1222837
11
92.6451295
21
-8.9850876
0
LINE
8
0
10
92.6451295
20
-8.9850876
11
86.5079334
21
-21.5682043
0
LINE
8
0
10
167.587813
20
7.8157088
11
170
21
7.8157088
0
LINE
8
0
10
170
20
21.8157088
11
167.587813
21
21.8157088
0
LINE
8
0
10
167.587813
20
21.8157088
11
167.587813
21
7.8157088
0
LINE
8
0
10
167.587813
20
24.8157088
11
170
21
24.8157088
0
LINE
8
0
10
170
20
38.8157088
11
167.587813
21
38.8157088
0
LINE
8
0
10
167.587813
20
38.8157088
11
167.587813
21
24.8157088
0
LINE
8
0
10
167.587813
20
41.8157088
11
170
21
41.8157088
0
LINE
8
0
10
170
20
55.8157088
11
167.587813
21
55.8157088
0
LINE
8
0
10
167.587813
20
55.8157088
11
167.587813
21
41.8157088
0
LINE
8
0
10
149.587813
20
5.8157089
11
163.587813
21
5.8157089
0
LINE
8
0
10
163.587813
20
5.8157089
11
163.587813
21
19.8157089
0
LINE
8
0
10
163.587813
20
19.8157089
11
149.587813
21
19.8157089
0
LINE
8
0
10
149.587813
20
19.8157089
11
149.587813
21
5.8157089
0
LINE
8
0
10
149.587813
20
22.8157089
11
163.587813
21
22.8157089
0
LINE
8
0
10
163.587813
20
22.8157089
11
163.587813
21
36.8157089
0
LINE
8
0
10
163.587813
20
36.8157089
11
149.587813
21
36.8157089
0
LINE
8
0
10
149.587813
20
36.8157089
11
149.587813
21
22.8157089
0
LINE
8
0
10
149.587813
20
39.8157089
11
163.587813
21
39.8157089
0
LINE
8
0
10
163.587813
20
39.8157089
11
163.587813
21
53.8157089
0
LINE
8
0
10
163.587813
20
53.8157089
11
149.587813
21
53.8157089
0
LINE
8
0
10
149.587813
20
53.8157089
11
149.587813
21
39.8157089
0
LINE
8
0
10
163.587813
20
-16.1842912
11
170
21
-16.1842912
0
LINE
8
0
10
170
20
-2.1842912
11
163.587813
21
-2.1842912
0
LINE
8
0
10
163.587813
20
-2.1842912
11
163.587813
21
-16.1842912
0
LINE
8
0
10
145.4083036
20
-19.8732876
11
159.0494845
21
-16.7239729
0
LINE
8
0
10
159.0494845
20
-16.7239729
11
155.9001698
21
-3.082792
0
LINE
8
0
10
155.9001698
20
-3.082792
11
142.2589889
21
-6.2321067
0
LINE
8
0
10
142.2589889
20
-6.2321067
11
145.4083036
21
-19.8732876
0
LINE
8
0
10
128.6451295
20
-27.7054004
11
141.2282462
21
-21.5682043
0
LINE
8
0
10
141.2282462
20
-21.5682043
11
135.0910501
21
-8.9850876
0
LINE
8
0
10
135.0910501
20
-8.9850876
11
122.5079334
21
-15.1222837
0
LINE
8
0
10
122.5079334
20
-15.1222837
11
128.6451295
21
-27.7054004
0
ENDSEC
0
EOF