0
SECTION
2
HEADER
9
$INSUNITS
70
4
0
ENDSEC
0
SECTION
2
TABLES
0
TABLE
2
LTYPE
0
LTYPE
72
65
70
64
2
CONTINUOUS
3
______
73
0
40
0
0
ENDTAB
0
TABLE
2
LAYER
0
ENDTAB
0
ENDSEC
0
SECTION
2
ENTITIES
0
LINE
8
0
10
-10
20
-9.5
11
-10
21
43.5
0
LINE
8
0
10
-10
20
43.5
11
10.7903188
21
58.9637443
0
LINE
8
0
10
10.7903188
20
58.9637443
11
31.7334235
21
61.3346604
0
LINE
8
0
10
31.7334235
20
61.3346604
11
51.6238615
21
59.2440912
0
LINE
8
0
10
51.6238615
20
59.2440912
11
86.093161
21
47.5771556
0
LINE
8
0
10
86.093161
20
47.5771556
11
106.4808599
21
45.4343221
0
LINE
8
0
10
106.4808599
20
45.4343221
11
109.1539006
21
-20.1258381
0
LINE
8
0
10
109.1539006
20
-20.1258381
11
100.8248488
21
-37.202925
0
LINE
8
0
10
100.8248488
20
-37.202925
11
84.4779064
21
-29.0906621
0
LINE
8
0
10
84.4779064
20
-29.0906621
11
65.2526725
21
-23.577915
0
LINE
8
0
10
65.2526725
20
-23.577915
11
47.1351434
21
-21.7302962
0
LINE
8
0
10
47.1351434
20
-21.7302962
11
-10
21
-9.5
0
LINE
8
0
10
-7
20
-7
11
7
21
-7
0
LINE
8
0
10
7
20
-7
11
7
21
7
0
LINE
8
0
10
7
20
7
11
-7
21
7
0
LINE
8
0
10
-7
20
7
11
-7
21
-7
0
LINE
8
0
10
-7
20
10
11
7
21
10
0
LINE
8
0
10
7
20
10
11
7
21
24
0
LINE
8
0
10
7
20
24
11
-7
21
24
0
LINE
8
0
10
-7
20
24
11
-7
21
10
0
LINE
8
0
10
-7
20
27
11
7
21
27
0
LINE
8
0
10
7
20
27
11
7
21
41
0
LINE
8
0
10
7
20
41
11
-7
21
41
0
LINE
8
0
10
-7
20
41
11
-7
21
27
0
LINE
8
0
10
11.1432416
20
8.375945
11
25.124055
21
7.6432416
0
LINE
8
0
10
25.124055
20
7.6432416
11
25.8567584
21
21.624055
0
LINE
8
0
10
25.8567584
20
21.624055
11
11.875945
21
22.3567584
0
LINE
8
0
10
11.875945
20
22.3567584
11
11.1432416
21
8.375945
0
LINE
8
0
10
12.0329529
20
25.3526471
11
26.0137663
21
24.6199437
0
LINE
8
0
10
26.0137663
20
24.6199437
11
26.7464697
21
38.6007571
0
LINE
8
0
10
26.7464697
20
38.6007571
11
12.7656563
21
39.3334605
0
LINE
8
0
10
12.7656563
20
39.3334605
11
12.0329529
21
25.3526471
0
LINE
8
0
10
12.9226642
20
42.3293492
11
26.9034776
21
41.5966458
0
LINE
8
0
10
26.9034776
20
41.5966458
11
27.636181
21
55.5774592
0
LINE
8
0
10
27.636181
20
55.5774592
11
13.6553676
21
56.3101626
0
LINE
8
0
10
13.6553676
20
56.3101626
11
12.9226642
21
42.3293492
0
LINE
8
0
10
29.4383018
20
10.7977194
11
43.3616083
21
9.3343209
0
LINE
8
0
10
43.3616083
20
9.3343209
11
44.8250068
21
23.2576274
0
LINE
8
0
10
44.8250068
20
23.2576274
11
30.9017003
21
24.7210259
0
LINE
8
0
10
30.9017003
20
24.7210259
11
29.4383018
21
10.7977194
0
LINE
8
0
10
31.2152857
20
27.7045916
11
45.1385922
21
26.2411931
0
LINE
8
0
10
45.1385922
20
26.2411931
11
46.6019907
21
40.1644996
0
LINE
8
0
10
46.6019907
20
40.1644996
11
32.6786842
21
41.6278981
0
LINE
8
0
10
32.6786842
20
41.6278981
11
31.2152857
21
27.7045916
0
LINE
8
0
10
32.9922696
20
44.6114638
11
46.9155761
21
43.1480653
0
LINE
8
0
10
46.9155761
20
43.1480653
11
48.3789746
21
57.0713718
0
LINE
8
0
10
48.3789746
20
57.0713718
11
34.4556681
21
58.5347703
0
LINE
8
0
10
34.4556681
20
58.5347703
11
32.9922696
21
44.6114638
0
LINE
8
0
10
46.7125251
20
2.9490757
11
60.6358316
21
1.4856772
0
LINE
8
0
10
60.6358316
20
1.4856772
11
62.0992301
21
15.4089837
0
LINE
8
0
10
62.0992301
20
15.4089837
11
48.1759236
21
16.8723822
0
LINE
8
0
10
48.1759236
20
16.8723822
11
46.7125251
21
2.9490757
0
LINE
8
0
10
48.489509
20
19.8559479
11
62.4128155
21
18.3925494
0
LINE
8
0
10
62.4128155
20
18.3925494
11
63.876214
21
32.3158559
0
LINE
8
0
10
63.876214
20
32.3158559
11
49.9529075
21
33.7792544
0
LINE
8
0
10
49.9529075
20
33.7792544
11
48.489509
21
19.8559479
0
LINE
8
0
10
50.2664929
20
36.7628201
11
64.1897994
21
35.2994216
0
LINE
8
0
10
64.1897994
20
35.2994216
11
65.6531979
21
49.2227281
0
LINE
8
0
10
65.6531979
20
49.2227281
11
51.7298914
21
50.6861266
0
LINE
8
0
10
51.7298914
20
50.6861266
11
50.2664929
21
36.7628201
0
LINE
8
0
10
64.4048623
20
-0.9214804
11
78.3281688
21
-2.3848789
0
LINE
8
0
10
78.3281688
20
-2.3848789
11
79.7915673
21
11.5384276
0
LINE
8
0
10
79.7915673
20
11.5384276
11
65.8682608
21
13.0018261
0
LINE
8
0
10
65.8682608
20
13.0018261
11
64.4048623
21
-0.9214804
0
LINE
8
0
10
66.1818462
20
15.9853918
11
80.1051527
21
14.5219933
0
LINE
8
0
10
80.1051527
20
14.5219933
11
81.5685512
21
28.4452998
0
LINE
8
0
10
81.5685512
20
28.4452998
11
67.6452447
21
29.9086983
0
LINE
8
0
10
67.6452447
20
29.9086983
11
66.1818462
21
15.9853918
0
LINE
8
0
10
67.9588301
20
32.892264
11
81.8821366
21
31.4288655
0
LINE
8
0
10
81.8821366
20
31.4288655
11
83.3455351
21
45.352172
0
LINE
8
0
10
83.3455351
20
45.352172
11
69.4222286
21
46.8155705
0
LINE
8
0
10
69.4222286
20
46.8155705
11
67.9588301
21
32.892264
0
LINE
8
0
10
50.3800303
20
-19.5575768
11
64.3033368
21
-21.0209753
0
LINE
8
0
10
64.3033368
20
-21.0209753
11
65.7667353
21
-7.0976688
0
LINE
8
0
10
65.7667353
20
-7.0976688
11
51.8434288
21
-5.6342703
0
LINE
8
0
10
51.8434288
20
-5.6342703
11
50.3800303
21
-19.5575768
0
LINE
8
0
10
68.8255509
20
-22.0016728
11
82.2832147
21
-25.8605958
0
LINE
8
0
10
82.2832147
20
-25.8605958
11
86.1421377
21
-12.402932
0
LINE
8
0
10
86.1421377
20
-12.402932
11
72.6844739
21
-8.544009
0
LINE
8
0
10
72.6844739
20
-8.544009
11
68.8255509
21
-22.0016728
0
LINE
8
0
10
86.6412778
20
-27.5036304
11
99.2243945
21
-33.6408265
0
LINE
8
0
10
99.2243945
20
-33.6408265
11
105.3615906
21
-21.0577098
0
LINE
8
0
10
105.3615906
20
-21.0577098
11
92.7784739
21
-14.9205137
0
LINE
8
0
10
92.7784739
20
-14.9205137
11
86.6412778
21
-27.5036304
0
ENDSEC
0
EOF