0
SECTION
2
HEADER
9
$INSUNITS
70
4
0
ENDSEC
0
SECTION
2
TABLES
0
TABLE
2
LTYPE
0
LTYPE
72
65
70
64
2
CONTINUOUS
3
______
73
0
40
0
0
ENDTAB
0
TABLE
2
LAYER
0
ENDTAB
0
ENDSEC
0
SECTION
2
ENTITIES
0
LINE
8
0
10
-9
20
-9.5
11
9
21
-9.5
0
ARC
8
0
10
9
20
-8.5
40
1
50
270
51
360
0
LINE
8
0
10
10
20
-8.5
11
10
21
5.9324289
0
LINE
8
0
10
10
20
5.9324289
11
26.9904742
21
5.0419958
0
ARC
8
0
10
27.0428102
20
6.0406253
40
1
50
266.9999997
51
356.9999974
0
LINE
8
0
10
28.0414397
20
5.9882893
11
28.1687432
21
8.4173847
0
LINE
8
0
10
28.1687432
20
8.4173847
11
44.094809
21
6.7434877
0
LINE
8
0
10
44.094809
20
6.7434877
11
43.5721667
21
1.7708783
0
ARC
8
0
10
44.5666886
20
1.6663498
40
1
50
173.9999979
51
263.9999998
0
LINE
8
0
10
44.4621601
20
0.6718279
11
49.4347696
21
0.1491856
0
LINE
8
0
10
84.7193625
20
29.7229495
11
86.4858935
21
46.5303694
0
ARC
8
0
10
85.4913716
20
46.6348979
40
1
50
353.9999999
51
443.9999979
0
LINE
8
0
10
85.5959001
20
47.6294198
11
68.6890279
21
49.4064037
0
LINE
8
0
10
68.6890279
20
49.4064037
11
68.7935563
21
50.4009255
0
ARC
8
0
10
67.7990344
20
50.505454
40
1
50
354.0000005
51
443.9999979
0
LINE
8
0
10
67.9035629
20
51.4999759
11
50.9966907
21
53.2769598
0
LINE
8
0
10
50.9966907
20
53.2769598
11
51.519333
21
58.2495692
0
ARC
8
0
10
50.5248111
20
58.3540977
40
1
50
353.9999997
51
443.9999979
0
LINE
8
0
10
50.6293396
20
59.3486196
11
32.7279455
21
61.230132
0
ARC
8
0
10
32.623417
20
60.2356101
40
1
50
83.9999998
51
173.9999979
0
LINE
8
0
10
31.6288951
20
60.3401386
11
31.3708668
21
57.8851636
0
LINE
8
0
10
11.7889484
20
58.9114084
11
31.3708668
21
57.8851636
0
ARC
8
0
10
11.7366124
20
57.9127789
40
1
50
86.9999997
51
176.9999974
0
LINE
8
0
10
10.7379829
20
57.9651149
11
9.94468
21
42.8279934
0
ARC
8
0
10
9
20
42.5
40
1
50
19.1470285
51
90
0
LINE
8
0
10
9
20
43.5
11
-9
21
43.5
0
ARC
8
0
10
-9
20
42.5
40
1
50
90
51
180
0
LINE
8
0
10
-10
20
-8.5
11
-10
21
42.5
0
ARC
8
0
10
-9
20
-8.5
40
1
50
180
51
270
0
LINE
8
0
10
48.1296653
20
-21.8348246
11
65.9041154
21
-23.7029947
0
ARC
8
0
10
66.4895715
20
-22.8922906
40
1
50
234.1647817
51
254
0
LINE
8
0
10
66.2139341
20
-23.8535523
11
83.5166446
21
-28.8150247
0
ARC
8
0
10
83.792282
20
-27.853763
40
1
50
254
51
264.7711455
0
ARC
8
0
10
84.186133
20
-27.9750792
40
1
50
240.9885034
51
244.0000002
0
LINE
8
0
10
83.7481639
20
-28.8740692
11
99.9256528
21
-36.7643577
0
ARC
8
0
10
100.3644259
20
-35.8657598
40
1
50
244.0000002
51
334.0000012
0
LINE
8
0
10
101.2634159
20
-36.3037289
11
108.7153333
21
-21.0250341
0
ARC
8
0
10
107.8167354
20
-20.586261
40
1
50
334
51
424.0000012
0
LINE
8
0
10
108.2547045
20
-19.687271
11
104.1694134
21
-17.6947414
0
LINE
8
0
10
47.2396719
20
-20.7357742
11
49.4347696
21
0.1491856
0
ARC
8
0
10
48.2341938
20
-20.8403027
40
1
50
173.9999979
51
263.9999998
0
LINE
8
0
10
84.7193625
20
29.7229495
11
108.8862445
21
27.1829078
0
LINE
8
0
10
104.1694134
20
-17.6947414
11
108.8862445
21
27.1829078
0
LINE
8
0
10
102.285994
20
-6.9139644
11
84.0862433
21
-5.0010935
0
LINE
8
0
10
84.0862433
20
-5.0010935
11
87.6506639
21
28.9121031
0
LINE
8
0
10
87.6506639
20
28.9121031
11
105.8504146
21
26.9992323
0
LINE
8
0
10
105.8504146
20
26.9992323
11
102.285994
21
-6.9139644
0
LINE
8
0
10
-7
20
-7
11
7
21
-7
0
LINE
8
0
10
7
20
-7
11
7
21
7
0
LINE
8
0
10
7
20
7
11
-7
21
7
0
LINE
8
0
10
-7
20
7
11
-7
21
-7
0
LINE
8
0
10
-7
20
10
11
7
21
10
0
LINE
8
0
10
7
20
10
11
7
21
24
0
LINE
8
0
10
7
20
24
11
-7
21
24
0
LINE
8
0
10
-7
20
24
11
-7
21
10
0
LINE
8
0
10
-7
20
27
11
7
21
27
0
LINE
8
0
10
7
20
27
11
7
21
41
0
LINE
8
0
10
7
20
41
11
-7
21
41
0
LINE
8
0
10
-7
20
41
11
-7
21
27
0
LINE
8
0
10
11.1432416
20
8.375945
11
25.124055
21
7.6432416
0
LINE
8
0
10
25.124055
20
7.6432416
11
25.8567584
21
21.624055
0
LINE
8
0
10
25.8567584
20
21.624055
11
11.875945
21
22.3567584
0
LINE
8
0
10
11.875945
20
22.3567584
11
11.1432416
21
8.375945
0
LINE
8
0
10
12.0329529
20
25.3526471
11
26.0137663
21
24.6199437
0
LINE
8
0
10
26.0137663
20
24.6199437
11
26.7464697
21
38.6007571
0
LINE
8
0
10
26.7464697
20
38.6007571
11
12.7656563
21
39.3334605
0
LINE
8
0
10
12.7656563
20
39.3334605
11
12.0329529
21
25.3526471
0
LINE
8
0
10
12.9226642
20
42.3293492
11
26.9034776
21
41.5966458
0
LINE
8
0
10
26.9034776
20
41.5966458
11
27.636181
21
55.5774592
0
LINE
8
0
10
27.636181
20
55.5774592
11
13.6553676
21
56.3101626
0
LINE
8
0
10
13.6553676
20
56.3101626
11
12.9226642
21
42.3293492
0
LINE
8
0
10
29.4383018
20
10.7977194
11
43.3616083
21
9.3343209
0
LINE
8
0
10
43.3616083
20
9.3343209
11
44.8250068
21
23.2576274
0
LINE
8
0
10
44.8250068
20
23.2576274
11
30.9017003
21
24.7210259
0
LINE
8
0
10
30.9017003
20
24.7210259
11
29.4383018
21
10.7977194
0
LINE
8
0
10
31.2152857
20
27.7045916
11
45.1385922
21
26.2411931
0
LINE
8
0
10
45.1385922
20
26.2411931
11
46.6019907
21
40.1644996
0
LINE
8
0
10
46.6019907
20
40.1644996
11
32.6786842
21
41.6278981
0
LINE
8
0
10
32.6786842
20
41.6278981
11
31.2152857
21
27.7045916
0
LINE
8
0
10
32.9922696
20
44.6114638
11
46.9155761
21
43.1480653
0
LINE
8
0
10
46.9155761
20
43.1480653
11
48.3789746
21
57.0713718
0
LINE
8
0
10
48.3789746
20
57.0713718
11
34.4556681
21
58.5347703
0
LINE
8
0
10
34.4556681
20
58.5347703
11
32.9922696
21
44.6114638
0
LINE
8
0
10
46.7125251
20
2.9490757
11
60.6358316
21
1.4856772
0
LINE
8
0
10
60.6358316
20
1.4856772
11
62.0992301
21
15.4089837
0
LINE
8
0
10
62.0992301
20
15.4089837
11
48.1759236
21
16.8723822
0
LINE
8
0
10
48.1759236
20
16.8723822
11
46.7125251
21
2.9490757
0
LINE
8
0
10
48.489509
20
19.8559479
11
62.4128155
21
18.3925494
0
LINE
8
0
10
62.4128155
20
18.3925494
11
63.876214
21
32.3158559
0
LINE
8
0
10
63.876214
20
32.3158559
11
49.9529075
21
33.7792544
0
LINE
8
0
10
49.9529075
20
33.7792544
11
48.489509
21
19.8559479
0
LINE
8
0
10
50.2664929
20
36.7628201
11
64.1897994
21
35.2994216
0
LINE
8
0
10
64.1897994
20
35.2994216
11
65.6531979
21
49.2227281
0
LINE
8
0
10
65.6531979
20
49.2227281
11
51.7298914
21
50.6861266
0
LINE
8
0
10
51.7298914
20
50.6861266
11
50.2664929
21
36.7628201
0
LINE
8
0
10
64.4048623
20
-0.9214804
11
78.3281688
21
-2.3848789
0
LINE
8
0
10
78.3281688
20
-2.3848789
11
79.7915673
21
11.5384276
0
LINE
8
0
10
79.7915673
20
11.5384276
11
65.8682608
21
13.0018261
0
LINE
8
0
10
65.8682608
20
13.0018261
11
64.4048623
21
-0.9214804
0
LINE
8
0
10
66.1818462
20
15.9853918
11
80.1051527
21
14.5219933
0
LINE
8
0
10
80.1051527
20
14.5219933
11
81.5685512
21
28.4452998
0
LINE
8
0
10
81.5685512
20
28.4452998
11
67.6452447
21
29.9086983
0
LINE
8
0
10
67.6452447
20
29.9086983
11
66.1818462
21
15.9853918
0
LINE
8
0
10
67.9588301
20
32.892264
11
81.8821366
21
31.4288655
0
LINE
8
0
10
81.8821366
20
31.4288655
11
83.3455351
21
45.352172
0
LINE
8
0
10
83.3455351
20
45.352172
11
69.4222286
21
46.8155705
0
LINE
8
0
10
69.4222286
20
46.8155705
11
67.9588301
21
32.892264
0
LINE
8
0
10
50.3800303
20
-19.5575768
11
64.3033368
21
-21.0209753
0
LINE
8
0
10
64.3033368
20
-21.0209753
11
65.7667353
21
-7.0976688
0
LINE
8
0
10
65.7667353
20
-7.0976688
11
51.8434288
21
-5.6342703
0
LINE
8
0
10
51.8434288
20
-5.6342703
11
50.3800303
21
-19.5575768
0
LINE
8
0
10
68.8255509
20
-22.0016728
11
82.2832147
21
-25.8605958
0
LINE
8
0
10
82.2832147
20
-25.8605958
11
86.1421377
21
-12.402932
0
LINE
8
0
10
86.1421377
20
-12.402932
11
72.6844739
21
-8.544009
0
LINE
8
0
10
72.6844739
20
-8.544009
11
68.8255509
21
-22.0016728
0
LINE
8
0
10
86.6412778
20
-27.5036304
11
99.2243945
21
-33.6408265
0
LINE
8
0
10
99.2243945
20
-33.6408265
11
105.3615906
21
-21.0577098
0
LINE
8
0
10
105.3615906
20
-21.0577098
11
92.7784739
21
-14.9205137
0
LINE
8
0
10
92.7784739
20
-14.9205137
11
86.6412778
21
-27.5036304
0
ENDSEC
0
EOF