solid csg.js
facet normal 0 0 -1
outer loop
vertex 145.1483667 -35.6842912 0
vertex 145.1483667 -39.152789 0
vertex 125.1483667 -39.152789 0
endloop
endfacet
facet normal 0 0 -1
outer loop
vertex 145.1483667 -35.6842912 0
vertex 125.1483667 -39.152789 0
vertex 125.1483667 -35.6842912 0
endloop
endfacet
facet normal 0 0 -1
outer loop
vertex 145.1483667 -39.152789 0
vertex 145.1483667 -39.18429083761562 0
vertex 124.54727491471621 -39.18429083761562 0
endloop
endfacet
facet normal 0 0 -1
outer loop
vertex 145.1483667 -39.152789 0
vertex 124.54727491471621 -39.18429083761562 0
vertex 125.1483667 -39.152789 0
endloop
endfacet
facet normal 0 0 -1
outer loop
vertex 124.54727491471621 -39.18429083761562 0
vertex 145.1483667 -39.18429083761562 0
vertex 183.14836835000003 -39.18429083761562 0
endloop
endfacet
facet normal 0 0 -1
outer loop
vertex 124.54727491471621 -39.18429083761562 0
vertex 183.14836835000003 -39.18429083761562 0
vertex 183.32201652766688 -39.199482846987785 0
endloop
endfacet
facet normal 0 0 -1
outer loop
vertex 124.54727491471621 -39.18429083761562 0
vertex 183.32201652766688 -39.199482846987785 0
vertex 183.4903884933257 -39.2445979792141 0
endloop
endfacet
facet normal 0 0 -1
outer loop
vertex 124.54727491471621 -39.18429083761562 0
vertex 183.4903884933257 -39.2445979792141 0
vertex 183.64836835 -39.31826519621556 0
endloop
endfacet
facet normal 0 0 -1
outer loop
vertex 124.54727491471621 -39.18429083761562 0
vertex 183.64836835 -39.31826519621556 0
vertex 183.79115595968653 -39.41824615688103 0
endloop
endfacet
facet normal 0 0 -1
outer loop
vertex 124.54727491471621 -39.18429083761562 0
vertex 183.79115595968653 -39.41824615688103 0
vertex 183.91441279311903 -39.54150299031352 0
endloop
endfacet
facet normal 0 0 -1
outer loop
vertex 124.54727491471621 -39.18429083761562 0
vertex 183.91441279311903 -39.54150299031352 0
vertex 184.01439375378447 -39.6842906 0
endloop
endfacet
facet normal 0 0 -1
outer loop
vertex 124.54727491471621 -39.18429083761562 0
vertex 184.01439375378447 -39.6842906 0
vertex 184.08806097078593 -39.84227045667434 0
endloop
endfacet
facet normal 0 0 -1
outer loop
vertex 124.54727491471621 -39.18429083761562 0
vertex 184.08806097078593 -39.84227045667434 0
vertex 184.13317610301218 -40.01064242233291 0
endloop
endfacet
facet normal 0 0 -1
outer loop
vertex 124.54727491471621 -39.18429083761562 0
vertex 184.13317610301218 -40.01064242233291 0
vertex 184.1483667 -40.184291200000075 0
endloop
endfacet
facet normal 0 0 -1
outer loop
vertex 124.54727491471621 -39.18429083761562 0
vertex 184.1483667 -40.184291200000075 0
vertex 184.1483667 -57.2958382 0
endloop
endfacet
facet normal 0 0 -1
outer loop
vertex 124.54727491471621 -39.18429083761562 0
vertex 184.1483667 -57.2958382 0
vertex 90.1483667 -57.2958382 0
endloop
endfacet
facet normal 0 0 -1
outer loop
vertex 124.54727491471621 -39.18429083761562 0
vertex 90.1483667 -57.2958382 0
vertex 90.14836834999998 -40.184291200000075 0
endloop
endfacet
facet normal 0 0 -1
outer loop
vertex 124.54727491471621 -39.18429083761562 0
vertex 90.14836834999998 -40.184291200000075 0
vertex 90.1635605969878 -40.01064242233291 0
endloop
endfacet
facet normal 0 0 -1
outer loop
vertex 124.54727491471621 -39.18429083761562 0
vertex 90.1635605969878 -40.01064242233291 0
vertex 90.20867572921411 -39.84227045667434 0
endloop
endfacet
facet normal 0 0 -1
outer loop
vertex 124.54727491471621 -39.18429083761562 0
vertex 90.20867572921411 -39.84227045667434 0
vertex 90.28234294621554 -39.6842906 0
endloop
endfacet
facet normal 0 0 -1
outer loop
vertex 124.54727491471621 -39.18429083761562 0
vertex 90.28234294621554 -39.6842906 0
vertex 90.38232390688104 -39.54150299031352 0
endloop
endfacet
facet normal 0 0 -1
outer loop
vertex 124.54727491471621 -39.18429083761562 0
vertex 90.38232390688104 -39.54150299031352 0
vertex 90.50558074031345 -39.41824615688103 0
endloop
endfacet
facet normal 0 0 -1
outer loop
vertex 124.54727491471621 -39.18429083761562 0
vertex 90.50558074031345 -39.41824615688103 0
vertex 90.6483683499999 -39.31826519621556 0
endloop
endfacet
facet normal 0 0 -1
outer loop
vertex 124.54727491471621 -39.18429083761562 0
vertex 90.6483683499999 -39.31826519621556 0
vertex 90.80634820667441 -39.2445979792141 0
endloop
endfacet
facet normal 0 0 -1
outer loop
vertex 124.54727491471621 -39.18429083761562 0
vertex 90.80634820667441 -39.2445979792141 0
vertex 90.97472017233302 -39.199482846987785 0
endloop
endfacet
facet normal 0 0 -1
outer loop
vertex 124.54727491471621 -39.18429083761562 0
vertex 90.97472017233302 -39.199482846987785 0
vertex 91.1483667 -39.18429083761562 0
endloop
endfacet
facet normal 0 0 -1
outer loop
vertex 184.1483667 -57.2958382 0
vertex 184.1483667 -57.68429059648689 0
vertex 86.45248924680828 -57.68429059648689 0
endloop
endfacet
facet normal 0 0 -1
outer loop
vertex 184.1483667 -57.2958382 0
vertex 86.45248924680828 -57.68429059648689 0
vertex 90.1483667 -57.2958382 0
endloop
endfacet
facet normal 0 0 -1
outer loop
vertex 184.1483667 -57.68429059648689 0
vertex 201.4483682999999 -57.68429059648689 0
vertex 201.622016477667 -57.6994827969878 0
endloop
endfacet
facet normal 0 0 -1
outer loop
vertex 184.1483667 -57.68429059648689 0
vertex 201.622016477667 -57.6994827969878 0
vertex 201.79038844332572 -57.7445979292141 0
endloop
endfacet
facet normal 0 0 -1
outer loop
vertex 184.1483667 -57.68429059648689 0
vertex 201.79038844332572 -57.7445979292141 0
vertex 201.9483683 -57.818265146215545 0
endloop
endfacet
facet normal 0 0 -1
outer loop
vertex 184.1483667 -57.68429059648689 0
vertex 201.9483683 -57.818265146215545 0
vertex 202.09115590968662 -57.91824610688107 0
endloop
endfacet
facet normal 0 0 -1
outer loop
vertex 184.1483667 -57.68429059648689 0
vertex 202.09115590968662 -57.91824610688107 0
vertex 202.21441274311894 -58.041502940313386 0
endloop
endfacet
facet normal 0 0 -1
outer loop
vertex 184.1483667 -57.68429059648689 0
vertex 202.21441274311894 -58.041502940313386 0
vertex 202.3143937037845 -58.184290550000064 0
endloop
endfacet
facet normal 0 0 -1
outer loop
vertex 184.1483667 -57.68429059648689 0
vertex 202.3143937037845 -58.184290550000064 0
vertex 202.38806092078593 -58.34227040667433 0
endloop
endfacet
facet normal 0 0 -1
outer loop
vertex 184.1483667 -57.68429059648689 0
vertex 202.38806092078593 -58.34227040667433 0
vertex 202.43317605301226 -58.51064237233321 0
endloop
endfacet
facet normal 0 0 -1
outer loop
vertex 184.1483667 -57.68429059648689 0
vertex 202.43317605301226 -58.51064237233321 0
vertex 202.4483666 -58.68429109999977 0
endloop
endfacet
facet normal 0 0 -1
outer loop
vertex 184.1483667 -57.68429059648689 0
vertex 202.4483666 -58.68429109999977 0
vertex 202.4483666 -108.984941 0
endloop
endfacet
facet normal 0 0 -1
outer loop
vertex 184.1483667 -57.68429059648689 0
vertex 202.4483666 -108.984941 0
vertex 90.88927252404935 -108.984941 0
endloop
endfacet
facet normal 0 0 -1
outer loop
vertex 184.1483667 -57.68429059648689 0
vertex 90.88927252404935 -108.984941 0
vertex 85.5077928 -57.78358219999999 0
endloop
endfacet
facet normal 0 0 -1
outer loop
vertex 184.1483667 -57.68429059648689 0
vertex 85.5077928 -57.78358219999999 0
vertex 86.45248924680828 -57.68429059648689 0
endloop
endfacet
facet normal 0 0 -1
outer loop
vertex 202.4483666 -108.984941 0
vertex 208.12176254999997 -111.75204299999999 0
vertex 208.27117547295668 -111.84182024074556 0
endloop
endfacet
facet normal 0 0 -1
outer loop
vertex 202.4483666 -108.984941 0
vertex 208.27117547295668 -111.84182024074556 0
vertex 208.40272892883044 -111.95617872425271 0
endloop
endfacet
facet normal 0 0 -1
outer loop
vertex 202.4483666 -108.984941 0
vertex 208.40272892883044 -111.95617872425271 0
vertex 208.51242577446135 -112.09164376240243 0
endloop
endfacet
facet normal 0 0 -1
outer loop
vertex 202.4483666 -108.984941 0
vertex 208.51242577446135 -112.09164376240243 0
vertex 208.5969329617499 -112.24409936183736 0
endloop
endfacet
facet normal 0 0 -1
outer loop
vertex 202.4483666 -108.984941 0
vertex 208.5969329617499 -112.24409936183736 0
vertex 208.65368280957026 -112.40891328501941 0
endloop
endfacet
facet normal 0 0 -1
outer loop
vertex 202.4483666 -108.984941 0
vertex 208.65368280957026 -112.40891328501941 0
vertex 208.6809510206436 -112.58107779694689 0
endloop
endfacet
facet normal 0 0 -1
outer loop
vertex 202.4483666 -108.984941 0
vertex 208.6809510206436 -112.58107779694689 0
vertex 208.6779090728862 -112.75536182104608 0
endloop
endfacet
facet normal 0 0 -1
outer loop
vertex 202.4483666 -108.984941 0
vertex 208.6779090728862 -112.75536182104608 0
vertex 208.64464939336952 -112.92646988111589 0
endloop
endfacet
facet normal 0 0 -1
outer loop
vertex 202.4483666 -108.984941 0
vertex 208.64464939336952 -112.92646988111589 0
vertex 208.58218510000006 -113.0892059999999 0
endloop
endfacet
facet normal 0 0 -1
outer loop
vertex 202.4483666 -108.984941 0
vertex 208.58218510000006 -113.0892059999999 0
vertex 206.8287485560627 -116.68428327810318 0
endloop
endfacet
facet normal 0 0 -1
outer loop
vertex 202.4483666 -108.984941 0
vertex 206.8287485560627 -116.68428327810318 0
vertex 165.95030190000014 -116.68429232499498 0
endloop
endfacet
facet normal 0 0 -1
outer loop
vertex 202.4483666 -108.984941 0
vertex 165.95030190000014 -116.68429232499498 0
vertex 154.57816994382276 -116.68428327810318 0
endloop
endfacet
facet normal 0 0 -1
outer loop
vertex 202.4483666 -108.984941 0
vertex 154.57816994382276 -116.68428327810318 0
vertex 92.59876774383926 -116.68428327810318 0
endloop
endfacet
facet normal 0 0 -1
outer loop
vertex 202.4483666 -108.984941 0
vertex 92.59876774383926 -116.68428327810318 0
vertex 92.43673098606959 -116.67105582730458 0
endloop
endfacet
facet normal 0 0 -1
outer loop
vertex 202.4483666 -108.984941 0
vertex 92.43673098606959 -116.67105582730458 0
vertex 92.27884656943354 -116.63169019399186 0
endloop
endfacet
facet normal 0 0 -1
outer loop
vertex 202.4483666 -108.984941 0
vertex 92.27884656943354 -116.63169019399186 0
vertex 92.1294365782269 -116.56724023952897 0
endloop
endfacet
facet normal 0 0 -1
outer loop
vertex 202.4483666 -108.984941 0
vertex 92.1294365782269 -116.56724023952897 0
vertex 91.99245696201847 -116.4794124145188 0
endloop
endfacet
facet normal 0 0 -1
outer loop
vertex 202.4483666 -108.984941 0
vertex 91.99245696201847 -116.4794124145188 0
vertex 91.87153454957183 -116.37053214876477 0
endloop
endfacet
facet normal 0 0 -1
outer loop
vertex 202.4483666 -108.984941 0
vertex 91.87153454957183 -116.37053214876477 0
vertex 91.76987102078455 -116.24348228053522 0
endloop
endfacet
facet normal 0 0 -1
outer loop
vertex 202.4483666 -108.984941 0
vertex 91.76987102078455 -116.24348228053522 0
vertex 91.69015813535506 -116.1016267272455 0
endloop
endfacet
facet normal 0 0 -1
outer loop
vertex 202.4483666 -108.984941 0
vertex 91.69015813535506 -116.1016267272455 0
vertex 91.6345064626783 -115.94872141853814 0
endloop
endfacet
facet normal 0 0 -1
outer loop
vertex 202.4483666 -108.984941 0
vertex 91.6345064626783 -115.94872141853814 0
vertex 91.604389 -115.78881970000003 0
endloop
endfacet
facet normal 0 0 -1
outer loop
vertex 202.4483666 -108.984941 0
vertex 91.604389 -115.78881970000003 0
vertex 90.88927252404935 -108.984941 0
endloop
endfacet
facet normal 0 0 1
outer loop
vertex 206.8287485560627 -116.68428327810318 0
vertex 154.57816994382276 -116.68428327810318 0
vertex 154.57808297596398 -116.68429088703093 0
endloop
endfacet
facet normal 0 0 1
outer loop
vertex 206.8287485560627 -116.68428327810318 0
vertex 154.57808297596398 -116.68429088703093 0
vertex 154.57816994382276 -116.68428327810318 0
endloop
endfacet
facet normal 0 0 1
outer loop
vertex 154.57816994382276 -116.68428327810318 0
vertex 144.14836877021577 -116.68428522540914 0
vertex 112.14836659999999 -116.68429232499498 0
endloop
endfacet
facet normal 0 0 1
outer loop
vertex 154.57816994382276 -116.68428327810318 0
vertex 112.14836659999999 -116.68429232499498 0
vertex 92.59890950000003 -116.68429485 0
endloop
endfacet
facet normal 0 0 1
outer loop
vertex 154.57816994382276 -116.68428327810318 0
vertex 92.59890950000003 -116.68429485 0
vertex 92.59876774383926 -116.68428327810318 0
endloop
endfacet
facet normal 0 0 -1
outer loop
vertex 166.25188546196662 -116.69570783738244 0
vertex 166.10098400257783 -116.69570783738244 0
vertex 166.0258608438378 -116.68715153277833 0
endloop
endfacet
facet normal 0 0 -1
outer loop
vertex 166.25188546196662 -116.69570783738244 0
vertex 166.62719983758524 -116.70991559999999 0
vertex 166.1752459513107 -116.70991559999999 0
endloop
endfacet
facet normal 0 0 -1
outer loop
vertex 166.25188546196662 -116.69570783738244 0
vertex 166.1752459513107 -116.70991559999999 0
vertex 166.10098400257783 -116.69570783738244 0
endloop
endfacet
facet normal 0 0 1
outer loop
vertex 166.62719983758524 -116.70991559999999 0
vertex 186.18622329527852 -117.45033504311888 0
vertex 186.1862302402259 -117.45033504311888 0
endloop
endfacet
facet normal 0 0 1
outer loop
vertex 166.62719983758524 -116.70991559999999 0
vertex 186.1862302402259 -117.45033504311888 0
vertex 169.38235161406806 -117.45033504311888 0
endloop
endfacet
facet normal 0 0 1
outer loop
vertex 166.62719983758524 -116.70991559999999 0
vertex 169.38235161406806 -117.45033504311888 0
vertex 166.1752459513107 -116.70991559999999 0
endloop
endfacet
facet normal 0 0 -1
outer loop
vertex 206.8287485560627 -116.68428327810318 0
vertex 206.45511983515937 -117.45033504311888 0
vertex 186.1862302402259 -117.45033504311888 0
endloop
endfacet
facet normal 0 0 -1
outer loop
vertex 206.8287485560627 -116.68428327810318 0
vertex 186.1862302402259 -117.45033504311888 0
vertex 186.18622329527852 -117.45033504311888 0
endloop
endfacet
facet normal 0 0 -1
outer loop
vertex 206.8287485560627 -116.68428327810318 0
vertex 186.18622329527852 -117.45033504311888 0
vertex 166.62719983758524 -116.70991559999999 0
endloop
endfacet
facet normal 0 0 -1
outer loop
vertex 206.8287485560627 -116.68428327810318 0
vertex 166.62719983758524 -116.70991559999999 0
vertex 166.25188546196662 -116.69570783738244 0
endloop
endfacet
facet normal 0 0 -1
outer loop
vertex 206.8287485560627 -116.68428327810318 0
vertex 166.25188546196662 -116.69570783738244 0
vertex 166.0258608438378 -116.68715153277833 0
endloop
endfacet
facet normal 0 0 -1
outer loop
vertex 206.8287485560627 -116.68428327810318 0
vertex 166.0258608438378 -116.68715153277833 0
vertex 165.95030190000014 -116.68429232499498 0
endloop
endfacet
facet normal 0 0 -1
outer loop
vertex 144.1331760530122 -116.85793877766709 0
vertex 144.088060920786 -117.0263107433254 0
vertex 144.01439370378435 -117.18429060000018 0
endloop
endfacet
facet normal 0 0 -1
outer loop
vertex 144.1331760530122 -116.85793877766709 0
vertex 144.01439370378435 -117.18429060000018 0
vertex 143.914412743119 -117.32707820968655 0
endloop
endfacet
facet normal 0 0 -1
outer loop
vertex 144.1331760530122 -116.85793877766709 0
vertex 143.914412743119 -117.32707820968655 0
vertex 143.79115590968667 -117.45033504311888 0
endloop
endfacet
facet normal 0 0 -1
outer loop
vertex 144.1331760530122 -116.85793877766709 0
vertex 143.79115590968667 -117.45033504311888 0
vertex 143.64836830000004 -117.5503160037844 0
endloop
endfacet
facet normal 0 0 -1
outer loop
vertex 144.1331760530122 -116.85793877766709 0
vertex 143.64836830000004 -117.5503160037844 0
vertex 143.49038844332566 -117.6239832207859 0
endloop
endfacet
facet normal 0 0 -1
outer loop
vertex 144.1331760530122 -116.85793877766709 0
vertex 143.49038844332566 -117.6239832207859 0
vertex 143.32201647766686 -117.66909835301222 0
endloop
endfacet
facet normal 0 0 -1
outer loop
vertex 144.1331760530122 -116.85793877766709 0
vertex 143.32201647766686 -117.66909835301222 0
vertex 143.1483666000002 -117.68429174494726 0
endloop
endfacet
facet normal 0 0 -1
outer loop
vertex 144.1331760530122 -116.85793877766709 0
vertex 143.1483666000002 -117.68429174494726 0
vertex 113.14836829999985 -117.68429174494726 0
endloop
endfacet
facet normal 0 0 -1
outer loop
vertex 144.1331760530122 -116.85793877766709 0
vertex 113.14836829999985 -117.68429174494726 0
vertex 112.97472012233305 -117.66909835301222 0
endloop
endfacet
facet normal 0 0 -1
outer loop
vertex 144.1331760530122 -116.85793877766709 0
vertex 112.97472012233305 -117.66909835301222 0
vertex 112.80634815667439 -117.6239832207859 0
endloop
endfacet
facet normal 0 0 -1
outer loop
vertex 144.1331760530122 -116.85793877766709 0
vertex 112.80634815667439 -117.6239832207859 0
vertex 112.6483683 -117.5503160037844 0
endloop
endfacet
facet normal 0 0 -1
outer loop
vertex 144.1331760530122 -116.85793877766709 0
vertex 112.6483683 -117.5503160037844 0
vertex 112.50558069031348 -117.45033504311888 0
endloop
endfacet
facet normal 0 0 -1
outer loop
vertex 144.1331760530122 -116.85793877766709 0
vertex 112.50558069031348 -117.45033504311888 0
vertex 112.38232385688099 -117.32707820968655 0
endloop
endfacet
facet normal 0 0 -1
outer loop
vertex 144.1331760530122 -116.85793877766709 0
vertex 112.38232385688099 -117.32707820968655 0
vertex 112.28234289621561 -117.18429060000018 0
endloop
endfacet
facet normal 0 0 -1
outer loop
vertex 144.1331760530122 -116.85793877766709 0
vertex 112.28234289621561 -117.18429060000018 0
vertex 112.20867567921411 -117.0263107433254 0
endloop
endfacet
facet normal 0 0 -1
outer loop
vertex 144.1331760530122 -116.85793877766709 0
vertex 112.20867567921411 -117.0263107433254 0
vertex 112.16356054698777 -116.85793877766709 0
endloop
endfacet
facet normal 0 0 -1
outer loop
vertex 144.1331760530122 -116.85793877766709 0
vertex 112.16356054698777 -116.85793877766709 0
vertex 112.14836659999999 -116.68429232499498 0
endloop
endfacet
facet normal 0 0 -1
outer loop
vertex 144.1331760530122 -116.85793877766709 0
vertex 112.14836659999999 -116.68429232499498 0
vertex 144.14836877021577 -116.68428522540914 0
endloop
endfacet
facet normal 0 0 -1
outer loop
vertex 186.1862302402259 -117.45033504311888 0
vertex 206.45511983515937 -117.45033504311888 0
vertex 204.95377699302225 -120.52854379999978 0
endloop
endfacet
facet normal 0 0 -1
outer loop
vertex 186.1862302402259 -117.45033504311888 0
vertex 204.95377699302225 -120.52854379999978 0
vertex 182.71552489999917 -120.52854379999978 0
endloop
endfacet
facet normal 0 0 -1
outer loop
vertex 186.1862302402259 -117.45033504311888 0
vertex 182.71552489999917 -120.52854379999978 0
vertex 169.38235161406806 -117.45033504311888 0
endloop
endfacet
facet normal 0 0 -1
outer loop
vertex 204.95377699302225 -120.52854379999978 0
vertex 204.94412874933371 -120.54832563078307 0
vertex 182.78850175615796 -120.54832563078307 0
endloop
endfacet
facet normal 0 0 -1
outer loop
vertex 204.95377699302225 -120.52854379999978 0
vertex 182.78850175615796 -120.54832563078307 0
vertex 182.71552489999917 -120.52854379999978 0
endloop
endfacet
facet normal 0 0 -1
outer loop
vertex 204.94412874933371 -120.54832563078307 0
vertex 204.93181767711695 -120.57356706904012 0
vertex 182.85977759305686 -120.57356706904012 0
endloop
endfacet
facet normal 0 0 -1
outer loop
vertex 204.94412874933371 -120.54832563078307 0
vertex 182.85977759305686 -120.57356706904012 0
vertex 182.78850175615796 -120.54832563078307 0
endloop
endfacet
facet normal 0 0 -1
outer loop
vertex 204.93181767711695 -120.57356706904012 0
vertex 204.91691509008183 -120.60412189999997 0
vertex 182.92894244999994 -120.60412189999997 0
endloop
endfacet
facet normal 0 0 -1
outer loop
vertex 204.93181767711695 -120.57356706904012 0
vertex 182.92894244999994 -120.60412189999997 0
vertex 182.85977759305686 -120.57356706904012 0
endloop
endfacet
facet normal 0 0 -1
outer loop
vertex 204.91691509008183 -120.60412189999997 0
vertex 201.12987519999982 -128.36870390000036 0
vertex 201.04009795925447 -128.51811682295667 0
endloop
endfacet
facet normal 0 0 -1
outer loop
vertex 204.91691509008183 -120.60412189999997 0
vertex 201.04009795925447 -128.51811682295667 0
vertex 200.92573947574738 -128.6496702788304 0
endloop
endfacet
facet normal 0 0 -1
outer loop
vertex 204.91691509008183 -120.60412189999997 0
vertex 200.92573947574738 -128.6496702788304 0
vertex 200.79027443759742 -128.75936712446148 0
endloop
endfacet
facet normal 0 0 -1
outer loop
vertex 204.91691509008183 -120.60412189999997 0
vertex 200.79027443759742 -128.75936712446148 0
vertex 200.6378188381628 -128.84387431174986 0
endloop
endfacet
facet normal 0 0 -1
outer loop
vertex 204.91691509008183 -120.60412189999997 0
vertex 200.6378188381628 -128.84387431174986 0
vertex 200.47300491498052 -128.9006241595703 0
endloop
endfacet
facet normal 0 0 -1
outer loop
vertex 204.91691509008183 -120.60412189999997 0
vertex 200.47300491498052 -128.9006241595703 0
vertex 200.30084040305314 -128.9278923706436 0
endloop
endfacet
facet normal 0 0 -1
outer loop
vertex 204.91691509008183 -120.60412189999997 0
vertex 200.30084040305314 -128.9278923706436 0
vertex 200.12655637895398 -128.9248504228862 0
endloop
endfacet
facet normal 0 0 -1
outer loop
vertex 204.91691509008183 -120.60412189999997 0
vertex 200.12655637895398 -128.9248504228862 0
vertex 199.95544831888424 -128.89159074336956 0
endloop
endfacet
facet normal 0 0 -1
outer loop
vertex 204.91691509008183 -120.60412189999997 0
vertex 199.95544831888424 -128.89159074336956 0
vertex 199.79271040000006 -128.82912780000004 0
endloop
endfacet
facet normal 0 0 -1
outer loop
vertex 204.91691509008183 -120.60412189999997 0
vertex 199.79271040000006 -128.82912780000004 0
vertex 182.92894244999994 -120.60412189999997 0
endloop
endfacet
facet normal 0 0 1
outer loop
vertex 200.47300491498055 -128.90062415957027 1
vertex 200.6378188381629 -128.8438743117498 1
vertex 200.79027443759733 -128.75936712446153 1
endloop
endfacet
facet normal 0 0 1
outer loop
vertex 200.47300491498055 -128.90062415957027 1
vertex 200.79027443759733 -128.75936712446153 1
vertex 200.9257394757473 -128.64967027883046 1
endloop
endfacet
facet normal 0 0 1
outer loop
vertex 200.47300491498055 -128.90062415957027 1
vertex 200.9257394757473 -128.64967027883046 1
vertex 201.04009795925444 -128.51811682295667 1
endloop
endfacet
facet normal 0 0 1
outer loop
vertex 200.47300491498055 -128.90062415957027 1
vertex 201.04009795925444 -128.51811682295667 1
vertex 201.12987519999982 -128.36870390000027 1
endloop
endfacet
facet normal 0 0 1
outer loop
vertex 200.47300491498055 -128.90062415957027 1
vertex 201.12987519999982 -128.36870390000027 1
vertex 204.91691530345528 -120.60412190000014 1
endloop
endfacet
facet normal 0 0 1
outer loop
vertex 200.47300491498055 -128.90062415957027 1
vertex 204.91691530345528 -120.60412190000014 1
vertex 182.92894245000028 -120.60412190000014 1
endloop
endfacet
facet normal 0 0 1
outer loop
vertex 200.47300491498055 -128.90062415957027 1
vertex 182.92894245000028 -120.60412190000014 1
vertex 199.79271040000015 -128.8291278000001 1
endloop
endfacet
facet normal 0 0 1
outer loop
vertex 200.47300491498055 -128.90062415957027 1
vertex 199.79271040000015 -128.8291278000001 1
vertex 199.95544831888407 -128.8915907433695 1
endloop
endfacet
facet normal 0 0 1
outer loop
vertex 200.47300491498055 -128.90062415957027 1
vertex 199.95544831888407 -128.8915907433695 1
vertex 200.12655637895406 -128.9248504228862 1
endloop
endfacet
facet normal 0 0 1
outer loop
vertex 200.47300491498055 -128.90062415957027 1
vertex 200.12655637895406 -128.9248504228862 1
vertex 200.30084040305303 -128.9278923706436 1
endloop
endfacet
facet normal 0 0 1
outer loop
vertex 204.91691530345528 -120.60412190000014 1
vertex 204.93181789192687 -120.57356706904008 1
vertex 182.85977759305675 -120.57356706904008 1
endloop
endfacet
facet normal 0 0 1
outer loop
vertex 204.91691530345528 -120.60412190000014 1
vertex 182.85977759305675 -120.57356706904008 1
vertex 182.92894245000028 -120.60412190000014 1
endloop
endfacet
facet normal 0 0 1
outer loop
vertex 204.93181789192687 -120.57356706904008 1
vertex 204.94412896533024 -120.54832563078303 1
vertex 182.7885017561578 -120.54832563078303 1
endloop
endfacet
facet normal 0 0 1
outer loop
vertex 204.93181789192687 -120.57356706904008 1
vertex 182.7885017561578 -120.54832563078303 1
vertex 182.85977759305675 -120.57356706904008 1
endloop
endfacet
facet normal 0 0 1
outer loop
vertex 204.94412896533024 -120.54832563078303 1
vertex 204.95377720994864 -120.52854379999984 1
vertex 182.7155248999994 -120.52854379999984 1
endloop
endfacet
facet normal 0 0 1
outer loop
vertex 204.94412896533024 -120.54832563078303 1
vertex 182.7155248999994 -120.52854379999984 1
vertex 182.7885017561578 -120.54832563078303 1
endloop
endfacet
facet normal 0 0 1
outer loop
vertex 204.95377720994864 -120.52854379999984 1
vertex 206.81624683594845 -116.70991560000002 1
vertex 166.1752459500001 -116.70991560000002 1
endloop
endfacet
facet normal 0 0 1
outer loop
vertex 204.95377720994864 -120.52854379999984 1
vertex 166.1752459500001 -116.70991560000002 1
vertex 182.7155248999994 -120.52854379999984 1
endloop
endfacet
facet normal 0 0 1
outer loop
vertex 206.81624683594845 -116.70991560000002 1
vertex 206.82317642556615 -116.69570783738247 1
vertex 166.10098399597092 -116.69570783738247 1
endloop
endfacet
facet normal 0 0 1
outer loop
vertex 206.81624683594845 -116.70991560000002 1
vertex 166.10098399597092 -116.69570783738247 1
vertex 166.1752459500001 -116.70991560000002 1
endloop
endfacet
facet normal 0 0 1
outer loop
vertex 206.82317642556615 -116.69570783738247 1
vertex 206.82734961462813 -116.68715153277832 1
vertex 166.0258608438375 -116.68715153277832 1
endloop
endfacet
facet normal 0 0 1
outer loop
vertex 206.82317642556615 -116.69570783738247 1
vertex 166.0258608438375 -116.68715153277832 1
vertex 166.10098399597092 -116.69570783738247 1
endloop
endfacet
facet normal 0 0 1
outer loop
vertex 206.82734961462813 -116.68715153277832 1
vertex 206.82874414359821 -116.68429232499498 1
vertex 165.95030189999991 -116.68429088703091 1
endloop
endfacet
facet normal 0 0 1
outer loop
vertex 206.82734961462813 -116.68715153277832 1
vertex 165.95030189999991 -116.68429088703091 1
vertex 166.0258608438375 -116.68715153277832 1
endloop
endfacet
facet normal 0 0 1
outer loop
vertex 143.14836660000017 -117.68429059999998 1
vertex 143.3220164776669 -117.6690983530122 1
vertex 143.4903884433258 -117.62398322078586 1
endloop
endfacet
facet normal 0 0 1
outer loop
vertex 143.14836660000017 -117.68429059999998 1
vertex 143.4903884433258 -117.62398322078586 1
vertex 143.64836829999993 -117.55031600378447 1
endloop
endfacet
facet normal 0 0 1
outer loop
vertex 143.14836660000017 -117.68429059999998 1
vertex 143.64836829999993 -117.55031600378447 1
vertex 143.79115590968652 -117.45033504311898 1
endloop
endfacet
facet normal 0 0 1
outer loop
vertex 143.14836660000017 -117.68429059999998 1
vertex 143.79115590968652 -117.45033504311898 1
vertex 143.91441274311913 -117.32707820968638 1
endloop
endfacet
facet normal 0 0 1
outer loop
vertex 143.14836660000017 -117.68429059999998 1
vertex 143.91441274311913 -117.32707820968638 1
vertex 144.01439370378438 -117.18429060000015 1
endloop
endfacet
facet normal 0 0 1
outer loop
vertex 143.14836660000017 -117.68429059999998 1
vertex 144.01439370378438 -117.18429060000015 1
vertex 144.08806092078598 -117.0263107433255 1
endloop
endfacet
facet normal 0 0 1
outer loop
vertex 143.14836660000017 -117.68429059999998 1
vertex 144.08806092078598 -117.0263107433255 1
vertex 144.1331760530122 -116.857938777667 1
endloop
endfacet
facet normal 0 0 1
outer loop
vertex 143.14836660000017 -117.68429059999998 1
vertex 144.1331760530122 -116.857938777667 1
vertex 144.14836877021577 -116.68428522540914 1
endloop
endfacet
facet normal 0 0 1
outer loop
vertex 143.14836660000017 -117.68429059999998 1
vertex 144.14836877021577 -116.68428522540914 1
vertex 112.14836659999999 -116.68429088703091 1
endloop
endfacet
facet normal 0 0 1
outer loop
vertex 143.14836660000017 -117.68429059999998 1
vertex 112.14836659999999 -116.68429088703091 1
vertex 112.16356054698777 -116.857938777667 1
endloop
endfacet
facet normal 0 0 1
outer loop
vertex 143.14836660000017 -117.68429059999998 1
vertex 112.16356054698777 -116.857938777667 1
vertex 112.20867567921408 -117.0263107433255 1
endloop
endfacet
facet normal 0 0 1
outer loop
vertex 143.14836660000017 -117.68429059999998 1
vertex 112.20867567921408 -117.0263107433255 1
vertex 112.28234289621558 -117.18429060000015 1
endloop
endfacet
facet normal 0 0 1
outer loop
vertex 143.14836660000017 -117.68429059999998 1
vertex 112.28234289621558 -117.18429060000015 1
vertex 112.38232385688103 -117.32707820968638 1
endloop
endfacet
facet normal 0 0 1
outer loop
vertex 143.14836660000017 -117.68429059999998 1
vertex 112.38232385688103 -117.32707820968638 1
vertex 112.5055806903134 -117.45033504311898 1
endloop
endfacet
facet normal 0 0 1
outer loop
vertex 143.14836660000017 -117.68429059999998 1
vertex 112.5055806903134 -117.45033504311898 1
vertex 112.64836830000004 -117.55031600378447 1
endloop
endfacet
facet normal 0 0 1
outer loop
vertex 143.14836660000017 -117.68429059999998 1
vertex 112.64836830000004 -117.55031600378447 1
vertex 112.80634815667439 -117.62398322078586 1
endloop
endfacet
facet normal 0 0 1
outer loop
vertex 143.14836660000017 -117.68429059999998 1
vertex 112.80634815667439 -117.62398322078586 1
vertex 112.9747201223329 -117.6690983530122 1
endloop
endfacet
facet normal 0 0 1
outer loop
vertex 143.14836660000017 -117.68429059999998 1
vertex 112.9747201223329 -117.6690983530122 1
vertex 113.14836830000003 -117.68429059999998 1
endloop
endfacet
facet normal 0 0 -1
outer loop
vertex 112.14836659999999 -116.68429088703091 1
vertex 144.14836877021577 -116.68428522540914 1
vertex 154.57808297596412 -116.68429088703091 1
endloop
endfacet
facet normal 0 0 -1
outer loop
vertex 112.14836659999999 -116.68429088703091 1
vertex 154.57808297596412 -116.68429088703091 1
vertex 154.57816996018428 -116.68428327810318 1
endloop
endfacet
facet normal 0 0 -1
outer loop
vertex 112.14836659999999 -116.68429088703091 1
vertex 154.57816996018428 -116.68428327810318 1
vertex 92.5987677438393 -116.68428327810318 1
endloop
endfacet
facet normal 0 0 -1
outer loop
vertex 112.14836659999999 -116.68429088703091 1
vertex 92.5987677438393 -116.68428327810318 1
vertex 92.59890950000008 -116.68429485 1
endloop
endfacet
facet normal 0 0 1
outer loop
vertex 154.57816996018428 -116.68428327810318 1
vertex 154.57808297596412 -116.68429088703091 1
vertex 165.95030189999991 -116.68429088703091 1
endloop
endfacet
facet normal 0 0 1
outer loop
vertex 154.57816996018428 -116.68428327810318 1
vertex 165.95030189999991 -116.68429088703091 1
vertex 206.82874414359821 -116.68429232499498 1
endloop
endfacet
facet normal 0 0 1
outer loop
vertex 154.57816996018428 -116.68428327810318 1
vertex 206.82874414359821 -116.68429232499498 1
vertex 206.82874855606272 -116.68428327810318 1
endloop
endfacet
facet normal 0 0 1
outer loop
vertex 154.57816996018428 -116.68428327810318 1
vertex 206.82874855606272 -116.68428327810318 1
vertex 208.58218510000012 -113.08920599999973 1
endloop
endfacet
facet normal 0 0 1
outer loop
vertex 154.57816996018428 -116.68428327810318 1
vertex 208.58218510000012 -113.08920599999973 1
vertex 208.64464939336955 -112.92646988111572 1
endloop
endfacet
facet normal 0 0 1
outer loop
vertex 154.57816996018428 -116.68428327810318 1
vertex 208.64464939336955 -112.92646988111572 1
vertex 208.6779090728862 -112.7553618210461 1
endloop
endfacet
facet normal 0 0 1
outer loop
vertex 154.57816996018428 -116.68428327810318 1
vertex 208.6779090728862 -112.7553618210461 1
vertex 208.6809510206436 -112.58107779694693 1
endloop
endfacet
facet normal 0 0 1
outer loop
vertex 154.57816996018428 -116.68428327810318 1
vertex 208.6809510206436 -112.58107779694693 1
vertex 208.65368280957026 -112.40891328501942 1
endloop
endfacet
facet normal 0 0 1
outer loop
vertex 154.57816996018428 -116.68428327810318 1
vertex 208.65368280957026 -112.40891328501942 1
vertex 208.5969329617499 -112.24409936183736 1
endloop
endfacet
facet normal 0 0 1
outer loop
vertex 154.57816996018428 -116.68428327810318 1
vertex 208.5969329617499 -112.24409936183736 1
vertex 208.5124257744613 -112.09164376240236 1
endloop
endfacet
facet normal 0 0 1
outer loop
vertex 154.57816996018428 -116.68428327810318 1
vertex 208.5124257744613 -112.09164376240236 1
vertex 208.40272892883047 -111.95617872425274 1
endloop
endfacet
facet normal 0 0 1
outer loop
vertex 154.57816996018428 -116.68428327810318 1
vertex 208.40272892883047 -111.95617872425274 1
vertex 208.27117547295666 -111.84182024074556 1
endloop
endfacet
facet normal 0 0 1
outer loop
vertex 154.57816996018428 -116.68428327810318 1
vertex 208.27117547295666 -111.84182024074556 1
vertex 208.12176255000003 -111.75204300000001 1
endloop
endfacet
facet normal 0 0 1
outer loop
vertex 154.57816996018428 -116.68428327810318 1
vertex 208.12176255000003 -111.75204300000001 1
vertex 202.4483666 -108.984941 1
endloop
endfacet
facet normal 0 0 1
outer loop
vertex 154.57816996018428 -116.68428327810318 1
vertex 202.4483666 -108.984941 1
vertex 90.88927252404935 -108.984941 1
endloop
endfacet
facet normal 0 0 1
outer loop
vertex 154.57816996018428 -116.68428327810318 1
vertex 90.88927252404935 -108.984941 1
vertex 91.604389 -115.78881969999999 1
endloop
endfacet
facet normal 0 0 1
outer loop
vertex 154.57816996018428 -116.68428327810318 1
vertex 91.604389 -115.78881969999999 1
vertex 91.63450646267833 -115.94872141853824 1
endloop
endfacet
facet normal 0 0 1
outer loop
vertex 154.57816996018428 -116.68428327810318 1
vertex 91.63450646267833 -115.94872141853824 1
vertex 91.69015813535502 -116.10162672724543 1
endloop
endfacet
facet normal 0 0 1
outer loop
vertex 154.57816996018428 -116.68428327810318 1
vertex 91.69015813535502 -116.10162672724543 1
vertex 91.76987102078454 -116.2434822805352 1
endloop
endfacet
facet normal 0 0 1
outer loop
vertex 154.57816996018428 -116.68428327810318 1
vertex 91.76987102078454 -116.2434822805352 1
vertex 91.87153454957179 -116.37053214876471 1
endloop
endfacet
facet normal 0 0 1
outer loop
vertex 154.57816996018428 -116.68428327810318 1
vertex 91.87153454957179 -116.37053214876471 1
vertex 91.99245696201854 -116.47941241451886 1
endloop
endfacet
facet normal 0 0 1
outer loop
vertex 154.57816996018428 -116.68428327810318 1
vertex 91.99245696201854 -116.47941241451886 1
vertex 92.12943657822692 -116.567240239529 1
endloop
endfacet
facet normal 0 0 1
outer loop
vertex 154.57816996018428 -116.68428327810318 1
vertex 92.12943657822692 -116.567240239529 1
vertex 92.27884656943348 -116.63169019399186 1
endloop
endfacet
facet normal 0 0 1
outer loop
vertex 154.57816996018428 -116.68428327810318 1
vertex 92.27884656943348 -116.63169019399186 1
vertex 92.43673098606946 -116.67105582730457 1
endloop
endfacet
facet normal 0 0 1
outer loop
vertex 154.57816996018428 -116.68428327810318 1
vertex 92.43673098606946 -116.67105582730457 1
vertex 92.5987677438393 -116.68428327810318 1
endloop
endfacet
facet normal 0 0 1
outer loop
vertex 202.4483666 -108.984941 1
vertex 202.4483666 -58.68429109999992 1
vertex 202.43317605301223 -58.51064237233292 1
endloop
endfacet
facet normal 0 0 1
outer loop
vertex 202.4483666 -108.984941 1
vertex 202.43317605301223 -58.51064237233292 1
vertex 202.38806092078605 -58.34227040667457 1
endloop
endfacet
facet normal 0 0 1
outer loop
vertex 202.4483666 -108.984941 1
vertex 202.38806092078605 -58.34227040667457 1
vertex 202.31439370378445 -58.18429054999997 1
endloop
endfacet
facet normal 0 0 1
outer loop
vertex 202.4483666 -108.984941 1
vertex 202.31439370378445 -58.18429054999997 1
vertex 202.21441274311894 -58.0415029403134 1
endloop
endfacet
facet normal 0 0 1
outer loop
vertex 202.4483666 -108.984941 1
vertex 202.21441274311894 -58.0415029403134 1
vertex 202.09115590968656 -57.91824610688101 1
endloop
endfacet
facet normal 0 0 1
outer loop
vertex 202.4483666 -108.984941 1
vertex 202.09115590968656 -57.91824610688101 1
vertex 201.9483683000001 -57.8182651462156 1
endloop
endfacet
facet normal 0 0 1
outer loop
vertex 202.4483666 -108.984941 1
vertex 201.9483683000001 -57.8182651462156 1
vertex 201.7903884433257 -57.7445979292141 1
endloop
endfacet
facet normal 0 0 1
outer loop
vertex 202.4483666 -108.984941 1
vertex 201.7903884433257 -57.7445979292141 1
vertex 201.62201647766696 -57.6994827969878 1
endloop
endfacet
facet normal 0 0 1
outer loop
vertex 202.4483666 -108.984941 1
vertex 201.62201647766696 -57.6994827969878 1
vertex 201.44836829999988 -57.68429091998905 1
endloop
endfacet
facet normal 0 0 1
outer loop
vertex 202.4483666 -108.984941 1
vertex 201.44836829999988 -57.68429091998905 1
vertex 184.1483667 -57.68429091998905 1
endloop
endfacet
facet normal 0 0 1
outer loop
vertex 202.4483666 -108.984941 1
vertex 184.1483667 -57.68429091998905 1
vertex 86.45248616889096 -57.68429091998905 1
endloop
endfacet
facet normal 0 0 1
outer loop
vertex 202.4483666 -108.984941 1
vertex 86.45248616889096 -57.68429091998905 1
vertex 85.5077928 -57.78358219999999 1
endloop
endfacet
facet normal 0 0 1
outer loop
vertex 202.4483666 -108.984941 1
vertex 85.5077928 -57.78358219999999 1
vertex 90.88927252404935 -108.984941 1
endloop
endfacet
facet normal 0 0 1
outer loop
vertex 184.1483667 -57.68429091998905 1
vertex 184.1483667 -57.29583819999999 1
vertex 90.14836669999998 -57.29583819999999 1
endloop
endfacet
facet normal 0 0 1
outer loop
vertex 184.1483667 -57.68429091998905 1
vertex 90.14836669999998 -57.29583819999999 1
vertex 86.45248616889096 -57.68429091998905 1
endloop
endfacet
facet normal 0 0 1
outer loop
vertex 184.1483667 -57.29583819999999 1
vertex 184.1483667 -40.18429119999978 1
vertex 184.13317610301223 -40.010642422333035 1
endloop
endfacet
facet normal 0 0 1
outer loop
vertex 184.1483667 -57.29583819999999 1
vertex 184.13317610301223 -40.010642422333035 1
vertex 184.088060970786 -39.842270456674484 1
endloop
endfacet
facet normal 0 0 1
outer loop
vertex 184.1483667 -57.29583819999999 1
vertex 184.088060970786 -39.842270456674484 1
vertex 184.01439375378445 -39.68429059999999 1
endloop
endfacet
facet normal 0 0 1
outer loop
vertex 184.1483667 -57.29583819999999 1
vertex 184.01439375378445 -39.68429059999999 1
vertex 183.914412793119 -39.5415029903135 1
endloop
endfacet
facet normal 0 0 1
outer loop
vertex 184.1483667 -57.29583819999999 1
vertex 183.914412793119 -39.5415029903135 1
vertex 183.7911559596865 -39.418246156881004 1
endloop
endfacet
facet normal 0 0 1
outer loop
vertex 184.1483667 -57.29583819999999 1
vertex 183.7911559596865 -39.418246156881004 1
vertex 183.64836834999997 -39.31826519621554 1
endloop
endfacet
facet normal 0 0 1
outer loop
vertex 184.1483667 -57.29583819999999 1
vertex 183.64836834999997 -39.31826519621554 1
vertex 183.49038849332567 -39.24459797921409 1
endloop
endfacet
facet normal 0 0 1
outer loop
vertex 184.1483667 -57.29583819999999 1
vertex 183.49038849332567 -39.24459797921409 1
vertex 183.3220165276669 -39.199482846987785 1
endloop
endfacet
facet normal 0 0 1
outer loop
vertex 184.1483667 -57.29583819999999 1
vertex 183.3220165276669 -39.199482846987785 1
vertex 183.14836835000006 -39.184291131707994 1
endloop
endfacet
facet normal 0 0 1
outer loop
vertex 184.1483667 -57.29583819999999 1
vertex 183.14836835000006 -39.184291131707994 1
vertex 145.1483667 -39.184291131707994 1
endloop
endfacet
facet normal 0 0 1
outer loop
vertex 184.1483667 -57.29583819999999 1
vertex 145.1483667 -39.184291131707994 1
vertex 124.5472693030909 -39.184291131707994 1
endloop
endfacet
facet normal 0 0 1
outer loop
vertex 184.1483667 -57.29583819999999 1
vertex 124.5472693030909 -39.184291131707994 1
vertex 91.14836669999998 -39.184291131707994 1
endloop
endfacet
facet normal 0 0 1
outer loop
vertex 184.1483667 -57.29583819999999 1
vertex 91.14836669999998 -39.184291131707994 1
vertex 90.97472017233302 -39.199482846987785 1
endloop
endfacet
facet normal 0 0 1
outer loop
vertex 184.1483667 -57.29583819999999 1
vertex 90.97472017233302 -39.199482846987785 1
vertex 90.80634820667444 -39.24459797921409 1
endloop
endfacet
facet normal 0 0 1
outer loop
vertex 184.1483667 -57.29583819999999 1
vertex 90.80634820667444 -39.24459797921409 1
vertex 90.64836834999994 -39.31826519621554 1
endloop
endfacet
facet normal 0 0 1
outer loop
vertex 184.1483667 -57.29583819999999 1
vertex 90.64836834999994 -39.31826519621554 1
vertex 90.50558074031345 -39.418246156881004 1
endloop
endfacet
facet normal 0 0 1
outer loop
vertex 184.1483667 -57.29583819999999 1
vertex 90.50558074031345 -39.418246156881004 1
vertex 90.382323906881 -39.5415029903135 1
endloop
endfacet
facet normal 0 0 1
outer loop
vertex 184.1483667 -57.29583819999999 1
vertex 90.382323906881 -39.5415029903135 1
vertex 90.28234294621556 -39.68429059999999 1
endloop
endfacet
facet normal 0 0 1
outer loop
vertex 184.1483667 -57.29583819999999 1
vertex 90.28234294621556 -39.68429059999999 1
vertex 90.20867572921408 -39.842270456674484 1
endloop
endfacet
facet normal 0 0 1
outer loop
vertex 184.1483667 -57.29583819999999 1
vertex 90.20867572921408 -39.842270456674484 1
vertex 90.1635605969878 -40.010642422333035 1
endloop
endfacet
facet normal 0 0 1
outer loop
vertex 184.1483667 -57.29583819999999 1
vertex 90.1635605969878 -40.010642422333035 1
vertex 90.14836834999998 -40.18429119999978 1
endloop
endfacet
facet normal 0 0 1
outer loop
vertex 184.1483667 -57.29583819999999 1
vertex 90.14836834999998 -40.18429119999978 1
vertex 90.14836669999998 -57.29583819999999 1
endloop
endfacet
facet normal 0 0 1
outer loop
vertex 145.1483667 -39.184291131707994 1
vertex 145.1483667 -39.152789 1
vertex 125.1483667 -39.152789 1
endloop
endfacet
facet normal 0 0 1
outer loop
vertex 145.1483667 -39.184291131707994 1
vertex 125.1483667 -39.152789 1
vertex 124.5472693030909 -39.184291131707994 1
endloop
endfacet
facet normal 0 0 1
outer loop
vertex 145.1483667 -39.152789 1
vertex 145.1483667 -35.6842912 1
vertex 125.1483667 -35.6842912 1
endloop
endfacet
facet normal 0 0 1
outer loop
vertex 145.1483667 -39.152789 1
vertex 125.1483667 -35.6842912 1
vertex 125.1483667 -39.152789 1
endloop
endfacet
facet normal 0 0 1
outer loop
vertex 91.604389 -115.78881969999999 1
vertex 90.88927252404935 -108.984941 1
vertex 85.5077928 -57.78358219999999 1
endloop
endfacet
facet normal 0 0 1
outer loop
vertex 91.604389 -115.78881969999999 1
vertex 85.5077928 -57.78358219999999 1
vertex 85.5077928 -57.78358219999999 0
endloop
endfacet
facet normal 0 0 1
outer loop
vertex 91.604389 -115.78881969999999 1
vertex 85.5077928 -57.78358219999999 0
vertex 90.88927252404935 -108.984941 0
endloop
endfacet
facet normal 0 0 1
outer loop
vertex 91.604389 -115.78881969999999 1
vertex 90.88927252404935 -108.984941 0
vertex 91.604389 -115.78881970000003 0
endloop
endfacet
facet normal -0.9827205828750387 -0.18509526194299028 0
outer loop
vertex 91.63450646267833 -115.94872141853824 1
vertex 91.604389 -115.78881969999999 1
vertex 91.604389 -115.78881970000003 0
endloop
endfacet
facet normal -0.9827205828750387 -0.18509526194299028 0
outer loop
vertex 91.63450646267833 -115.94872141853824 1
vertex 91.604389 -115.78881970000003 0
vertex 91.6345064626783 -115.94872141853814 0
endloop
endfacet
facet normal -0.9396952049656025 -0.342013043266853 0
outer loop
vertex 91.69015813535502 -116.10162672724543 1
vertex 91.63450646267833 -115.94872141853824 1
vertex 91.6345064626783 -115.94872141853814 0
endloop
endfacet
facet normal -0.9396952049656025 -0.342013043266853 0
outer loop
vertex 91.69015813535502 -116.10162672724543 1
vertex 91.6345064626783 -115.94872141853814 0
vertex 91.69015813535506 -116.1016267272455 0
endloop
endfacet
facet normal -0.8717878035168525 -0.4898836858268112 0
outer loop
vertex 91.76987102078454 -116.2434822805352 1
vertex 91.69015813535502 -116.10162672724543 1
vertex 91.69015813535506 -116.1016267272455 0
endloop
endfacet
facet normal -0.8717878035168525 -0.4898836858268112 0
outer loop
vertex 91.76987102078454 -116.2434822805352 1
vertex 91.69015813535506 -116.1016267272455 0
vertex 91.76987102078455 -116.24348228053522 0
endloop
endfacet
facet normal -0.7807979525110847 -0.6247836084233467 0
outer loop
vertex 91.87153454957179 -116.37053214876471 1
vertex 91.76987102078454 -116.2434822805352 1
vertex 91.76987102078455 -116.24348228053522 0
endloop
endfacet
facet normal -0.7807979525110847 -0.6247836084233467 0
outer loop
vertex 91.87153454957179 -116.37053214876471 1
vertex 91.76987102078455 -116.24348228053522 0
vertex 91.87153454957183 -116.37053214876477 0
endloop
endfacet
facet normal -0.6691348031632364 -0.7431410466363011 0
outer loop
vertex 91.99245696201854 -116.47941241451886 1
vertex 91.87153454957179 -116.37053214876471 1
vertex 91.87153454957183 -116.37053214876477 0
endloop
endfacet
facet normal -0.6691348031632364 -0.7431410466363011 0
outer loop
vertex 91.99245696201854 -116.47941241451886 1
vertex 91.87153454957183 -116.37053214876477 0
vertex 91.99245696201847 -116.4794124145188 0
endloop
endfacet
facet normal -0.5397548765461696 -0.8418222337552206 0
outer loop
vertex 92.12943657822692 -116.567240239529 1
vertex 91.99245696201854 -116.47941241451886 1
vertex 91.99245696201847 -116.4794124145188 0
endloop
endfacet
facet normal -0.5397548765461696 -0.8418222337552206 0
outer loop
vertex 92.12943657822692 -116.567240239529 1
vertex 91.99245696201847 -116.4794124145188 0
vertex 92.1294365782269 -116.56724023952897 0
endloop
endfacet
facet normal -0.39608378336234296 -0.9182143739657818 0
outer loop
vertex 92.27884656943348 -116.63169019399186 1
vertex 92.12943657822692 -116.567240239529 1
vertex 92.1294365782269 -116.56724023952897 0
endloop
endfacet
facet normal -0.39608378336234296 -0.9182143739657818 0
outer loop
vertex 92.27884656943348 -116.63169019399186 1
vertex 92.1294365782269 -116.56724023952897 0
vertex 92.27884656943354 -116.63169019399186 0
endloop
endfacet
facet normal -0.24192552356174649 -0.9702948217162529 0
outer loop
vertex 92.43673098606946 -116.67105582730457 1
vertex 92.27884656943348 -116.63169019399186 1
vertex 92.27884656943354 -116.63169019399186 0
endloop
endfacet
facet normal -0.24192552356174649 -0.9702948217162529 0
outer loop
vertex 92.43673098606946 -116.67105582730457 1
vertex 92.27884656943354 -116.63169019399186 0
vertex 92.43673098606959 -116.67105582730458 0
endloop
endfacet
facet normal 0 0 -1
outer loop
vertex 92.59890950000008 -116.68429485 1
vertex 92.5987677438393 -116.68428327810318 1
vertex 92.43673098606946 -116.67105582730457 1
endloop
endfacet
facet normal 0 0 -1
outer loop
vertex 92.59890950000008 -116.68429485 1
vertex 92.43673098606946 -116.67105582730457 1
vertex 92.43673098606959 -116.67105582730458 0
endloop
endfacet
facet normal 0 0 -1
outer loop
vertex 92.59890950000008 -116.68429485 1
vertex 92.43673098606959 -116.67105582730458 0
vertex 92.59876774383926 -116.68428327810318 0
endloop
endfacet
facet normal 0 0 -1
outer loop
vertex 92.59890950000008 -116.68429485 1
vertex 92.59876774383926 -116.68428327810318 0
vertex 92.59890950000003 -116.68429485 0
endloop
endfacet
facet normal 1.8670596091396874e-7 -0.9999999999999827 0
outer loop
vertex 112.14836659999999 -116.68429088703091 1
vertex 92.59890950000008 -116.68429485 1
vertex 92.59890950000003 -116.68429485 0
endloop
endfacet
facet normal 1.8670596091396874e-7 -0.9999999999999827 0
outer loop
vertex 112.14836659999999 -116.68429088703091 1
vertex 92.59890950000003 -116.68429485 0
vertex 112.14836659999999 -116.68429232499498 0
endloop
endfacet
facet normal -0.9961938251273126 -0.08716572020131257 0
outer loop
vertex 112.16356054698777 -116.857938777667 1
vertex 112.14836659999999 -116.68429088703091 1
vertex 112.14836659999999 -116.68429232499498 0
endloop
endfacet
facet normal -0.9961938251273126 -0.08716572020131257 0
outer loop
vertex 112.16356054698777 -116.857938777667 1
vertex 112.14836659999999 -116.68429232499498 0
vertex 112.16356054698777 -116.85793877766709 0
endloop
endfacet
facet normal -0.9659258262890666 -0.2588190451025271 0
outer loop
vertex 112.20867567921408 -117.0263107433255 1
vertex 112.16356054698777 -116.857938777667 1
vertex 112.16356054698777 -116.85793877766709 0
endloop
endfacet
facet normal -0.9659258262890666 -0.2588190451025271 0
outer loop
vertex 112.20867567921408 -117.0263107433255 1
vertex 112.16356054698777 -116.85793877766709 0
vertex 112.20867567921411 -117.0263107433254 0
endloop
endfacet
facet normal -0.9063077870366388 -0.4226182617407234 0
outer loop
vertex 112.28234289621558 -117.18429060000015 1
vertex 112.20867567921408 -117.0263107433255 1
vertex 112.20867567921411 -117.0263107433254 0
endloop
endfacet
facet normal -0.9063077870366388 -0.4226182617407234 0
outer loop
vertex 112.28234289621558 -117.18429060000015 1
vertex 112.20867567921411 -117.0263107433254 0
vertex 112.28234289621561 -117.18429060000018 0
endloop
endfacet
facet normal -0.8191520442889759 -0.5735764363510688 0
outer loop
vertex 112.38232385688103 -117.32707820968638 1
vertex 112.28234289621558 -117.18429060000015 1
vertex 112.28234289621561 -117.18429060000018 0
endloop
endfacet
facet normal -0.8191520442889759 -0.5735764363510688 0
outer loop
vertex 112.38232385688103 -117.32707820968638 1
vertex 112.28234289621561 -117.18429060000018 0
vertex 112.38232385688099 -117.32707820968655 0
endloop
endfacet
facet normal -0.7071067811865476 -0.7071067811865476 0
outer loop
vertex 112.5055806903134 -117.45033504311898 1
vertex 112.38232385688103 -117.32707820968638 1
vertex 112.38232385688099 -117.32707820968655 0
endloop
endfacet
facet normal -0.7071067811865476 -0.7071067811865476 0
outer loop
vertex 112.5055806903134 -117.45033504311898 1
vertex 112.38232385688099 -117.32707820968655 0
vertex 112.50558069031348 -117.45033504311888 0
endloop
endfacet
facet normal -0.5735764363510616 -0.8191520442889809 0
outer loop
vertex 112.64836830000004 -117.55031600378447 1
vertex 112.5055806903134 -117.45033504311898 1
vertex 112.50558069031348 -117.45033504311888 0
endloop
endfacet
facet normal -0.5735764363510616 -0.8191520442889809 0
outer loop
vertex 112.64836830000004 -117.55031600378447 1
vertex 112.50558069031348 -117.45033504311888 0
vertex 112.6483683 -117.5503160037844 0
endloop
endfacet
facet normal -0.42261826174070183 -0.9063077870366489 0
outer loop
vertex 112.80634815667439 -117.62398322078586 1
vertex 112.64836830000004 -117.55031600378447 1
vertex 112.6483683 -117.5503160037844 0
endloop
endfacet
facet normal -0.42261826174070183 -0.9063077870366489 0
outer loop
vertex 112.80634815667439 -117.62398322078586 1
vertex 112.6483683 -117.5503160037844 0
vertex 112.80634815667439 -117.6239832207859 0
endloop
endfacet
facet normal -0.2588190451025413 -0.9659258262890629 0
outer loop
vertex 112.9747201223329 -117.6690983530122 1
vertex 112.80634815667439 -117.62398322078586 1
vertex 112.80634815667439 -117.6239832207859 0
endloop
endfacet
facet normal -0.2588190451025413 -0.9659258262890629 0
outer loop
vertex 112.9747201223329 -117.6690983530122 1
vertex 112.80634815667439 -117.6239832207859 0
vertex 112.97472012233305 -117.66909835301222 0
endloop
endfacet
facet normal -0.08715574274765463 -0.9961946980917459 0
outer loop
vertex 113.14836830000003 -117.68429059999998 1
vertex 112.9747201223329 -117.6690983530122 1
vertex 112.97472012233305 -117.66909835301222 0
endloop
endfacet
facet normal -0.08715574274765463 -0.9961946980917459 0
outer loop
vertex 113.14836830000003 -117.68429059999998 1
vertex 112.97472012233305 -117.66909835301222 0
vertex 113.14836829999985 -117.68429174494726 0
endloop
endfacet
facet normal -2.000000165480742e-8 -0.9999999999999998 0
outer loop
vertex 143.14836660000017 -117.68429059999998 1
vertex 113.14836830000003 -117.68429059999998 1
vertex 113.14836829999985 -117.68429174494726 0
endloop
endfacet
facet normal -2.000000165480742e-8 -0.9999999999999998 0
outer loop
vertex 143.14836660000017 -117.68429059999998 1
vertex 113.14836829999985 -117.68429174494726 0
vertex 143.1483666000002 -117.68429174494726 0
endloop
endfacet
facet normal 0.08715831192344586 -0.9961944733146513 0
outer loop
vertex 143.3220164776669 -117.6690983530122 1
vertex 143.14836660000017 -117.68429059999998 1
vertex 143.1483666000002 -117.68429174494726 0
endloop
endfacet
facet normal 0.08715831192344586 -0.9961944733146513 0
outer loop
vertex 143.3220164776669 -117.6690983530122 1
vertex 143.1483666000002 -117.68429174494726 0
vertex 143.32201647766686 -117.66909835301222 0
endloop
endfacet
facet normal 0.2588190451025404 -0.9659258262890631 0
outer loop
vertex 143.4903884433258 -117.62398322078586 1
vertex 143.3220164776669 -117.6690983530122 1
vertex 143.32201647766686 -117.66909835301222 0
endloop
endfacet
facet normal 0.2588190451025404 -0.9659258262890631 0
outer loop
vertex 143.4903884433258 -117.62398322078586 1
vertex 143.32201647766686 -117.66909835301222 0
vertex 143.49038844332566 -117.6239832207859 0
endloop
endfacet
facet normal 0.42261826174069467 -0.9063077870366524 0
outer loop
vertex 143.64836829999993 -117.55031600378447 1
vertex 143.4903884433258 -117.62398322078586 1
vertex 143.49038844332566 -117.6239832207859 0
endloop
endfacet
facet normal 0.42261826174069467 -0.9063077870366524 0
outer loop
vertex 143.64836829999993 -117.55031600378447 1
vertex 143.49038844332566 -117.6239832207859 0
vertex 143.64836830000004 -117.5503160037844 0
endloop
endfacet
facet normal 0.5735764363510599 -0.8191520442889821 0
outer loop
vertex 143.79115590968652 -117.45033504311898 1
vertex 143.64836829999993 -117.55031600378447 1
vertex 143.64836830000004 -117.5503160037844 0
endloop
endfacet
facet normal 0.5735764363510599 -0.8191520442889821 0
outer loop
vertex 143.79115590968652 -117.45033504311898 1
vertex 143.64836830000004 -117.5503160037844 0
vertex 143.79115590968667 -117.45033504311888 0
endloop
endfacet
facet normal 0.7071067811865476 -0.7071067811865476 0
outer loop
vertex 143.91441274311913 -117.32707820968638 1
vertex 143.79115590968652 -117.45033504311898 1
vertex 143.79115590968667 -117.45033504311888 0
endloop
endfacet
facet normal 0.7071067811865476 -0.7071067811865476 0
outer loop
vertex 143.91441274311913 -117.32707820968638 1
vertex 143.79115590968667 -117.45033504311888 0
vertex 143.914412743119 -117.32707820968655 0
endloop
endfacet
facet normal 0.8191520442889414 -0.5735764363511181 0
outer loop
vertex 144.01439370378438 -117.18429060000015 1
vertex 143.91441274311913 -117.32707820968638 1
vertex 143.914412743119 -117.32707820968655 0
endloop
endfacet
facet normal 0.8191520442889414 -0.5735764363511181 0
outer loop
vertex 144.01439370378438 -117.18429060000015 1
vertex 143.914412743119 -117.32707820968655 0
vertex 144.01439370378435 -117.18429060000018 0
endloop
endfacet
facet normal 0.9063077870366791 -0.42261826174063705 0
outer loop
vertex 144.08806092078598 -117.0263107433255 1
vertex 144.01439370378438 -117.18429060000015 1
vertex 144.01439370378435 -117.18429060000018 0
endloop
endfacet
facet normal 0.9063077870366791 -0.42261826174063705 0
outer loop
vertex 144.08806092078598 -117.0263107433255 1
vertex 144.01439370378435 -117.18429060000018 0
vertex 144.088060920786 -117.0263107433254 0
endloop
endfacet
facet normal 0.965925826289063 -0.25881904510254033 0
outer loop
vertex 144.1331760530122 -116.857938777667 1
vertex 144.08806092078598 -117.0263107433255 1
vertex 144.088060920786 -117.0263107433254 0
endloop
endfacet
facet normal 0.965925826289063 -0.25881904510254033 0
outer loop
vertex 144.1331760530122 -116.857938777667 1
vertex 144.088060920786 -117.0263107433254 0
vertex 144.1331760530122 -116.85793877766709 0
endloop
endfacet
facet normal 0.9961946980917433 -0.08715574274768298 0
outer loop
vertex 144.14836877021577 -116.68428522540914 1
vertex 144.1331760530122 -116.857938777667 1
vertex 144.1331760530122 -116.85793877766709 0
endloop
endfacet
facet normal 0.9961946980917433 -0.08715574274768298 0
outer loop
vertex 144.14836877021577 -116.68428522540914 1
vertex 144.1331760530122 -116.85793877766709 0
vertex 144.14836877021577 -116.68428522540914 0
endloop
endfacet
facet normal 0 0 -1
outer loop
vertex 165.95030189999991 -116.68429088703091 1
vertex 154.57808297596412 -116.68429088703091 1
vertex 144.14836877021577 -116.68428522540914 1
endloop
endfacet
facet normal 0 0 -1
outer loop
vertex 165.95030189999991 -116.68429088703091 1
vertex 144.14836877021577 -116.68428522540914 1
vertex 144.14836877021577 -116.68428522540914 0
endloop
endfacet
facet normal 0 0 -1
outer loop
vertex 165.95030189999991 -116.68429088703091 1
vertex 144.14836877021577 -116.68428522540914 0
vertex 154.57816994382276 -116.68428327810318 0
endloop
endfacet
facet normal 0 0 -1
outer loop
vertex 165.95030189999991 -116.68429088703091 1
vertex 154.57816994382276 -116.68428327810318 0
vertex 165.95030190000014 -116.68429232499498 0
endloop
endfacet
facet normal -0.03782855256073956 -0.999284244152363 0
outer loop
vertex 166.0258608438375 -116.68715153277832 1
vertex 165.95030189999991 -116.68429088703091 1
vertex 165.95030190000014 -116.68429232499498 0
endloop
endfacet
facet normal -0.03782855256073956 -0.999284244152363 0
outer loop
vertex 166.0258608438375 -116.68715153277832 1
vertex 165.95030190000014 -116.68429232499498 0
vertex 166.0258608438378 -116.68715153277833 0
endloop
endfacet
facet normal -0.11316538344277671 -0.9935761651681513 0
outer loop
vertex 166.10098399597092 -116.69570783738247 1
vertex 166.0258608438375 -116.68715153277832 1
vertex 166.0258608438378 -116.68715153277833 0
endloop
endfacet
facet normal -0.11316538344277671 -0.9935761651681513 0
outer loop
vertex 166.10098399597092 -116.69570783738247 1
vertex 166.0258608438378 -116.68715153277833 0
vertex 166.10098400257783 -116.69570783738244 0
endloop
endfacet
facet normal -0.187911368152214 -0.9821859893722589 0
outer loop
vertex 166.1752459500001 -116.70991560000002 1
vertex 166.10098399597092 -116.69570783738247 1
vertex 166.10098400257783 -116.69570783738244 0
endloop
endfacet
facet normal -0.187911368152214 -0.9821859893722589 0
outer loop
vertex 166.1752459500001 -116.70991560000002 1
vertex 166.10098400257783 -116.69570783738244 0
vertex 166.1752459513107 -116.70991559999999 0
endloop
endfacet
facet normal -0.22495127347525326 -0.974370014194742 -2.9485082410021803e-10
outer loop
vertex 182.7155248999994 -120.52854379999984 1
vertex 166.1752459500001 -116.70991560000002 1
vertex 166.1752459513107 -116.70991559999999 0
endloop
endfacet
facet normal -0.22495127347525326 -0.974370014194742 -2.9485082410021803e-10
outer loop
vertex 182.7155248999994 -120.52854379999984 1
vertex 166.1752459513107 -116.70991559999999 0
vertex 169.38235161406806 -117.45033504311888 0
endloop
endfacet
facet normal -0.22495127347525326 -0.974370014194742 -2.9485082410021803e-10
outer loop
vertex 182.7155248999994 -120.52854379999984 1
vertex 169.38235161406806 -117.45033504311888 0
vertex 182.71552489999917 -120.52854379999978 0
endloop
endfacet
facet normal -0.2616282134483328 -0.9651687302890793 0
outer loop
vertex 182.7885017561578 -120.54832563078303 1
vertex 182.7155248999994 -120.52854379999984 1
vertex 182.71552489999917 -120.52854379999978 0
endloop
endfacet
facet normal -0.2616282134483328 -0.9651687302890793 0
outer loop
vertex 182.7885017561578 -120.54832563078303 1
vertex 182.71552489999917 -120.52854379999978 0
vertex 182.78850175615796 -120.54832563078307 0
endloop
endfacet
facet normal -0.3338226137528866 -0.9426359119761941 0
outer loop
vertex 182.85977759305675 -120.57356706904008 1
vertex 182.7885017561578 -120.54832563078303 1
vertex 182.78850175615796 -120.54832563078307 0
endloop
endfacet
facet normal -0.3338226137528866 -0.9426359119761941 0
outer loop
vertex 182.85977759305675 -120.57356706904008 1
vertex 182.78850175615796 -120.54832563078307 0
vertex 182.85977759305686 -120.57356706904012 0
endloop
endfacet
facet normal -0.4040931990447723 -0.9147178179557685 0
outer loop
vertex 182.92894245000028 -120.60412190000014 1
vertex 182.85977759305675 -120.57356706904008 1
vertex 182.85977759305686 -120.57356706904012 0
endloop
endfacet
facet normal -0.4040931990447723 -0.9147178179557685 0
outer loop
vertex 182.92894245000028 -120.60412190000014 1
vertex 182.85977759305686 -120.57356706904012 0
vertex 182.92894244999994 -120.60412189999997 0
endloop
endfacet
facet normal -0.4383710049122629 -0.8987941154970991 0
outer loop
vertex 199.79271040000015 -128.8291278000001 1
vertex 182.92894245000028 -120.60412190000014 1
vertex 182.92894244999994 -120.60412189999997 0
endloop
endfacet
facet normal -0.4383710049122629 -0.8987941154970991 0
outer loop
vertex 199.79271040000015 -128.8291278000001 1
vertex 182.92894244999994 -120.60412189999997 0
vertex 199.79271040000006 -128.82912780000004 0
endloop
endfacet
facet normal -0.35833649505903453 -0.9335925001352606 0
outer loop
vertex 199.95544831888407 -128.8915907433695 1
vertex 199.79271040000015 -128.8291278000001 1
vertex 199.79271040000006 -128.82912780000004 0
endloop
endfacet
facet normal -0.35833649505903453 -0.9335925001352606 0
outer loop
vertex 199.95544831888407 -128.8915907433695 1
vertex 199.79271040000006 -128.82912780000004 0
vertex 199.95544831888424 -128.89159074336956 0
endloop
endfacet
facet normal -0.19080701581702883 -0.9816275682329831 0
outer loop
vertex 200.12655637895406 -128.9248504228862 1
vertex 199.95544831888407 -128.8915907433695 1
vertex 199.95544831888424 -128.89159074336956 0
endloop
endfacet
facet normal -0.19080701581702883 -0.9816275682329831 0
outer loop
vertex 200.12655637895406 -128.9248504228862 1
vertex 199.95544831888424 -128.89159074336956 0
vertex 200.12655637895398 -128.9248504228862 0
endloop
endfacet
facet normal -0.01745130988317101 -0.999847714296213 0
outer loop
vertex 200.30084040305303 -128.9278923706436 1
vertex 200.12655637895406 -128.9248504228862 1
vertex 200.12655637895398 -128.9248504228862 0
endloop
endfacet
facet normal -0.01745130988317101 -0.999847714296213 0
outer loop
vertex 200.30084040305303 -128.9278923706436 1
vertex 200.12655637895398 -128.9248504228862 0
vertex 200.30084040305314 -128.9278923706436 0
endloop
endfacet
facet normal 0.1564346396953054 -0.9876883129324757 0
outer loop
vertex 200.47300491498055 -128.90062415957027 1
vertex 200.30084040305303 -128.9278923706436 1
vertex 200.30084040305314 -128.9278923706436 0
endloop
endfacet
facet normal 0.1564346396953054 -0.9876883129324757 0
outer loop
vertex 200.47300491498055 -128.90062415957027 1
vertex 200.30084040305314 -128.9278923706436 0
vertex 200.47300491498052 -128.9006241595703 0
endloop
endfacet
facet normal 0.32556745188321684 -0.9455188175146327 0
outer loop
vertex 200.6378188381629 -128.8438743117498 1
vertex 200.47300491498055 -128.90062415957027 1
vertex 200.47300491498052 -128.9006241595703 0
endloop
endfacet
facet normal 0.32556745188321684 -0.9455188175146327 0
outer loop
vertex 200.6378188381629 -128.8438743117498 1
vertex 200.47300491498052 -128.9006241595703 0
vertex 200.6378188381628 -128.84387431174986 0
endloop
endfacet
facet normal 0.4848081658006178 -0.8746205133502419 0
outer loop
vertex 200.79027443759733 -128.75936712446153 1
vertex 200.6378188381629 -128.8438743117498 1
vertex 200.6378188381628 -128.84387431174986 0
endloop
endfacet
facet normal 0.4848081658006178 -0.8746205133502419 0
outer loop
vertex 200.79027443759733 -128.75936712446153 1
vertex 200.6378188381628 -128.84387431174986 0
vertex 200.79027443759742 -128.75936712446148 0
endloop
endfacet
facet normal 0.6293183838083327 -0.7771475868848002 0
outer loop
vertex 200.9257394757473 -128.64967027883046 1
vertex 200.79027443759733 -128.75936712446153 1
vertex 200.79027443759742 -128.75936712446148 0
endloop
endfacet
facet normal 0.6293183838083327 -0.7771475868848002 0
outer loop
vertex 200.9257394757473 -128.64967027883046 1
vertex 200.79027443759742 -128.75936712446148 0
vertex 200.92573947574738 -128.6496702788304 0
endloop
endfacet
facet normal 0.7547072822249247 -0.6560616725252801 0
outer loop
vertex 201.04009795925444 -128.51811682295667 1
vertex 200.9257394757473 -128.64967027883046 1
vertex 200.92573947574738 -128.6496702788304 0
endloop
endfacet
facet normal 0.7547072822249247 -0.6560616725252801 0
outer loop
vertex 201.04009795925444 -128.51811682295667 1
vertex 200.92573947574738 -128.6496702788304 0
vertex 201.04009795925447 -128.51811682295667 0
endloop
endfacet
facet normal 0.8571650228800237 -0.5150418658236324 0
outer loop
vertex 201.12987519999982 -128.36870390000027 1
vertex 201.04009795925444 -128.51811682295667 1
vertex 201.04009795925447 -128.51811682295667 0
endloop
endfacet
facet normal 0.8571650228800237 -0.5150418658236324 0
outer loop
vertex 201.12987519999982 -128.36870390000027 1
vertex 201.04009795925447 -128.51811682295667 0
vertex 201.12987519999982 -128.36870390000036 0
endloop
endfacet
facet normal 0 0 -1
outer loop
vertex 208.58218510000012 -113.08920599999973 1
vertex 206.82874855606272 -116.68428327810318 1
vertex 206.82874414359821 -116.68429232499498 1
endloop
endfacet
facet normal 0 0 -1
outer loop
vertex 208.58218510000012 -113.08920599999973 1
vertex 206.82874414359821 -116.68429232499498 1
vertex 206.82734961462813 -116.68715153277832 1
endloop
endfacet
facet normal 0 0 -1
outer loop
vertex 208.58218510000012 -113.08920599999973 1
vertex 206.82734961462813 -116.68715153277832 1
vertex 206.82317642556615 -116.69570783738247 1
endloop
endfacet
facet normal 0 0 -1
outer loop
vertex 208.58218510000012 -113.08920599999973 1
vertex 206.82317642556615 -116.69570783738247 1
vertex 206.81624683594845 -116.70991560000002 1
endloop
endfacet
facet normal 0 0 -1
outer loop
vertex 208.58218510000012 -113.08920599999973 1
vertex 206.81624683594845 -116.70991560000002 1
vertex 204.95377720994864 -120.52854379999984 1
endloop
endfacet
facet normal 0 0 -1
outer loop
vertex 208.58218510000012 -113.08920599999973 1
vertex 204.95377720994864 -120.52854379999984 1
vertex 204.94412896533024 -120.54832563078303 1
endloop
endfacet
facet normal 0 0 -1
outer loop
vertex 208.58218510000012 -113.08920599999973 1
vertex 204.94412896533024 -120.54832563078303 1
vertex 204.93181789192687 -120.57356706904008 1
endloop
endfacet
facet normal 0 0 -1
outer loop
vertex 208.58218510000012 -113.08920599999973 1
vertex 204.93181789192687 -120.57356706904008 1
vertex 204.91691530345528 -120.60412190000014 1
endloop
endfacet
facet normal 0 0 -1
outer loop
vertex 208.58218510000012 -113.08920599999973 1
vertex 204.91691530345528 -120.60412190000014 1
vertex 201.12987519999982 -128.36870390000027 1
endloop
endfacet
facet normal 0 0 -1
outer loop
vertex 208.58218510000012 -113.08920599999973 1
vertex 201.12987519999982 -128.36870390000027 1
vertex 201.12987519999982 -128.36870390000036 0
endloop
endfacet
facet normal 0 0 -1
outer loop
vertex 208.58218510000012 -113.08920599999973 1
vertex 201.12987519999982 -128.36870390000036 0
vertex 204.91691509008183 -120.60412189999997 0
endloop
endfacet
facet normal 0 0 -1
outer loop
vertex 208.58218510000012 -113.08920599999973 1
vertex 204.91691509008183 -120.60412189999997 0
vertex 204.93181767711695 -120.57356706904012 0
endloop
endfacet
facet normal 0 0 -1
outer loop
vertex 208.58218510000012 -113.08920599999973 1
vertex 204.93181767711695 -120.57356706904012 0
vertex 204.94412874933371 -120.54832563078307 0
endloop
endfacet
facet normal 0 0 -1
outer loop
vertex 208.58218510000012 -113.08920599999973 1
vertex 204.94412874933371 -120.54832563078307 0
vertex 204.95377699302225 -120.52854379999978 0
endloop
endfacet
facet normal 0 0 -1
outer loop
vertex 208.58218510000012 -113.08920599999973 1
vertex 204.95377699302225 -120.52854379999978 0
vertex 206.45511983515937 -117.45033504311888 0
endloop
endfacet
facet normal 0 0 -1
outer loop
vertex 208.58218510000012 -113.08920599999973 1
vertex 206.45511983515937 -117.45033504311888 0
vertex 206.8287485560627 -116.68428327810318 0
endloop
endfacet
facet normal 0 0 -1
outer loop
vertex 208.58218510000012 -113.08920599999973 1
vertex 206.8287485560627 -116.68428327810318 0
vertex 208.58218510000006 -113.0892059999999 0
endloop
endfacet
facet normal 0.9335885832140624 -0.35834669984856826 0
outer loop
vertex 208.64464939336955 -112.92646988111572 1
vertex 208.58218510000012 -113.08920599999973 1
vertex 208.58218510000006 -113.0892059999999 0
endloop
endfacet
facet normal 0.9335885832140624 -0.35834669984856826 0
outer loop
vertex 208.64464939336955 -112.92646988111572 1
vertex 208.58218510000006 -113.0892059999999 0
vertex 208.64464939336952 -112.92646988111589 0
endloop
endfacet
facet normal 0.9816275682329942 -0.19080701581697207 0
outer loop
vertex 208.6779090728862 -112.7553618210461 1
vertex 208.64464939336955 -112.92646988111572 1
vertex 208.64464939336952 -112.92646988111589 0
endloop
endfacet
facet normal 0.9816275682329942 -0.19080701581697207 0
outer loop
vertex 208.6779090728862 -112.7553618210461 1
vertex 208.64464939336952 -112.92646988111589 0
vertex 208.6779090728862 -112.75536182104608 0
endloop
endfacet
facet normal 0.999847714296213 -0.017451309883171003 0
outer loop
vertex 208.6809510206436 -112.58107779694693 1
vertex 208.6779090728862 -112.7553618210461 1
vertex 208.6779090728862 -112.75536182104608 0
endloop
endfacet
facet normal 0.999847714296213 -0.017451309883171003 0
outer loop
vertex 208.6809510206436 -112.58107779694693 1
vertex 208.6779090728862 -112.75536182104608 0
vertex 208.6809510206436 -112.58107779694689 0
endloop
endfacet
facet normal 0.9876883129324577 0.15643463969541907 0
outer loop
vertex 208.65368280957026 -112.40891328501942 1
vertex 208.6809510206436 -112.58107779694693 1
vertex 208.6809510206436 -112.58107779694689 0
endloop
endfacet
facet normal 0.9876883129324577 0.15643463969541907 0
outer loop
vertex 208.65368280957026 -112.40891328501942 1
vertex 208.6809510206436 -112.58107779694689 0
vertex 208.65368280957026 -112.40891328501941 0
endloop
endfacet
facet normal 0.9455188175146721 0.3255674518831021 0
outer loop
vertex 208.5969329617499 -112.24409936183736 1
vertex 208.65368280957026 -112.40891328501942 1
vertex 208.65368280957026 -112.40891328501941 0
endloop
endfacet
facet normal 0.9455188175146721 0.3255674518831021 0
outer loop
vertex 208.5969329617499 -112.24409936183736 1
vertex 208.65368280957026 -112.40891328501941 0
vertex 208.5969329617499 -112.24409936183736 0
endloop
endfacet
facet normal 0.8746205133501957 0.48480816580070113 0
outer loop
vertex 208.5124257744613 -112.09164376240236 1
vertex 208.5969329617499 -112.24409936183736 1
vertex 208.5969329617499 -112.24409936183736 0
endloop
endfacet
facet normal 0.8746205133501957 0.48480816580070113 0
outer loop
vertex 208.5124257744613 -112.09164376240236 1
vertex 208.5969329617499 -112.24409936183736 0
vertex 208.51242577446135 -112.09164376240243 0
endloop
endfacet
facet normal 0.7771475868847499 0.6293183838083948 0
outer loop
vertex 208.40272892883047 -111.95617872425274 1
vertex 208.5124257744613 -112.09164376240236 1
vertex 208.51242577446135 -112.09164376240243 0
endloop
endfacet
facet normal 0.7771475868847499 0.6293183838083948 0
outer loop
vertex 208.40272892883047 -111.95617872425274 1
vertex 208.51242577446135 -112.09164376240243 0
vertex 208.40272892883044 -111.95617872425271 0
endloop
endfacet
facet normal 0.6560616725254093 0.7547072822248123 0
outer loop
vertex 208.27117547295666 -111.84182024074556 1
vertex 208.40272892883047 -111.95617872425274 1
vertex 208.40272892883044 -111.95617872425271 0
endloop
endfacet
facet normal 0.6560616725254093 0.7547072822248123 0
outer loop
vertex 208.27117547295666 -111.84182024074556 1
vertex 208.40272892883044 -111.95617872425271 0
vertex 208.27117547295668 -111.84182024074556 0
endloop
endfacet
facet normal 0.5150418658236227 0.8571650228800296 0
outer loop
vertex 208.12176255000003 -111.75204300000001 1
vertex 208.27117547295666 -111.84182024074556 1
vertex 208.27117547295668 -111.84182024074556 0
endloop
endfacet
facet normal 0.5150418658236227 0.8571650228800296 0
outer loop
vertex 208.12176255000003 -111.75204300000001 1
vertex 208.27117547295668 -111.84182024074556 0
vertex 208.12176254999997 -111.75204299999999 0
endloop
endfacet
facet normal 0.43837139088873683 0.8987939272437672 0
outer loop
vertex 202.4483666 -108.984941 1
vertex 208.12176255000003 -111.75204300000001 1
vertex 208.12176254999997 -111.75204299999999 0
endloop
endfacet
facet normal 0.43837139088873683 0.8987939272437672 0
outer loop
vertex 202.4483666 -108.984941 1
vertex 208.12176254999997 -111.75204299999999 0
vertex 202.4483666 -108.984941 0
endloop
endfacet
facet normal 1 0 0
outer loop
vertex 202.4483666 -58.68429109999977 0
vertex 202.4483666 -58.68429109999992 1
vertex 202.4483666 -108.984941 1
endloop
endfacet
facet normal 1 0 0
outer loop
vertex 202.4483666 -58.68429109999977 0
vertex 202.4483666 -108.984941 1
vertex 202.4483666 -108.984941 0
endloop
endfacet
facet normal 0.9961955687733615 0.08714579023865088 0
outer loop
vertex 202.43317605301223 -58.51064237233292 1
vertex 202.4483666 -58.68429109999992 1
vertex 202.4483666 -58.68429109999977 0
endloop
endfacet
facet normal 0.9961955687733615 0.08714579023865088 0
outer loop
vertex 202.43317605301223 -58.51064237233292 1
vertex 202.4483666 -58.68429109999977 0
vertex 202.43317605301226 -58.51064237233321 0
endloop
endfacet
facet normal 0.9659258262890631 0.2588190451025404 0
outer loop
vertex 202.38806092078605 -58.34227040667457 1
vertex 202.43317605301223 -58.51064237233292 1
vertex 202.43317605301226 -58.51064237233321 0
endloop
endfacet
facet normal 0.9659258262890631 0.2588190451025404 0
outer loop
vertex 202.38806092078605 -58.34227040667457 1
vertex 202.43317605301226 -58.51064237233321 0
vertex 202.38806092078593 -58.34227040667433 0
endloop
endfacet
facet normal 0.9063077870366791 0.42261826174063705 0
outer loop
vertex 202.31439370378445 -58.18429054999997 1
vertex 202.38806092078605 -58.34227040667457 1
vertex 202.38806092078593 -58.34227040667433 0
endloop
endfacet
facet normal 0.9063077870366791 0.42261826174063705 0
outer loop
vertex 202.31439370378445 -58.18429054999997 1
vertex 202.38806092078593 -58.34227040667433 0
vertex 202.3143937037845 -58.184290550000064 0
endloop
endfacet
facet normal 0.8191520442889415 0.5735764363511181 0
outer loop
vertex 202.21441274311894 -58.0415029403134 1
vertex 202.31439370378445 -58.18429054999997 1
vertex 202.3143937037845 -58.184290550000064 0
endloop
endfacet
facet normal 0.8191520442889415 0.5735764363511181 0
outer loop
vertex 202.21441274311894 -58.0415029403134 1
vertex 202.3143937037845 -58.184290550000064 0
vertex 202.21441274311894 -58.041502940313386 0
endloop
endfacet
facet normal 0.7071067811865547 0.7071067811865405 0
outer loop
vertex 202.09115590968656 -57.91824610688101 1
vertex 202.21441274311894 -58.0415029403134 1
vertex 202.21441274311894 -58.041502940313386 0
endloop
endfacet
facet normal 0.7071067811865547 0.7071067811865405 0
outer loop
vertex 202.09115590968656 -57.91824610688101 1
vertex 202.21441274311894 -58.041502940313386 0
vertex 202.09115590968662 -57.91824610688107 0
endloop
endfacet
facet normal 0.5735764363510599 0.819152044288982 0
outer loop
vertex 201.9483683000001 -57.8182651462156 1
vertex 202.09115590968656 -57.91824610688101 1
vertex 202.09115590968662 -57.91824610688107 0
endloop
endfacet
facet normal 0.5735764363510599 0.819152044288982 0
outer loop
vertex 201.9483683000001 -57.8182651462156 1
vertex 202.09115590968662 -57.91824610688107 0
vertex 201.9483683 -57.818265146215545 0
endloop
endfacet
facet normal 0.4226182617406881 0.9063077870366553 0
outer loop
vertex 201.7903884433257 -57.7445979292141 1
vertex 201.9483683000001 -57.8182651462156 1
vertex 201.9483683 -57.818265146215545 0
endloop
endfacet
facet normal 0.4226182617406881 0.9063077870366553 0
outer loop
vertex 201.7903884433257 -57.7445979292141 1
vertex 201.9483683 -57.818265146215545 0
vertex 201.79038844332572 -57.7445979292141 0
endloop
endfacet
facet normal 0.25881904510252696 0.9659258262890666 0
outer loop
vertex 201.62201647766696 -57.6994827969878 1
vertex 201.7903884433257 -57.7445979292141 1
vertex 201.79038844332572 -57.7445979292141 0
endloop
endfacet
facet normal 0.25881904510252696 0.9659258262890666 0
outer loop
vertex 201.62201647766696 -57.6994827969878 1
vertex 201.79038844332572 -57.7445979292141 0
vertex 201.622016477667 -57.6994827969878 0
endloop
endfacet
facet normal 0.08715574274766878 0.9961946980917448 0
outer loop
vertex 201.44836829999988 -57.68429091998905 1
vertex 201.62201647766696 -57.6994827969878 1
vertex 201.622016477667 -57.6994827969878 0
endloop
endfacet
facet normal 0.08715574274766878 0.9961946980917448 0
outer loop
vertex 201.44836829999988 -57.68429091998905 1
vertex 201.622016477667 -57.6994827969878 0
vertex 201.4483682999999 -57.68429059648689 0
endloop
endfacet
facet normal -3.179190599666981e-8 0.9999999999999994 0
outer loop
vertex 184.1483667 -57.68429091998905 1
vertex 201.44836829999988 -57.68429091998905 1
vertex 201.4483682999999 -57.68429059648689 0
endloop
endfacet
facet normal -3.179190599666981e-8 0.9999999999999994 0
outer loop
vertex 184.1483667 -57.68429091998905 1
vertex 201.4483682999999 -57.68429059648689 0
vertex 184.1483667 -57.68429059648689 0
endloop
endfacet
facet normal 1 0 0
outer loop
vertex 184.1483667 -57.2958382 0
vertex 184.1483667 -40.184291200000075 0
vertex 184.1483667 -40.18429119999978 1
endloop
endfacet
facet normal 1 0 0
outer loop
vertex 184.1483667 -57.2958382 0
vertex 184.1483667 -40.18429119999978 1
vertex 184.1483667 -57.29583819999999 1
endloop
endfacet
facet normal 1 0 0
outer loop
vertex 184.1483667 -57.2958382 0
vertex 184.1483667 -57.29583819999999 1
vertex 184.1483667 -57.68429091998905 1
endloop
endfacet
facet normal 1 0 0
outer loop
vertex 184.1483667 -57.2958382 0
vertex 184.1483667 -57.68429091998905 1
vertex 184.1483667 -57.68429059648689 0
endloop
endfacet
facet normal 0.9961955460497316 0.08714605000042751 0
outer loop
vertex 184.13317610301223 -40.010642422333035 1
vertex 184.1483667 -40.18429119999978 1
vertex 184.1483667 -40.184291200000075 0
endloop
endfacet
facet normal 0.9961955460497316 0.08714605000042751 0
outer loop
vertex 184.13317610301223 -40.010642422333035 1
vertex 184.1483667 -40.184291200000075 0
vertex 184.13317610301218 -40.01064242233291 0
endloop
endfacet
facet normal 0.9659258262890627 0.25881904510254217 0
outer loop
vertex 184.088060970786 -39.842270456674484 1
vertex 184.13317610301223 -40.010642422333035 1
vertex 184.13317610301218 -40.01064242233291 0
endloop
endfacet
facet normal 0.9659258262890627 0.25881904510254217 0
outer loop
vertex 184.088060970786 -39.842270456674484 1
vertex 184.13317610301218 -40.01064242233291 0
vertex 184.08806097078593 -39.84227045667434 0
endloop
endfacet
facet normal 0.9063077870366791 0.42261826174063705 0
outer loop
vertex 184.01439375378445 -39.68429059999999 1
vertex 184.088060970786 -39.842270456674484 1
vertex 184.08806097078593 -39.84227045667434 0
endloop
endfacet
facet normal 0.9063077870366791 0.42261826174063705 0
outer loop
vertex 184.01439375378445 -39.68429059999999 1
vertex 184.08806097078593 -39.84227045667434 0
vertex 184.01439375378447 -39.6842906 0
endloop
endfacet
facet normal 0.8191520442889301 0.5735764363511343 0
outer loop
vertex 183.914412793119 -39.5415029903135 1
vertex 184.01439375378445 -39.68429059999999 1
vertex 184.01439375378447 -39.6842906 0
endloop
endfacet
facet normal 0.8191520442889301 0.5735764363511343 0
outer loop
vertex 183.914412793119 -39.5415029903135 1
vertex 184.01439375378447 -39.6842906 0
vertex 183.91441279311903 -39.54150299031352 0
endloop
endfacet
facet normal 0.7071067811865688 0.7071067811865261 0
outer loop
vertex 183.7911559596865 -39.418246156881004 1
vertex 183.914412793119 -39.5415029903135 1
vertex 183.91441279311903 -39.54150299031352 0
endloop
endfacet
facet normal 0.7071067811865688 0.7071067811865261 0
outer loop
vertex 183.7911559596865 -39.418246156881004 1
vertex 183.91441279311903 -39.54150299031352 0
vertex 183.79115595968653 -39.41824615688103 0
endloop
endfacet
facet normal 0.5735764363510599 0.819152044288982 0
outer loop
vertex 183.64836834999997 -39.31826519621554 1
vertex 183.7911559596865 -39.418246156881004 1
vertex 183.79115595968653 -39.41824615688103 0
endloop
endfacet
facet normal 0.5735764363510599 0.819152044288982 0
outer loop
vertex 183.64836834999997 -39.31826519621554 1
vertex 183.79115595968653 -39.41824615688103 0
vertex 183.64836835 -39.31826519621556 0
endloop
endfacet
facet normal 0.4226182617406731 0.9063077870366624 0
outer loop
vertex 183.49038849332567 -39.24459797921409 1
vertex 183.64836834999997 -39.31826519621554 1
vertex 183.64836835 -39.31826519621556 0
endloop
endfacet
facet normal 0.4226182617406731 0.9063077870366624 0
outer loop
vertex 183.49038849332567 -39.24459797921409 1
vertex 183.64836835 -39.31826519621556 0
vertex 183.4903884933257 -39.2445979792141 0
endloop
endfacet
facet normal 0.2588190451025269 0.9659258262890666 0
outer loop
vertex 183.3220165276669 -39.199482846987785 1
vertex 183.49038849332567 -39.24459797921409 1
vertex 183.4903884933257 -39.2445979792141 0
endloop
endfacet
facet normal 0.2588190451025269 0.9659258262890666 0
outer loop
vertex 183.3220165276669 -39.199482846987785 1
vertex 183.4903884933257 -39.2445979792141 0
vertex 183.32201652766688 -39.199482846987785 0
endloop
endfacet
facet normal 0.0871557427476759 0.996194698091744 0
outer loop
vertex 183.14836835000006 -39.184291131707994 1
vertex 183.3220165276669 -39.199482846987785 1
vertex 183.32201652766688 -39.199482846987785 0
endloop
endfacet
facet normal 0.0871557427476759 0.996194698091744 0
outer loop
vertex 183.14836835000006 -39.184291131707994 1
vertex 183.32201652766688 -39.199482846987785 0
vertex 183.14836835000003 -39.18429083761562 0
endloop
endfacet
facet normal -1.5789474616667576e-8 1 0
outer loop
vertex 91.14836669999998 -39.184291131707994 1
vertex 124.5472693030909 -39.184291131707994 1
vertex 124.54727491471621 -39.18429083761562 0
endloop
endfacet
facet normal -1.5789474616667576e-8 1 0
outer loop
vertex 91.14836669999998 -39.184291131707994 1
vertex 124.54727491471621 -39.18429083761562 0
vertex 91.1483667 -39.18429083761562 0
endloop
endfacet
facet normal -1.5789474616667576e-8 1 0
outer loop
vertex 145.1483667 -39.184291131707994 1
vertex 183.14836835000006 -39.184291131707994 1
vertex 183.14836835000003 -39.18429083761562 0
endloop
endfacet
facet normal -1.5789474616667576e-8 1 0
outer loop
vertex 145.1483667 -39.184291131707994 1
vertex 183.14836835000003 -39.18429083761562 0
vertex 145.1483667 -39.18429083761562 0
endloop
endfacet
facet normal 1 0 0
outer loop
vertex 145.1483667 -39.152789 0
vertex 145.1483667 -35.6842912 0
vertex 145.1483667 -35.6842912 1
endloop
endfacet
facet normal 1 0 0
outer loop
vertex 145.1483667 -39.152789 0
vertex 145.1483667 -35.6842912 1
vertex 145.1483667 -39.152789 1
endloop
endfacet
facet normal 1 0 0
outer loop
vertex 145.1483667 -39.152789 0
vertex 145.1483667 -39.152789 1
vertex 145.1483667 -39.184291131707994 1
endloop
endfacet
facet normal 1 0 0
outer loop
vertex 145.1483667 -39.152789 0
vertex 145.1483667 -39.184291131707994 1
vertex 145.1483667 -39.18429083761562 0
endloop
endfacet
facet normal 0 1 0
outer loop
vertex 145.1483667 -35.6842912 1
vertex 145.1483667 -35.6842912 0
vertex 125.1483667 -35.6842912 0
endloop
endfacet
facet normal 0 1 0
outer loop
vertex 145.1483667 -35.6842912 1
vertex 125.1483667 -35.6842912 0
vertex 125.1483667 -35.6842912 1
endloop
endfacet
facet normal -1 0 0
outer loop
vertex 125.1483667 -35.6842912 1
vertex 125.1483667 -35.6842912 0
vertex 125.1483667 -39.152789 0
endloop
endfacet
facet normal -1 0 0
outer loop
vertex 125.1483667 -35.6842912 1
vertex 125.1483667 -39.152789 0
vertex 125.1483667 -39.152789 1
endloop
endfacet
facet normal -0.05233587672212535 0.9986295389220803 0
outer loop
vertex 124.5472693030909 -39.184291131707994 1
vertex 125.1483667 -39.152789 1
vertex 125.1483667 -39.152789 0
endloop
endfacet
facet normal -0.05233587672212535 0.9986295389220803 0
outer loop
vertex 124.5472693030909 -39.184291131707994 1
vertex 125.1483667 -39.152789 0
vertex 124.54727491471621 -39.18429083761562 0
endloop
endfacet
facet normal -0.0871531486155135 0.9961949250454964 0
outer loop
vertex 90.97472017233302 -39.199482846987785 1
vertex 91.14836669999998 -39.184291131707994 1
vertex 91.1483667 -39.18429083761562 0
endloop
endfacet
facet normal -0.0871531486155135 0.9961949250454964 0
outer loop
vertex 90.97472017233302 -39.199482846987785 1
vertex 91.1483667 -39.18429083761562 0
vertex 90.97472017233302 -39.199482846987785 0
endloop
endfacet
facet normal -0.2588190451025267 0.9659258262890666 0
outer loop
vertex 90.80634820667444 -39.24459797921409 1
vertex 90.97472017233302 -39.199482846987785 1
vertex 90.97472017233302 -39.199482846987785 0
endloop
endfacet
facet normal -0.2588190451025267 0.9659258262890666 0
outer loop
vertex 90.80634820667444 -39.24459797921409 1
vertex 90.97472017233302 -39.199482846987785 0
vertex 90.80634820667441 -39.2445979792141 0
endloop
endfacet
facet normal -0.42261826174068157 0.9063077870366583 0
outer loop
vertex 90.64836834999994 -39.31826519621554 1
vertex 90.80634820667444 -39.24459797921409 1
vertex 90.80634820667441 -39.2445979792141 0
endloop
endfacet
facet normal -0.42261826174068157 0.9063077870366583 0
outer loop
vertex 90.64836834999994 -39.31826519621554 1
vertex 90.80634820667441 -39.2445979792141 0
vertex 90.6483683499999 -39.31826519621556 0
endloop
endfacet
facet normal -0.5735764363510599 0.819152044288982 0
outer loop
vertex 90.50558074031345 -39.418246156881004 1
vertex 90.64836834999994 -39.31826519621554 1
vertex 90.6483683499999 -39.31826519621556 0
endloop
endfacet
facet normal -0.5735764363510599 0.819152044288982 0
outer loop
vertex 90.50558074031345 -39.418246156881004 1
vertex 90.6483683499999 -39.31826519621556 0
vertex 90.50558074031345 -39.41824615688103 0
endloop
endfacet
facet normal -0.7071067811865689 0.7071067811865263 0
outer loop
vertex 90.382323906881 -39.5415029903135 1
vertex 90.50558074031345 -39.418246156881004 1
vertex 90.50558074031345 -39.41824615688103 0
endloop
endfacet
facet normal -0.7071067811865689 0.7071067811865263 0
outer loop
vertex 90.382323906881 -39.5415029903135 1
vertex 90.50558074031345 -39.41824615688103 0
vertex 90.38232390688104 -39.54150299031352 0
endloop
endfacet
facet normal -0.819152044288982 0.5735764363510599 0
outer loop
vertex 90.28234294621556 -39.68429059999999 1
vertex 90.382323906881 -39.5415029903135 1
vertex 90.38232390688104 -39.54150299031352 0
endloop
endfacet
facet normal -0.819152044288982 0.5735764363510599 0
outer loop
vertex 90.28234294621556 -39.68429059999999 1
vertex 90.38232390688104 -39.54150299031352 0
vertex 90.28234294621554 -39.6842906 0
endloop
endfacet
facet normal -0.9063077870366523 0.42261826174069467 0
outer loop
vertex 90.20867572921408 -39.842270456674484 1
vertex 90.28234294621556 -39.68429059999999 1
vertex 90.28234294621554 -39.6842906 0
endloop
endfacet
facet normal -0.9063077870366523 0.42261826174069467 0
outer loop
vertex 90.20867572921408 -39.842270456674484 1
vertex 90.28234294621554 -39.6842906 0
vertex 90.20867572921411 -39.84227045667434 0
endloop
endfacet
facet normal -0.9659258262890666 0.2588190451025271 0
outer loop
vertex 90.1635605969878 -40.010642422333035 1
vertex 90.20867572921408 -39.842270456674484 1
vertex 90.20867572921411 -39.84227045667434 0
endloop
endfacet
facet normal -0.9659258262890666 0.2588190451025271 0
outer loop
vertex 90.1635605969878 -40.010642422333035 1
vertex 90.20867572921411 -39.84227045667434 0
vertex 90.1635605969878 -40.01064242233291 0
endloop
endfacet
facet normal -0.9961946980917447 0.08715574274766881 0
outer loop
vertex 90.14836834999998 -40.18429119999978 1
vertex 90.1635605969878 -40.010642422333035 1
vertex 90.1635605969878 -40.01064242233291 0
endloop
endfacet
facet normal -0.9961946980917447 0.08715574274766881 0
outer loop
vertex 90.14836834999998 -40.18429119999978 1
vertex 90.1635605969878 -40.01064242233291 0
vertex 90.14836834999998 -40.184291200000075 0
endloop
endfacet
facet normal -0.9999999999999953 9.642610621085623e-8 0
outer loop
vertex 90.14836669999998 -57.29583819999999 1
vertex 90.14836834999998 -40.18429119999978 1
vertex 90.14836834999998 -40.184291200000075 0
endloop
endfacet
facet normal -0.9999999999999953 9.642610621085623e-8 0
outer loop
vertex 90.14836669999998 -57.29583819999999 1
vertex 90.14836834999998 -40.184291200000075 0
vertex 90.1483667 -57.2958382 0
endloop
endfacet
facet normal 0 0 -1
outer loop
vertex 85.5077928 -57.78358219999999 1
vertex 86.45248616889096 -57.68429091998905 1
vertex 90.14836669999998 -57.29583819999999 1
endloop
endfacet
facet normal 0 0 -1
outer loop
vertex 85.5077928 -57.78358219999999 1
vertex 90.14836669999998 -57.29583819999999 1
vertex 90.1483667 -57.2958382 0
endloop
endfacet
facet normal 0 0 -1
outer loop
vertex 85.5077928 -57.78358219999999 1
vertex 90.1483667 -57.2958382 0
vertex 86.45248924680828 -57.68429059648689 0
endloop
endfacet
facet normal 0 0 -1
outer loop
vertex 85.5077928 -57.78358219999999 1
vertex 86.45248924680828 -57.68429059648689 0
vertex 85.5077928 -57.78358219999999 0
endloop
endfacet
endsolid csg.js
